<?xml version="1.0" encoding="UTF-8" standalone="no"?>
<!DOCTYPE svg PUBLIC "-//W3C//DTD SVG 1.1//EN"
 "http://www.w3.org/Graphics/SVG/1.1/DTD/svg11.dtd">
<!-- Generated by graphviz version 2.50.0 (20211204.2007)
 -->
<!-- Title: dag Pages: 1 -->
<svg width="1177pt" height="403pt"
 viewBox="0.00 0.00 1176.52 402.96" xmlns="http://www.w3.org/2000/svg" xmlns:xlink="http://www.w3.org/1999/xlink">
<g id="graph0" class="graph" transform="scale(1 1) rotate(0) translate(4 398.96)">
<title>dag</title>
<polygon fill="white" stroke="transparent" points="-4,4 -4,-398.96 1172.52,-398.96 1172.52,4 -4,4"/>
<!-- 41820 -->
<g id="node1" class="node">
<title>41820</title>
<ellipse fill="none" stroke="red" stroke-width="2" cx="203.03" cy="-368.09" rx="78.48" ry="26.74"/>
<text text-anchor="middle" x="203.03" y="-371.89" font-family="Times,serif" font-size="14.00">sort</text>
<text text-anchor="middle" x="203.03" y="-356.89" font-family="Times,serif" font-size="14.00">16385:32768</text>
</g>
<!-- 41826 -->
<g id="node6" class="node">
<title>41826</title>
<ellipse fill="none" stroke="red" stroke-width="2" cx="203.03" cy="-278.35" rx="53.07" ry="26.74"/>
<text text-anchor="middle" x="203.03" y="-282.15" font-family="Times,serif" font-size="14.00">merge</text>
<text text-anchor="middle" x="203.03" y="-267.15" font-family="Times,serif" font-size="14.00">1:32768</text>
</g>
<!-- 41820&#45;&gt;41826 -->
<g id="edge4" class="edge">
<title>41820&#45;&gt;41826</title>
<path fill="none" stroke="red" stroke-width="2" d="M203.03,-340.77C203.03,-332.8 203.03,-323.91 203.03,-315.42"/>
<polygon fill="red" stroke="red" stroke-width="2" points="206.53,-315.35 203.03,-305.35 199.53,-315.35 206.53,-315.35"/>
</g>
<!-- 41822 -->
<g id="node2" class="node">
<title>41822</title>
<ellipse fill="none" stroke="black" stroke-width="2" cx="378.03" cy="-368.09" rx="78.48" ry="26.74"/>
<text text-anchor="middle" x="378.03" y="-371.89" font-family="Times,serif" font-size="14.00">sort</text>
<text text-anchor="middle" x="378.03" y="-356.89" font-family="Times,serif" font-size="14.00">49153:65536</text>
</g>
<!-- 41827 -->
<g id="node4" class="node">
<title>41827</title>
<ellipse fill="none" stroke="black" stroke-width="2" cx="465.03" cy="-278.35" rx="78.48" ry="26.74"/>
<text text-anchor="middle" x="465.03" y="-282.15" font-family="Times,serif" font-size="14.00">merge</text>
<text text-anchor="middle" x="465.03" y="-267.15" font-family="Times,serif" font-size="14.00">32769:65536</text>
</g>
<!-- 41822&#45;&gt;41827 -->
<g id="edge2" class="edge">
<title>41822&#45;&gt;41827</title>
<path fill="none" stroke="black" stroke-width="2" d="M402.73,-342.18C412.27,-332.56 423.31,-321.43 433.41,-311.24"/>
<polygon fill="black" stroke="black" stroke-width="2" points="436.02,-313.58 440.57,-304.02 431.05,-308.65 436.02,-313.58"/>
</g>
<!-- 41821 -->
<g id="node3" class="node">
<title>41821</title>
<ellipse fill="none" stroke="black" stroke-width="2" cx="553.03" cy="-368.09" rx="78.48" ry="26.74"/>
<text text-anchor="middle" x="553.03" y="-371.89" font-family="Times,serif" font-size="14.00">sort</text>
<text text-anchor="middle" x="553.03" y="-356.89" font-family="Times,serif" font-size="14.00">32769:49152</text>
</g>
<!-- 41821&#45;&gt;41827 -->
<g id="edge1" class="edge">
<title>41821&#45;&gt;41827</title>
<path fill="none" stroke="black" stroke-width="2" d="M528.05,-342.18C518.4,-332.56 507.24,-321.43 497.02,-311.24"/>
<polygon fill="black" stroke="black" stroke-width="2" points="499.33,-308.6 489.77,-304.02 494.38,-313.56 499.33,-308.6"/>
</g>
<!-- 41830 -->
<g id="node7" class="node">
<title>41830</title>
<ellipse fill="none" stroke="red" stroke-width="2" cx="465.03" cy="-188.61" rx="53.07" ry="26.74"/>
<text text-anchor="middle" x="465.03" y="-192.41" font-family="Times,serif" font-size="14.00">merge</text>
<text text-anchor="middle" x="465.03" y="-177.41" font-family="Times,serif" font-size="14.00">1:65536</text>
</g>
<!-- 41827&#45;&gt;41830 -->
<g id="edge5" class="edge">
<title>41827&#45;&gt;41830</title>
<path fill="none" stroke="black" stroke-width="2" d="M465.03,-251.03C465.03,-243.06 465.03,-234.17 465.03,-225.68"/>
<polygon fill="black" stroke="black" stroke-width="2" points="468.53,-225.61 465.03,-215.61 461.53,-225.61 468.53,-225.61"/>
</g>
<!-- 41819 -->
<g id="node5" class="node">
<title>41819</title>
<ellipse fill="none" stroke="black" stroke-width="2" cx="53.03" cy="-368.09" rx="53.07" ry="26.74"/>
<text text-anchor="middle" x="53.03" y="-371.89" font-family="Times,serif" font-size="14.00">sort</text>
<text text-anchor="middle" x="53.03" y="-356.89" font-family="Times,serif" font-size="14.00">1:16384</text>
</g>
<!-- 41819&#45;&gt;41826 -->
<g id="edge3" class="edge">
<title>41819&#45;&gt;41826</title>
<path fill="none" stroke="black" stroke-width="2" d="M87.07,-347.18C108.84,-334.45 137.25,-317.83 160.5,-304.23"/>
<polygon fill="black" stroke="black" stroke-width="2" points="162.27,-307.25 169.13,-299.18 158.73,-301.21 162.27,-307.25"/>
</g>
<!-- 41826&#45;&gt;41830 -->
<g id="edge6" class="edge">
<title>41826&#45;&gt;41830</title>
<path fill="none" stroke="red" stroke-width="2" d="M246.59,-262.76C291.92,-247.58 362.96,-223.79 411.64,-207.49"/>
<polygon fill="red" stroke="red" stroke-width="2" points="413,-210.73 421.37,-204.23 410.78,-204.09 413,-210.73"/>
</g>
<!-- 41832 -->
<g id="node14" class="node">
<title>41832</title>
<ellipse fill="none" stroke="red" stroke-width="2" cx="643.03" cy="-98.87" rx="59.29" ry="26.74"/>
<text text-anchor="middle" x="643.03" y="-102.67" font-family="Times,serif" font-size="14.00">merge</text>
<text text-anchor="middle" x="643.03" y="-87.67" font-family="Times,serif" font-size="14.00">1:100000</text>
</g>
<!-- 41830&#45;&gt;41832 -->
<g id="edge13" class="edge">
<title>41830&#45;&gt;41832</title>
<path fill="none" stroke="red" stroke-width="2" d="M502.35,-169.22C529.21,-155.98 565.68,-138 594.76,-123.67"/>
<polygon fill="red" stroke="red" stroke-width="2" points="596.5,-126.71 603.92,-119.15 593.4,-120.43 596.5,-126.71"/>
</g>
<!-- 41823 -->
<g id="node8" class="node">
<title>41823</title>
<ellipse fill="none" stroke="black" stroke-width="2" cx="1090.03" cy="-368.09" rx="78.48" ry="26.74"/>
<text text-anchor="middle" x="1090.03" y="-371.89" font-family="Times,serif" font-size="14.00">sort</text>
<text text-anchor="middle" x="1090.03" y="-356.89" font-family="Times,serif" font-size="14.00">65537:81920</text>
</g>
<!-- 41828 -->
<g id="node12" class="node">
<title>41828</title>
<ellipse fill="none" stroke="black" stroke-width="2" cx="915.03" cy="-278.35" rx="78.48" ry="26.74"/>
<text text-anchor="middle" x="915.03" y="-282.15" font-family="Times,serif" font-size="14.00">merge</text>
<text text-anchor="middle" x="915.03" y="-267.15" font-family="Times,serif" font-size="14.00">65537:98304</text>
</g>
<!-- 41823&#45;&gt;41828 -->
<g id="edge11" class="edge">
<title>41823&#45;&gt;41828</title>
<path fill="none" stroke="black" stroke-width="2" d="M1046.77,-345.4C1022.71,-333.33 992.58,-318.23 967.21,-305.51"/>
<polygon fill="black" stroke="black" stroke-width="2" points="968.6,-302.29 958.1,-300.94 965.47,-308.55 968.6,-302.29"/>
</g>
<!-- 41825 -->
<g id="node9" class="node">
<title>41825</title>
<ellipse fill="none" stroke="black" stroke-width="2" cx="734.03" cy="-368.09" rx="84.71" ry="26.74"/>
<text text-anchor="middle" x="734.03" y="-371.89" font-family="Times,serif" font-size="14.00">sort</text>
<text text-anchor="middle" x="734.03" y="-356.89" font-family="Times,serif" font-size="14.00">98305:100000</text>
</g>
<!-- 41829 -->
<g id="node10" class="node">
<title>41829</title>
<ellipse fill="none" stroke="black" stroke-width="2" cx="734.03" cy="-278.35" rx="84.71" ry="26.74"/>
<text text-anchor="middle" x="734.03" y="-282.15" font-family="Times,serif" font-size="14.00">copy</text>
<text text-anchor="middle" x="734.03" y="-267.15" font-family="Times,serif" font-size="14.00">98305:100000</text>
</g>
<!-- 41825&#45;&gt;41829 -->
<g id="edge7" class="edge">
<title>41825&#45;&gt;41829</title>
<path fill="none" stroke="black" stroke-width="2" d="M734.03,-340.77C734.03,-332.8 734.03,-323.91 734.03,-315.42"/>
<polygon fill="black" stroke="black" stroke-width="2" points="737.53,-315.35 734.03,-305.35 730.53,-315.35 737.53,-315.35"/>
</g>
<!-- 41831 -->
<g id="node11" class="node">
<title>41831</title>
<ellipse fill="none" stroke="black" stroke-width="2" cx="734.03" cy="-188.61" rx="84.71" ry="26.74"/>
<text text-anchor="middle" x="734.03" y="-192.41" font-family="Times,serif" font-size="14.00">merge</text>
<text text-anchor="middle" x="734.03" y="-177.41" font-family="Times,serif" font-size="14.00">65537:100000</text>
</g>
<!-- 41829&#45;&gt;41831 -->
<g id="edge8" class="edge">
<title>41829&#45;&gt;41831</title>
<path fill="none" stroke="black" stroke-width="2" d="M734.03,-251.03C734.03,-243.06 734.03,-234.17 734.03,-225.68"/>
<polygon fill="black" stroke="black" stroke-width="2" points="737.53,-225.61 734.03,-215.61 730.53,-225.61 737.53,-225.61"/>
</g>
<!-- 41831&#45;&gt;41832 -->
<g id="edge12" class="edge">
<title>41831&#45;&gt;41832</title>
<path fill="none" stroke="black" stroke-width="2" d="M708.2,-162.7C697.87,-152.74 685.86,-141.16 674.99,-130.68"/>
<polygon fill="black" stroke="black" stroke-width="2" points="677.31,-128.05 667.68,-123.63 672.45,-133.09 677.31,-128.05"/>
</g>
<!-- 41828&#45;&gt;41831 -->
<g id="edge9" class="edge">
<title>41828&#45;&gt;41831</title>
<path fill="none" stroke="black" stroke-width="2" d="M870.76,-255.89C845.85,-243.81 814.57,-228.65 788.21,-215.87"/>
<polygon fill="black" stroke="black" stroke-width="2" points="789.64,-212.67 779.11,-211.46 786.58,-218.97 789.64,-212.67"/>
</g>
<!-- 41824 -->
<g id="node13" class="node">
<title>41824</title>
<ellipse fill="none" stroke="black" stroke-width="2" cx="915.03" cy="-368.09" rx="78.48" ry="26.74"/>
<text text-anchor="middle" x="915.03" y="-371.89" font-family="Times,serif" font-size="14.00">sort</text>
<text text-anchor="middle" x="915.03" y="-356.89" font-family="Times,serif" font-size="14.00">81921:98304</text>
</g>
<!-- 41824&#45;&gt;41828 -->
<g id="edge10" class="edge">
<title>41824&#45;&gt;41828</title>
<path fill="none" stroke="black" stroke-width="2" d="M915.03,-340.77C915.03,-332.8 915.03,-323.91 915.03,-315.42"/>
<polygon fill="black" stroke="black" stroke-width="2" points="918.53,-315.35 915.03,-305.35 911.53,-315.35 918.53,-315.35"/>
</g>
<!-- 41833 -->
<g id="node15" class="node">
<title>41833</title>
<ellipse fill="none" stroke="red" stroke-width="2" cx="643.03" cy="-18" rx="38.19" ry="18"/>
<text text-anchor="middle" x="643.03" y="-14.3" font-family="Times,serif" font-size="14.00">result</text>
</g>
<!-- 41832&#45;&gt;41833 -->
<g id="edge14" class="edge">
<title>41832&#45;&gt;41833</title>
<path fill="none" stroke="red" stroke-width="2" d="M643.03,-71.61C643.03,-63.51 643.03,-54.57 643.03,-46.39"/>
<polygon fill="red" stroke="red" stroke-width="2" points="646.53,-46.22 643.03,-36.22 639.53,-46.22 646.53,-46.22"/>
</g>
</g>
</svg>
