<?xml version="1.0" encoding="UTF-8" standalone="no"?>
<!DOCTYPE svg PUBLIC "-//W3C//DTD SVG 1.1//EN"
 "http://www.w3.org/Graphics/SVG/1.1/DTD/svg11.dtd">
<!-- Generated by graphviz version 2.50.0 (20211204.2007)
 -->
<!-- Title: dag Pages: 1 -->
<svg width="664pt" height="764pt"
 viewBox="0.00 0.00 664.19 764.00" xmlns="http://www.w3.org/2000/svg" xmlns:xlink="http://www.w3.org/1999/xlink">
<g id="graph0" class="graph" transform="scale(1 1) rotate(0) translate(4 760)">
<title>dag</title>
<polygon fill="white" stroke="transparent" points="-4,4 -4,-760 660.19,-760 660.19,4 -4,4"/>
<!-- 24018 -->
<g id="node1" class="node">
<title>24018</title>
<ellipse fill="none" stroke="red" stroke-width="2" cx="382.09" cy="-738" rx="53.89" ry="18"/>
<text text-anchor="middle" x="382.09" y="-734.3" font-family="Times,serif" font-size="14.00">chol (1,1)</text>
</g>
<!-- 24020 -->
<g id="node2" class="node">
<title>24020</title>
<ellipse fill="none" stroke="black" stroke-width="2" cx="551.09" cy="-594" rx="51.99" ry="18"/>
<text text-anchor="middle" x="551.09" y="-590.3" font-family="Times,serif" font-size="14.00">ldiv (1,3)</text>
</g>
<!-- 24018&#45;&gt;24020 -->
<g id="edge1" class="edge">
<title>24018&#45;&gt;24020</title>
<path fill="none" stroke="black" stroke-width="2" d="M401.15,-720.99C431.28,-695.67 490.01,-646.33 524.35,-617.48"/>
<polygon fill="black" stroke="black" stroke-width="2" points="526.7,-620.07 532.11,-610.95 522.2,-614.71 526.7,-620.07"/>
</g>
<!-- 24019 -->
<g id="node8" class="node">
<title>24019</title>
<ellipse fill="none" stroke="red" stroke-width="2" cx="382.09" cy="-666" rx="51.99" ry="18"/>
<text text-anchor="middle" x="382.09" y="-662.3" font-family="Times,serif" font-size="14.00">ldiv (1,2)</text>
</g>
<!-- 24018&#45;&gt;24019 -->
<g id="edge6" class="edge">
<title>24018&#45;&gt;24019</title>
<path fill="none" stroke="red" stroke-width="2" d="M382.09,-719.7C382.09,-711.98 382.09,-702.71 382.09,-694.11"/>
<polygon fill="red" stroke="red" stroke-width="2" points="385.59,-694.1 382.09,-684.1 378.59,-694.1 385.59,-694.1"/>
</g>
<!-- 24021 -->
<g id="node9" class="node">
<title>24021</title>
<ellipse fill="none" stroke="black" stroke-width="2" cx="162.09" cy="-594" rx="51.99" ry="18"/>
<text text-anchor="middle" x="162.09" y="-590.3" font-family="Times,serif" font-size="14.00">ldiv (1,4)</text>
</g>
<!-- 24018&#45;&gt;24021 -->
<g id="edge9" class="edge">
<title>24018&#45;&gt;24021</title>
<path fill="none" stroke="black" stroke-width="2" d="M358.55,-721.8C318.85,-696.18 238.57,-644.36 193.91,-615.53"/>
<polygon fill="black" stroke="black" stroke-width="2" points="195.77,-612.57 185.47,-610.09 191.97,-618.45 195.77,-612.57"/>
</g>
<!-- 24025 -->
<g id="node3" class="node">
<title>24025</title>
<ellipse fill="none" stroke="black" stroke-width="2" cx="595.09" cy="-450" rx="61.19" ry="18"/>
<text text-anchor="middle" x="595.09" y="-446.3" font-family="Times,serif" font-size="14.00">schur (3,3)</text>
</g>
<!-- 24020&#45;&gt;24025 -->
<g id="edge2" class="edge">
<title>24020&#45;&gt;24025</title>
<path fill="none" stroke="black" stroke-width="2" d="M580.66,-578.97C595.72,-570.1 612.61,-557.06 621.09,-540 631.21,-519.65 622.27,-494.69 612.21,-476.38"/>
<polygon fill="black" stroke="black" stroke-width="2" points="615.19,-474.56 607.1,-467.73 609.17,-478.12 615.19,-474.56"/>
</g>
<!-- 24023 -->
<g id="node10" class="node">
<title>24023</title>
<ellipse fill="none" stroke="black" stroke-width="2" cx="551.09" cy="-522" rx="61.19" ry="18"/>
<text text-anchor="middle" x="551.09" y="-518.3" font-family="Times,serif" font-size="14.00">schur (2,3)</text>
</g>
<!-- 24020&#45;&gt;24023 -->
<g id="edge10" class="edge">
<title>24020&#45;&gt;24023</title>
<path fill="none" stroke="black" stroke-width="2" d="M551.09,-575.7C551.09,-567.98 551.09,-558.71 551.09,-550.11"/>
<polygon fill="black" stroke="black" stroke-width="2" points="554.59,-550.1 551.09,-540.1 547.59,-550.1 554.59,-550.1"/>
</g>
<!-- 24026 -->
<g id="node11" class="node">
<title>24026</title>
<ellipse fill="none" stroke="black" stroke-width="2" cx="285.09" cy="-522" rx="61.19" ry="18"/>
<text text-anchor="middle" x="285.09" y="-518.3" font-family="Times,serif" font-size="14.00">schur (3,4)</text>
</g>
<!-- 24020&#45;&gt;24026 -->
<g id="edge13" class="edge">
<title>24020&#45;&gt;24026</title>
<path fill="none" stroke="black" stroke-width="2" d="M510.98,-582.44C465.13,-570.38 389.85,-550.57 338.93,-537.17"/>
<polygon fill="black" stroke="black" stroke-width="2" points="339.64,-533.74 329.08,-534.58 337.86,-540.51 339.64,-533.74"/>
</g>
<!-- 24031 -->
<g id="node13" class="node">
<title>24031</title>
<ellipse fill="none" stroke="red" stroke-width="2" cx="425.09" cy="-378" rx="61.19" ry="18"/>
<text text-anchor="middle" x="425.09" y="-374.3" font-family="Times,serif" font-size="14.00">schur (3,3)</text>
</g>
<!-- 24025&#45;&gt;24031 -->
<g id="edge16" class="edge">
<title>24025&#45;&gt;24031</title>
<path fill="none" stroke="black" stroke-width="2" d="M561.1,-435C534.46,-424.03 497.22,-408.7 468.44,-396.85"/>
<polygon fill="black" stroke="black" stroke-width="2" points="469.61,-393.54 459.03,-392.97 466.94,-400.02 469.61,-393.54"/>
</g>
<!-- 24028 -->
<g id="node4" class="node">
<title>24028</title>
<ellipse fill="none" stroke="red" stroke-width="2" cx="418.09" cy="-522" rx="53.89" ry="18"/>
<text text-anchor="middle" x="418.09" y="-518.3" font-family="Times,serif" font-size="14.00">chol (2,2)</text>
</g>
<!-- 24030 -->
<g id="node6" class="node">
<title>24030</title>
<ellipse fill="none" stroke="black" stroke-width="2" cx="201.09" cy="-450" rx="51.99" ry="18"/>
<text text-anchor="middle" x="201.09" y="-446.3" font-family="Times,serif" font-size="14.00">ldiv (2,4)</text>
</g>
<!-- 24028&#45;&gt;24030 -->
<g id="edge4" class="edge">
<title>24028&#45;&gt;24030</title>
<path fill="none" stroke="black" stroke-width="2" d="M380.79,-508.97C343.93,-497.07 287.43,-478.85 247.64,-466.02"/>
<polygon fill="black" stroke="black" stroke-width="2" points="248.5,-462.62 237.91,-462.88 246.35,-469.28 248.5,-462.62"/>
</g>
<!-- 24029 -->
<g id="node12" class="node">
<title>24029</title>
<ellipse fill="none" stroke="red" stroke-width="2" cx="422.09" cy="-450" rx="51.99" ry="18"/>
<text text-anchor="middle" x="422.09" y="-446.3" font-family="Times,serif" font-size="14.00">ldiv (2,3)</text>
</g>
<!-- 24028&#45;&gt;24029 -->
<g id="edge15" class="edge">
<title>24028&#45;&gt;24029</title>
<path fill="none" stroke="red" stroke-width="2" d="M419.08,-503.7C419.52,-495.98 420.05,-486.71 420.55,-478.11"/>
<polygon fill="red" stroke="red" stroke-width="2" points="424.04,-478.29 421.12,-468.1 417.05,-477.89 424.04,-478.29"/>
</g>
<!-- 24022 -->
<g id="node5" class="node">
<title>24022</title>
<ellipse fill="none" stroke="red" stroke-width="2" cx="382.09" cy="-594" rx="61.19" ry="18"/>
<text text-anchor="middle" x="382.09" y="-590.3" font-family="Times,serif" font-size="14.00">schur (2,2)</text>
</g>
<!-- 24022&#45;&gt;24028 -->
<g id="edge3" class="edge">
<title>24022&#45;&gt;24028</title>
<path fill="none" stroke="red" stroke-width="2" d="M390.81,-576.05C395.01,-567.89 400.14,-557.91 404.81,-548.82"/>
<polygon fill="red" stroke="red" stroke-width="2" points="408,-550.28 409.46,-539.79 401.77,-547.08 408,-550.28"/>
</g>
<!-- 24033 -->
<g id="node15" class="node">
<title>24033</title>
<ellipse fill="none" stroke="black" stroke-width="2" cx="145.09" cy="-378" rx="61.19" ry="18"/>
<text text-anchor="middle" x="145.09" y="-374.3" font-family="Times,serif" font-size="14.00">schur (4,4)</text>
</g>
<!-- 24030&#45;&gt;24033 -->
<g id="edge21" class="edge">
<title>24030&#45;&gt;24033</title>
<path fill="none" stroke="black" stroke-width="2" d="M187.82,-432.41C181.02,-423.91 172.59,-413.37 165.03,-403.91"/>
<polygon fill="black" stroke="black" stroke-width="2" points="167.64,-401.58 158.66,-395.96 162.17,-405.95 167.64,-401.58"/>
</g>
<!-- 24032 -->
<g id="node21" class="node">
<title>24032</title>
<ellipse fill="none" stroke="black" stroke-width="2" cx="285.09" cy="-378" rx="61.19" ry="18"/>
<text text-anchor="middle" x="285.09" y="-374.3" font-family="Times,serif" font-size="14.00">schur (3,4)</text>
</g>
<!-- 24030&#45;&gt;24032 -->
<g id="edge27" class="edge">
<title>24030&#45;&gt;24032</title>
<path fill="none" stroke="black" stroke-width="2" d="M220.16,-433.12C231.27,-423.85 245.49,-412.01 257.78,-401.76"/>
<polygon fill="black" stroke="black" stroke-width="2" points="260.08,-404.4 265.53,-395.31 255.6,-399.02 260.08,-404.4"/>
</g>
<!-- 24024 -->
<g id="node7" class="node">
<title>24024</title>
<ellipse fill="none" stroke="black" stroke-width="2" cx="145.09" cy="-522" rx="61.19" ry="18"/>
<text text-anchor="middle" x="145.09" y="-518.3" font-family="Times,serif" font-size="14.00">schur (2,4)</text>
</g>
<!-- 24024&#45;&gt;24030 -->
<g id="edge5" class="edge">
<title>24024&#45;&gt;24030</title>
<path fill="none" stroke="black" stroke-width="2" d="M158.37,-504.41C165.27,-495.78 173.84,-485.06 181.5,-475.5"/>
<polygon fill="black" stroke="black" stroke-width="2" points="184.4,-477.47 187.92,-467.47 178.94,-473.09 184.4,-477.47"/>
</g>
<!-- 24019&#45;&gt;24022 -->
<g id="edge18" class="edge">
<title>24019&#45;&gt;24022</title>
<path fill="none" stroke="red" stroke-width="2" d="M382.09,-647.7C382.09,-639.98 382.09,-630.71 382.09,-622.11"/>
<polygon fill="red" stroke="red" stroke-width="2" points="385.59,-622.1 382.09,-612.1 378.59,-622.1 385.59,-622.1"/>
</g>
<!-- 24019&#45;&gt;24024 -->
<g id="edge8" class="edge">
<title>24019&#45;&gt;24024</title>
<path fill="none" stroke="black" stroke-width="2" d="M357.18,-650.07C314.64,-624.58 227.93,-572.63 179.59,-543.67"/>
<polygon fill="black" stroke="black" stroke-width="2" points="181.13,-540.51 170.75,-538.37 177.53,-546.51 181.13,-540.51"/>
</g>
<!-- 24019&#45;&gt;24023 -->
<g id="edge11" class="edge">
<title>24019&#45;&gt;24023</title>
<path fill="none" stroke="black" stroke-width="2" d="M403.71,-649.59C417.79,-639.32 436.4,-625.31 452.09,-612 469.84,-596.96 472.87,-591.63 490.09,-576 501.11,-566.01 513.46,-555.21 524.15,-545.98"/>
<polygon fill="black" stroke="black" stroke-width="2" points="526.65,-548.44 531.95,-539.26 522.09,-543.13 526.65,-548.44"/>
</g>
<!-- 24021&#45;&gt;24024 -->
<g id="edge7" class="edge">
<title>24021&#45;&gt;24024</title>
<path fill="none" stroke="black" stroke-width="2" d="M157.98,-576.05C156.09,-568.26 153.79,-558.82 151.67,-550.08"/>
<polygon fill="black" stroke="black" stroke-width="2" points="155.05,-549.17 149.29,-540.28 148.25,-550.82 155.05,-549.17"/>
</g>
<!-- 24021&#45;&gt;24026 -->
<g id="edge12" class="edge">
<title>24021&#45;&gt;24026</title>
<path fill="none" stroke="black" stroke-width="2" d="M187.88,-578.33C205.72,-568.17 229.69,-554.53 249.37,-543.33"/>
<polygon fill="black" stroke="black" stroke-width="2" points="251.11,-546.37 258.07,-538.38 247.64,-540.29 251.11,-546.37"/>
</g>
<!-- 24027 -->
<g id="node14" class="node">
<title>24027</title>
<ellipse fill="none" stroke="black" stroke-width="2" cx="61.09" cy="-450" rx="61.19" ry="18"/>
<text text-anchor="middle" x="61.09" y="-446.3" font-family="Times,serif" font-size="14.00">schur (4,4)</text>
</g>
<!-- 24021&#45;&gt;24027 -->
<g id="edge19" class="edge">
<title>24021&#45;&gt;24027</title>
<path fill="none" stroke="black" stroke-width="2" d="M127.6,-580.41C109.1,-571.86 87.59,-558.67 75.09,-540 62.97,-521.88 59.89,-497.1 59.61,-478.29"/>
<polygon fill="black" stroke="black" stroke-width="2" points="63.11,-478.3 59.71,-468.27 56.11,-478.23 63.11,-478.3"/>
</g>
<!-- 24023&#45;&gt;24029 -->
<g id="edge14" class="edge">
<title>24023&#45;&gt;24029</title>
<path fill="none" stroke="black" stroke-width="2" d="M523.1,-505.81C504.08,-495.49 478.75,-481.74 458.21,-470.6"/>
<polygon fill="black" stroke="black" stroke-width="2" points="459.61,-467.37 449.15,-465.68 456.27,-473.53 459.61,-467.37"/>
</g>
<!-- 24026&#45;&gt;24032 -->
<g id="edge29" class="edge">
<title>24026&#45;&gt;24032</title>
<path fill="none" stroke="black" stroke-width="2" d="M285.09,-503.87C285.09,-479.67 285.09,-435.21 285.09,-406.39"/>
<polygon fill="black" stroke="black" stroke-width="2" points="288.59,-406.19 285.09,-396.19 281.59,-406.19 288.59,-406.19"/>
</g>
<!-- 24029&#45;&gt;24031 -->
<g id="edge17" class="edge">
<title>24029&#45;&gt;24031</title>
<path fill="none" stroke="red" stroke-width="2" d="M422.84,-431.7C423.17,-423.98 423.56,-414.71 423.93,-406.11"/>
<polygon fill="red" stroke="red" stroke-width="2" points="427.43,-406.25 424.36,-396.1 420.44,-405.95 427.43,-406.25"/>
</g>
<!-- 24029&#45;&gt;24032 -->
<g id="edge28" class="edge">
<title>24029&#45;&gt;24032</title>
<path fill="none" stroke="black" stroke-width="2" d="M394.04,-434.67C373.67,-424.26 345.88,-410.06 323.46,-398.6"/>
<polygon fill="black" stroke="black" stroke-width="2" points="325.03,-395.47 314.53,-394.04 321.84,-401.71 325.03,-395.47"/>
</g>
<!-- 24034 -->
<g id="node20" class="node">
<title>24034</title>
<ellipse fill="none" stroke="red" stroke-width="2" cx="396.09" cy="-306" rx="53.89" ry="18"/>
<text text-anchor="middle" x="396.09" y="-302.3" font-family="Times,serif" font-size="14.00">chol (3,3)</text>
</g>
<!-- 24031&#45;&gt;24034 -->
<g id="edge26" class="edge">
<title>24031&#45;&gt;24034</title>
<path fill="none" stroke="red" stroke-width="2" d="M418.07,-360.05C414.81,-352.18 410.85,-342.62 407.19,-333.79"/>
<polygon fill="red" stroke="red" stroke-width="2" points="410.31,-332.17 403.25,-324.28 403.85,-334.85 410.31,-332.17"/>
</g>
<!-- 24027&#45;&gt;24033 -->
<g id="edge20" class="edge">
<title>24027&#45;&gt;24033</title>
<path fill="none" stroke="black" stroke-width="2" d="M80.58,-432.76C91.71,-423.49 105.84,-411.71 118.03,-401.55"/>
<polygon fill="black" stroke="black" stroke-width="2" points="120.28,-404.24 125.72,-395.15 115.79,-398.86 120.28,-404.24"/>
</g>
<!-- 24036 -->
<g id="node16" class="node">
<title>24036</title>
<ellipse fill="none" stroke="red" stroke-width="2" cx="215.09" cy="-162" rx="61.19" ry="18"/>
<text text-anchor="middle" x="215.09" y="-158.3" font-family="Times,serif" font-size="14.00">schur (4,4)</text>
</g>
<!-- 24033&#45;&gt;24036 -->
<g id="edge22" class="edge">
<title>24033&#45;&gt;24036</title>
<path fill="none" stroke="black" stroke-width="2" d="M150.7,-359.85C162.89,-322.58 191.87,-234 206.43,-189.49"/>
<polygon fill="black" stroke="black" stroke-width="2" points="209.77,-190.53 209.55,-179.94 203.12,-188.35 209.77,-190.53"/>
</g>
<!-- 24037 -->
<g id="node18" class="node">
<title>24037</title>
<ellipse fill="none" stroke="red" stroke-width="2" cx="215.09" cy="-90" rx="53.89" ry="18"/>
<text text-anchor="middle" x="215.09" y="-86.3" font-family="Times,serif" font-size="14.00">chol (4,4)</text>
</g>
<!-- 24036&#45;&gt;24037 -->
<g id="edge24" class="edge">
<title>24036&#45;&gt;24037</title>
<path fill="none" stroke="red" stroke-width="2" d="M215.09,-143.7C215.09,-135.98 215.09,-126.71 215.09,-118.11"/>
<polygon fill="red" stroke="red" stroke-width="2" points="218.59,-118.1 215.09,-108.1 211.59,-118.1 218.59,-118.1"/>
</g>
<!-- 24035 -->
<g id="node17" class="node">
<title>24035</title>
<ellipse fill="none" stroke="red" stroke-width="2" cx="285.09" cy="-234" rx="51.99" ry="18"/>
<text text-anchor="middle" x="285.09" y="-230.3" font-family="Times,serif" font-size="14.00">ldiv (3,4)</text>
</g>
<!-- 24035&#45;&gt;24036 -->
<g id="edge23" class="edge">
<title>24035&#45;&gt;24036</title>
<path fill="none" stroke="red" stroke-width="2" d="M268.86,-216.76C259.98,-207.88 248.8,-196.71 238.95,-186.85"/>
<polygon fill="red" stroke="red" stroke-width="2" points="241.27,-184.23 231.73,-179.63 236.32,-189.18 241.27,-184.23"/>
</g>
<!-- 24038 -->
<g id="node19" class="node">
<title>24038</title>
<ellipse fill="none" stroke="red" stroke-width="2" cx="215.09" cy="-18" rx="38.19" ry="18"/>
<text text-anchor="middle" x="215.09" y="-14.3" font-family="Times,serif" font-size="14.00">result</text>
</g>
<!-- 24037&#45;&gt;24038 -->
<g id="edge25" class="edge">
<title>24037&#45;&gt;24038</title>
<path fill="none" stroke="red" stroke-width="2" d="M215.09,-71.7C215.09,-63.98 215.09,-54.71 215.09,-46.11"/>
<polygon fill="red" stroke="red" stroke-width="2" points="218.59,-46.1 215.09,-36.1 211.59,-46.1 218.59,-46.1"/>
</g>
<!-- 24034&#45;&gt;24035 -->
<g id="edge31" class="edge">
<title>24034&#45;&gt;24035</title>
<path fill="none" stroke="red" stroke-width="2" d="M372.01,-289.81C356.15,-279.81 335.2,-266.6 317.84,-255.65"/>
<polygon fill="red" stroke="red" stroke-width="2" points="319.46,-252.53 309.13,-250.16 315.72,-258.45 319.46,-252.53"/>
</g>
<!-- 24032&#45;&gt;24035 -->
<g id="edge30" class="edge">
<title>24032&#45;&gt;24035</title>
<path fill="none" stroke="black" stroke-width="2" d="M285.09,-359.87C285.09,-335.67 285.09,-291.21 285.09,-262.39"/>
<polygon fill="black" stroke="black" stroke-width="2" points="288.59,-262.19 285.09,-252.19 281.59,-262.19 288.59,-262.19"/>
</g>
</g>
</svg>
