<?xml version="1.0" encoding="UTF-8" standalone="no"?>
<!DOCTYPE svg PUBLIC "-//W3C//DTD SVG 1.1//EN"
 "http://www.w3.org/Graphics/SVG/1.1/DTD/svg11.dtd">
<!-- Generated by graphviz version 2.50.0 (20211204.2007)
 -->
<!-- Title: dag Pages: 1 -->
<svg width="236pt" height="188pt"
 viewBox="0.00 0.00 236.29 188.00" xmlns="http://www.w3.org/2000/svg" xmlns:xlink="http://www.w3.org/1999/xlink">
<g id="graph0" class="graph" transform="scale(1 1) rotate(0) translate(4 184)">
<title>dag</title>
<polygon fill="white" stroke="transparent" points="-4,4 -4,-184 232.29,-184 232.29,4 -4,4"/>
<!-- 28756 -->
<g id="node1" class="node">
<title>28756</title>
<ellipse fill="none" stroke="red" stroke-width="2" cx="113.65" cy="-18" rx="61.99" ry="18"/>
<text text-anchor="middle" x="113.65" y="-14.3" font-family="Times,serif" font-size="14.00">read whole</text>
</g>
<!-- 28754 -->
<g id="node2" class="node">
<title>28754</title>
<ellipse fill="none" stroke="red" stroke-width="2" cx="52.65" cy="-90" rx="52.79" ry="18"/>
<text text-anchor="middle" x="52.65" y="-86.3" font-family="Times,serif" font-size="14.00">write 1:2</text>
</g>
<!-- 28754&#45;&gt;28756 -->
<g id="edge1" class="edge">
<title>28754&#45;&gt;28756</title>
<path fill="none" stroke="red" stroke-width="2" d="M67.1,-72.41C74.59,-63.82 83.88,-53.16 92.18,-43.63"/>
<polygon fill="red" stroke="red" stroke-width="2" points="94.94,-45.79 98.87,-35.96 89.66,-41.2 94.94,-45.79"/>
</g>
<!-- 28755 -->
<g id="node3" class="node">
<title>28755</title>
<ellipse fill="none" stroke="black" stroke-width="2" cx="175.65" cy="-90" rx="52.79" ry="18"/>
<text text-anchor="middle" x="175.65" y="-86.3" font-family="Times,serif" font-size="14.00">write 3:4</text>
</g>
<!-- 28755&#45;&gt;28756 -->
<g id="edge2" class="edge">
<title>28755&#45;&gt;28756</title>
<path fill="none" stroke="black" stroke-width="2" d="M160.95,-72.41C153.34,-63.82 143.9,-53.16 135.46,-43.63"/>
<polygon fill="black" stroke="black" stroke-width="2" points="137.91,-41.12 128.66,-35.96 132.67,-45.76 137.91,-41.12"/>
</g>
<!-- 28753 -->
<g id="node4" class="node">
<title>28753</title>
<ellipse fill="none" stroke="red" stroke-width="2" cx="113.65" cy="-162" rx="65.79" ry="18"/>
<text text-anchor="middle" x="113.65" y="-158.3" font-family="Times,serif" font-size="14.00">write whole</text>
</g>
<!-- 28753&#45;&gt;28754 -->
<g id="edge4" class="edge">
<title>28753&#45;&gt;28754</title>
<path fill="none" stroke="red" stroke-width="2" d="M99.19,-144.41C91.59,-135.69 82.14,-124.85 73.74,-115.21"/>
<polygon fill="red" stroke="red" stroke-width="2" points="76.21,-112.71 67,-107.47 70.93,-117.31 76.21,-112.71"/>
</g>
<!-- 28753&#45;&gt;28755 -->
<g id="edge3" class="edge">
<title>28753&#45;&gt;28755</title>
<path fill="none" stroke="black" stroke-width="2" d="M128.34,-144.41C136.06,-135.69 145.67,-124.85 154.2,-115.21"/>
<polygon fill="black" stroke="black" stroke-width="2" points="157.05,-117.28 161.06,-107.47 151.81,-112.64 157.05,-117.28"/>
</g>
</g>
</svg>
