<?xml version="1.0" encoding="UTF-8" standalone="no"?>
<!DOCTYPE svg PUBLIC "-//W3C//DTD SVG 1.1//EN"
 "http://www.w3.org/Graphics/SVG/1.1/DTD/svg11.dtd">
<!-- Generated by graphviz version 2.50.0 (20211204.2007)
 -->
<!-- Title: dag Pages: 1 -->
<svg width="561pt" height="764pt"
 viewBox="0.00 0.00 560.79 764.00" xmlns="http://www.w3.org/2000/svg" xmlns:xlink="http://www.w3.org/1999/xlink">
<g id="graph0" class="graph" transform="scale(1 1) rotate(0) translate(4 760)">
<title>dag</title>
<polygon fill="white" stroke="transparent" points="-4,4 -4,-760 556.79,-760 556.79,4 -4,4"/>
<!-- 39 -->
<g id="node1" class="node">
<title>39</title>
<ellipse fill="none" stroke="black" stroke-width="2" cx="503.4" cy="-450" rx="49.29" ry="18"/>
<text text-anchor="middle" x="503.4" y="-446.3" font-family="Times,serif" font-size="14.00">schur (4,4)</text>
</g>
<!-- 45 -->
<g id="node18" class="node">
<title>45</title>
<ellipse fill="none" stroke="black" stroke-width="2" cx="431.4" cy="-378" rx="49.29" ry="18"/>
<text text-anchor="middle" x="431.4" y="-374.3" font-family="Times,serif" font-size="14.00">schur (4,4)</text>
</g>
<!-- 39&#45;&gt;45 -->
<g id="edge23" class="edge">
<title>39&#45;&gt;45</title>
<path fill="none" stroke="black" stroke-width="2" d="M486.7,-432.76C477.34,-423.66 465.51,-412.16 455.19,-402.13"/>
<polygon fill="black" stroke="black" stroke-width="2" points="457.61,-399.61 448,-395.15 452.73,-404.63 457.61,-399.61"/>
</g>
<!-- 33 -->
<g id="node2" class="node">
<title>33</title>
<ellipse fill="none" stroke="black" stroke-width="2" cx="419.4" cy="-594" rx="44.39" ry="18"/>
<text text-anchor="middle" x="419.4" y="-590.3" font-family="Times,serif" font-size="14.00">ldiv (1,4)</text>
</g>
<!-- 33&#45;&gt;39 -->
<g id="edge1" class="edge">
<title>33&#45;&gt;39</title>
<path fill="none" stroke="black" stroke-width="2" d="M446.18,-579.48C461.33,-570.4 479.22,-557 489.4,-540 500.54,-521.38 503.72,-496.79 504.29,-478.18"/>
<polygon fill="black" stroke="black" stroke-width="2" points="507.79,-478.03 504.37,-468.01 500.79,-477.98 507.79,-478.03"/>
</g>
<!-- 36 -->
<g id="node10" class="node">
<title>36</title>
<ellipse fill="none" stroke="black" stroke-width="2" cx="431.4" cy="-522" rx="49.29" ry="18"/>
<text text-anchor="middle" x="431.4" y="-518.3" font-family="Times,serif" font-size="14.00">schur (2,4)</text>
</g>
<!-- 33&#45;&gt;36 -->
<g id="edge26" class="edge">
<title>33&#45;&gt;36</title>
<path fill="none" stroke="black" stroke-width="2" d="M422.36,-575.7C423.68,-567.98 425.27,-558.71 426.75,-550.11"/>
<polygon fill="black" stroke="black" stroke-width="2" points="430.22,-550.55 428.46,-540.1 423.32,-549.37 430.22,-550.55"/>
</g>
<!-- 38 -->
<g id="node13" class="node">
<title>38</title>
<ellipse fill="none" stroke="black" stroke-width="2" cx="314.4" cy="-522" rx="49.29" ry="18"/>
<text text-anchor="middle" x="314.4" y="-518.3" font-family="Times,serif" font-size="14.00">schur (3,4)</text>
</g>
<!-- 33&#45;&gt;38 -->
<g id="edge29" class="edge">
<title>33&#45;&gt;38</title>
<path fill="none" stroke="black" stroke-width="2" d="M397.38,-578.33C382.33,-568.29 362.15,-554.84 345.47,-543.71"/>
<polygon fill="black" stroke="black" stroke-width="2" points="347.37,-540.77 337.1,-538.14 343.48,-546.6 347.37,-540.77"/>
</g>
<!-- 40 -->
<g id="node3" class="node">
<title>40</title>
<ellipse fill="none" stroke="red" stroke-width="2" cx="201.4" cy="-522" rx="45.49" ry="18"/>
<text text-anchor="middle" x="201.4" y="-518.3" font-family="Times,serif" font-size="14.00">chol (2,2)</text>
</g>
<!-- 42 -->
<g id="node9" class="node">
<title>42</title>
<ellipse fill="none" stroke="black" stroke-width="2" cx="389.4" cy="-450" rx="44.39" ry="18"/>
<text text-anchor="middle" x="389.4" y="-446.3" font-family="Times,serif" font-size="14.00">ldiv (2,4)</text>
</g>
<!-- 40&#45;&gt;42 -->
<g id="edge7" class="edge">
<title>40&#45;&gt;42</title>
<path fill="none" stroke="black" stroke-width="2" d="M233.29,-509.13C264.94,-497.34 313.61,-479.22 348.18,-466.35"/>
<polygon fill="black" stroke="black" stroke-width="2" points="349.82,-469.47 357.97,-462.7 347.38,-462.91 349.82,-469.47"/>
</g>
<!-- 41 -->
<g id="node12" class="node">
<title>41</title>
<ellipse fill="none" stroke="red" stroke-width="2" cx="199.4" cy="-450" rx="44.39" ry="18"/>
<text text-anchor="middle" x="199.4" y="-446.3" font-family="Times,serif" font-size="14.00">ldiv (2,3)</text>
</g>
<!-- 40&#45;&gt;41 -->
<g id="edge22" class="edge">
<title>40&#45;&gt;41</title>
<path fill="none" stroke="red" stroke-width="2" d="M200.9,-503.7C200.68,-495.98 200.42,-486.71 200.17,-478.11"/>
<polygon fill="red" stroke="red" stroke-width="2" points="203.67,-478 199.88,-468.1 196.67,-478.2 203.67,-478"/>
</g>
<!-- 34 -->
<g id="node4" class="node">
<title>34</title>
<ellipse fill="none" stroke="red" stroke-width="2" cx="237.4" cy="-594" rx="49.29" ry="18"/>
<text text-anchor="middle" x="237.4" y="-590.3" font-family="Times,serif" font-size="14.00">schur (2,2)</text>
</g>
<!-- 34&#45;&gt;40 -->
<g id="edge2" class="edge">
<title>34&#45;&gt;40</title>
<path fill="none" stroke="red" stroke-width="2" d="M228.68,-576.05C224.48,-567.89 219.35,-557.91 214.68,-548.82"/>
<polygon fill="red" stroke="red" stroke-width="2" points="217.72,-547.08 210.03,-539.79 211.49,-550.28 217.72,-547.08"/>
</g>
<!-- 32 -->
<g id="node5" class="node">
<title>32</title>
<ellipse fill="none" stroke="black" stroke-width="2" cx="88.4" cy="-594" rx="44.39" ry="18"/>
<text text-anchor="middle" x="88.4" y="-590.3" font-family="Times,serif" font-size="14.00">ldiv (1,3)</text>
</g>
<!-- 35 -->
<g id="node7" class="node">
<title>35</title>
<ellipse fill="none" stroke="black" stroke-width="2" cx="88.4" cy="-522" rx="49.29" ry="18"/>
<text text-anchor="middle" x="88.4" y="-518.3" font-family="Times,serif" font-size="14.00">schur (2,3)</text>
</g>
<!-- 32&#45;&gt;35 -->
<g id="edge4" class="edge">
<title>32&#45;&gt;35</title>
<path fill="none" stroke="black" stroke-width="2" d="M88.4,-575.7C88.4,-567.98 88.4,-558.71 88.4,-550.11"/>
<polygon fill="black" stroke="black" stroke-width="2" points="91.9,-550.1 88.4,-540.1 84.9,-550.1 91.9,-550.1"/>
</g>
<!-- 32&#45;&gt;38 -->
<g id="edge28" class="edge">
<title>32&#45;&gt;38</title>
<path fill="none" stroke="black" stroke-width="2" d="M122.72,-582.37C161.56,-570.34 225,-550.69 268.17,-537.32"/>
<polygon fill="black" stroke="black" stroke-width="2" points="269.35,-540.61 277.87,-534.31 267.28,-533.93 269.35,-540.61"/>
</g>
<!-- 37 -->
<g id="node21" class="node">
<title>37</title>
<ellipse fill="none" stroke="black" stroke-width="2" cx="49.4" cy="-450" rx="49.29" ry="18"/>
<text text-anchor="middle" x="49.4" y="-446.3" font-family="Times,serif" font-size="14.00">schur (3,3)</text>
</g>
<!-- 32&#45;&gt;37 -->
<g id="edge20" class="edge">
<title>32&#45;&gt;37</title>
<path fill="none" stroke="black" stroke-width="2" d="M64.98,-578.7C52.17,-569.43 37.49,-556.1 30.4,-540 21.48,-519.78 27.98,-495.09 35.71,-476.85"/>
<polygon fill="black" stroke="black" stroke-width="2" points="38.92,-478.25 39.91,-467.7 32.56,-475.32 38.92,-478.25"/>
</g>
<!-- 30 -->
<g id="node6" class="node">
<title>30</title>
<ellipse fill="none" stroke="red" stroke-width="2" cx="237.4" cy="-738" rx="45.49" ry="18"/>
<text text-anchor="middle" x="237.4" y="-734.3" font-family="Times,serif" font-size="14.00">chol (1,1)</text>
</g>
<!-- 30&#45;&gt;33 -->
<g id="edge25" class="edge">
<title>30&#45;&gt;33</title>
<path fill="none" stroke="black" stroke-width="2" d="M257.22,-721.53C289.85,-696.07 354.95,-645.28 391.98,-616.39"/>
<polygon fill="black" stroke="black" stroke-width="2" points="394.14,-619.14 399.87,-610.23 389.83,-613.62 394.14,-619.14"/>
</g>
<!-- 30&#45;&gt;32 -->
<g id="edge3" class="edge">
<title>30&#45;&gt;32</title>
<path fill="none" stroke="black" stroke-width="2" d="M220.59,-720.99C194.18,-695.82 142.85,-646.9 112.51,-617.98"/>
<polygon fill="black" stroke="black" stroke-width="2" points="114.56,-615.1 104.91,-610.74 109.73,-620.17 114.56,-615.1"/>
</g>
<!-- 31 -->
<g id="node8" class="node">
<title>31</title>
<ellipse fill="none" stroke="red" stroke-width="2" cx="237.4" cy="-666" rx="44.39" ry="18"/>
<text text-anchor="middle" x="237.4" y="-662.3" font-family="Times,serif" font-size="14.00">ldiv (1,2)</text>
</g>
<!-- 30&#45;&gt;31 -->
<g id="edge18" class="edge">
<title>30&#45;&gt;31</title>
<path fill="none" stroke="red" stroke-width="2" d="M237.4,-719.7C237.4,-711.98 237.4,-702.71 237.4,-694.11"/>
<polygon fill="red" stroke="red" stroke-width="2" points="240.9,-694.1 237.4,-684.1 233.9,-694.1 240.9,-694.1"/>
</g>
<!-- 35&#45;&gt;41 -->
<g id="edge21" class="edge">
<title>35&#45;&gt;41</title>
<path fill="none" stroke="black" stroke-width="2" d="M111.94,-506.15C128.09,-495.97 149.71,-482.33 167.42,-471.17"/>
<polygon fill="black" stroke="black" stroke-width="2" points="169.68,-473.88 176.27,-465.58 165.94,-467.96 169.68,-473.88"/>
</g>
<!-- 31&#45;&gt;34 -->
<g id="edge19" class="edge">
<title>31&#45;&gt;34</title>
<path fill="none" stroke="red" stroke-width="2" d="M237.4,-647.7C237.4,-639.98 237.4,-630.71 237.4,-622.11"/>
<polygon fill="red" stroke="red" stroke-width="2" points="240.9,-622.1 237.4,-612.1 233.9,-622.1 240.9,-622.1"/>
</g>
<!-- 31&#45;&gt;35 -->
<g id="edge5" class="edge">
<title>31&#45;&gt;35</title>
<path fill="none" stroke="black" stroke-width="2" d="M220,-649.38C208.4,-638.91 192.88,-624.74 179.4,-612 156.21,-590.08 130.23,-564.58 111.99,-546.51"/>
<polygon fill="black" stroke="black" stroke-width="2" points="114.24,-543.81 104.67,-539.25 109.31,-548.77 114.24,-543.81"/>
</g>
<!-- 31&#45;&gt;36 -->
<g id="edge27" class="edge">
<title>31&#45;&gt;36</title>
<path fill="none" stroke="black" stroke-width="2" d="M258.16,-649.8C292.69,-624.53 362.05,-573.76 401.73,-544.71"/>
<polygon fill="black" stroke="black" stroke-width="2" points="404.19,-547.25 410.2,-538.52 400.06,-541.6 404.19,-547.25"/>
</g>
<!-- 44 -->
<g id="node11" class="node">
<title>44</title>
<ellipse fill="none" stroke="black" stroke-width="2" cx="314.4" cy="-378" rx="49.29" ry="18"/>
<text text-anchor="middle" x="314.4" y="-374.3" font-family="Times,serif" font-size="14.00">schur (3,4)</text>
</g>
<!-- 42&#45;&gt;44 -->
<g id="edge10" class="edge">
<title>42&#45;&gt;44</title>
<path fill="none" stroke="black" stroke-width="2" d="M372.38,-433.12C362.57,-423.96 350.07,-412.29 339.18,-402.13"/>
<polygon fill="black" stroke="black" stroke-width="2" points="341.31,-399.33 331.61,-395.06 336.53,-404.45 341.31,-399.33"/>
</g>
<!-- 42&#45;&gt;45 -->
<g id="edge24" class="edge">
<title>42&#45;&gt;45</title>
<path fill="none" stroke="black" stroke-width="2" d="M399.35,-432.41C404.3,-424.16 410.39,-414.01 415.93,-404.78"/>
<polygon fill="black" stroke="black" stroke-width="2" points="419.08,-406.33 421.22,-395.96 413.08,-402.73 419.08,-406.33"/>
</g>
<!-- 36&#45;&gt;42 -->
<g id="edge6" class="edge">
<title>36&#45;&gt;42</title>
<path fill="none" stroke="black" stroke-width="2" d="M421.23,-504.05C416.28,-495.8 410.22,-485.7 404.72,-476.54"/>
<polygon fill="black" stroke="black" stroke-width="2" points="407.62,-474.56 399.47,-467.79 401.61,-478.16 407.62,-474.56"/>
</g>
<!-- 47 -->
<g id="node16" class="node">
<title>47</title>
<ellipse fill="none" stroke="red" stroke-width="2" cx="314.4" cy="-234" rx="44.39" ry="18"/>
<text text-anchor="middle" x="314.4" y="-230.3" font-family="Times,serif" font-size="14.00">ldiv (3,4)</text>
</g>
<!-- 44&#45;&gt;47 -->
<g id="edge12" class="edge">
<title>44&#45;&gt;47</title>
<path fill="none" stroke="black" stroke-width="2" d="M314.4,-359.87C314.4,-335.67 314.4,-291.21 314.4,-262.39"/>
<polygon fill="black" stroke="black" stroke-width="2" points="317.9,-262.19 314.4,-252.19 310.9,-262.19 317.9,-262.19"/>
</g>
<!-- 41&#45;&gt;44 -->
<g id="edge8" class="edge">
<title>41&#45;&gt;44</title>
<path fill="none" stroke="black" stroke-width="2" d="M222.95,-434.67C239.77,-424.42 262.65,-410.5 281.31,-399.14"/>
<polygon fill="black" stroke="black" stroke-width="2" points="283.36,-401.99 290.09,-393.8 279.72,-396.01 283.36,-401.99"/>
</g>
<!-- 43 -->
<g id="node15" class="node">
<title>43</title>
<ellipse fill="none" stroke="red" stroke-width="2" cx="197.4" cy="-378" rx="49.29" ry="18"/>
<text text-anchor="middle" x="197.4" y="-374.3" font-family="Times,serif" font-size="14.00">schur (3,3)</text>
</g>
<!-- 41&#45;&gt;43 -->
<g id="edge30" class="edge">
<title>41&#45;&gt;43</title>
<path fill="none" stroke="red" stroke-width="2" d="M198.9,-431.7C198.68,-423.98 198.42,-414.71 198.17,-406.11"/>
<polygon fill="red" stroke="red" stroke-width="2" points="201.67,-406 197.88,-396.1 194.67,-406.2 201.67,-406"/>
</g>
<!-- 38&#45;&gt;44 -->
<g id="edge9" class="edge">
<title>38&#45;&gt;44</title>
<path fill="none" stroke="black" stroke-width="2" d="M314.4,-503.87C314.4,-479.67 314.4,-435.21 314.4,-406.39"/>
<polygon fill="black" stroke="black" stroke-width="2" points="317.9,-406.19 314.4,-396.19 310.9,-406.19 317.9,-406.19"/>
</g>
<!-- 46 -->
<g id="node14" class="node">
<title>46</title>
<ellipse fill="none" stroke="red" stroke-width="2" cx="219.4" cy="-306" rx="45.49" ry="18"/>
<text text-anchor="middle" x="219.4" y="-302.3" font-family="Times,serif" font-size="14.00">chol (3,3)</text>
</g>
<!-- 46&#45;&gt;47 -->
<g id="edge13" class="edge">
<title>46&#45;&gt;47</title>
<path fill="none" stroke="red" stroke-width="2" d="M240.01,-289.81C253.33,-280 270.86,-267.08 285.55,-256.25"/>
<polygon fill="red" stroke="red" stroke-width="2" points="287.85,-258.91 293.82,-250.16 283.7,-253.27 287.85,-258.91"/>
</g>
<!-- 43&#45;&gt;46 -->
<g id="edge11" class="edge">
<title>43&#45;&gt;46</title>
<path fill="none" stroke="red" stroke-width="2" d="M202.72,-360.05C205.17,-352.26 208.14,-342.82 210.89,-334.08"/>
<polygon fill="red" stroke="red" stroke-width="2" points="214.31,-334.86 213.97,-324.28 207.63,-332.77 214.31,-334.86"/>
</g>
<!-- 48 -->
<g id="node17" class="node">
<title>48</title>
<ellipse fill="none" stroke="red" stroke-width="2" cx="350.4" cy="-162" rx="49.29" ry="18"/>
<text text-anchor="middle" x="350.4" y="-158.3" font-family="Times,serif" font-size="14.00">schur (4,4)</text>
</g>
<!-- 47&#45;&gt;48 -->
<g id="edge14" class="edge">
<title>47&#45;&gt;48</title>
<path fill="none" stroke="red" stroke-width="2" d="M323.11,-216.05C327.31,-207.89 332.44,-197.91 337.11,-188.82"/>
<polygon fill="red" stroke="red" stroke-width="2" points="340.3,-190.28 341.76,-179.79 334.08,-187.08 340.3,-190.28"/>
</g>
<!-- 49 -->
<g id="node19" class="node">
<title>49</title>
<ellipse fill="none" stroke="red" stroke-width="2" cx="350.4" cy="-90" rx="45.49" ry="18"/>
<text text-anchor="middle" x="350.4" y="-86.3" font-family="Times,serif" font-size="14.00">chol (4,4)</text>
</g>
<!-- 48&#45;&gt;49 -->
<g id="edge16" class="edge">
<title>48&#45;&gt;49</title>
<path fill="none" stroke="red" stroke-width="2" d="M350.4,-143.7C350.4,-135.98 350.4,-126.71 350.4,-118.11"/>
<polygon fill="red" stroke="red" stroke-width="2" points="353.9,-118.1 350.4,-108.1 346.9,-118.1 353.9,-118.1"/>
</g>
<!-- 45&#45;&gt;48 -->
<g id="edge15" class="edge">
<title>45&#45;&gt;48</title>
<path fill="none" stroke="black" stroke-width="2" d="M424.9,-359.85C410.8,-322.58 377.27,-234 360.42,-189.49"/>
<polygon fill="black" stroke="black" stroke-width="2" points="363.62,-188.05 356.81,-179.94 357.07,-190.53 363.62,-188.05"/>
</g>
<!-- 50 -->
<g id="node20" class="node">
<title>50</title>
<ellipse fill="none" stroke="red" stroke-width="2" cx="350.4" cy="-18" rx="30.59" ry="18"/>
<text text-anchor="middle" x="350.4" y="-14.3" font-family="Times,serif" font-size="14.00">result</text>
</g>
<!-- 49&#45;&gt;50 -->
<g id="edge17" class="edge">
<title>49&#45;&gt;50</title>
<path fill="none" stroke="red" stroke-width="2" d="M350.4,-71.7C350.4,-63.98 350.4,-54.71 350.4,-46.11"/>
<polygon fill="red" stroke="red" stroke-width="2" points="353.9,-46.1 350.4,-36.1 346.9,-46.1 353.9,-46.1"/>
</g>
<!-- 37&#45;&gt;43 -->
<g id="edge31" class="edge">
<title>37&#45;&gt;43</title>
<path fill="none" stroke="black" stroke-width="2" d="M78.28,-435.34C101.41,-424.4 134.03,-408.97 159.3,-397.02"/>
<polygon fill="black" stroke="black" stroke-width="2" points="161.04,-400.07 168.58,-392.63 158.04,-393.74 161.04,-400.07"/>
</g>
</g>
</svg>
