<?xml version="1.0" encoding="UTF-8" standalone="no"?>
<!DOCTYPE svg PUBLIC "-//W3C//DTD SVG 1.1//EN"
 "http://www.w3.org/Graphics/SVG/1.1/DTD/svg11.dtd">
<!-- Generated by graphviz version 2.50.0 (20211204.2007)
 -->
<!-- Title: dag Pages: 1 -->
<svg width="535pt" height="980pt"
 viewBox="0.00 0.00 534.79 980.00" xmlns="http://www.w3.org/2000/svg" xmlns:xlink="http://www.w3.org/1999/xlink">
<g id="graph0" class="graph" transform="scale(1 1) rotate(0) translate(4 976)">
<title>dag</title>
<polygon fill="white" stroke="transparent" points="-4,4 -4,-976 530.79,-976 530.79,4 -4,4"/>
<!-- 39 -->
<g id="node1" class="node">
<title>39</title>
<ellipse fill="none" stroke="black" stroke-width="2" cx="49.4" cy="-594" rx="49.29" ry="18"/>
<text text-anchor="middle" x="49.4" y="-590.3" font-family="Times,serif" font-size="14.00">schur (4,4)</text>
</g>
<!-- 41 -->
<g id="node16" class="node">
<title>41</title>
<ellipse fill="none" stroke="red" stroke-width="2" cx="283.4" cy="-522" rx="44.39" ry="18"/>
<text text-anchor="middle" x="283.4" y="-518.3" font-family="Times,serif" font-size="14.00">ldiv (2,3)</text>
</g>
<!-- 39&#45;&gt;41 -->
<g id="edge13" class="edge">
<title>39&#45;&gt;41</title>
<path fill="none" stroke="black" stroke-width="2" d="M86.22,-581.99C127.62,-569.6 194.83,-549.5 239.07,-536.26"/>
<polygon fill="black" stroke="black" stroke-width="2" points="240.12,-539.6 248.7,-533.38 238.11,-532.89 240.12,-539.6"/>
</g>
<!-- 33 -->
<g id="node2" class="node">
<title>33</title>
<ellipse fill="none" stroke="red" stroke-width="2" cx="301.4" cy="-738" rx="44.39" ry="18"/>
<text text-anchor="middle" x="301.4" y="-734.3" font-family="Times,serif" font-size="14.00">ldiv (1,4)</text>
</g>
<!-- 33&#45;&gt;39 -->
<g id="edge1" class="edge">
<title>33&#45;&gt;39</title>
<path fill="none" stroke="black" stroke-width="2" d="M166.4,-665C150.63,-638.72 120.89,-621.12 95.34,-610.14"/>
<polygon fill="black" stroke="black" stroke-width="2" points="96.37,-606.78 85.79,-606.25 93.73,-613.26 96.37,-606.78"/>
<path fill="none" stroke="black" stroke-width="2" d="M263.2,-728.86C231.05,-719.76 187.11,-701.52 166.4,-667"/>
</g>
<!-- 38 -->
<g id="node3" class="node">
<title>38</title>
<ellipse fill="none" stroke="black" stroke-width="2" cx="166.4" cy="-594" rx="49.29" ry="18"/>
<text text-anchor="middle" x="166.4" y="-590.3" font-family="Times,serif" font-size="14.00">schur (3,4)</text>
</g>
<!-- 33&#45;&gt;38 -->
<g id="edge2" class="edge">
<title>33&#45;&gt;38</title>
<path fill="none" stroke="black" stroke-width="2" d="M166.4,-665C158.77,-652.29 158.41,-635.81 160.12,-622.04"/>
<polygon fill="black" stroke="black" stroke-width="2" points="163.58,-622.57 161.75,-612.13 156.67,-621.43 163.58,-622.57"/>
</g>
<!-- 35 -->
<g id="node7" class="node">
<title>35</title>
<ellipse fill="none" stroke="black" stroke-width="2" cx="283.4" cy="-594" rx="49.29" ry="18"/>
<text text-anchor="middle" x="283.4" y="-590.3" font-family="Times,serif" font-size="14.00">schur (2,3)</text>
</g>
<!-- 33&#45;&gt;35 -->
<g id="edge5" class="edge">
<title>33&#45;&gt;35</title>
<path fill="none" stroke="black" stroke-width="2" d="M166.4,-665C156.84,-649.07 202.99,-626.36 240.13,-611.17"/>
<polygon fill="black" stroke="black" stroke-width="2" points="241.84,-614.25 249.82,-607.29 239.24,-607.75 241.84,-614.25"/>
</g>
<!-- 34 -->
<g id="node8" class="node">
<title>34</title>
<ellipse fill="none" stroke="black" stroke-width="2" cx="243.4" cy="-666" rx="49.29" ry="18"/>
<text text-anchor="middle" x="243.4" y="-662.3" font-family="Times,serif" font-size="14.00">schur (2,2)</text>
</g>
<!-- 33&#45;&gt;34 -->
<g id="edge6" class="edge">
<title>33&#45;&gt;34</title>
<path fill="none" stroke="black" stroke-width="2" d="M287.94,-720.76C280.73,-712.06 271.69,-701.15 263.64,-691.43"/>
<polygon fill="black" stroke="black" stroke-width="2" points="266.25,-689.1 257.18,-683.63 260.86,-693.57 266.25,-689.1"/>
</g>
<!-- 37 -->
<g id="node15" class="node">
<title>37</title>
<ellipse fill="none" stroke="black" stroke-width="2" cx="360.4" cy="-666" rx="49.29" ry="18"/>
<text text-anchor="middle" x="360.4" y="-662.3" font-family="Times,serif" font-size="14.00">schur (3,3)</text>
</g>
<!-- 33&#45;&gt;37 -->
<g id="edge12" class="edge">
<title>33&#45;&gt;37</title>
<path fill="none" stroke="black" stroke-width="2" d="M315.08,-720.76C322.42,-712.06 331.61,-701.15 339.8,-691.43"/>
<polygon fill="black" stroke="black" stroke-width="2" points="342.61,-693.54 346.38,-683.63 337.26,-689.02 342.61,-693.54"/>
</g>
<!-- 36 -->
<g id="node17" class="node">
<title>36</title>
<ellipse fill="none" stroke="red" stroke-width="2" cx="477.4" cy="-666" rx="49.29" ry="18"/>
<text text-anchor="middle" x="477.4" y="-662.3" font-family="Times,serif" font-size="14.00">schur (2,4)</text>
</g>
<!-- 33&#45;&gt;36 -->
<g id="edge27" class="edge">
<title>33&#45;&gt;36</title>
<path fill="none" stroke="red" stroke-width="2" d="M332.05,-724.81C360.79,-713.38 403.98,-696.2 435.82,-683.54"/>
<polygon fill="red" stroke="red" stroke-width="2" points="437.31,-686.71 445.31,-679.76 434.72,-680.21 437.31,-686.71"/>
</g>
<!-- 38&#45;&gt;41 -->
<g id="edge16" class="edge">
<title>38&#45;&gt;41</title>
<path fill="none" stroke="black" stroke-width="2" d="M190.92,-578.33C208.28,-567.94 231.73,-553.91 250.68,-542.57"/>
<polygon fill="black" stroke="black" stroke-width="2" points="252.52,-545.55 259.3,-537.42 248.92,-539.55 252.52,-545.55"/>
</g>
<!-- 45 -->
<g id="node4" class="node">
<title>45</title>
<ellipse fill="none" stroke="black" stroke-width="2" cx="206.4" cy="-306" rx="49.29" ry="18"/>
<text text-anchor="middle" x="206.4" y="-302.3" font-family="Times,serif" font-size="14.00">schur (4,4)</text>
</g>
<!-- 47 -->
<g id="node19" class="node">
<title>47</title>
<ellipse fill="none" stroke="red" stroke-width="2" cx="319.4" cy="-234" rx="44.39" ry="18"/>
<text text-anchor="middle" x="319.4" y="-230.3" font-family="Times,serif" font-size="14.00">ldiv (3,4)</text>
</g>
<!-- 45&#45;&gt;47 -->
<g id="edge21" class="edge">
<title>45&#45;&gt;47</title>
<path fill="none" stroke="black" stroke-width="2" d="M230.36,-290.15C247.06,-279.81 269.52,-265.9 287.7,-254.63"/>
<polygon fill="black" stroke="black" stroke-width="2" points="289.58,-257.59 296.24,-249.35 285.89,-251.64 289.58,-257.59"/>
</g>
<!-- 42 -->
<g id="node5" class="node">
<title>42</title>
<ellipse fill="none" stroke="red" stroke-width="2" cx="283.4" cy="-450" rx="44.39" ry="18"/>
<text text-anchor="middle" x="283.4" y="-446.3" font-family="Times,serif" font-size="14.00">ldiv (2,4)</text>
</g>
<!-- 42&#45;&gt;45 -->
<g id="edge3" class="edge">
<title>42&#45;&gt;45</title>
<path fill="none" stroke="black" stroke-width="2" d="M261.48,-434.3C249.03,-424.81 234.21,-411.39 225.4,-396 214.56,-377.09 209.89,-352.72 207.88,-334.27"/>
<polygon fill="black" stroke="black" stroke-width="2" points="211.35,-333.82 206.98,-324.17 204.38,-334.44 211.35,-333.82"/>
</g>
<!-- 43 -->
<g id="node10" class="node">
<title>43</title>
<ellipse fill="none" stroke="red" stroke-width="2" cx="283.4" cy="-378" rx="49.29" ry="18"/>
<text text-anchor="middle" x="283.4" y="-374.3" font-family="Times,serif" font-size="14.00">schur (3,3)</text>
</g>
<!-- 42&#45;&gt;43 -->
<g id="edge8" class="edge">
<title>42&#45;&gt;43</title>
<path fill="none" stroke="red" stroke-width="2" d="M283.4,-431.7C283.4,-423.98 283.4,-414.71 283.4,-406.11"/>
<polygon fill="red" stroke="red" stroke-width="2" points="286.9,-406.1 283.4,-396.1 279.9,-406.1 286.9,-406.1"/>
</g>
<!-- 44 -->
<g id="node18" class="node">
<title>44</title>
<ellipse fill="none" stroke="black" stroke-width="2" cx="400.4" cy="-378" rx="49.29" ry="18"/>
<text text-anchor="middle" x="400.4" y="-374.3" font-family="Times,serif" font-size="14.00">schur (3,4)</text>
</g>
<!-- 42&#45;&gt;44 -->
<g id="edge20" class="edge">
<title>42&#45;&gt;44</title>
<path fill="none" stroke="black" stroke-width="2" d="M307.35,-434.67C324.55,-424.38 347.96,-410.37 366.99,-398.99"/>
<polygon fill="black" stroke="black" stroke-width="2" points="368.88,-401.94 375.66,-393.8 365.28,-395.93 368.88,-401.94"/>
</g>
<!-- 32 -->
<g id="node6" class="node">
<title>32</title>
<ellipse fill="none" stroke="red" stroke-width="2" cx="301.4" cy="-810" rx="44.39" ry="18"/>
<text text-anchor="middle" x="301.4" y="-806.3" font-family="Times,serif" font-size="14.00">ldiv (1,3)</text>
</g>
<!-- 32&#45;&gt;33 -->
<g id="edge4" class="edge">
<title>32&#45;&gt;33</title>
<path fill="none" stroke="red" stroke-width="2" d="M301.4,-791.7C301.4,-783.98 301.4,-774.71 301.4,-766.11"/>
<polygon fill="red" stroke="red" stroke-width="2" points="304.9,-766.1 301.4,-756.1 297.9,-766.1 304.9,-766.1"/>
</g>
<!-- 35&#45;&gt;41 -->
<g id="edge14" class="edge">
<title>35&#45;&gt;41</title>
<path fill="none" stroke="black" stroke-width="2" d="M283.4,-575.7C283.4,-567.98 283.4,-558.71 283.4,-550.11"/>
<polygon fill="black" stroke="black" stroke-width="2" points="286.9,-550.1 283.4,-540.1 279.9,-550.1 286.9,-550.1"/>
</g>
<!-- 40 -->
<g id="node9" class="node">
<title>40</title>
<ellipse fill="none" stroke="black" stroke-width="2" cx="396.4" cy="-594" rx="45.49" ry="18"/>
<text text-anchor="middle" x="396.4" y="-590.3" font-family="Times,serif" font-size="14.00">chol (2,2)</text>
</g>
<!-- 34&#45;&gt;40 -->
<g id="edge7" class="edge">
<title>34&#45;&gt;40</title>
<path fill="none" stroke="black" stroke-width="2" d="M272.9,-651.5C297.26,-640.36 332,-624.46 358.44,-612.37"/>
<polygon fill="black" stroke="black" stroke-width="2" points="360.13,-615.44 367.76,-608.1 357.21,-609.08 360.13,-615.44"/>
</g>
<!-- 40&#45;&gt;41 -->
<g id="edge18" class="edge">
<title>40&#45;&gt;41</title>
<path fill="none" stroke="black" stroke-width="2" d="M372.98,-578.5C356.32,-568.17 333.72,-554.17 315.39,-542.82"/>
<polygon fill="black" stroke="black" stroke-width="2" points="317.12,-539.78 306.78,-537.49 313.44,-545.73 317.12,-539.78"/>
</g>
<!-- 46 -->
<g id="node11" class="node">
<title>46</title>
<ellipse fill="none" stroke="red" stroke-width="2" cx="319.4" cy="-306" rx="45.49" ry="18"/>
<text text-anchor="middle" x="319.4" y="-302.3" font-family="Times,serif" font-size="14.00">chol (3,3)</text>
</g>
<!-- 43&#45;&gt;46 -->
<g id="edge9" class="edge">
<title>43&#45;&gt;46</title>
<path fill="none" stroke="red" stroke-width="2" d="M292.11,-360.05C296.31,-351.89 301.44,-341.91 306.11,-332.82"/>
<polygon fill="red" stroke="red" stroke-width="2" points="309.3,-334.28 310.76,-323.79 303.08,-331.08 309.3,-334.28"/>
</g>
<!-- 46&#45;&gt;47 -->
<g id="edge23" class="edge">
<title>46&#45;&gt;47</title>
<path fill="none" stroke="red" stroke-width="2" d="M319.4,-287.7C319.4,-279.98 319.4,-270.71 319.4,-262.11"/>
<polygon fill="red" stroke="red" stroke-width="2" points="322.9,-262.1 319.4,-252.1 315.9,-262.1 322.9,-262.1"/>
</g>
<!-- 49 -->
<g id="node12" class="node">
<title>49</title>
<ellipse fill="none" stroke="red" stroke-width="2" cx="319.4" cy="-90" rx="45.49" ry="18"/>
<text text-anchor="middle" x="319.4" y="-86.3" font-family="Times,serif" font-size="14.00">chol (4,4)</text>
</g>
<!-- 50 -->
<g id="node14" class="node">
<title>50</title>
<ellipse fill="none" stroke="red" stroke-width="2" cx="319.4" cy="-18" rx="30.59" ry="18"/>
<text text-anchor="middle" x="319.4" y="-14.3" font-family="Times,serif" font-size="14.00">result</text>
</g>
<!-- 49&#45;&gt;50 -->
<g id="edge11" class="edge">
<title>49&#45;&gt;50</title>
<path fill="none" stroke="red" stroke-width="2" d="M319.4,-71.7C319.4,-63.98 319.4,-54.71 319.4,-46.11"/>
<polygon fill="red" stroke="red" stroke-width="2" points="322.9,-46.1 319.4,-36.1 315.9,-46.1 322.9,-46.1"/>
</g>
<!-- 48 -->
<g id="node13" class="node">
<title>48</title>
<ellipse fill="none" stroke="red" stroke-width="2" cx="319.4" cy="-162" rx="49.29" ry="18"/>
<text text-anchor="middle" x="319.4" y="-158.3" font-family="Times,serif" font-size="14.00">schur (4,4)</text>
</g>
<!-- 48&#45;&gt;49 -->
<g id="edge10" class="edge">
<title>48&#45;&gt;49</title>
<path fill="none" stroke="red" stroke-width="2" d="M319.4,-143.7C319.4,-135.98 319.4,-126.71 319.4,-118.11"/>
<polygon fill="red" stroke="red" stroke-width="2" points="322.9,-118.1 319.4,-108.1 315.9,-118.1 322.9,-118.1"/>
</g>
<!-- 37&#45;&gt;41 -->
<g id="edge17" class="edge">
<title>37&#45;&gt;41</title>
<path fill="none" stroke="black" stroke-width="2" d="M393.17,-652.48C428.42,-637.95 478.76,-613.63 473.4,-595"/>
<path fill="none" stroke="black" stroke-width="2" d="M473.4,-593C465.26,-564.75 386.68,-543.54 333.16,-532.23"/>
<polygon fill="black" stroke="black" stroke-width="2" points="333.65,-528.75 323.15,-530.16 332.24,-535.61 333.65,-528.75"/>
</g>
<!-- 41&#45;&gt;42 -->
<g id="edge19" class="edge">
<title>41&#45;&gt;42</title>
<path fill="none" stroke="red" stroke-width="2" d="M283.4,-503.7C283.4,-495.98 283.4,-486.71 283.4,-478.11"/>
<polygon fill="red" stroke="red" stroke-width="2" points="286.9,-478.1 283.4,-468.1 279.9,-478.1 286.9,-478.1"/>
</g>
<!-- 36&#45;&gt;41 -->
<g id="edge15" class="edge">
<title>36&#45;&gt;41</title>
<path fill="none" stroke="red" stroke-width="2" d="M478.5,-647.96C478.95,-633.56 478.45,-612.55 473.4,-595"/>
</g>
<!-- 44&#45;&gt;47 -->
<g id="edge22" class="edge">
<title>44&#45;&gt;47</title>
<path fill="none" stroke="black" stroke-width="2" d="M397.82,-359.9C394.43,-341.17 387.2,-310.79 373.4,-288 366.48,-276.59 356.56,-265.89 347.09,-257.13"/>
<polygon fill="black" stroke="black" stroke-width="2" points="349.14,-254.27 339.33,-250.26 344.5,-259.51 349.14,-254.27"/>
</g>
<!-- 47&#45;&gt;48 -->
<g id="edge24" class="edge">
<title>47&#45;&gt;48</title>
<path fill="none" stroke="red" stroke-width="2" d="M319.4,-215.7C319.4,-207.98 319.4,-198.71 319.4,-190.11"/>
<polygon fill="red" stroke="red" stroke-width="2" points="322.9,-190.1 319.4,-180.1 315.9,-190.1 322.9,-190.1"/>
</g>
<!-- 30 -->
<g id="node20" class="node">
<title>30</title>
<ellipse fill="none" stroke="red" stroke-width="2" cx="301.4" cy="-954" rx="45.49" ry="18"/>
<text text-anchor="middle" x="301.4" y="-950.3" font-family="Times,serif" font-size="14.00">chol (1,1)</text>
</g>
<!-- 31 -->
<g id="node21" class="node">
<title>31</title>
<ellipse fill="none" stroke="red" stroke-width="2" cx="301.4" cy="-882" rx="44.39" ry="18"/>
<text text-anchor="middle" x="301.4" y="-878.3" font-family="Times,serif" font-size="14.00">ldiv (1,2)</text>
</g>
<!-- 30&#45;&gt;31 -->
<g id="edge25" class="edge">
<title>30&#45;&gt;31</title>
<path fill="none" stroke="red" stroke-width="2" d="M301.4,-935.7C301.4,-927.98 301.4,-918.71 301.4,-910.11"/>
<polygon fill="red" stroke="red" stroke-width="2" points="304.9,-910.1 301.4,-900.1 297.9,-910.1 304.9,-910.1"/>
</g>
<!-- 31&#45;&gt;32 -->
<g id="edge26" class="edge">
<title>31&#45;&gt;32</title>
<path fill="none" stroke="red" stroke-width="2" d="M301.4,-863.7C301.4,-855.98 301.4,-846.71 301.4,-838.11"/>
<polygon fill="red" stroke="red" stroke-width="2" points="304.9,-838.1 301.4,-828.1 297.9,-838.1 304.9,-838.1"/>
</g>
</g>
</svg>
