<?xml version="1.0" encoding="UTF-8" standalone="no"?>
<!DOCTYPE svg PUBLIC "-//W3C//DTD SVG 1.1//EN"
 "http://www.w3.org/Graphics/SVG/1.1/DTD/svg11.dtd">
<!-- Generated by graphviz version 2.50.0 (20211204.2007)
 -->
<!-- Title: dag Pages: 1 -->
<svg width="562pt" height="764pt"
 viewBox="0.00 0.00 561.79 764.00" xmlns="http://www.w3.org/2000/svg" xmlns:xlink="http://www.w3.org/1999/xlink">
<g id="graph0" class="graph" transform="scale(1 1) rotate(0) translate(4 760)">
<title>dag</title>
<polygon fill="white" stroke="transparent" points="-4,4 -4,-760 557.79,-760 557.79,4 -4,4"/>
<!-- 36 -->
<g id="node1" class="node">
<title>36</title>
<ellipse fill="none" stroke="black" stroke-width="2" cx="123.4" cy="-522" rx="49.29" ry="18"/>
<text text-anchor="middle" x="123.4" y="-518.3" font-family="Times,serif" font-size="14.00">schur (2,4)</text>
</g>
<!-- 42 -->
<g id="node8" class="node">
<title>42</title>
<ellipse fill="none" stroke="black" stroke-width="2" cx="166.4" cy="-450" rx="44.39" ry="18"/>
<text text-anchor="middle" x="166.4" y="-446.3" font-family="Times,serif" font-size="14.00">ldiv (2,4)</text>
</g>
<!-- 36&#45;&gt;42 -->
<g id="edge6" class="edge">
<title>36&#45;&gt;42</title>
<path fill="none" stroke="black" stroke-width="2" d="M133.8,-504.05C138.88,-495.8 145.08,-485.7 150.71,-476.54"/>
<polygon fill="black" stroke="black" stroke-width="2" points="153.83,-478.14 156.08,-467.79 147.87,-474.48 153.83,-478.14"/>
</g>
<!-- 33 -->
<g id="node2" class="node">
<title>33</title>
<ellipse fill="none" stroke="black" stroke-width="2" cx="135.4" cy="-594" rx="44.39" ry="18"/>
<text text-anchor="middle" x="135.4" y="-590.3" font-family="Times,serif" font-size="14.00">ldiv (1,4)</text>
</g>
<!-- 33&#45;&gt;36 -->
<g id="edge1" class="edge">
<title>33&#45;&gt;36</title>
<path fill="none" stroke="black" stroke-width="2" d="M132.43,-575.7C131.11,-567.98 129.52,-558.71 128.04,-550.11"/>
<polygon fill="black" stroke="black" stroke-width="2" points="131.47,-549.37 126.33,-540.1 124.57,-550.55 131.47,-549.37"/>
</g>
<!-- 39 -->
<g id="node7" class="node">
<title>39</title>
<ellipse fill="none" stroke="black" stroke-width="2" cx="49.4" cy="-450" rx="49.29" ry="18"/>
<text text-anchor="middle" x="49.4" y="-446.3" font-family="Times,serif" font-size="14.00">schur (4,4)</text>
</g>
<!-- 33&#45;&gt;39 -->
<g id="edge5" class="edge">
<title>33&#45;&gt;39</title>
<path fill="none" stroke="black" stroke-width="2" d="M108.75,-579.4C93.65,-570.29 75.76,-556.89 65.4,-540 54,-521.43 50.26,-496.84 49.22,-478.22"/>
<polygon fill="black" stroke="black" stroke-width="2" points="52.71,-477.91 48.88,-468.03 45.72,-478.14 52.71,-477.91"/>
</g>
<!-- 38 -->
<g id="node16" class="node">
<title>38</title>
<ellipse fill="none" stroke="black" stroke-width="2" cx="240.4" cy="-522" rx="49.29" ry="18"/>
<text text-anchor="middle" x="240.4" y="-518.3" font-family="Times,serif" font-size="14.00">schur (3,4)</text>
</g>
<!-- 33&#45;&gt;38 -->
<g id="edge17" class="edge">
<title>33&#45;&gt;38</title>
<path fill="none" stroke="black" stroke-width="2" d="M157.41,-578.33C172.46,-568.29 192.64,-554.84 209.32,-543.71"/>
<polygon fill="black" stroke="black" stroke-width="2" points="211.31,-546.6 217.69,-538.14 207.43,-540.77 211.31,-546.6"/>
</g>
<!-- 31 -->
<g id="node3" class="node">
<title>31</title>
<ellipse fill="none" stroke="red" stroke-width="2" cx="317.4" cy="-666" rx="44.39" ry="18"/>
<text text-anchor="middle" x="317.4" y="-662.3" font-family="Times,serif" font-size="14.00">ldiv (1,2)</text>
</g>
<!-- 31&#45;&gt;36 -->
<g id="edge2" class="edge">
<title>31&#45;&gt;36</title>
<path fill="none" stroke="black" stroke-width="2" d="M296.63,-649.8C262.1,-624.53 192.74,-573.76 153.06,-544.71"/>
<polygon fill="black" stroke="black" stroke-width="2" points="154.73,-541.6 144.6,-538.52 150.6,-547.25 154.73,-541.6"/>
</g>
<!-- 34 -->
<g id="node15" class="node">
<title>34</title>
<ellipse fill="none" stroke="red" stroke-width="2" cx="317.4" cy="-594" rx="49.29" ry="18"/>
<text text-anchor="middle" x="317.4" y="-590.3" font-family="Times,serif" font-size="14.00">schur (2,2)</text>
</g>
<!-- 31&#45;&gt;34 -->
<g id="edge15" class="edge">
<title>31&#45;&gt;34</title>
<path fill="none" stroke="red" stroke-width="2" d="M317.4,-647.7C317.4,-639.98 317.4,-630.71 317.4,-622.11"/>
<polygon fill="red" stroke="red" stroke-width="2" points="320.9,-622.1 317.4,-612.1 313.9,-622.1 320.9,-622.1"/>
</g>
<!-- 35 -->
<g id="node20" class="node">
<title>35</title>
<ellipse fill="none" stroke="black" stroke-width="2" cx="466.4" cy="-522" rx="49.29" ry="18"/>
<text text-anchor="middle" x="466.4" y="-518.3" font-family="Times,serif" font-size="14.00">schur (2,3)</text>
</g>
<!-- 31&#45;&gt;35 -->
<g id="edge25" class="edge">
<title>31&#45;&gt;35</title>
<path fill="none" stroke="black" stroke-width="2" d="M334.79,-649.38C346.39,-638.91 361.92,-624.74 375.4,-612 398.58,-590.08 424.56,-564.58 442.8,-546.51"/>
<polygon fill="black" stroke="black" stroke-width="2" points="445.49,-548.77 450.12,-539.25 440.55,-543.81 445.49,-548.77"/>
</g>
<!-- 37 -->
<g id="node4" class="node">
<title>37</title>
<ellipse fill="none" stroke="black" stroke-width="2" cx="504.4" cy="-450" rx="49.29" ry="18"/>
<text text-anchor="middle" x="504.4" y="-446.3" font-family="Times,serif" font-size="14.00">schur (3,3)</text>
</g>
<!-- 43 -->
<g id="node21" class="node">
<title>43</title>
<ellipse fill="none" stroke="red" stroke-width="2" cx="357.4" cy="-378" rx="49.29" ry="18"/>
<text text-anchor="middle" x="357.4" y="-374.3" font-family="Times,serif" font-size="14.00">schur (3,3)</text>
</g>
<!-- 37&#45;&gt;43 -->
<g id="edge30" class="edge">
<title>37&#45;&gt;43</title>
<path fill="none" stroke="black" stroke-width="2" d="M475.7,-435.34C452.81,-424.44 420.54,-409.07 395.48,-397.14"/>
<polygon fill="black" stroke="black" stroke-width="2" points="396.8,-393.89 386.27,-392.75 393.79,-400.21 396.8,-393.89"/>
</g>
<!-- 32 -->
<g id="node5" class="node">
<title>32</title>
<ellipse fill="none" stroke="black" stroke-width="2" cx="466.4" cy="-594" rx="44.39" ry="18"/>
<text text-anchor="middle" x="466.4" y="-590.3" font-family="Times,serif" font-size="14.00">ldiv (1,3)</text>
</g>
<!-- 32&#45;&gt;37 -->
<g id="edge3" class="edge">
<title>32&#45;&gt;37</title>
<path fill="none" stroke="black" stroke-width="2" d="M489.82,-578.7C502.63,-569.43 517.3,-556.1 524.4,-540 533.33,-519.73 526.53,-495.05 518.53,-476.82"/>
<polygon fill="black" stroke="black" stroke-width="2" points="521.63,-475.2 514.18,-467.68 515.31,-478.21 521.63,-475.2"/>
</g>
<!-- 32&#45;&gt;38 -->
<g id="edge16" class="edge">
<title>32&#45;&gt;38</title>
<path fill="none" stroke="black" stroke-width="2" d="M432.07,-582.37C393.24,-570.34 329.79,-550.69 286.62,-537.32"/>
<polygon fill="black" stroke="black" stroke-width="2" points="287.51,-533.93 276.92,-534.31 285.44,-540.61 287.51,-533.93"/>
</g>
<!-- 32&#45;&gt;35 -->
<g id="edge24" class="edge">
<title>32&#45;&gt;35</title>
<path fill="none" stroke="black" stroke-width="2" d="M466.4,-575.7C466.4,-567.98 466.4,-558.71 466.4,-550.11"/>
<polygon fill="black" stroke="black" stroke-width="2" points="469.9,-550.1 466.4,-540.1 462.9,-550.1 469.9,-550.1"/>
</g>
<!-- 30 -->
<g id="node6" class="node">
<title>30</title>
<ellipse fill="none" stroke="red" stroke-width="2" cx="317.4" cy="-738" rx="45.49" ry="18"/>
<text text-anchor="middle" x="317.4" y="-734.3" font-family="Times,serif" font-size="14.00">chol (1,1)</text>
</g>
<!-- 30&#45;&gt;33 -->
<g id="edge4" class="edge">
<title>30&#45;&gt;33</title>
<path fill="none" stroke="black" stroke-width="2" d="M297.57,-721.53C264.94,-696.07 199.84,-645.28 162.81,-616.39"/>
<polygon fill="black" stroke="black" stroke-width="2" points="164.96,-613.62 154.92,-610.23 160.65,-619.14 164.96,-613.62"/>
</g>
<!-- 30&#45;&gt;31 -->
<g id="edge14" class="edge">
<title>30&#45;&gt;31</title>
<path fill="none" stroke="red" stroke-width="2" d="M317.4,-719.7C317.4,-711.98 317.4,-702.71 317.4,-694.11"/>
<polygon fill="red" stroke="red" stroke-width="2" points="320.9,-694.1 317.4,-684.1 313.9,-694.1 320.9,-694.1"/>
</g>
<!-- 30&#45;&gt;32 -->
<g id="edge23" class="edge">
<title>30&#45;&gt;32</title>
<path fill="none" stroke="black" stroke-width="2" d="M334.2,-720.99C360.61,-695.82 411.94,-646.9 442.28,-617.98"/>
<polygon fill="black" stroke="black" stroke-width="2" points="445.06,-620.17 449.88,-610.74 440.23,-615.1 445.06,-620.17"/>
</g>
<!-- 45 -->
<g id="node10" class="node">
<title>45</title>
<ellipse fill="none" stroke="black" stroke-width="2" cx="123.4" cy="-378" rx="49.29" ry="18"/>
<text text-anchor="middle" x="123.4" y="-374.3" font-family="Times,serif" font-size="14.00">schur (4,4)</text>
</g>
<!-- 39&#45;&gt;45 -->
<g id="edge8" class="edge">
<title>39&#45;&gt;45</title>
<path fill="none" stroke="black" stroke-width="2" d="M66.56,-432.76C76.18,-423.66 88.34,-412.16 98.94,-402.13"/>
<polygon fill="black" stroke="black" stroke-width="2" points="101.47,-404.56 106.33,-395.15 96.66,-399.48 101.47,-404.56"/>
</g>
<!-- 42&#45;&gt;45 -->
<g id="edge9" class="edge">
<title>42&#45;&gt;45</title>
<path fill="none" stroke="black" stroke-width="2" d="M156.21,-432.41C151.09,-424.08 144.77,-413.8 139.05,-404.49"/>
<polygon fill="black" stroke="black" stroke-width="2" points="142.03,-402.65 133.81,-395.96 136.06,-406.31 142.03,-402.65"/>
</g>
<!-- 44 -->
<g id="node17" class="node">
<title>44</title>
<ellipse fill="none" stroke="black" stroke-width="2" cx="240.4" cy="-378" rx="49.29" ry="18"/>
<text text-anchor="middle" x="240.4" y="-374.3" font-family="Times,serif" font-size="14.00">schur (3,4)</text>
</g>
<!-- 42&#45;&gt;44 -->
<g id="edge20" class="edge">
<title>42&#45;&gt;44</title>
<path fill="none" stroke="black" stroke-width="2" d="M183.19,-433.12C192.86,-423.96 205.2,-412.29 215.94,-402.13"/>
<polygon fill="black" stroke="black" stroke-width="2" points="218.55,-404.48 223.41,-395.06 213.74,-399.39 218.55,-404.48"/>
</g>
<!-- 40 -->
<g id="node9" class="node">
<title>40</title>
<ellipse fill="none" stroke="red" stroke-width="2" cx="353.4" cy="-522" rx="45.49" ry="18"/>
<text text-anchor="middle" x="353.4" y="-518.3" font-family="Times,serif" font-size="14.00">chol (2,2)</text>
</g>
<!-- 40&#45;&gt;42 -->
<g id="edge7" class="edge">
<title>40&#45;&gt;42</title>
<path fill="none" stroke="black" stroke-width="2" d="M321.25,-508.97C289.79,-497.19 241.74,-479.2 207.51,-466.39"/>
<polygon fill="black" stroke="black" stroke-width="2" points="208.4,-462.99 197.81,-462.76 205.95,-469.54 208.4,-462.99"/>
</g>
<!-- 41 -->
<g id="node18" class="node">
<title>41</title>
<ellipse fill="none" stroke="red" stroke-width="2" cx="355.4" cy="-450" rx="44.39" ry="18"/>
<text text-anchor="middle" x="355.4" y="-446.3" font-family="Times,serif" font-size="14.00">ldiv (2,3)</text>
</g>
<!-- 40&#45;&gt;41 -->
<g id="edge28" class="edge">
<title>40&#45;&gt;41</title>
<path fill="none" stroke="red" stroke-width="2" d="M353.89,-503.7C354.11,-495.98 354.38,-486.71 354.62,-478.11"/>
<polygon fill="red" stroke="red" stroke-width="2" points="358.12,-478.2 354.91,-468.1 351.12,-478 358.12,-478.2"/>
</g>
<!-- 48 -->
<g id="node11" class="node">
<title>48</title>
<ellipse fill="none" stroke="red" stroke-width="2" cx="182.4" cy="-162" rx="49.29" ry="18"/>
<text text-anchor="middle" x="182.4" y="-158.3" font-family="Times,serif" font-size="14.00">schur (4,4)</text>
</g>
<!-- 45&#45;&gt;48 -->
<g id="edge11" class="edge">
<title>45&#45;&gt;48</title>
<path fill="none" stroke="black" stroke-width="2" d="M128.12,-359.85C138.38,-322.66 162.72,-234.37 175.01,-189.77"/>
<polygon fill="black" stroke="black" stroke-width="2" points="178.44,-190.51 177.73,-179.94 171.69,-188.65 178.44,-190.51"/>
</g>
<!-- 49 -->
<g id="node13" class="node">
<title>49</title>
<ellipse fill="none" stroke="red" stroke-width="2" cx="182.4" cy="-90" rx="45.49" ry="18"/>
<text text-anchor="middle" x="182.4" y="-86.3" font-family="Times,serif" font-size="14.00">chol (4,4)</text>
</g>
<!-- 48&#45;&gt;49 -->
<g id="edge12" class="edge">
<title>48&#45;&gt;49</title>
<path fill="none" stroke="red" stroke-width="2" d="M182.4,-143.7C182.4,-135.98 182.4,-126.71 182.4,-118.11"/>
<polygon fill="red" stroke="red" stroke-width="2" points="185.9,-118.1 182.4,-108.1 178.9,-118.1 185.9,-118.1"/>
</g>
<!-- 47 -->
<g id="node12" class="node">
<title>47</title>
<ellipse fill="none" stroke="red" stroke-width="2" cx="240.4" cy="-234" rx="44.39" ry="18"/>
<text text-anchor="middle" x="240.4" y="-230.3" font-family="Times,serif" font-size="14.00">ldiv (3,4)</text>
</g>
<!-- 47&#45;&gt;48 -->
<g id="edge10" class="edge">
<title>47&#45;&gt;48</title>
<path fill="none" stroke="red" stroke-width="2" d="M226.94,-216.76C219.73,-208.06 210.69,-197.15 202.64,-187.43"/>
<polygon fill="red" stroke="red" stroke-width="2" points="205.25,-185.1 196.18,-179.63 199.86,-189.57 205.25,-185.1"/>
</g>
<!-- 50 -->
<g id="node14" class="node">
<title>50</title>
<ellipse fill="none" stroke="red" stroke-width="2" cx="182.4" cy="-18" rx="30.59" ry="18"/>
<text text-anchor="middle" x="182.4" y="-14.3" font-family="Times,serif" font-size="14.00">result</text>
</g>
<!-- 49&#45;&gt;50 -->
<g id="edge13" class="edge">
<title>49&#45;&gt;50</title>
<path fill="none" stroke="red" stroke-width="2" d="M182.4,-71.7C182.4,-63.98 182.4,-54.71 182.4,-46.11"/>
<polygon fill="red" stroke="red" stroke-width="2" points="185.9,-46.1 182.4,-36.1 178.9,-46.1 185.9,-46.1"/>
</g>
<!-- 34&#45;&gt;40 -->
<g id="edge26" class="edge">
<title>34&#45;&gt;40</title>
<path fill="none" stroke="red" stroke-width="2" d="M326.11,-576.05C330.31,-567.89 335.44,-557.91 340.11,-548.82"/>
<polygon fill="red" stroke="red" stroke-width="2" points="343.3,-550.28 344.76,-539.79 337.08,-547.08 343.3,-550.28"/>
</g>
<!-- 38&#45;&gt;44 -->
<g id="edge19" class="edge">
<title>38&#45;&gt;44</title>
<path fill="none" stroke="black" stroke-width="2" d="M240.4,-503.87C240.4,-479.67 240.4,-435.21 240.4,-406.39"/>
<polygon fill="black" stroke="black" stroke-width="2" points="243.9,-406.19 240.4,-396.19 236.9,-406.19 243.9,-406.19"/>
</g>
<!-- 44&#45;&gt;47 -->
<g id="edge21" class="edge">
<title>44&#45;&gt;47</title>
<path fill="none" stroke="black" stroke-width="2" d="M240.4,-359.87C240.4,-335.67 240.4,-291.21 240.4,-262.39"/>
<polygon fill="black" stroke="black" stroke-width="2" points="243.9,-262.19 240.4,-252.19 236.9,-262.19 243.9,-262.19"/>
</g>
<!-- 41&#45;&gt;44 -->
<g id="edge18" class="edge">
<title>41&#45;&gt;44</title>
<path fill="none" stroke="black" stroke-width="2" d="M331.85,-434.67C315.02,-424.42 292.14,-410.5 273.48,-399.14"/>
<polygon fill="black" stroke="black" stroke-width="2" points="275.07,-396.01 264.71,-393.8 271.43,-401.99 275.07,-396.01"/>
</g>
<!-- 41&#45;&gt;43 -->
<g id="edge29" class="edge">
<title>41&#45;&gt;43</title>
<path fill="none" stroke="red" stroke-width="2" d="M355.89,-431.7C356.11,-423.98 356.38,-414.71 356.62,-406.11"/>
<polygon fill="red" stroke="red" stroke-width="2" points="360.12,-406.2 356.91,-396.1 353.12,-406 360.12,-406.2"/>
</g>
<!-- 46 -->
<g id="node19" class="node">
<title>46</title>
<ellipse fill="none" stroke="red" stroke-width="2" cx="335.4" cy="-306" rx="45.49" ry="18"/>
<text text-anchor="middle" x="335.4" y="-302.3" font-family="Times,serif" font-size="14.00">chol (3,3)</text>
</g>
<!-- 46&#45;&gt;47 -->
<g id="edge22" class="edge">
<title>46&#45;&gt;47</title>
<path fill="none" stroke="red" stroke-width="2" d="M314.78,-289.81C301.46,-280 283.94,-267.08 269.24,-256.25"/>
<polygon fill="red" stroke="red" stroke-width="2" points="271.1,-253.27 260.97,-250.16 266.94,-258.91 271.1,-253.27"/>
</g>
<!-- 35&#45;&gt;41 -->
<g id="edge27" class="edge">
<title>35&#45;&gt;41</title>
<path fill="none" stroke="black" stroke-width="2" d="M442.86,-506.15C426.71,-495.97 405.08,-482.33 387.37,-471.17"/>
<polygon fill="black" stroke="black" stroke-width="2" points="388.85,-467.96 378.52,-465.58 385.11,-473.88 388.85,-467.96"/>
</g>
<!-- 43&#45;&gt;46 -->
<g id="edge31" class="edge">
<title>43&#45;&gt;46</title>
<path fill="none" stroke="red" stroke-width="2" d="M352.07,-360.05C349.62,-352.26 346.65,-342.82 343.91,-334.08"/>
<polygon fill="red" stroke="red" stroke-width="2" points="347.16,-332.77 340.82,-324.28 340.48,-334.86 347.16,-332.77"/>
</g>
</g>
</svg>
