<?xml version="1.0" encoding="UTF-8" standalone="no"?>
<!DOCTYPE svg PUBLIC "-//W3C//DTD SVG 1.1//EN"
 "http://www.w3.org/Graphics/SVG/1.1/DTD/svg11.dtd">
<!-- Generated by graphviz version 2.50.0 (20211204.2007)
 -->
<!-- Title: dag Pages: 1 -->
<svg width="527pt" height="980pt"
 viewBox="0.00 0.00 526.79 980.00" xmlns="http://www.w3.org/2000/svg" xmlns:xlink="http://www.w3.org/1999/xlink">
<g id="graph0" class="graph" transform="scale(1 1) rotate(0) translate(4 976)">
<title>dag</title>
<polygon fill="white" stroke="transparent" points="-4,4 -4,-976 522.79,-976 522.79,4 -4,4"/>
<!-- 35 -->
<g id="node1" class="node">
<title>35</title>
<ellipse fill="none" stroke="black" stroke-width="2" cx="49.4" cy="-594" rx="49.29" ry="18"/>
<text text-anchor="middle" x="49.4" y="-590.3" font-family="Times,serif" font-size="14.00">schur (2,3)</text>
</g>
<!-- 41 -->
<g id="node18" class="node">
<title>41</title>
<ellipse fill="none" stroke="red" stroke-width="2" cx="275.4" cy="-522" rx="44.39" ry="18"/>
<text text-anchor="middle" x="275.4" y="-518.3" font-family="Times,serif" font-size="14.00">ldiv (2,3)</text>
</g>
<!-- 35&#45;&gt;41 -->
<g id="edge17" class="edge">
<title>35&#45;&gt;41</title>
<path fill="none" stroke="black" stroke-width="2" d="M85.71,-581.75C125.44,-569.45 189.14,-549.72 231.61,-536.56"/>
<polygon fill="black" stroke="black" stroke-width="2" points="232.88,-539.83 241.39,-533.53 230.81,-533.15 232.88,-539.83"/>
</g>
<!-- 33 -->
<g id="node2" class="node">
<title>33</title>
<ellipse fill="none" stroke="red" stroke-width="2" cx="275.4" cy="-738" rx="44.39" ry="18"/>
<text text-anchor="middle" x="275.4" y="-734.3" font-family="Times,serif" font-size="14.00">ldiv (1,4)</text>
</g>
<!-- 33&#45;&gt;35 -->
<g id="edge1" class="edge">
<title>33&#45;&gt;35</title>
<path fill="none" stroke="black" stroke-width="2" d="M236.22,-729.67C203.57,-722.16 156.99,-708.11 122.4,-684 98.23,-667.16 77.68,-640.2 64.61,-620.36"/>
<polygon fill="black" stroke="black" stroke-width="2" points="67.48,-618.35 59.14,-611.81 61.58,-622.12 67.48,-618.35"/>
</g>
<!-- 34 -->
<g id="node6" class="node">
<title>34</title>
<ellipse fill="none" stroke="red" stroke-width="2" cx="180.4" cy="-666" rx="49.29" ry="18"/>
<text text-anchor="middle" x="180.4" y="-662.3" font-family="Times,serif" font-size="14.00">schur (2,2)</text>
</g>
<!-- 33&#45;&gt;34 -->
<g id="edge5" class="edge">
<title>33&#45;&gt;34</title>
<path fill="none" stroke="red" stroke-width="2" d="M254.78,-721.81C241.55,-712.06 224.17,-699.26 209.54,-688.48"/>
<polygon fill="red" stroke="red" stroke-width="2" points="211.42,-685.52 201.3,-682.4 207.27,-691.15 211.42,-685.52"/>
</g>
<!-- 39 -->
<g id="node7" class="node">
<title>39</title>
<ellipse fill="none" stroke="black" stroke-width="2" cx="275.4" cy="-594" rx="49.29" ry="18"/>
<text text-anchor="middle" x="275.4" y="-590.3" font-family="Times,serif" font-size="14.00">schur (4,4)</text>
</g>
<!-- 33&#45;&gt;39 -->
<g id="edge6" class="edge">
<title>33&#45;&gt;39</title>
<path fill="none" stroke="black" stroke-width="2" d="M272.26,-719.77C270.34,-705.26 269.3,-684.18 275.4,-667"/>
<path fill="none" stroke="black" stroke-width="2" d="M275.4,-665C280.21,-651.45 280.57,-635.46 279.57,-622.19"/>
<polygon fill="black" stroke="black" stroke-width="2" points="283.05,-621.81 278.53,-612.23 276.09,-622.54 283.05,-621.81"/>
</g>
<!-- 38 -->
<g id="node16" class="node">
<title>38</title>
<ellipse fill="none" stroke="black" stroke-width="2" cx="392.4" cy="-594" rx="49.29" ry="18"/>
<text text-anchor="middle" x="392.4" y="-590.3" font-family="Times,serif" font-size="14.00">schur (3,4)</text>
</g>
<!-- 33&#45;&gt;38 -->
<g id="edge14" class="edge">
<title>33&#45;&gt;38</title>
<path fill="none" stroke="black" stroke-width="2" d="M275.4,-665C281.33,-648.27 320.48,-627.12 351.87,-612.47"/>
<polygon fill="black" stroke="black" stroke-width="2" points="353.69,-615.48 361.33,-608.14 350.78,-609.12 353.69,-615.48"/>
</g>
<!-- 37 -->
<g id="node17" class="node">
<title>37</title>
<ellipse fill="none" stroke="black" stroke-width="2" cx="352.4" cy="-666" rx="49.29" ry="18"/>
<text text-anchor="middle" x="352.4" y="-662.3" font-family="Times,serif" font-size="14.00">schur (3,3)</text>
</g>
<!-- 33&#45;&gt;37 -->
<g id="edge15" class="edge">
<title>33&#45;&gt;37</title>
<path fill="none" stroke="black" stroke-width="2" d="M292.87,-721.12C303.03,-711.87 316.02,-700.07 327.27,-689.84"/>
<polygon fill="black" stroke="black" stroke-width="2" points="329.68,-692.38 334.73,-683.06 324.97,-687.2 329.68,-692.38"/>
</g>
<!-- 36 -->
<g id="node19" class="node">
<title>36</title>
<ellipse fill="none" stroke="black" stroke-width="2" cx="469.4" cy="-666" rx="49.29" ry="18"/>
<text text-anchor="middle" x="469.4" y="-662.3" font-family="Times,serif" font-size="14.00">schur (2,4)</text>
</g>
<!-- 33&#45;&gt;36 -->
<g id="edge24" class="edge">
<title>33&#45;&gt;36</title>
<path fill="none" stroke="black" stroke-width="2" d="M307.43,-725.44C339.79,-713.76 390.02,-695.64 425.95,-682.68"/>
<polygon fill="black" stroke="black" stroke-width="2" points="427.46,-685.85 435.68,-679.16 425.09,-679.27 427.46,-685.85"/>
</g>
<!-- 30 -->
<g id="node3" class="node">
<title>30</title>
<ellipse fill="none" stroke="red" stroke-width="2" cx="275.4" cy="-954" rx="45.49" ry="18"/>
<text text-anchor="middle" x="275.4" y="-950.3" font-family="Times,serif" font-size="14.00">chol (1,1)</text>
</g>
<!-- 31 -->
<g id="node4" class="node">
<title>31</title>
<ellipse fill="none" stroke="red" stroke-width="2" cx="275.4" cy="-882" rx="44.39" ry="18"/>
<text text-anchor="middle" x="275.4" y="-878.3" font-family="Times,serif" font-size="14.00">ldiv (1,2)</text>
</g>
<!-- 30&#45;&gt;31 -->
<g id="edge2" class="edge">
<title>30&#45;&gt;31</title>
<path fill="none" stroke="red" stroke-width="2" d="M275.4,-935.7C275.4,-927.98 275.4,-918.71 275.4,-910.11"/>
<polygon fill="red" stroke="red" stroke-width="2" points="278.9,-910.1 275.4,-900.1 271.9,-910.1 278.9,-910.1"/>
</g>
<!-- 32 -->
<g id="node5" class="node">
<title>32</title>
<ellipse fill="none" stroke="red" stroke-width="2" cx="275.4" cy="-810" rx="44.39" ry="18"/>
<text text-anchor="middle" x="275.4" y="-806.3" font-family="Times,serif" font-size="14.00">ldiv (1,3)</text>
</g>
<!-- 31&#45;&gt;32 -->
<g id="edge3" class="edge">
<title>31&#45;&gt;32</title>
<path fill="none" stroke="red" stroke-width="2" d="M275.4,-863.7C275.4,-855.98 275.4,-846.71 275.4,-838.11"/>
<polygon fill="red" stroke="red" stroke-width="2" points="278.9,-838.1 275.4,-828.1 271.9,-838.1 278.9,-838.1"/>
</g>
<!-- 32&#45;&gt;33 -->
<g id="edge4" class="edge">
<title>32&#45;&gt;33</title>
<path fill="none" stroke="red" stroke-width="2" d="M275.4,-791.7C275.4,-783.98 275.4,-774.71 275.4,-766.11"/>
<polygon fill="red" stroke="red" stroke-width="2" points="278.9,-766.1 275.4,-756.1 271.9,-766.1 278.9,-766.1"/>
</g>
<!-- 40 -->
<g id="node20" class="node">
<title>40</title>
<ellipse fill="none" stroke="red" stroke-width="2" cx="162.4" cy="-594" rx="45.49" ry="18"/>
<text text-anchor="middle" x="162.4" y="-590.3" font-family="Times,serif" font-size="14.00">chol (2,2)</text>
</g>
<!-- 34&#45;&gt;40 -->
<g id="edge25" class="edge">
<title>34&#45;&gt;40</title>
<path fill="none" stroke="red" stroke-width="2" d="M176.04,-648.05C174.03,-640.26 171.61,-630.82 169.36,-622.08"/>
<polygon fill="red" stroke="red" stroke-width="2" points="172.72,-621.09 166.84,-612.28 165.94,-622.83 172.72,-621.09"/>
</g>
<!-- 39&#45;&gt;41 -->
<g id="edge16" class="edge">
<title>39&#45;&gt;41</title>
<path fill="none" stroke="black" stroke-width="2" d="M275.4,-575.7C275.4,-567.98 275.4,-558.71 275.4,-550.11"/>
<polygon fill="black" stroke="black" stroke-width="2" points="278.9,-550.1 275.4,-540.1 271.9,-550.1 278.9,-550.1"/>
</g>
<!-- 45 -->
<g id="node8" class="node">
<title>45</title>
<ellipse fill="none" stroke="black" stroke-width="2" cx="198.4" cy="-306" rx="49.29" ry="18"/>
<text text-anchor="middle" x="198.4" y="-302.3" font-family="Times,serif" font-size="14.00">schur (4,4)</text>
</g>
<!-- 47 -->
<g id="node10" class="node">
<title>47</title>
<ellipse fill="none" stroke="red" stroke-width="2" cx="275.4" cy="-234" rx="44.39" ry="18"/>
<text text-anchor="middle" x="275.4" y="-230.3" font-family="Times,serif" font-size="14.00">ldiv (3,4)</text>
</g>
<!-- 45&#45;&gt;47 -->
<g id="edge8" class="edge">
<title>45&#45;&gt;47</title>
<path fill="none" stroke="black" stroke-width="2" d="M215.87,-289.12C226.11,-279.81 239.21,-267.9 250.51,-257.62"/>
<polygon fill="black" stroke="black" stroke-width="2" points="252.95,-260.14 257.99,-250.82 248.24,-254.96 252.95,-260.14"/>
</g>
<!-- 42 -->
<g id="node9" class="node">
<title>42</title>
<ellipse fill="none" stroke="red" stroke-width="2" cx="275.4" cy="-450" rx="44.39" ry="18"/>
<text text-anchor="middle" x="275.4" y="-446.3" font-family="Times,serif" font-size="14.00">ldiv (2,4)</text>
</g>
<!-- 42&#45;&gt;45 -->
<g id="edge7" class="edge">
<title>42&#45;&gt;45</title>
<path fill="none" stroke="black" stroke-width="2" d="M253.48,-434.3C241.03,-424.81 226.21,-411.39 217.4,-396 206.56,-377.09 201.89,-352.72 199.88,-334.27"/>
<polygon fill="black" stroke="black" stroke-width="2" points="203.35,-333.82 198.98,-324.17 196.38,-334.44 203.35,-333.82"/>
</g>
<!-- 44 -->
<g id="node11" class="node">
<title>44</title>
<ellipse fill="none" stroke="black" stroke-width="2" cx="275.4" cy="-378" rx="49.29" ry="18"/>
<text text-anchor="middle" x="275.4" y="-374.3" font-family="Times,serif" font-size="14.00">schur (3,4)</text>
</g>
<!-- 42&#45;&gt;44 -->
<g id="edge23" class="edge">
<title>42&#45;&gt;44</title>
<path fill="none" stroke="black" stroke-width="2" d="M275.4,-431.7C275.4,-423.98 275.4,-414.71 275.4,-406.11"/>
<polygon fill="black" stroke="black" stroke-width="2" points="278.9,-406.1 275.4,-396.1 271.9,-406.1 278.9,-406.1"/>
</g>
<!-- 43 -->
<g id="node21" class="node">
<title>43</title>
<ellipse fill="none" stroke="red" stroke-width="2" cx="392.4" cy="-378" rx="49.29" ry="18"/>
<text text-anchor="middle" x="392.4" y="-374.3" font-family="Times,serif" font-size="14.00">schur (3,3)</text>
</g>
<!-- 42&#45;&gt;43 -->
<g id="edge26" class="edge">
<title>42&#45;&gt;43</title>
<path fill="none" stroke="red" stroke-width="2" d="M299.35,-434.67C316.55,-424.38 339.96,-410.37 358.99,-398.99"/>
<polygon fill="red" stroke="red" stroke-width="2" points="360.88,-401.94 367.66,-393.8 357.28,-395.93 360.88,-401.94"/>
</g>
<!-- 48 -->
<g id="node13" class="node">
<title>48</title>
<ellipse fill="none" stroke="red" stroke-width="2" cx="275.4" cy="-162" rx="49.29" ry="18"/>
<text text-anchor="middle" x="275.4" y="-158.3" font-family="Times,serif" font-size="14.00">schur (4,4)</text>
</g>
<!-- 47&#45;&gt;48 -->
<g id="edge11" class="edge">
<title>47&#45;&gt;48</title>
<path fill="none" stroke="red" stroke-width="2" d="M275.4,-215.7C275.4,-207.98 275.4,-198.71 275.4,-190.11"/>
<polygon fill="red" stroke="red" stroke-width="2" points="278.9,-190.1 275.4,-180.1 271.9,-190.1 278.9,-190.1"/>
</g>
<!-- 44&#45;&gt;47 -->
<g id="edge9" class="edge">
<title>44&#45;&gt;47</title>
<path fill="none" stroke="black" stroke-width="2" d="M275.4,-359.87C275.4,-335.67 275.4,-291.21 275.4,-262.39"/>
<polygon fill="black" stroke="black" stroke-width="2" points="278.9,-262.19 275.4,-252.19 271.9,-262.19 278.9,-262.19"/>
</g>
<!-- 46 -->
<g id="node12" class="node">
<title>46</title>
<ellipse fill="none" stroke="red" stroke-width="2" cx="370.4" cy="-306" rx="45.49" ry="18"/>
<text text-anchor="middle" x="370.4" y="-302.3" font-family="Times,serif" font-size="14.00">chol (3,3)</text>
</g>
<!-- 46&#45;&gt;47 -->
<g id="edge10" class="edge">
<title>46&#45;&gt;47</title>
<path fill="none" stroke="red" stroke-width="2" d="M349.78,-289.81C336.46,-280 318.94,-267.08 304.24,-256.25"/>
<polygon fill="red" stroke="red" stroke-width="2" points="306.1,-253.27 295.97,-250.16 301.94,-258.91 306.1,-253.27"/>
</g>
<!-- 49 -->
<g id="node14" class="node">
<title>49</title>
<ellipse fill="none" stroke="red" stroke-width="2" cx="275.4" cy="-90" rx="45.49" ry="18"/>
<text text-anchor="middle" x="275.4" y="-86.3" font-family="Times,serif" font-size="14.00">chol (4,4)</text>
</g>
<!-- 48&#45;&gt;49 -->
<g id="edge12" class="edge">
<title>48&#45;&gt;49</title>
<path fill="none" stroke="red" stroke-width="2" d="M275.4,-143.7C275.4,-135.98 275.4,-126.71 275.4,-118.11"/>
<polygon fill="red" stroke="red" stroke-width="2" points="278.9,-118.1 275.4,-108.1 271.9,-118.1 278.9,-118.1"/>
</g>
<!-- 50 -->
<g id="node15" class="node">
<title>50</title>
<ellipse fill="none" stroke="red" stroke-width="2" cx="275.4" cy="-18" rx="30.59" ry="18"/>
<text text-anchor="middle" x="275.4" y="-14.3" font-family="Times,serif" font-size="14.00">result</text>
</g>
<!-- 49&#45;&gt;50 -->
<g id="edge13" class="edge">
<title>49&#45;&gt;50</title>
<path fill="none" stroke="red" stroke-width="2" d="M275.4,-71.7C275.4,-63.98 275.4,-54.71 275.4,-46.11"/>
<polygon fill="red" stroke="red" stroke-width="2" points="278.9,-46.1 275.4,-36.1 271.9,-46.1 278.9,-46.1"/>
</g>
<!-- 38&#45;&gt;41 -->
<g id="edge19" class="edge">
<title>38&#45;&gt;41</title>
<path fill="none" stroke="black" stroke-width="2" d="M367.87,-578.33C350.51,-567.94 327.06,-553.91 308.11,-542.57"/>
<polygon fill="black" stroke="black" stroke-width="2" points="309.87,-539.55 299.49,-537.42 306.27,-545.55 309.87,-539.55"/>
</g>
<!-- 37&#45;&gt;41 -->
<g id="edge20" class="edge">
<title>37&#45;&gt;41</title>
<path fill="none" stroke="black" stroke-width="2" d="M469.4,-593C461.47,-563.98 380.36,-542.9 325.56,-531.83"/>
<polygon fill="black" stroke="black" stroke-width="2" points="326.14,-528.38 315.66,-529.89 324.79,-535.25 326.14,-528.38"/>
<path fill="none" stroke="black" stroke-width="2" d="M386.22,-652.67C422.61,-638.33 474.63,-614.18 469.4,-595"/>
</g>
<!-- 41&#45;&gt;42 -->
<g id="edge22" class="edge">
<title>41&#45;&gt;42</title>
<path fill="none" stroke="red" stroke-width="2" d="M275.4,-503.7C275.4,-495.98 275.4,-486.71 275.4,-478.11"/>
<polygon fill="red" stroke="red" stroke-width="2" points="278.9,-478.1 275.4,-468.1 271.9,-478.1 278.9,-478.1"/>
</g>
<!-- 36&#45;&gt;41 -->
<g id="edge18" class="edge">
<title>36&#45;&gt;41</title>
<path fill="none" stroke="black" stroke-width="2" d="M471.87,-647.98C473.37,-633.6 474.2,-612.59 469.4,-595"/>
</g>
<!-- 40&#45;&gt;41 -->
<g id="edge21" class="edge">
<title>40&#45;&gt;41</title>
<path fill="none" stroke="red" stroke-width="2" d="M185.81,-578.5C202.48,-568.17 225.07,-554.17 243.4,-542.82"/>
<polygon fill="red" stroke="red" stroke-width="2" points="245.35,-545.73 252.01,-537.49 241.67,-539.78 245.35,-545.73"/>
</g>
<!-- 43&#45;&gt;46 -->
<g id="edge27" class="edge">
<title>43&#45;&gt;46</title>
<path fill="none" stroke="red" stroke-width="2" d="M387.07,-360.05C384.62,-352.26 381.65,-342.82 378.91,-334.08"/>
<polygon fill="red" stroke="red" stroke-width="2" points="382.16,-332.77 375.82,-324.28 375.48,-334.86 382.16,-332.77"/>
</g>
</g>
</svg>
