<?xml version="1.0" encoding="UTF-8" standalone="no"?>
<!DOCTYPE svg PUBLIC "-//W3C//DTD SVG 1.1//EN"
 "http://www.w3.org/Graphics/SVG/1.1/DTD/svg11.dtd">
<!-- Generated by graphviz version 2.50.0 (20211204.2007)
 -->
<!-- Title: dag Pages: 1 -->
<svg width="639pt" height="980pt"
 viewBox="0.00 0.00 639.19 980.00" xmlns="http://www.w3.org/2000/svg" xmlns:xlink="http://www.w3.org/1999/xlink">
<g id="graph0" class="graph" transform="scale(1 1) rotate(0) translate(4 976)">
<title>dag</title>
<polygon fill="white" stroke="transparent" points="-4,4 -4,-976 635.19,-976 635.19,4 -4,4"/>
<!-- 37 -->
<g id="node1" class="node">
<title>37</title>
<ellipse fill="none" stroke="black" stroke-width="2" cx="61.09" cy="-594" rx="61.19" ry="18"/>
<text text-anchor="middle" x="61.09" y="-590.3" font-family="Times,serif" font-size="14.00">schur (3,3)</text>
</g>
<!-- 41 -->
<g id="node7" class="node">
<title>41</title>
<ellipse fill="none" stroke="red" stroke-width="2" cx="341.09" cy="-522" rx="51.99" ry="18"/>
<text text-anchor="middle" x="341.09" y="-518.3" font-family="Times,serif" font-size="14.00">ldiv (2,3)</text>
</g>
<!-- 37&#45;&gt;41 -->
<g id="edge9" class="edge">
<title>37&#45;&gt;41</title>
<path fill="none" stroke="black" stroke-width="2" d="M106.08,-581.75C156.48,-569.15 237.97,-548.78 290.53,-535.64"/>
<polygon fill="black" stroke="black" stroke-width="2" points="291.46,-539.02 300.32,-533.19 289.77,-532.22 291.46,-539.02"/>
</g>
<!-- 33 -->
<g id="node2" class="node">
<title>33</title>
<ellipse fill="none" stroke="red" stroke-width="2" cx="360.09" cy="-738" rx="51.99" ry="18"/>
<text text-anchor="middle" x="360.09" y="-734.3" font-family="Times,serif" font-size="14.00">ldiv (1,4)</text>
</g>
<!-- 33&#45;&gt;37 -->
<g id="edge1" class="edge">
<title>33&#45;&gt;37</title>
<path fill="none" stroke="black" stroke-width="2" d="M312.75,-730.33C275.32,-722.28 225.45,-704.77 201.09,-667"/>
<path fill="none" stroke="black" stroke-width="2" d="M201.09,-665C182.49,-636.15 148.15,-618.73 118.14,-608.48"/>
<polygon fill="black" stroke="black" stroke-width="2" points="119.17,-605.13 108.58,-605.4 117.02,-611.8 119.17,-605.13"/>
</g>
<!-- 36 -->
<g id="node3" class="node">
<title>36</title>
<ellipse fill="none" stroke="black" stroke-width="2" cx="201.09" cy="-594" rx="61.19" ry="18"/>
<text text-anchor="middle" x="201.09" y="-590.3" font-family="Times,serif" font-size="14.00">schur (2,4)</text>
</g>
<!-- 33&#45;&gt;36 -->
<g id="edge2" class="edge">
<title>33&#45;&gt;36</title>
<path fill="none" stroke="black" stroke-width="2" d="M201.09,-665C193.01,-652.47 192.68,-635.86 194.52,-621.97"/>
<polygon fill="black" stroke="black" stroke-width="2" points="197.99,-622.44 196.26,-611.99 191.1,-621.24 197.99,-622.44"/>
</g>
<!-- 39 -->
<g id="node4" class="node">
<title>39</title>
<ellipse fill="none" stroke="black" stroke-width="2" cx="341.09" cy="-594" rx="61.19" ry="18"/>
<text text-anchor="middle" x="341.09" y="-590.3" font-family="Times,serif" font-size="14.00">schur (4,4)</text>
</g>
<!-- 33&#45;&gt;39 -->
<g id="edge3" class="edge">
<title>33&#45;&gt;39</title>
<path fill="none" stroke="black" stroke-width="2" d="M201.09,-665C189.53,-647.07 244.8,-624.81 289.27,-610.27"/>
<polygon fill="black" stroke="black" stroke-width="2" points="290.4,-613.58 298.86,-607.2 288.27,-606.92 290.4,-613.58"/>
</g>
<!-- 34 -->
<g id="node6" class="node">
<title>34</title>
<ellipse fill="none" stroke="black" stroke-width="2" cx="290.09" cy="-666" rx="61.19" ry="18"/>
<text text-anchor="middle" x="290.09" y="-662.3" font-family="Times,serif" font-size="14.00">schur (2,2)</text>
</g>
<!-- 33&#45;&gt;34 -->
<g id="edge20" class="edge">
<title>33&#45;&gt;34</title>
<path fill="none" stroke="black" stroke-width="2" d="M343.86,-720.76C334.98,-711.88 323.8,-700.71 313.95,-690.85"/>
<polygon fill="black" stroke="black" stroke-width="2" points="316.27,-688.23 306.73,-683.63 311.32,-693.18 316.27,-688.23"/>
</g>
<!-- 35 -->
<g id="node8" class="node">
<title>35</title>
<ellipse fill="none" stroke="black" stroke-width="2" cx="430.09" cy="-666" rx="61.19" ry="18"/>
<text text-anchor="middle" x="430.09" y="-662.3" font-family="Times,serif" font-size="14.00">schur (2,3)</text>
</g>
<!-- 33&#45;&gt;35 -->
<g id="edge19" class="edge">
<title>33&#45;&gt;35</title>
<path fill="none" stroke="black" stroke-width="2" d="M376.33,-720.76C385.21,-711.88 396.39,-700.71 406.24,-690.85"/>
<polygon fill="black" stroke="black" stroke-width="2" points="408.86,-693.18 413.46,-683.63 403.92,-688.23 408.86,-693.18"/>
</g>
<!-- 38 -->
<g id="node9" class="node">
<title>38</title>
<ellipse fill="none" stroke="red" stroke-width="2" cx="570.09" cy="-666" rx="61.19" ry="18"/>
<text text-anchor="middle" x="570.09" y="-662.3" font-family="Times,serif" font-size="14.00">schur (3,4)</text>
</g>
<!-- 33&#45;&gt;38 -->
<g id="edge14" class="edge">
<title>33&#45;&gt;38</title>
<path fill="none" stroke="red" stroke-width="2" d="M396.19,-724.97C430.75,-713.45 483.13,-695.99 521.37,-683.24"/>
<polygon fill="red" stroke="red" stroke-width="2" points="522.88,-686.43 531.26,-679.94 520.67,-679.79 522.88,-686.43"/>
</g>
<!-- 36&#45;&gt;41 -->
<g id="edge7" class="edge">
<title>36&#45;&gt;41</title>
<path fill="none" stroke="black" stroke-width="2" d="M230.78,-578.15C251.95,-567.57 280.57,-553.26 303.35,-541.87"/>
<polygon fill="black" stroke="black" stroke-width="2" points="305.03,-544.95 312.4,-537.35 301.89,-538.69 305.03,-544.95"/>
</g>
<!-- 39&#45;&gt;41 -->
<g id="edge5" class="edge">
<title>39&#45;&gt;41</title>
<path fill="none" stroke="black" stroke-width="2" d="M341.09,-575.7C341.09,-567.98 341.09,-558.71 341.09,-550.11"/>
<polygon fill="black" stroke="black" stroke-width="2" points="344.59,-550.1 341.09,-540.1 337.59,-550.1 344.59,-550.1"/>
</g>
<!-- 40 -->
<g id="node5" class="node">
<title>40</title>
<ellipse fill="none" stroke="black" stroke-width="2" cx="474.09" cy="-594" rx="53.89" ry="18"/>
<text text-anchor="middle" x="474.09" y="-590.3" font-family="Times,serif" font-size="14.00">chol (2,2)</text>
</g>
<!-- 40&#45;&gt;41 -->
<g id="edge10" class="edge">
<title>40&#45;&gt;41</title>
<path fill="none" stroke="black" stroke-width="2" d="M446.54,-578.5C426.56,-567.98 399.35,-553.66 377.58,-542.2"/>
<polygon fill="black" stroke="black" stroke-width="2" points="379.1,-539.05 368.62,-537.49 375.84,-545.24 379.1,-539.05"/>
</g>
<!-- 34&#45;&gt;40 -->
<g id="edge4" class="edge">
<title>34&#45;&gt;40</title>
<path fill="none" stroke="black" stroke-width="2" d="M326.01,-651.34C355.86,-639.98 398.46,-623.77 430.31,-611.66"/>
<polygon fill="black" stroke="black" stroke-width="2" points="431.72,-614.86 439.83,-608.04 429.24,-608.32 431.72,-614.86"/>
</g>
<!-- 42 -->
<g id="node10" class="node">
<title>42</title>
<ellipse fill="none" stroke="red" stroke-width="2" cx="341.09" cy="-450" rx="51.99" ry="18"/>
<text text-anchor="middle" x="341.09" y="-446.3" font-family="Times,serif" font-size="14.00">ldiv (2,4)</text>
</g>
<!-- 41&#45;&gt;42 -->
<g id="edge11" class="edge">
<title>41&#45;&gt;42</title>
<path fill="none" stroke="red" stroke-width="2" d="M341.09,-503.7C341.09,-495.98 341.09,-486.71 341.09,-478.11"/>
<polygon fill="red" stroke="red" stroke-width="2" points="344.59,-478.1 341.09,-468.1 337.59,-478.1 344.59,-478.1"/>
</g>
<!-- 35&#45;&gt;41 -->
<g id="edge6" class="edge">
<title>35&#45;&gt;41</title>
<path fill="none" stroke="black" stroke-width="2" d="M471.11,-652.49C512.26,-638.69 568.8,-615.69 563.09,-595"/>
<path fill="none" stroke="black" stroke-width="2" d="M563.09,-593C554.1,-560.39 461.91,-540.49 399.2,-530.63"/>
<polygon fill="black" stroke="black" stroke-width="2" points="399.43,-527.12 389.02,-529.07 398.37,-534.04 399.43,-527.12"/>
</g>
<!-- 38&#45;&gt;41 -->
<g id="edge8" class="edge">
<title>38&#45;&gt;41</title>
<path fill="none" stroke="red" stroke-width="2" d="M569.98,-647.73C569.51,-633.38 567.93,-612.54 563.09,-595"/>
</g>
<!-- 43 -->
<g id="node11" class="node">
<title>43</title>
<ellipse fill="none" stroke="red" stroke-width="2" cx="230.09" cy="-378" rx="61.19" ry="18"/>
<text text-anchor="middle" x="230.09" y="-374.3" font-family="Times,serif" font-size="14.00">schur (3,3)</text>
</g>
<!-- 42&#45;&gt;43 -->
<g id="edge12" class="edge">
<title>42&#45;&gt;43</title>
<path fill="none" stroke="red" stroke-width="2" d="M317.28,-433.98C301.66,-424.13 281,-411.1 263.71,-400.2"/>
<polygon fill="red" stroke="red" stroke-width="2" points="265.35,-397.09 255.02,-394.72 261.61,-403.01 265.35,-397.09"/>
</g>
<!-- 45 -->
<g id="node13" class="node">
<title>45</title>
<ellipse fill="none" stroke="black" stroke-width="2" cx="341.09" cy="-306" rx="61.19" ry="18"/>
<text text-anchor="middle" x="341.09" y="-302.3" font-family="Times,serif" font-size="14.00">schur (4,4)</text>
</g>
<!-- 42&#45;&gt;45 -->
<g id="edge15" class="edge">
<title>42&#45;&gt;45</title>
<path fill="none" stroke="black" stroke-width="2" d="M341.09,-431.87C341.09,-407.67 341.09,-363.21 341.09,-334.39"/>
<polygon fill="black" stroke="black" stroke-width="2" points="344.59,-334.19 341.09,-324.19 337.59,-334.19 344.59,-334.19"/>
</g>
<!-- 44 -->
<g id="node17" class="node">
<title>44</title>
<ellipse fill="none" stroke="black" stroke-width="2" cx="430.09" cy="-378" rx="61.19" ry="18"/>
<text text-anchor="middle" x="430.09" y="-374.3" font-family="Times,serif" font-size="14.00">schur (3,4)</text>
</g>
<!-- 42&#45;&gt;44 -->
<g id="edge21" class="edge">
<title>42&#45;&gt;44</title>
<path fill="none" stroke="black" stroke-width="2" d="M361.29,-433.12C373.27,-423.7 388.63,-411.61 401.8,-401.25"/>
<polygon fill="black" stroke="black" stroke-width="2" points="403.97,-404 409.67,-395.06 399.65,-398.49 403.97,-404"/>
</g>
<!-- 46 -->
<g id="node12" class="node">
<title>46</title>
<ellipse fill="none" stroke="red" stroke-width="2" cx="208.09" cy="-306" rx="53.89" ry="18"/>
<text text-anchor="middle" x="208.09" y="-302.3" font-family="Times,serif" font-size="14.00">chol (3,3)</text>
</g>
<!-- 43&#45;&gt;46 -->
<g id="edge13" class="edge">
<title>43&#45;&gt;46</title>
<path fill="none" stroke="red" stroke-width="2" d="M224.77,-360.05C222.32,-352.26 219.35,-342.82 216.61,-334.08"/>
<polygon fill="red" stroke="red" stroke-width="2" points="219.86,-332.77 213.52,-324.28 213.18,-334.86 219.86,-332.77"/>
</g>
<!-- 47 -->
<g id="node18" class="node">
<title>47</title>
<ellipse fill="none" stroke="red" stroke-width="2" cx="341.09" cy="-234" rx="51.99" ry="18"/>
<text text-anchor="middle" x="341.09" y="-230.3" font-family="Times,serif" font-size="14.00">ldiv (3,4)</text>
</g>
<!-- 46&#45;&gt;47 -->
<g id="edge24" class="edge">
<title>46&#45;&gt;47</title>
<path fill="none" stroke="red" stroke-width="2" d="M235.65,-290.5C255.63,-279.98 282.83,-265.66 304.61,-254.2"/>
<polygon fill="red" stroke="red" stroke-width="2" points="306.35,-257.24 313.57,-249.49 303.09,-251.05 306.35,-257.24"/>
</g>
<!-- 45&#45;&gt;47 -->
<g id="edge22" class="edge">
<title>45&#45;&gt;47</title>
<path fill="none" stroke="black" stroke-width="2" d="M341.09,-287.7C341.09,-279.98 341.09,-270.71 341.09,-262.11"/>
<polygon fill="black" stroke="black" stroke-width="2" points="344.59,-262.1 341.09,-252.1 337.59,-262.1 344.59,-262.1"/>
</g>
<!-- 30 -->
<g id="node14" class="node">
<title>30</title>
<ellipse fill="none" stroke="red" stroke-width="2" cx="360.09" cy="-954" rx="53.89" ry="18"/>
<text text-anchor="middle" x="360.09" y="-950.3" font-family="Times,serif" font-size="14.00">chol (1,1)</text>
</g>
<!-- 31 -->
<g id="node15" class="node">
<title>31</title>
<ellipse fill="none" stroke="red" stroke-width="2" cx="360.09" cy="-882" rx="51.99" ry="18"/>
<text text-anchor="middle" x="360.09" y="-878.3" font-family="Times,serif" font-size="14.00">ldiv (1,2)</text>
</g>
<!-- 30&#45;&gt;31 -->
<g id="edge16" class="edge">
<title>30&#45;&gt;31</title>
<path fill="none" stroke="red" stroke-width="2" d="M360.09,-935.7C360.09,-927.98 360.09,-918.71 360.09,-910.11"/>
<polygon fill="red" stroke="red" stroke-width="2" points="363.59,-910.1 360.09,-900.1 356.59,-910.1 363.59,-910.1"/>
</g>
<!-- 32 -->
<g id="node16" class="node">
<title>32</title>
<ellipse fill="none" stroke="red" stroke-width="2" cx="360.09" cy="-810" rx="51.99" ry="18"/>
<text text-anchor="middle" x="360.09" y="-806.3" font-family="Times,serif" font-size="14.00">ldiv (1,3)</text>
</g>
<!-- 31&#45;&gt;32 -->
<g id="edge17" class="edge">
<title>31&#45;&gt;32</title>
<path fill="none" stroke="red" stroke-width="2" d="M360.09,-863.7C360.09,-855.98 360.09,-846.71 360.09,-838.11"/>
<polygon fill="red" stroke="red" stroke-width="2" points="363.59,-838.1 360.09,-828.1 356.59,-838.1 363.59,-838.1"/>
</g>
<!-- 32&#45;&gt;33 -->
<g id="edge18" class="edge">
<title>32&#45;&gt;33</title>
<path fill="none" stroke="red" stroke-width="2" d="M360.09,-791.7C360.09,-783.98 360.09,-774.71 360.09,-766.11"/>
<polygon fill="red" stroke="red" stroke-width="2" points="363.59,-766.1 360.09,-756.1 356.59,-766.1 363.59,-766.1"/>
</g>
<!-- 44&#45;&gt;47 -->
<g id="edge23" class="edge">
<title>44&#45;&gt;47</title>
<path fill="none" stroke="black" stroke-width="2" d="M429.92,-359.94C428.98,-340.98 425.17,-310.13 411.09,-288 402.65,-274.73 389.64,-263.54 377.12,-254.92"/>
<polygon fill="black" stroke="black" stroke-width="2" points="378.88,-251.89 368.59,-249.37 375.06,-257.76 378.88,-251.89"/>
</g>
<!-- 48 -->
<g id="node19" class="node">
<title>48</title>
<ellipse fill="none" stroke="red" stroke-width="2" cx="341.09" cy="-162" rx="61.19" ry="18"/>
<text text-anchor="middle" x="341.09" y="-158.3" font-family="Times,serif" font-size="14.00">schur (4,4)</text>
</g>
<!-- 47&#45;&gt;48 -->
<g id="edge25" class="edge">
<title>47&#45;&gt;48</title>
<path fill="none" stroke="red" stroke-width="2" d="M341.09,-215.7C341.09,-207.98 341.09,-198.71 341.09,-190.11"/>
<polygon fill="red" stroke="red" stroke-width="2" points="344.59,-190.1 341.09,-180.1 337.59,-190.1 344.59,-190.1"/>
</g>
<!-- 49 -->
<g id="node20" class="node">
<title>49</title>
<ellipse fill="none" stroke="red" stroke-width="2" cx="341.09" cy="-90" rx="53.89" ry="18"/>
<text text-anchor="middle" x="341.09" y="-86.3" font-family="Times,serif" font-size="14.00">chol (4,4)</text>
</g>
<!-- 48&#45;&gt;49 -->
<g id="edge26" class="edge">
<title>48&#45;&gt;49</title>
<path fill="none" stroke="red" stroke-width="2" d="M341.09,-143.7C341.09,-135.98 341.09,-126.71 341.09,-118.11"/>
<polygon fill="red" stroke="red" stroke-width="2" points="344.59,-118.1 341.09,-108.1 337.59,-118.1 344.59,-118.1"/>
</g>
<!-- 50 -->
<g id="node21" class="node">
<title>50</title>
<ellipse fill="none" stroke="red" stroke-width="2" cx="341.09" cy="-18" rx="38.19" ry="18"/>
<text text-anchor="middle" x="341.09" y="-14.3" font-family="Times,serif" font-size="14.00">result</text>
</g>
<!-- 49&#45;&gt;50 -->
<g id="edge27" class="edge">
<title>49&#45;&gt;50</title>
<path fill="none" stroke="red" stroke-width="2" d="M341.09,-71.7C341.09,-63.98 341.09,-54.71 341.09,-46.11"/>
<polygon fill="red" stroke="red" stroke-width="2" points="344.59,-46.1 341.09,-36.1 337.59,-46.1 344.59,-46.1"/>
</g>
</g>
</svg>
