<?xml version="1.0" encoding="UTF-8" standalone="no"?>
<!DOCTYPE svg PUBLIC "-//W3C//DTD SVG 1.1//EN"
 "http://www.w3.org/Graphics/SVG/1.1/DTD/svg11.dtd">
<!-- Generated by graphviz version 2.50.0 (20211204.2007)
 -->
<!-- Title: dag Pages: 1 -->
<svg width="508pt" height="692pt"
 viewBox="0.00 0.00 508.09 692.00" xmlns="http://www.w3.org/2000/svg" xmlns:xlink="http://www.w3.org/1999/xlink">
<g id="graph0" class="graph" transform="scale(1 1) rotate(0) translate(4 688)">
<title>dag</title>
<polygon fill="white" stroke="transparent" points="-4,4 -4,-688 504.09,-688 504.09,4 -4,4"/>
<!-- 7 -->
<g id="node1" class="node">
<title>7</title>
<ellipse fill="none" stroke="black" stroke-width="2" cx="112.55" cy="-450" rx="43.59" ry="18"/>
<text text-anchor="middle" x="112.55" y="-446.3" font-family="Times New Roman,serif" font-size="14.00">schur 2,4</text>
</g>
<!-- 13 -->
<g id="node9" class="node">
<title>13</title>
<ellipse fill="none" stroke="black" stroke-width="2" cx="148.55" cy="-378" rx="38.19" ry="18"/>
<text text-anchor="middle" x="148.55" y="-374.3" font-family="Times New Roman,serif" font-size="14.00">ldiv 2,4</text>
</g>
<!-- 7&#45;&gt;13 -->
<g id="edge16" class="edge">
<title>7&#45;&gt;13</title>
<path fill="none" stroke="black" stroke-width="2" d="M121.26,-432.05C125.46,-423.89 130.59,-413.91 135.27,-404.82"/>
<polygon fill="black" stroke="black" stroke-width="2" points="138.45,-406.28 139.91,-395.79 132.23,-403.08 138.45,-406.28"/>
</g>
<!-- 4 -->
<g id="node2" class="node">
<title>4</title>
<ellipse fill="none" stroke="black" stroke-width="2" cx="120.55" cy="-522" rx="38.19" ry="18"/>
<text text-anchor="middle" x="120.55" y="-518.3" font-family="Times New Roman,serif" font-size="14.00">ldiv 1,4</text>
</g>
<!-- 4&#45;&gt;7 -->
<g id="edge1" class="edge">
<title>4&#45;&gt;7</title>
<path fill="none" stroke="black" stroke-width="2" d="M118.57,-503.7C117.69,-495.98 116.63,-486.71 115.64,-478.11"/>
<polygon fill="black" stroke="black" stroke-width="2" points="119.11,-477.64 114.5,-468.1 112.16,-478.44 119.11,-477.64"/>
</g>
<!-- 9 -->
<g id="node7" class="node">
<title>9</title>
<ellipse fill="none" stroke="black" stroke-width="2" cx="217.55" cy="-450" rx="43.59" ry="18"/>
<text text-anchor="middle" x="217.55" y="-446.3" font-family="Times New Roman,serif" font-size="14.00">schur 3,4</text>
</g>
<!-- 4&#45;&gt;9 -->
<g id="edge6" class="edge">
<title>4&#45;&gt;9</title>
<path fill="none" stroke="black" stroke-width="2" d="M140.64,-506.5C154.5,-496.49 173.14,-483.05 188.6,-471.89"/>
<polygon fill="black" stroke="black" stroke-width="2" points="190.74,-474.66 196.8,-465.97 186.65,-468.98 190.74,-474.66"/>
</g>
<!-- 10 -->
<g id="node10" class="node">
<title>10</title>
<ellipse fill="none" stroke="black" stroke-width="2" cx="43.55" cy="-378" rx="43.59" ry="18"/>
<text text-anchor="middle" x="43.55" y="-374.3" font-family="Times New Roman,serif" font-size="14.00">schur 4,4</text>
</g>
<!-- 4&#45;&gt;10 -->
<g id="edge15" class="edge">
<title>4&#45;&gt;10</title>
<path fill="none" stroke="black" stroke-width="2" d="M98.22,-507.29C84.87,-497.9 68.76,-484.22 59.55,-468 48.85,-449.17 45.03,-424.8 43.79,-406.32"/>
<polygon fill="black" stroke="black" stroke-width="2" points="47.28,-406.03 43.32,-396.2 40.29,-406.36 47.28,-406.03"/>
</g>
<!-- 2 -->
<g id="node3" class="node">
<title>2</title>
<ellipse fill="none" stroke="red" stroke-width="2" cx="281.55" cy="-594" rx="38.19" ry="18"/>
<text text-anchor="middle" x="281.55" y="-590.3" font-family="Times New Roman,serif" font-size="14.00">ldiv 1,2</text>
</g>
<!-- 2&#45;&gt;7 -->
<g id="edge2" class="edge">
<title>2&#45;&gt;7</title>
<path fill="none" stroke="black" stroke-width="2" d="M263.46,-577.8C233.5,-552.63 173.47,-502.19 138.83,-473.08"/>
<polygon fill="black" stroke="black" stroke-width="2" points="140.92,-470.27 131.01,-466.52 136.42,-475.63 140.92,-470.27"/>
</g>
<!-- 6 -->
<g id="node5" class="node">
<title>6</title>
<ellipse fill="none" stroke="black" stroke-width="2" cx="419.55" cy="-450" rx="43.59" ry="18"/>
<text text-anchor="middle" x="419.55" y="-446.3" font-family="Times New Roman,serif" font-size="14.00">schur 2,3</text>
</g>
<!-- 2&#45;&gt;6 -->
<g id="edge4" class="edge">
<title>2&#45;&gt;6</title>
<path fill="none" stroke="black" stroke-width="2" d="M297.41,-577.32C307.99,-566.82 322.18,-552.66 334.55,-540 355.91,-518.14 379.95,-492.91 397,-474.91"/>
<polygon fill="black" stroke="black" stroke-width="2" points="399.97,-476.85 404.3,-467.18 394.89,-472.04 399.97,-476.85"/>
</g>
<!-- 5 -->
<g id="node19" class="node">
<title>5</title>
<ellipse fill="none" stroke="red" stroke-width="2" cx="281.55" cy="-522" rx="43.59" ry="18"/>
<text text-anchor="middle" x="281.55" y="-518.3" font-family="Times New Roman,serif" font-size="14.00">schur 2,2</text>
</g>
<!-- 2&#45;&gt;5 -->
<g id="edge24" class="edge">
<title>2&#45;&gt;5</title>
<path fill="none" stroke="red" stroke-width="2" d="M281.55,-575.7C281.55,-567.98 281.55,-558.71 281.55,-550.11"/>
<polygon fill="red" stroke="red" stroke-width="2" points="285.05,-550.1 281.55,-540.1 278.05,-550.1 285.05,-550.1"/>
</g>
<!-- 1 -->
<g id="node4" class="node">
<title>1</title>
<ellipse fill="none" stroke="red" stroke-width="2" cx="281.55" cy="-666" rx="39.79" ry="18"/>
<text text-anchor="middle" x="281.55" y="-662.3" font-family="Times New Roman,serif" font-size="14.00">chol 1,1</text>
</g>
<!-- 1&#45;&gt;4 -->
<g id="edge3" class="edge">
<title>1&#45;&gt;4</title>
<path fill="none" stroke="black" stroke-width="2" d="M264.01,-649.53C235.46,-624.35 178.82,-574.39 145.89,-545.35"/>
<polygon fill="black" stroke="black" stroke-width="2" points="147.88,-542.44 138.06,-538.45 143.25,-547.69 147.88,-542.44"/>
</g>
<!-- 1&#45;&gt;2 -->
<g id="edge13" class="edge">
<title>1&#45;&gt;2</title>
<path fill="none" stroke="red" stroke-width="2" d="M281.55,-647.7C281.55,-639.98 281.55,-630.71 281.55,-622.11"/>
<polygon fill="red" stroke="red" stroke-width="2" points="285.05,-622.1 281.55,-612.1 278.05,-622.1 285.05,-622.1"/>
</g>
<!-- 3 -->
<g id="node6" class="node">
<title>3</title>
<ellipse fill="none" stroke="black" stroke-width="2" cx="419.55" cy="-522" rx="38.19" ry="18"/>
<text text-anchor="middle" x="419.55" y="-518.3" font-family="Times New Roman,serif" font-size="14.00">ldiv 1,3</text>
</g>
<!-- 1&#45;&gt;3 -->
<g id="edge23" class="edge">
<title>1&#45;&gt;3</title>
<path fill="none" stroke="black" stroke-width="2" d="M296.84,-649.26C321.19,-624.2 368.9,-575.12 397.11,-546.08"/>
<polygon fill="black" stroke="black" stroke-width="2" points="399.72,-548.42 404.18,-538.81 394.7,-543.54 399.72,-548.42"/>
</g>
<!-- 12 -->
<g id="node17" class="node">
<title>12</title>
<ellipse fill="none" stroke="red" stroke-width="2" cx="320.55" cy="-378" rx="38.19" ry="18"/>
<text text-anchor="middle" x="320.55" y="-374.3" font-family="Times New Roman,serif" font-size="14.00">ldiv 2,3</text>
</g>
<!-- 6&#45;&gt;12 -->
<g id="edge26" class="edge">
<title>6&#45;&gt;12</title>
<path fill="none" stroke="black" stroke-width="2" d="M398.55,-434.15C384.18,-424 364.96,-410.4 349.19,-399.25"/>
<polygon fill="black" stroke="black" stroke-width="2" points="351.02,-396.26 340.83,-393.35 346.98,-401.98 351.02,-396.26"/>
</g>
<!-- 3&#45;&gt;6 -->
<g id="edge5" class="edge">
<title>3&#45;&gt;6</title>
<path fill="none" stroke="black" stroke-width="2" d="M419.55,-503.7C419.55,-495.98 419.55,-486.71 419.55,-478.11"/>
<polygon fill="black" stroke="black" stroke-width="2" points="423.05,-478.1 419.55,-468.1 416.05,-478.1 423.05,-478.1"/>
</g>
<!-- 3&#45;&gt;9 -->
<g id="edge7" class="edge">
<title>3&#45;&gt;9</title>
<path fill="none" stroke="black" stroke-width="2" d="M389.74,-510.67C355.24,-498.72 298.19,-478.95 259.29,-465.47"/>
<polygon fill="black" stroke="black" stroke-width="2" points="260.41,-462.15 249.82,-462.18 258.12,-468.76 260.41,-462.15"/>
</g>
<!-- 8 -->
<g id="node14" class="node">
<title>8</title>
<ellipse fill="none" stroke="black" stroke-width="2" cx="456.55" cy="-378" rx="43.59" ry="18"/>
<text text-anchor="middle" x="456.55" y="-374.3" font-family="Times New Roman,serif" font-size="14.00">schur 3,3</text>
</g>
<!-- 3&#45;&gt;8 -->
<g id="edge14" class="edge">
<title>3&#45;&gt;8</title>
<path fill="none" stroke="black" stroke-width="2" d="M440.45,-506.7C452.3,-497.26 466.02,-483.75 472.55,-468 480.91,-447.81 475.45,-423.26 468.72,-405.06"/>
<polygon fill="black" stroke="black" stroke-width="2" points="471.92,-403.64 464.93,-395.67 465.43,-406.25 471.92,-403.64"/>
</g>
<!-- 15 -->
<g id="node16" class="node">
<title>15</title>
<ellipse fill="none" stroke="black" stroke-width="2" cx="217.55" cy="-306" rx="43.59" ry="18"/>
<text text-anchor="middle" x="217.55" y="-302.3" font-family="Times New Roman,serif" font-size="14.00">schur 3,4</text>
</g>
<!-- 9&#45;&gt;15 -->
<g id="edge19" class="edge">
<title>9&#45;&gt;15</title>
<path fill="none" stroke="black" stroke-width="2" d="M217.55,-431.87C217.55,-407.67 217.55,-363.21 217.55,-334.39"/>
<polygon fill="black" stroke="black" stroke-width="2" points="221.05,-334.19 217.55,-324.19 214.05,-334.19 221.05,-334.19"/>
</g>
<!-- 16 -->
<g id="node8" class="node">
<title>16</title>
<ellipse fill="none" stroke="black" stroke-width="2" cx="112.55" cy="-306" rx="43.59" ry="18"/>
<text text-anchor="middle" x="112.55" y="-302.3" font-family="Times New Roman,serif" font-size="14.00">schur 4,4</text>
</g>
<!-- 19 -->
<g id="node11" class="node">
<title>19</title>
<ellipse fill="none" stroke="red" stroke-width="2" cx="165.55" cy="-90" rx="43.59" ry="18"/>
<text text-anchor="middle" x="165.55" y="-86.3" font-family="Times New Roman,serif" font-size="14.00">schur 4,4</text>
</g>
<!-- 16&#45;&gt;19 -->
<g id="edge10" class="edge">
<title>16&#45;&gt;19</title>
<path fill="none" stroke="black" stroke-width="2" d="M116.79,-287.85C126,-250.66 147.87,-162.37 158.92,-117.77"/>
<polygon fill="black" stroke="black" stroke-width="2" points="162.35,-118.48 161.35,-107.94 155.55,-116.8 162.35,-118.48"/>
</g>
<!-- 13&#45;&gt;16 -->
<g id="edge8" class="edge">
<title>13&#45;&gt;16</title>
<path fill="none" stroke="black" stroke-width="2" d="M140.01,-360.41C135.82,-352.25 130.66,-342.22 125.95,-333.07"/>
<polygon fill="black" stroke="black" stroke-width="2" points="128.95,-331.25 121.27,-323.96 122.73,-334.45 128.95,-331.25"/>
</g>
<!-- 13&#45;&gt;15 -->
<g id="edge18" class="edge">
<title>13&#45;&gt;15</title>
<path fill="none" stroke="black" stroke-width="2" d="M163.86,-361.46C172.93,-352.26 184.6,-340.42 194.74,-330.13"/>
<polygon fill="black" stroke="black" stroke-width="2" points="197.27,-332.56 201.8,-322.98 192.28,-327.64 197.27,-332.56"/>
</g>
<!-- 10&#45;&gt;16 -->
<g id="edge9" class="edge">
<title>10&#45;&gt;16</title>
<path fill="none" stroke="black" stroke-width="2" d="M59.2,-361.12C68.2,-351.99 79.67,-340.36 89.66,-330.22"/>
<polygon fill="black" stroke="black" stroke-width="2" points="92.42,-332.4 96.95,-322.82 87.44,-327.49 92.42,-332.4"/>
</g>
<!-- 20 -->
<g id="node13" class="node">
<title>20</title>
<ellipse fill="none" stroke="red" stroke-width="2" cx="165.55" cy="-18" rx="39.79" ry="18"/>
<text text-anchor="middle" x="165.55" y="-14.3" font-family="Times New Roman,serif" font-size="14.00">chol 4,4</text>
</g>
<!-- 19&#45;&gt;20 -->
<g id="edge12" class="edge">
<title>19&#45;&gt;20</title>
<path fill="none" stroke="red" stroke-width="2" d="M165.55,-71.7C165.55,-63.98 165.55,-54.71 165.55,-46.11"/>
<polygon fill="red" stroke="red" stroke-width="2" points="169.05,-46.1 165.55,-36.1 162.05,-46.1 169.05,-46.1"/>
</g>
<!-- 18 -->
<g id="node12" class="node">
<title>18</title>
<ellipse fill="none" stroke="red" stroke-width="2" cx="217.55" cy="-162" rx="38.19" ry="18"/>
<text text-anchor="middle" x="217.55" y="-158.3" font-family="Times New Roman,serif" font-size="14.00">ldiv 3,4</text>
</g>
<!-- 18&#45;&gt;19 -->
<g id="edge11" class="edge">
<title>18&#45;&gt;19</title>
<path fill="none" stroke="red" stroke-width="2" d="M205.49,-144.76C199.08,-136.14 191.07,-125.36 183.91,-115.73"/>
<polygon fill="red" stroke="red" stroke-width="2" points="186.68,-113.57 177.9,-107.63 181.06,-117.75 186.68,-113.57"/>
</g>
<!-- 14 -->
<g id="node20" class="node">
<title>14</title>
<ellipse fill="none" stroke="red" stroke-width="2" cx="322.55" cy="-306" rx="43.59" ry="18"/>
<text text-anchor="middle" x="322.55" y="-302.3" font-family="Times New Roman,serif" font-size="14.00">schur 3,3</text>
</g>
<!-- 8&#45;&gt;14 -->
<g id="edge29" class="edge">
<title>8&#45;&gt;14</title>
<path fill="none" stroke="black" stroke-width="2" d="M430.71,-363.5C409.99,-352.68 380.69,-337.37 357.81,-325.42"/>
<polygon fill="black" stroke="black" stroke-width="2" points="359.24,-322.22 348.76,-320.69 356,-328.43 359.24,-322.22"/>
</g>
<!-- 11 -->
<g id="node15" class="node">
<title>11</title>
<ellipse fill="none" stroke="red" stroke-width="2" cx="318.55" cy="-450" rx="39.79" ry="18"/>
<text text-anchor="middle" x="318.55" y="-446.3" font-family="Times New Roman,serif" font-size="14.00">chol 2,2</text>
</g>
<!-- 11&#45;&gt;13 -->
<g id="edge17" class="edge">
<title>11&#45;&gt;13</title>
<path fill="none" stroke="black" stroke-width="2" d="M290.09,-437.28C261.48,-425.5 217.23,-407.28 185.83,-394.35"/>
<polygon fill="black" stroke="black" stroke-width="2" points="187.11,-391.09 176.53,-390.52 184.44,-397.57 187.11,-391.09"/>
</g>
<!-- 11&#45;&gt;12 -->
<g id="edge27" class="edge">
<title>11&#45;&gt;12</title>
<path fill="none" stroke="red" stroke-width="2" d="M319.04,-431.7C319.26,-423.98 319.53,-414.71 319.77,-406.11"/>
<polygon fill="red" stroke="red" stroke-width="2" points="323.27,-406.2 320.06,-396.1 316.27,-406 323.27,-406.2"/>
</g>
<!-- 15&#45;&gt;18 -->
<g id="edge21" class="edge">
<title>15&#45;&gt;18</title>
<path fill="none" stroke="black" stroke-width="2" d="M217.55,-287.87C217.55,-263.67 217.55,-219.21 217.55,-190.39"/>
<polygon fill="black" stroke="black" stroke-width="2" points="221.05,-190.19 217.55,-180.19 214.05,-190.19 221.05,-190.19"/>
</g>
<!-- 12&#45;&gt;15 -->
<g id="edge20" class="edge">
<title>12&#45;&gt;15</title>
<path fill="none" stroke="black" stroke-width="2" d="M299.7,-362.83C284.79,-352.7 264.47,-338.89 247.78,-327.55"/>
<polygon fill="black" stroke="black" stroke-width="2" points="249.66,-324.6 239.43,-321.87 245.73,-330.39 249.66,-324.6"/>
</g>
<!-- 12&#45;&gt;14 -->
<g id="edge28" class="edge">
<title>12&#45;&gt;14</title>
<path fill="none" stroke="red" stroke-width="2" d="M321.04,-359.7C321.26,-351.98 321.53,-342.71 321.77,-334.11"/>
<polygon fill="red" stroke="red" stroke-width="2" points="325.27,-334.2 322.06,-324.1 318.27,-334 325.27,-334.2"/>
</g>
<!-- 17 -->
<g id="node18" class="node">
<title>17</title>
<ellipse fill="none" stroke="red" stroke-width="2" cx="303.55" cy="-234" rx="39.79" ry="18"/>
<text text-anchor="middle" x="303.55" y="-230.3" font-family="Times New Roman,serif" font-size="14.00">chol 3,3</text>
</g>
<!-- 17&#45;&gt;18 -->
<g id="edge22" class="edge">
<title>17&#45;&gt;18</title>
<path fill="none" stroke="red" stroke-width="2" d="M284.89,-217.81C272.86,-208.02 257.04,-195.15 243.76,-184.34"/>
<polygon fill="red" stroke="red" stroke-width="2" points="245.84,-181.52 235.87,-177.92 241.42,-186.95 245.84,-181.52"/>
</g>
<!-- 5&#45;&gt;11 -->
<g id="edge25" class="edge">
<title>5&#45;&gt;11</title>
<path fill="none" stroke="red" stroke-width="2" d="M290.5,-504.05C294.82,-495.89 300.09,-485.91 304.9,-476.82"/>
<polygon fill="red" stroke="red" stroke-width="2" points="308.09,-478.27 309.67,-467.79 301.9,-474.99 308.09,-478.27"/>
</g>
<!-- 14&#45;&gt;17 -->
<g id="edge30" class="edge">
<title>14&#45;&gt;17</title>
<path fill="none" stroke="red" stroke-width="2" d="M317.95,-288.05C315.83,-280.26 313.27,-270.82 310.9,-262.08"/>
<polygon fill="red" stroke="red" stroke-width="2" points="314.23,-261.01 308.24,-252.28 307.48,-262.84 314.23,-261.01"/>
</g>
</g>
</svg>
