<?xml version="1.0" encoding="UTF-8" standalone="no"?>
<!DOCTYPE svg PUBLIC "-//W3C//DTD SVG 1.1//EN"
 "http://www.w3.org/Graphics/SVG/1.1/DTD/svg11.dtd">
<!-- Generated by graphviz version 2.50.0 (20211204.2007)
 -->
<!-- Title: dag Pages: 1 -->
<svg width="540pt" height="692pt"
 viewBox="0.00 0.00 539.59 692.00" xmlns="http://www.w3.org/2000/svg" xmlns:xlink="http://www.w3.org/1999/xlink">
<g id="graph0" class="graph" transform="scale(1 1) rotate(0) translate(4 688)">
<title>dag</title>
<polygon fill="white" stroke="transparent" points="-4,4 -4,-688 535.59,-688 535.59,4 -4,4"/>
<!-- 4 -->
<g id="node1" class="node">
<title>4</title>
<ellipse fill="none" stroke="black" stroke-width="2" cx="128.8" cy="-522" rx="41.69" ry="18"/>
<text text-anchor="middle" x="128.8" y="-518.3" font-family="Times New Roman,serif" font-size="14.00">ldiv[1,4]</text>
</g>
<!-- 10 -->
<g id="node3" class="node">
<title>10</title>
<ellipse fill="none" stroke="black" stroke-width="2" cx="46.8" cy="-378" rx="46.59" ry="18"/>
<text text-anchor="middle" x="46.8" y="-374.3" font-family="Times New Roman,serif" font-size="14.00">schur[4,4]</text>
</g>
<!-- 4&#45;&gt;10 -->
<g id="edge2" class="edge">
<title>4&#45;&gt;10</title>
<path fill="none" stroke="black" stroke-width="2" d="M103.99,-507.27C89.68,-498.04 72.63,-484.55 62.8,-468 51.74,-449.38 47.95,-424.99 46.81,-406.45"/>
<polygon fill="black" stroke="black" stroke-width="2" points="50.3,-406.15 46.41,-396.3 43.31,-406.43 50.3,-406.15"/>
</g>
<!-- 9 -->
<g id="node4" class="node">
<title>9</title>
<ellipse fill="none" stroke="black" stroke-width="2" cx="230.8" cy="-450" rx="46.59" ry="18"/>
<text text-anchor="middle" x="230.8" y="-446.3" font-family="Times New Roman,serif" font-size="14.00">schur[3,4]</text>
</g>
<!-- 4&#45;&gt;9 -->
<g id="edge3" class="edge">
<title>4&#45;&gt;9</title>
<path fill="none" stroke="black" stroke-width="2" d="M149.93,-506.5C164.5,-496.49 184.1,-483.05 200.35,-471.89"/>
<polygon fill="black" stroke="black" stroke-width="2" points="202.72,-474.51 208.98,-465.97 198.76,-468.74 202.72,-474.51"/>
</g>
<!-- 7 -->
<g id="node11" class="node">
<title>7</title>
<ellipse fill="none" stroke="black" stroke-width="2" cx="118.8" cy="-450" rx="46.59" ry="18"/>
<text text-anchor="middle" x="118.8" y="-446.3" font-family="Times New Roman,serif" font-size="14.00">schur[2,4]</text>
</g>
<!-- 4&#45;&gt;7 -->
<g id="edge9" class="edge">
<title>4&#45;&gt;7</title>
<path fill="none" stroke="black" stroke-width="2" d="M126.32,-503.7C125.22,-495.98 123.9,-486.71 122.67,-478.11"/>
<polygon fill="black" stroke="black" stroke-width="2" points="126.12,-477.51 121.24,-468.1 119.19,-478.5 126.12,-477.51"/>
</g>
<!-- 1 -->
<g id="node2" class="node">
<title>1</title>
<ellipse fill="none" stroke="red" stroke-width="2" cx="301.8" cy="-666" rx="42.79" ry="18"/>
<text text-anchor="middle" x="301.8" y="-662.3" font-family="Times New Roman,serif" font-size="14.00">chol[1,1]</text>
</g>
<!-- 1&#45;&gt;4 -->
<g id="edge1" class="edge">
<title>1&#45;&gt;4</title>
<path fill="none" stroke="black" stroke-width="2" d="M282.95,-649.53C252.06,-624.18 190.57,-573.71 155.3,-544.76"/>
<polygon fill="black" stroke="black" stroke-width="2" points="157.3,-541.87 147.35,-538.23 152.86,-547.28 157.3,-541.87"/>
</g>
<!-- 3 -->
<g id="node5" class="node">
<title>3</title>
<ellipse fill="none" stroke="black" stroke-width="2" cx="446.8" cy="-522" rx="41.69" ry="18"/>
<text text-anchor="middle" x="446.8" y="-518.3" font-family="Times New Roman,serif" font-size="14.00">ldiv[1,3]</text>
</g>
<!-- 1&#45;&gt;3 -->
<g id="edge16" class="edge">
<title>1&#45;&gt;3</title>
<path fill="none" stroke="black" stroke-width="2" d="M317.87,-649.26C343.45,-624.2 393.58,-575.12 423.23,-546.08"/>
<polygon fill="black" stroke="black" stroke-width="2" points="425.96,-548.31 430.65,-538.81 421.06,-543.31 425.96,-548.31"/>
</g>
<!-- 2 -->
<g id="node10" class="node">
<title>2</title>
<ellipse fill="none" stroke="red" stroke-width="2" cx="301.8" cy="-594" rx="41.69" ry="18"/>
<text text-anchor="middle" x="301.8" y="-590.3" font-family="Times New Roman,serif" font-size="14.00">ldiv[1,2]</text>
</g>
<!-- 1&#45;&gt;2 -->
<g id="edge20" class="edge">
<title>1&#45;&gt;2</title>
<path fill="none" stroke="red" stroke-width="2" d="M301.8,-647.7C301.8,-639.98 301.8,-630.71 301.8,-622.11"/>
<polygon fill="red" stroke="red" stroke-width="2" points="305.3,-622.1 301.8,-612.1 298.3,-622.1 305.3,-622.1"/>
</g>
<!-- 16 -->
<g id="node17" class="node">
<title>16</title>
<ellipse fill="none" stroke="black" stroke-width="2" cx="118.8" cy="-306" rx="46.59" ry="18"/>
<text text-anchor="middle" x="118.8" y="-302.3" font-family="Times New Roman,serif" font-size="14.00">schur[4,4]</text>
</g>
<!-- 10&#45;&gt;16 -->
<g id="edge25" class="edge">
<title>10&#45;&gt;16</title>
<path fill="none" stroke="black" stroke-width="2" d="M63.13,-361.12C72.48,-352.03 84.38,-340.46 94.78,-330.35"/>
<polygon fill="black" stroke="black" stroke-width="2" points="97.29,-332.79 102.02,-323.31 92.41,-327.77 97.29,-332.79"/>
</g>
<!-- 15 -->
<g id="node6" class="node">
<title>15</title>
<ellipse fill="none" stroke="black" stroke-width="2" cx="230.8" cy="-306" rx="46.59" ry="18"/>
<text text-anchor="middle" x="230.8" y="-302.3" font-family="Times New Roman,serif" font-size="14.00">schur[3,4]</text>
</g>
<!-- 9&#45;&gt;15 -->
<g id="edge6" class="edge">
<title>9&#45;&gt;15</title>
<path fill="none" stroke="black" stroke-width="2" d="M230.8,-431.87C230.8,-407.67 230.8,-363.21 230.8,-334.39"/>
<polygon fill="black" stroke="black" stroke-width="2" points="234.3,-334.19 230.8,-324.19 227.3,-334.19 234.3,-334.19"/>
</g>
<!-- 3&#45;&gt;9 -->
<g id="edge4" class="edge">
<title>3&#45;&gt;9</title>
<path fill="none" stroke="black" stroke-width="2" d="M414.46,-510.52C377.41,-498.52 316.5,-478.78 275.07,-465.35"/>
<polygon fill="black" stroke="black" stroke-width="2" points="276.1,-462 265.5,-462.25 273.94,-468.66 276.1,-462"/>
</g>
<!-- 8 -->
<g id="node14" class="node">
<title>8</title>
<ellipse fill="none" stroke="black" stroke-width="2" cx="484.8" cy="-378" rx="46.59" ry="18"/>
<text text-anchor="middle" x="484.8" y="-374.3" font-family="Times New Roman,serif" font-size="14.00">schur[3,3]</text>
</g>
<!-- 3&#45;&gt;8 -->
<g id="edge21" class="edge">
<title>3&#45;&gt;8</title>
<path fill="none" stroke="black" stroke-width="2" d="M469.14,-506.74C481.58,-497.4 495.92,-483.98 502.8,-468 511.47,-447.84 505.39,-423.29 498.03,-405.08"/>
<polygon fill="black" stroke="black" stroke-width="2" points="501.13,-403.43 493.9,-395.69 494.72,-406.25 501.13,-403.43"/>
</g>
<!-- 6 -->
<g id="node16" class="node">
<title>6</title>
<ellipse fill="none" stroke="black" stroke-width="2" cx="446.8" cy="-450" rx="46.59" ry="18"/>
<text text-anchor="middle" x="446.8" y="-446.3" font-family="Times New Roman,serif" font-size="14.00">schur[2,3]</text>
</g>
<!-- 3&#45;&gt;6 -->
<g id="edge18" class="edge">
<title>3&#45;&gt;6</title>
<path fill="none" stroke="black" stroke-width="2" d="M446.8,-503.7C446.8,-495.98 446.8,-486.71 446.8,-478.11"/>
<polygon fill="black" stroke="black" stroke-width="2" points="450.3,-478.1 446.8,-468.1 443.3,-478.1 450.3,-478.1"/>
</g>
<!-- 18 -->
<g id="node18" class="node">
<title>18</title>
<ellipse fill="none" stroke="red" stroke-width="2" cx="230.8" cy="-162" rx="41.69" ry="18"/>
<text text-anchor="middle" x="230.8" y="-158.3" font-family="Times New Roman,serif" font-size="14.00">ldiv[3,4]</text>
</g>
<!-- 15&#45;&gt;18 -->
<g id="edge26" class="edge">
<title>15&#45;&gt;18</title>
<path fill="none" stroke="black" stroke-width="2" d="M230.8,-287.87C230.8,-263.67 230.8,-219.21 230.8,-190.39"/>
<polygon fill="black" stroke="black" stroke-width="2" points="234.3,-190.19 230.8,-180.19 227.3,-190.19 234.3,-190.19"/>
</g>
<!-- 13 -->
<g id="node7" class="node">
<title>13</title>
<ellipse fill="none" stroke="black" stroke-width="2" cx="157.8" cy="-378" rx="41.69" ry="18"/>
<text text-anchor="middle" x="157.8" y="-374.3" font-family="Times New Roman,serif" font-size="14.00">ldiv[2,4]</text>
</g>
<!-- 13&#45;&gt;15 -->
<g id="edge5" class="edge">
<title>13&#45;&gt;15</title>
<path fill="none" stroke="black" stroke-width="2" d="M174.36,-361.12C183.91,-351.96 196.08,-340.29 206.67,-330.13"/>
<polygon fill="black" stroke="black" stroke-width="2" points="209.25,-332.51 214.04,-323.06 204.4,-327.46 209.25,-332.51"/>
</g>
<!-- 13&#45;&gt;16 -->
<g id="edge24" class="edge">
<title>13&#45;&gt;16</title>
<path fill="none" stroke="black" stroke-width="2" d="M148.55,-360.41C143.96,-352.16 138.3,-342.01 133.16,-332.78"/>
<polygon fill="black" stroke="black" stroke-width="2" points="136.17,-330.99 128.24,-323.96 130.05,-334.4 136.17,-330.99"/>
</g>
<!-- 12 -->
<g id="node8" class="node">
<title>12</title>
<ellipse fill="none" stroke="red" stroke-width="2" cx="340.8" cy="-378" rx="41.69" ry="18"/>
<text text-anchor="middle" x="340.8" y="-374.3" font-family="Times New Roman,serif" font-size="14.00">ldiv[2,3]</text>
</g>
<!-- 12&#45;&gt;15 -->
<g id="edge7" class="edge">
<title>12&#45;&gt;15</title>
<path fill="none" stroke="black" stroke-width="2" d="M318.27,-362.67C302.32,-352.52 280.69,-338.75 262.93,-327.45"/>
<polygon fill="black" stroke="black" stroke-width="2" points="264.37,-324.21 254.05,-321.8 260.61,-330.12 264.37,-324.21"/>
</g>
<!-- 14 -->
<g id="node13" class="node">
<title>14</title>
<ellipse fill="none" stroke="red" stroke-width="2" cx="342.8" cy="-306" rx="46.59" ry="18"/>
<text text-anchor="middle" x="342.8" y="-302.3" font-family="Times New Roman,serif" font-size="14.00">schur[3,3]</text>
</g>
<!-- 12&#45;&gt;14 -->
<g id="edge13" class="edge">
<title>12&#45;&gt;14</title>
<path fill="none" stroke="red" stroke-width="2" d="M341.29,-359.7C341.51,-351.98 341.78,-342.71 342.02,-334.11"/>
<polygon fill="red" stroke="red" stroke-width="2" points="345.52,-334.2 342.31,-324.1 338.52,-334 345.52,-334.2"/>
</g>
<!-- 5 -->
<g id="node9" class="node">
<title>5</title>
<ellipse fill="none" stroke="red" stroke-width="2" cx="301.8" cy="-522" rx="46.59" ry="18"/>
<text text-anchor="middle" x="301.8" y="-518.3" font-family="Times New Roman,serif" font-size="14.00">schur[2,2]</text>
</g>
<!-- 11 -->
<g id="node12" class="node">
<title>11</title>
<ellipse fill="none" stroke="red" stroke-width="2" cx="338.8" cy="-450" rx="42.79" ry="18"/>
<text text-anchor="middle" x="338.8" y="-446.3" font-family="Times New Roman,serif" font-size="14.00">chol[2,2]</text>
</g>
<!-- 5&#45;&gt;11 -->
<g id="edge19" class="edge">
<title>5&#45;&gt;11</title>
<path fill="none" stroke="red" stroke-width="2" d="M310.75,-504.05C315.07,-495.89 320.34,-485.91 325.15,-476.82"/>
<polygon fill="red" stroke="red" stroke-width="2" points="328.34,-478.27 329.92,-467.79 322.15,-474.99 328.34,-478.27"/>
</g>
<!-- 2&#45;&gt;5 -->
<g id="edge8" class="edge">
<title>2&#45;&gt;5</title>
<path fill="none" stroke="red" stroke-width="2" d="M301.8,-575.7C301.8,-567.98 301.8,-558.71 301.8,-550.11"/>
<polygon fill="red" stroke="red" stroke-width="2" points="305.3,-550.1 301.8,-540.1 298.3,-550.1 305.3,-550.1"/>
</g>
<!-- 2&#45;&gt;7 -->
<g id="edge10" class="edge">
<title>2&#45;&gt;7</title>
<path fill="none" stroke="black" stroke-width="2" d="M282.21,-577.8C249.64,-552.53 184.21,-501.76 146.78,-472.71"/>
<polygon fill="black" stroke="black" stroke-width="2" points="148.84,-469.88 138.79,-466.52 144.55,-475.41 148.84,-469.88"/>
</g>
<!-- 2&#45;&gt;6 -->
<g id="edge17" class="edge">
<title>2&#45;&gt;6</title>
<path fill="none" stroke="black" stroke-width="2" d="M318.57,-577.35C329.76,-566.86 344.75,-552.69 357.8,-540 380.41,-518 405.82,-492.51 423.69,-474.46"/>
<polygon fill="black" stroke="black" stroke-width="2" points="426.31,-476.78 430.85,-467.21 421.33,-471.86 426.31,-476.78"/>
</g>
<!-- 7&#45;&gt;13 -->
<g id="edge11" class="edge">
<title>7&#45;&gt;13</title>
<path fill="none" stroke="black" stroke-width="2" d="M128.24,-432.05C132.84,-423.8 138.46,-413.7 143.57,-404.54"/>
<polygon fill="black" stroke="black" stroke-width="2" points="146.63,-406.23 148.44,-395.79 140.52,-402.82 146.63,-406.23"/>
</g>
<!-- 11&#45;&gt;13 -->
<g id="edge12" class="edge">
<title>11&#45;&gt;13</title>
<path fill="none" stroke="black" stroke-width="2" d="M308.09,-437.13C277.52,-425.3 230.48,-407.11 197.18,-394.23"/>
<polygon fill="black" stroke="black" stroke-width="2" points="198.34,-390.93 187.75,-390.58 195.81,-397.45 198.34,-390.93"/>
</g>
<!-- 11&#45;&gt;12 -->
<g id="edge23" class="edge">
<title>11&#45;&gt;12</title>
<path fill="none" stroke="red" stroke-width="2" d="M339.29,-431.7C339.51,-423.98 339.78,-414.71 340.02,-406.11"/>
<polygon fill="red" stroke="red" stroke-width="2" points="343.52,-406.2 340.31,-396.1 336.52,-406 343.52,-406.2"/>
</g>
<!-- 17 -->
<g id="node15" class="node">
<title>17</title>
<ellipse fill="none" stroke="red" stroke-width="2" cx="321.8" cy="-234" rx="42.79" ry="18"/>
<text text-anchor="middle" x="321.8" y="-230.3" font-family="Times New Roman,serif" font-size="14.00">chol[3,3]</text>
</g>
<!-- 14&#45;&gt;17 -->
<g id="edge15" class="edge">
<title>14&#45;&gt;17</title>
<path fill="none" stroke="red" stroke-width="2" d="M337.71,-288.05C335.37,-280.26 332.54,-270.82 329.92,-262.08"/>
<polygon fill="red" stroke="red" stroke-width="2" points="333.2,-260.85 326.98,-252.28 326.5,-262.86 333.2,-260.85"/>
</g>
<!-- 8&#45;&gt;14 -->
<g id="edge14" class="edge">
<title>8&#45;&gt;14</title>
<path fill="none" stroke="black" stroke-width="2" d="M457.08,-363.34C434.99,-352.45 403.86,-337.1 379.67,-325.18"/>
<polygon fill="black" stroke="black" stroke-width="2" points="380.96,-321.91 370.44,-320.63 377.86,-328.19 380.96,-321.91"/>
</g>
<!-- 17&#45;&gt;18 -->
<g id="edge27" class="edge">
<title>17&#45;&gt;18</title>
<path fill="none" stroke="red" stroke-width="2" d="M302.05,-217.81C289.41,-208.09 272.82,-195.32 258.82,-184.56"/>
<polygon fill="red" stroke="red" stroke-width="2" points="260.56,-181.48 250.5,-178.16 256.3,-187.03 260.56,-181.48"/>
</g>
<!-- 6&#45;&gt;12 -->
<g id="edge22" class="edge">
<title>6&#45;&gt;12</title>
<path fill="none" stroke="black" stroke-width="2" d="M424.32,-434.15C408.89,-423.97 388.24,-410.33 371.33,-399.17"/>
<polygon fill="black" stroke="black" stroke-width="2" points="373.15,-396.17 362.88,-393.58 369.3,-402.02 373.15,-396.17"/>
</g>
<!-- 19 -->
<g id="node19" class="node">
<title>19</title>
<ellipse fill="none" stroke="red" stroke-width="2" cx="174.8" cy="-90" rx="46.59" ry="18"/>
<text text-anchor="middle" x="174.8" y="-86.3" font-family="Times New Roman,serif" font-size="14.00">schur[4,4]</text>
</g>
<!-- 16&#45;&gt;19 -->
<g id="edge28" class="edge">
<title>16&#45;&gt;19</title>
<path fill="none" stroke="black" stroke-width="2" d="M123.28,-287.85C133.02,-250.66 156.12,-162.37 167.79,-117.77"/>
<polygon fill="black" stroke="black" stroke-width="2" points="171.22,-118.5 170.36,-107.94 164.45,-116.72 171.22,-118.5"/>
</g>
<!-- 18&#45;&gt;19 -->
<g id="edge29" class="edge">
<title>18&#45;&gt;19</title>
<path fill="none" stroke="red" stroke-width="2" d="M217.81,-144.76C210.91,-136.14 202.29,-125.36 194.58,-115.73"/>
<polygon fill="red" stroke="red" stroke-width="2" points="197.08,-113.26 188.1,-107.63 191.62,-117.63 197.08,-113.26"/>
</g>
<!-- 20 -->
<g id="node20" class="node">
<title>20</title>
<ellipse fill="none" stroke="red" stroke-width="2" cx="174.8" cy="-18" rx="42.79" ry="18"/>
<text text-anchor="middle" x="174.8" y="-14.3" font-family="Times New Roman,serif" font-size="14.00">chol[4,4]</text>
</g>
<!-- 19&#45;&gt;20 -->
<g id="edge30" class="edge">
<title>19&#45;&gt;20</title>
<path fill="none" stroke="red" stroke-width="2" d="M174.8,-71.7C174.8,-63.98 174.8,-54.71 174.8,-46.11"/>
<polygon fill="red" stroke="red" stroke-width="2" points="178.3,-46.1 174.8,-36.1 171.3,-46.1 178.3,-46.1"/>
</g>
</g>
</svg>
