<?xml version="1.0" encoding="UTF-8" standalone="no"?>
<!DOCTYPE svg PUBLIC "-//W3C//DTD SVG 1.1//EN"
 "http://www.w3.org/Graphics/SVG/1.1/DTD/svg11.dtd">
<!-- Generated by graphviz version 2.50.0 (20211204.2007)
 -->
<!-- Title: dag Pages: 1 -->
<svg width="200pt" height="188pt"
 viewBox="0.00 0.00 200.09 188.00" xmlns="http://www.w3.org/2000/svg" xmlns:xlink="http://www.w3.org/1999/xlink">
<g id="graph0" class="graph" transform="scale(1 1) rotate(0) translate(4 184)">
<title>dag</title>
<polygon fill="white" stroke="transparent" points="-4,4 -4,-184 196.09,-184 196.09,4 -4,4"/>
<!-- 2 -->
<g id="node1" class="node">
<title>2</title>
<ellipse fill="none" stroke="red" stroke-width="2" cx="43.55" cy="-162" rx="30.59" ry="18"/>
<text text-anchor="middle" x="43.55" y="-158.3" font-family="Times New Roman,serif" font-size="14.00">init B</text>
</g>
<!-- 4 -->
<g id="node2" class="node">
<title>4</title>
<ellipse fill="none" stroke="red" stroke-width="2" cx="43.55" cy="-90" rx="43.59" ry="18"/>
<text text-anchor="middle" x="43.55" y="-86.3" font-family="Times New Roman,serif" font-size="14.00">mutate B</text>
</g>
<!-- 2&#45;&gt;4 -->
<g id="edge1" class="edge">
<title>2&#45;&gt;4</title>
<path fill="none" stroke="red" stroke-width="2" d="M43.55,-143.7C43.55,-135.98 43.55,-126.71 43.55,-118.11"/>
<polygon fill="red" stroke="red" stroke-width="2" points="47.05,-118.1 43.55,-108.1 40.05,-118.1 47.05,-118.1"/>
</g>
<!-- 5 -->
<g id="node3" class="node">
<title>5</title>
<ellipse fill="none" stroke="red" stroke-width="2" cx="95.55" cy="-18" rx="42.49" ry="18"/>
<text text-anchor="middle" x="95.55" y="-14.3" font-family="Times New Roman,serif" font-size="14.00">read A,B</text>
</g>
<!-- 4&#45;&gt;5 -->
<g id="edge2" class="edge">
<title>4&#45;&gt;5</title>
<path fill="none" stroke="red" stroke-width="2" d="M55.87,-72.41C62.22,-63.87 70.08,-53.28 77.13,-43.79"/>
<polygon fill="red" stroke="red" stroke-width="2" points="80.16,-45.58 83.31,-35.47 74.54,-41.41 80.16,-45.58"/>
</g>
<!-- 3 -->
<g id="node4" class="node">
<title>3</title>
<ellipse fill="none" stroke="black" stroke-width="2" cx="148.55" cy="-90" rx="43.59" ry="18"/>
<text text-anchor="middle" x="148.55" y="-86.3" font-family="Times New Roman,serif" font-size="14.00">mutate A</text>
</g>
<!-- 3&#45;&gt;5 -->
<g id="edge3" class="edge">
<title>3&#45;&gt;5</title>
<path fill="none" stroke="black" stroke-width="2" d="M135.99,-72.41C129.45,-63.78 121.34,-53.06 114.09,-43.5"/>
<polygon fill="black" stroke="black" stroke-width="2" points="116.84,-41.33 108.02,-35.47 111.26,-45.56 116.84,-41.33"/>
</g>
<!-- 1 -->
<g id="node5" class="node">
<title>1</title>
<ellipse fill="none" stroke="black" stroke-width="2" cx="148.55" cy="-162" rx="30.59" ry="18"/>
<text text-anchor="middle" x="148.55" y="-158.3" font-family="Times New Roman,serif" font-size="14.00">init A</text>
</g>
<!-- 1&#45;&gt;3 -->
<g id="edge4" class="edge">
<title>1&#45;&gt;3</title>
<path fill="none" stroke="black" stroke-width="2" d="M148.55,-143.7C148.55,-135.98 148.55,-126.71 148.55,-118.11"/>
<polygon fill="black" stroke="black" stroke-width="2" points="152.05,-118.1 148.55,-108.1 145.05,-118.1 152.05,-118.1"/>
</g>
</g>
</svg>
