<?xml version="1.0" encoding="UTF-8" standalone="no"?>
<!DOCTYPE svg PUBLIC "-//W3C//DTD SVG 1.1//EN"
 "http://www.w3.org/Graphics/SVG/1.1/DTD/svg11.dtd">
<!-- Generated by graphviz version 2.50.0 (20211204.2007)
 -->
<!-- Title: dag Pages: 1 -->
<svg width="1177pt" height="403pt"
 viewBox="0.00 0.00 1176.89 402.96" xmlns="http://www.w3.org/2000/svg" xmlns:xlink="http://www.w3.org/1999/xlink">
<g id="graph0" class="graph" transform="scale(1 1) rotate(0) translate(4 398.96)">
<title>dag</title>
<polygon fill="white" stroke="transparent" points="-4,4 -4,-398.96 1172.89,-398.96 1172.89,4 -4,4"/>
<!-- 24083 -->
<g id="node1" class="node">
<title>24083</title>
<ellipse fill="none" stroke="black" stroke-width="2" cx="1084.03" cy="-368.09" rx="84.71" ry="26.74"/>
<text text-anchor="middle" x="1084.03" y="-371.89" font-family="Times,serif" font-size="14.00">sort</text>
<text text-anchor="middle" x="1084.03" y="-356.89" font-family="Times,serif" font-size="14.00">98305:100000</text>
</g>
<!-- 24087 -->
<g id="node14" class="node">
<title>24087</title>
<ellipse fill="none" stroke="black" stroke-width="2" cx="996.03" cy="-278.35" rx="84.71" ry="26.74"/>
<text text-anchor="middle" x="996.03" y="-282.15" font-family="Times,serif" font-size="14.00">copy</text>
<text text-anchor="middle" x="996.03" y="-267.15" font-family="Times,serif" font-size="14.00">98305:100000</text>
</g>
<!-- 24083&#45;&gt;24087 -->
<g id="edge17" class="edge">
<title>24083&#45;&gt;24087</title>
<path fill="none" stroke="black" stroke-width="2" d="M1059.05,-342.18C1049.48,-332.64 1038.43,-321.62 1028.28,-311.5"/>
<polygon fill="black" stroke="black" stroke-width="2" points="1030.63,-308.9 1021.08,-304.32 1025.69,-313.86 1030.63,-308.9"/>
</g>
<!-- 24084 -->
<g id="node2" class="node">
<title>24084</title>
<ellipse fill="none" stroke="black" stroke-width="2" cx="203.03" cy="-278.35" rx="53.07" ry="26.74"/>
<text text-anchor="middle" x="203.03" y="-282.15" font-family="Times,serif" font-size="14.00">merge</text>
<text text-anchor="middle" x="203.03" y="-267.15" font-family="Times,serif" font-size="14.00">1:32768</text>
</g>
<!-- 24088 -->
<g id="node6" class="node">
<title>24088</title>
<ellipse fill="none" stroke="red" stroke-width="2" cx="562.03" cy="-188.61" rx="53.07" ry="26.74"/>
<text text-anchor="middle" x="562.03" y="-192.41" font-family="Times,serif" font-size="14.00">merge</text>
<text text-anchor="middle" x="562.03" y="-177.41" font-family="Times,serif" font-size="14.00">1:65536</text>
</g>
<!-- 24084&#45;&gt;24088 -->
<g id="edge13" class="edge">
<title>24084&#45;&gt;24088</title>
<path fill="none" stroke="black" stroke-width="2" d="M250.34,-265.79C315.94,-249.76 434.4,-220.8 504.87,-203.58"/>
<polygon fill="black" stroke="black" stroke-width="2" points="506.03,-206.9 514.91,-201.13 504.37,-200.1 506.03,-206.9"/>
</g>
<!-- 24078 -->
<g id="node3" class="node">
<title>24078</title>
<ellipse fill="none" stroke="black" stroke-width="2" cx="203.03" cy="-368.09" rx="78.48" ry="26.74"/>
<text text-anchor="middle" x="203.03" y="-371.89" font-family="Times,serif" font-size="14.00">sort</text>
<text text-anchor="middle" x="203.03" y="-356.89" font-family="Times,serif" font-size="14.00">16385:32768</text>
</g>
<!-- 24078&#45;&gt;24084 -->
<g id="edge1" class="edge">
<title>24078&#45;&gt;24084</title>
<path fill="none" stroke="black" stroke-width="2" d="M203.03,-340.77C203.03,-332.8 203.03,-323.91 203.03,-315.42"/>
<polygon fill="black" stroke="black" stroke-width="2" points="206.53,-315.35 203.03,-305.35 199.53,-315.35 206.53,-315.35"/>
</g>
<!-- 24077 -->
<g id="node4" class="node">
<title>24077</title>
<ellipse fill="none" stroke="black" stroke-width="2" cx="53.03" cy="-368.09" rx="53.07" ry="26.74"/>
<text text-anchor="middle" x="53.03" y="-371.89" font-family="Times,serif" font-size="14.00">sort</text>
<text text-anchor="middle" x="53.03" y="-356.89" font-family="Times,serif" font-size="14.00">1:16384</text>
</g>
<!-- 24077&#45;&gt;24084 -->
<g id="edge2" class="edge">
<title>24077&#45;&gt;24084</title>
<path fill="none" stroke="black" stroke-width="2" d="M87.07,-347.18C108.84,-334.45 137.25,-317.83 160.5,-304.23"/>
<polygon fill="black" stroke="black" stroke-width="2" points="162.27,-307.25 169.13,-299.18 158.73,-301.21 162.27,-307.25"/>
</g>
<!-- 24090 -->
<g id="node5" class="node">
<title>24090</title>
<ellipse fill="none" stroke="black" stroke-width="2" cx="571.03" cy="-98.87" rx="59.29" ry="26.74"/>
<text text-anchor="middle" x="571.03" y="-102.67" font-family="Times,serif" font-size="14.00">merge A</text>
<text text-anchor="middle" x="571.03" y="-87.67" font-family="Times,serif" font-size="14.00">1:100000</text>
</g>
<!-- 24092 -->
<g id="node8" class="node">
<title>24092</title>
<ellipse fill="none" stroke="red" stroke-width="2" cx="639.03" cy="-18" rx="38.19" ry="18"/>
<text text-anchor="middle" x="639.03" y="-14.3" font-family="Times,serif" font-size="14.00">result</text>
</g>
<!-- 24090&#45;&gt;24092 -->
<g id="edge5" class="edge">
<title>24090&#45;&gt;24092</title>
<path fill="none" stroke="black" stroke-width="2" d="M592.18,-73.35C600.58,-63.6 610.22,-52.42 618.56,-42.75"/>
<polygon fill="black" stroke="black" stroke-width="2" points="621.32,-44.9 625.2,-35.04 616.02,-40.33 621.32,-44.9"/>
</g>
<!-- 24088&#45;&gt;24090 -->
<g id="edge3" class="edge">
<title>24088&#45;&gt;24090</title>
<path fill="none" stroke="black" stroke-width="2" d="M564.68,-161.76C565.51,-153.71 566.44,-144.68 567.32,-136.06"/>
<polygon fill="black" stroke="black" stroke-width="2" points="570.83,-136.14 568.37,-125.84 563.87,-135.43 570.83,-136.14"/>
</g>
<!-- 24091 -->
<g id="node9" class="node">
<title>24091</title>
<ellipse fill="none" stroke="red" stroke-width="2" cx="708.03" cy="-98.87" rx="59.29" ry="26.74"/>
<text text-anchor="middle" x="708.03" y="-102.67" font-family="Times,serif" font-size="14.00">merge B</text>
<text text-anchor="middle" x="708.03" y="-87.67" font-family="Times,serif" font-size="14.00">1:100000</text>
</g>
<!-- 24088&#45;&gt;24091 -->
<g id="edge15" class="edge">
<title>24088&#45;&gt;24091</title>
<path fill="none" stroke="red" stroke-width="2" d="M595.53,-167.48C615.95,-155.21 642.28,-139.39 664.33,-126.14"/>
<polygon fill="red" stroke="red" stroke-width="2" points="666.4,-128.97 673.17,-120.82 662.8,-122.97 666.4,-128.97"/>
</g>
<!-- 24089 -->
<g id="node7" class="node">
<title>24089</title>
<ellipse fill="none" stroke="black" stroke-width="2" cx="723.03" cy="-188.61" rx="84.71" ry="26.74"/>
<text text-anchor="middle" x="723.03" y="-192.41" font-family="Times,serif" font-size="14.00">merge</text>
<text text-anchor="middle" x="723.03" y="-177.41" font-family="Times,serif" font-size="14.00">65537:100000</text>
</g>
<!-- 24089&#45;&gt;24090 -->
<g id="edge4" class="edge">
<title>24089&#45;&gt;24090</title>
<path fill="none" stroke="black" stroke-width="2" d="M683.49,-164.79C662.71,-152.79 637.16,-138.04 615.67,-125.64"/>
<polygon fill="black" stroke="black" stroke-width="2" points="617.15,-122.45 606.74,-120.48 613.65,-128.51 617.15,-122.45"/>
</g>
<!-- 24089&#45;&gt;24091 -->
<g id="edge16" class="edge">
<title>24089&#45;&gt;24091</title>
<path fill="none" stroke="black" stroke-width="2" d="M718.61,-161.76C717.22,-153.62 715.66,-144.48 714.17,-135.77"/>
<polygon fill="black" stroke="black" stroke-width="2" points="717.61,-135.11 712.47,-125.84 710.71,-136.29 717.61,-135.11"/>
</g>
<!-- 24091&#45;&gt;24092 -->
<g id="edge6" class="edge">
<title>24091&#45;&gt;24092</title>
<path fill="none" stroke="red" stroke-width="2" d="M686.58,-73.35C678.05,-63.6 668.27,-52.42 659.81,-42.75"/>
<polygon fill="red" stroke="red" stroke-width="2" points="662.29,-40.26 653.07,-35.04 657.02,-44.87 662.29,-40.26"/>
</g>
<!-- 24082 -->
<g id="node10" class="node">
<title>24082</title>
<ellipse fill="none" stroke="black" stroke-width="2" cx="903.03" cy="-368.09" rx="78.48" ry="26.74"/>
<text text-anchor="middle" x="903.03" y="-371.89" font-family="Times,serif" font-size="14.00">sort</text>
<text text-anchor="middle" x="903.03" y="-356.89" font-family="Times,serif" font-size="14.00">81921:98304</text>
</g>
<!-- 24086 -->
<g id="node12" class="node">
<title>24086</title>
<ellipse fill="none" stroke="black" stroke-width="2" cx="728.03" cy="-278.35" rx="78.48" ry="26.74"/>
<text text-anchor="middle" x="728.03" y="-282.15" font-family="Times,serif" font-size="14.00">merge</text>
<text text-anchor="middle" x="728.03" y="-267.15" font-family="Times,serif" font-size="14.00">65537:98304</text>
</g>
<!-- 24082&#45;&gt;24086 -->
<g id="edge7" class="edge">
<title>24082&#45;&gt;24086</title>
<path fill="none" stroke="black" stroke-width="2" d="M859.77,-345.4C835.71,-333.33 805.58,-318.23 780.21,-305.51"/>
<polygon fill="black" stroke="black" stroke-width="2" points="781.6,-302.29 771.1,-300.94 778.47,-308.55 781.6,-302.29"/>
</g>
<!-- 24079 -->
<g id="node11" class="node">
<title>24079</title>
<ellipse fill="none" stroke="black" stroke-width="2" cx="553.03" cy="-368.09" rx="78.48" ry="26.74"/>
<text text-anchor="middle" x="553.03" y="-371.89" font-family="Times,serif" font-size="14.00">sort</text>
<text text-anchor="middle" x="553.03" y="-356.89" font-family="Times,serif" font-size="14.00">32769:49152</text>
</g>
<!-- 24085 -->
<g id="node16" class="node">
<title>24085</title>
<ellipse fill="none" stroke="red" stroke-width="2" cx="553.03" cy="-278.35" rx="78.48" ry="26.74"/>
<text text-anchor="middle" x="553.03" y="-282.15" font-family="Times,serif" font-size="14.00">merge</text>
<text text-anchor="middle" x="553.03" y="-267.15" font-family="Times,serif" font-size="14.00">32769:65536</text>
</g>
<!-- 24079&#45;&gt;24085 -->
<g id="edge11" class="edge">
<title>24079&#45;&gt;24085</title>
<path fill="none" stroke="black" stroke-width="2" d="M553.03,-340.77C553.03,-332.8 553.03,-323.91 553.03,-315.42"/>
<polygon fill="black" stroke="black" stroke-width="2" points="556.53,-315.35 553.03,-305.35 549.53,-315.35 556.53,-315.35"/>
</g>
<!-- 24086&#45;&gt;24089 -->
<g id="edge9" class="edge">
<title>24086&#45;&gt;24089</title>
<path fill="none" stroke="black" stroke-width="2" d="M726.53,-251.03C726.08,-243.06 725.57,-234.17 725.09,-225.68"/>
<polygon fill="black" stroke="black" stroke-width="2" points="728.58,-225.4 724.51,-215.61 721.59,-225.8 728.58,-225.4"/>
</g>
<!-- 24081 -->
<g id="node13" class="node">
<title>24081</title>
<ellipse fill="none" stroke="black" stroke-width="2" cx="728.03" cy="-368.09" rx="78.48" ry="26.74"/>
<text text-anchor="middle" x="728.03" y="-371.89" font-family="Times,serif" font-size="14.00">sort</text>
<text text-anchor="middle" x="728.03" y="-356.89" font-family="Times,serif" font-size="14.00">65537:81920</text>
</g>
<!-- 24081&#45;&gt;24086 -->
<g id="edge8" class="edge">
<title>24081&#45;&gt;24086</title>
<path fill="none" stroke="black" stroke-width="2" d="M728.03,-340.77C728.03,-332.8 728.03,-323.91 728.03,-315.42"/>
<polygon fill="black" stroke="black" stroke-width="2" points="731.53,-315.35 728.03,-305.35 724.53,-315.35 731.53,-315.35"/>
</g>
<!-- 24087&#45;&gt;24089 -->
<g id="edge10" class="edge">
<title>24087&#45;&gt;24089</title>
<path fill="none" stroke="black" stroke-width="2" d="M937.8,-258.64C894.76,-244.8 836.05,-225.93 790.88,-211.42"/>
<polygon fill="black" stroke="black" stroke-width="2" points="791.77,-208.02 781.17,-208.3 789.62,-214.69 791.77,-208.02"/>
</g>
<!-- 24080 -->
<g id="node15" class="node">
<title>24080</title>
<ellipse fill="none" stroke="red" stroke-width="2" cx="378.03" cy="-368.09" rx="78.48" ry="26.74"/>
<text text-anchor="middle" x="378.03" y="-371.89" font-family="Times,serif" font-size="14.00">sort</text>
<text text-anchor="middle" x="378.03" y="-356.89" font-family="Times,serif" font-size="14.00">49153:65536</text>
</g>
<!-- 24080&#45;&gt;24085 -->
<g id="edge12" class="edge">
<title>24080&#45;&gt;24085</title>
<path fill="none" stroke="red" stroke-width="2" d="M421.29,-345.4C445.36,-333.33 475.49,-318.23 500.86,-305.51"/>
<polygon fill="red" stroke="red" stroke-width="2" points="502.6,-308.55 509.97,-300.94 499.46,-302.29 502.6,-308.55"/>
</g>
<!-- 24085&#45;&gt;24088 -->
<g id="edge14" class="edge">
<title>24085&#45;&gt;24088</title>
<path fill="none" stroke="red" stroke-width="2" d="M555.73,-251.03C556.55,-243.06 557.46,-234.17 558.33,-225.68"/>
<polygon fill="red" stroke="red" stroke-width="2" points="561.83,-225.92 559.37,-215.61 554.86,-225.2 561.83,-225.92"/>
</g>
</g>
</svg>
