<?xml version="1.0" encoding="UTF-8" standalone="no"?>
<!DOCTYPE svg PUBLIC "-//W3C//DTD SVG 1.1//EN"
 "http://www.w3.org/Graphics/SVG/1.1/DTD/svg11.dtd">
<!-- Generated by graphviz version 2.50.0 (20211204.2007)
 -->
<!-- Title: dag Pages: 1 -->
<svg width="1177pt" height="403pt"
 viewBox="0.00 0.00 1176.98 402.96" xmlns="http://www.w3.org/2000/svg" xmlns:xlink="http://www.w3.org/1999/xlink">
<g id="graph0" class="graph" transform="scale(1 1) rotate(0) translate(4 398.96)">
<title>dag</title>
<polygon fill="white" stroke="transparent" points="-4,4 -4,-398.96 1172.98,-398.96 1172.98,4 -4,4"/>
<!-- 22288 -->
<g id="node1" class="node">
<title>22288</title>
<ellipse fill="none" stroke="black" stroke-width="2" cx="553.49" cy="-368.09" rx="78.48" ry="26.74"/>
<text text-anchor="middle" x="553.49" y="-371.89" font-family="Times,serif" font-size="14.00">sort</text>
<text text-anchor="middle" x="553.49" y="-356.89" font-family="Times,serif" font-size="14.00">16385:32768</text>
</g>
<!-- 22294 -->
<g id="node14" class="node">
<title>22294</title>
<ellipse fill="none" stroke="black" stroke-width="2" cx="553.49" cy="-278.35" rx="53.07" ry="26.74"/>
<text text-anchor="middle" x="553.49" y="-282.15" font-family="Times,serif" font-size="14.00">merge</text>
<text text-anchor="middle" x="553.49" y="-267.15" font-family="Times,serif" font-size="14.00">1:32768</text>
</g>
<!-- 22288&#45;&gt;22294 -->
<g id="edge17" class="edge">
<title>22288&#45;&gt;22294</title>
<path fill="none" stroke="black" stroke-width="2" d="M553.49,-340.77C553.49,-332.8 553.49,-323.91 553.49,-315.42"/>
<polygon fill="black" stroke="black" stroke-width="2" points="556.99,-315.35 553.49,-305.35 549.99,-315.35 556.99,-315.35"/>
</g>
<!-- 22291 -->
<g id="node2" class="node">
<title>22291</title>
<ellipse fill="none" stroke="black" stroke-width="2" cx="1090.49" cy="-368.09" rx="78.48" ry="26.74"/>
<text text-anchor="middle" x="1090.49" y="-371.89" font-family="Times,serif" font-size="14.00">sort</text>
<text text-anchor="middle" x="1090.49" y="-356.89" font-family="Times,serif" font-size="14.00">65537:81920</text>
</g>
<!-- 22296 -->
<g id="node12" class="node">
<title>22296</title>
<ellipse fill="none" stroke="black" stroke-width="2" cx="915.49" cy="-278.35" rx="78.48" ry="26.74"/>
<text text-anchor="middle" x="915.49" y="-282.15" font-family="Times,serif" font-size="14.00">merge</text>
<text text-anchor="middle" x="915.49" y="-267.15" font-family="Times,serif" font-size="14.00">65537:98304</text>
</g>
<!-- 22291&#45;&gt;22296 -->
<g id="edge9" class="edge">
<title>22291&#45;&gt;22296</title>
<path fill="none" stroke="black" stroke-width="2" d="M1047.23,-345.4C1023.16,-333.33 993.03,-318.23 967.66,-305.51"/>
<polygon fill="black" stroke="black" stroke-width="2" points="969.06,-302.29 958.55,-300.94 965.92,-308.55 969.06,-302.29"/>
</g>
<!-- 22300 -->
<g id="node3" class="node">
<title>22300</title>
<ellipse fill="none" stroke="red" stroke-width="2" cx="574.49" cy="-98.87" rx="59.29" ry="26.74"/>
<text text-anchor="middle" x="574.49" y="-102.67" font-family="Times,serif" font-size="14.00">merge A</text>
<text text-anchor="middle" x="574.49" y="-87.67" font-family="Times,serif" font-size="14.00">1:100000</text>
</g>
<!-- 22302 -->
<g id="node16" class="node">
<title>22302</title>
<ellipse fill="none" stroke="red" stroke-width="2" cx="642.49" cy="-18" rx="38.19" ry="18"/>
<text text-anchor="middle" x="642.49" y="-14.3" font-family="Times,serif" font-size="14.00">result</text>
</g>
<!-- 22300&#45;&gt;22302 -->
<g id="edge15" class="edge">
<title>22300&#45;&gt;22302</title>
<path fill="none" stroke="red" stroke-width="2" d="M595.63,-73.35C604.04,-63.6 613.67,-52.42 622.01,-42.75"/>
<polygon fill="red" stroke="red" stroke-width="2" points="624.78,-44.9 628.66,-35.04 619.48,-40.33 624.78,-44.9"/>
</g>
<!-- 22298 -->
<g id="node4" class="node">
<title>22298</title>
<ellipse fill="none" stroke="red" stroke-width="2" cx="565.49" cy="-188.61" rx="53.07" ry="26.74"/>
<text text-anchor="middle" x="565.49" y="-192.41" font-family="Times,serif" font-size="14.00">merge</text>
<text text-anchor="middle" x="565.49" y="-177.41" font-family="Times,serif" font-size="14.00">1:65536</text>
</g>
<!-- 22298&#45;&gt;22300 -->
<g id="edge1" class="edge">
<title>22298&#45;&gt;22300</title>
<path fill="none" stroke="red" stroke-width="2" d="M568.14,-161.76C568.97,-153.71 569.89,-144.68 570.78,-136.06"/>
<polygon fill="red" stroke="red" stroke-width="2" points="574.29,-136.14 571.83,-125.84 567.32,-135.43 574.29,-136.14"/>
</g>
<!-- 22301 -->
<g id="node15" class="node">
<title>22301</title>
<ellipse fill="none" stroke="black" stroke-width="2" cx="711.49" cy="-98.87" rx="59.29" ry="26.74"/>
<text text-anchor="middle" x="711.49" y="-102.67" font-family="Times,serif" font-size="14.00">merge B</text>
<text text-anchor="middle" x="711.49" y="-87.67" font-family="Times,serif" font-size="14.00">1:100000</text>
</g>
<!-- 22298&#45;&gt;22301 -->
<g id="edge12" class="edge">
<title>22298&#45;&gt;22301</title>
<path fill="none" stroke="black" stroke-width="2" d="M598.98,-167.48C619.41,-155.21 645.73,-139.39 667.78,-126.14"/>
<polygon fill="black" stroke="black" stroke-width="2" points="669.86,-128.97 676.63,-120.82 666.25,-122.97 669.86,-128.97"/>
</g>
<!-- 22299 -->
<g id="node5" class="node">
<title>22299</title>
<ellipse fill="none" stroke="black" stroke-width="2" cx="727.49" cy="-188.61" rx="84.71" ry="26.74"/>
<text text-anchor="middle" x="727.49" y="-192.41" font-family="Times,serif" font-size="14.00">merge</text>
<text text-anchor="middle" x="727.49" y="-177.41" font-family="Times,serif" font-size="14.00">65537:100000</text>
</g>
<!-- 22299&#45;&gt;22300 -->
<g id="edge2" class="edge">
<title>22299&#45;&gt;22300</title>
<path fill="none" stroke="black" stroke-width="2" d="M687.69,-164.79C666.68,-152.74 640.83,-137.91 619.13,-125.47"/>
<polygon fill="black" stroke="black" stroke-width="2" points="620.84,-122.42 610.43,-120.48 617.36,-128.49 620.84,-122.42"/>
</g>
<!-- 22299&#45;&gt;22301 -->
<g id="edge13" class="edge">
<title>22299&#45;&gt;22301</title>
<path fill="none" stroke="black" stroke-width="2" d="M722.77,-161.76C721.29,-153.62 719.62,-144.48 718.04,-135.77"/>
<polygon fill="black" stroke="black" stroke-width="2" points="721.46,-135.05 716.22,-125.84 714.58,-136.3 721.46,-135.05"/>
</g>
<!-- 22287 -->
<g id="node6" class="node">
<title>22287</title>
<ellipse fill="none" stroke="black" stroke-width="2" cx="403.49" cy="-368.09" rx="53.07" ry="26.74"/>
<text text-anchor="middle" x="403.49" y="-371.89" font-family="Times,serif" font-size="14.00">sort</text>
<text text-anchor="middle" x="403.49" y="-356.89" font-family="Times,serif" font-size="14.00">1:16384</text>
</g>
<!-- 22287&#45;&gt;22294 -->
<g id="edge16" class="edge">
<title>22287&#45;&gt;22294</title>
<path fill="none" stroke="black" stroke-width="2" d="M437.53,-347.18C459.29,-334.45 487.7,-317.83 510.95,-304.23"/>
<polygon fill="black" stroke="black" stroke-width="2" points="512.72,-307.25 519.59,-299.18 509.19,-301.21 512.72,-307.25"/>
</g>
<!-- 22290 -->
<g id="node7" class="node">
<title>22290</title>
<ellipse fill="none" stroke="red" stroke-width="2" cx="253.49" cy="-368.09" rx="78.48" ry="26.74"/>
<text text-anchor="middle" x="253.49" y="-371.89" font-family="Times,serif" font-size="14.00">sort</text>
<text text-anchor="middle" x="253.49" y="-356.89" font-family="Times,serif" font-size="14.00">49153:65536</text>
</g>
<!-- 22295 -->
<g id="node8" class="node">
<title>22295</title>
<ellipse fill="none" stroke="red" stroke-width="2" cx="253.49" cy="-278.35" rx="78.48" ry="26.74"/>
<text text-anchor="middle" x="253.49" y="-282.15" font-family="Times,serif" font-size="14.00">merge</text>
<text text-anchor="middle" x="253.49" y="-267.15" font-family="Times,serif" font-size="14.00">32769:65536</text>
</g>
<!-- 22290&#45;&gt;22295 -->
<g id="edge3" class="edge">
<title>22290&#45;&gt;22295</title>
<path fill="none" stroke="red" stroke-width="2" d="M253.49,-340.77C253.49,-332.8 253.49,-323.91 253.49,-315.42"/>
<polygon fill="red" stroke="red" stroke-width="2" points="256.99,-315.35 253.49,-305.35 249.99,-315.35 256.99,-315.35"/>
</g>
<!-- 22295&#45;&gt;22298 -->
<g id="edge10" class="edge">
<title>22295&#45;&gt;22298</title>
<path fill="none" stroke="red" stroke-width="2" d="M312.91,-260.64C369.78,-244.65 454.9,-220.71 510.31,-205.13"/>
<polygon fill="red" stroke="red" stroke-width="2" points="511.28,-208.49 519.96,-202.41 509.39,-201.75 511.28,-208.49"/>
</g>
<!-- 22289 -->
<g id="node9" class="node">
<title>22289</title>
<ellipse fill="none" stroke="black" stroke-width="2" cx="78.49" cy="-368.09" rx="78.48" ry="26.74"/>
<text text-anchor="middle" x="78.49" y="-371.89" font-family="Times,serif" font-size="14.00">sort</text>
<text text-anchor="middle" x="78.49" y="-356.89" font-family="Times,serif" font-size="14.00">32769:49152</text>
</g>
<!-- 22289&#45;&gt;22295 -->
<g id="edge4" class="edge">
<title>22289&#45;&gt;22295</title>
<path fill="none" stroke="black" stroke-width="2" d="M121.75,-345.4C145.82,-333.33 175.95,-318.23 201.31,-305.51"/>
<polygon fill="black" stroke="black" stroke-width="2" points="203.05,-308.55 210.43,-300.94 199.92,-302.29 203.05,-308.55"/>
</g>
<!-- 22293 -->
<g id="node10" class="node">
<title>22293</title>
<ellipse fill="none" stroke="black" stroke-width="2" cx="734.49" cy="-368.09" rx="84.71" ry="26.74"/>
<text text-anchor="middle" x="734.49" y="-371.89" font-family="Times,serif" font-size="14.00">sort</text>
<text text-anchor="middle" x="734.49" y="-356.89" font-family="Times,serif" font-size="14.00">98305:100000</text>
</g>
<!-- 22297 -->
<g id="node11" class="node">
<title>22297</title>
<ellipse fill="none" stroke="black" stroke-width="2" cx="731.49" cy="-278.35" rx="84.71" ry="26.74"/>
<text text-anchor="middle" x="731.49" y="-282.15" font-family="Times,serif" font-size="14.00">copy</text>
<text text-anchor="middle" x="731.49" y="-267.15" font-family="Times,serif" font-size="14.00">98305:100000</text>
</g>
<!-- 22293&#45;&gt;22297 -->
<g id="edge5" class="edge">
<title>22293&#45;&gt;22297</title>
<path fill="none" stroke="black" stroke-width="2" d="M733.59,-340.77C733.32,-332.8 733.01,-323.91 732.72,-315.42"/>
<polygon fill="black" stroke="black" stroke-width="2" points="736.22,-315.23 732.38,-305.35 729.22,-315.47 736.22,-315.23"/>
</g>
<!-- 22297&#45;&gt;22299 -->
<g id="edge6" class="edge">
<title>22297&#45;&gt;22299</title>
<path fill="none" stroke="black" stroke-width="2" d="M730.29,-251.03C729.93,-243.06 729.52,-234.17 729.13,-225.68"/>
<polygon fill="black" stroke="black" stroke-width="2" points="732.63,-225.44 728.67,-215.61 725.63,-225.76 732.63,-225.44"/>
</g>
<!-- 22296&#45;&gt;22299 -->
<g id="edge7" class="edge">
<title>22296&#45;&gt;22299</title>
<path fill="none" stroke="black" stroke-width="2" d="M870.46,-256.33C844.2,-244.08 810.88,-228.53 783.01,-215.52"/>
<polygon fill="black" stroke="black" stroke-width="2" points="784.33,-212.27 773.79,-211.22 781.37,-218.62 784.33,-212.27"/>
</g>
<!-- 22292 -->
<g id="node13" class="node">
<title>22292</title>
<ellipse fill="none" stroke="black" stroke-width="2" cx="915.49" cy="-368.09" rx="78.48" ry="26.74"/>
<text text-anchor="middle" x="915.49" y="-371.89" font-family="Times,serif" font-size="14.00">sort</text>
<text text-anchor="middle" x="915.49" y="-356.89" font-family="Times,serif" font-size="14.00">81921:98304</text>
</g>
<!-- 22292&#45;&gt;22296 -->
<g id="edge8" class="edge">
<title>22292&#45;&gt;22296</title>
<path fill="none" stroke="black" stroke-width="2" d="M915.49,-340.77C915.49,-332.8 915.49,-323.91 915.49,-315.42"/>
<polygon fill="black" stroke="black" stroke-width="2" points="918.99,-315.35 915.49,-305.35 911.99,-315.35 918.99,-315.35"/>
</g>
<!-- 22294&#45;&gt;22298 -->
<g id="edge11" class="edge">
<title>22294&#45;&gt;22298</title>
<path fill="none" stroke="black" stroke-width="2" d="M557.02,-251.5C558.14,-243.36 559.39,-234.22 560.58,-225.51"/>
<polygon fill="black" stroke="black" stroke-width="2" points="564.05,-225.96 561.94,-215.58 557.11,-225.01 564.05,-225.96"/>
</g>
<!-- 22301&#45;&gt;22302 -->
<g id="edge14" class="edge">
<title>22301&#45;&gt;22302</title>
<path fill="none" stroke="black" stroke-width="2" d="M690.04,-73.35C681.5,-63.6 671.73,-52.42 663.26,-42.75"/>
<polygon fill="black" stroke="black" stroke-width="2" points="665.74,-40.26 656.52,-35.04 660.47,-44.87 665.74,-40.26"/>
</g>
</g>
</svg>
