<?xml version="1.0" encoding="UTF-8" standalone="no"?>
<!DOCTYPE svg PUBLIC "-//W3C//DTD SVG 1.1//EN"
 "http://www.w3.org/Graphics/SVG/1.1/DTD/svg11.dtd">
<!-- Generated by graphviz version 2.50.0 (20211204.2007)
 -->
<!-- Title: dag Pages: 1 -->
<svg width="1177pt" height="385pt"
 viewBox="0.00 0.00 1177.34 385.22" xmlns="http://www.w3.org/2000/svg" xmlns:xlink="http://www.w3.org/1999/xlink">
<g id="graph0" class="graph" transform="scale(1 1) rotate(0) translate(4 381.22)">
<title>dag</title>
<polygon fill="white" stroke="transparent" points="-4,4 -4,-381.22 1173.34,-381.22 1173.34,4 -4,4"/>
<!-- 24419 -->
<g id="node1" class="node">
<title>24419</title>
<ellipse fill="none" stroke="black" stroke-width="2" cx="709.49" cy="-98.87" rx="59.29" ry="26.74"/>
<text text-anchor="middle" x="709.49" y="-102.67" font-family="Times,serif" font-size="14.00">merge A</text>
<text text-anchor="middle" x="709.49" y="-87.67" font-family="Times,serif" font-size="14.00">1:100000</text>
</g>
<!-- 24423 -->
<g id="node18" class="node">
<title>24423</title>
<ellipse fill="none" stroke="red" stroke-width="2" cx="640.49" cy="-18" rx="38.19" ry="18"/>
<text text-anchor="middle" x="640.49" y="-14.3" font-family="Times,serif" font-size="14.00">result</text>
</g>
<!-- 24419&#45;&gt;24423 -->
<g id="edge22" class="edge">
<title>24419&#45;&gt;24423</title>
<path fill="none" stroke="black" stroke-width="2" d="M688.04,-73.35C679.5,-63.6 669.73,-52.42 661.26,-42.75"/>
<polygon fill="black" stroke="black" stroke-width="2" points="663.74,-40.26 654.52,-35.04 658.47,-44.87 663.74,-40.26"/>
</g>
<!-- 24417 -->
<g id="node2" class="node">
<title>24417</title>
<ellipse fill="none" stroke="black" stroke-width="2" cx="535.49" cy="-179.74" rx="81.49" ry="18"/>
<text text-anchor="middle" x="535.49" y="-176.04" font-family="Times,serif" font-size="14.00">merge 1:65536</text>
</g>
<!-- 24417&#45;&gt;24419 -->
<g id="edge1" class="edge">
<title>24417&#45;&gt;24419</title>
<path fill="none" stroke="black" stroke-width="2" d="M569.45,-163.35C595.06,-151.74 630.59,-135.63 659.46,-122.55"/>
<polygon fill="black" stroke="black" stroke-width="2" points="660.91,-125.73 668.57,-118.42 658.02,-119.36 660.91,-125.73"/>
</g>
<!-- 24421 -->
<g id="node8" class="node">
<title>24421</title>
<ellipse fill="none" stroke="red" stroke-width="2" cx="846.49" cy="-98.87" rx="59.29" ry="26.74"/>
<text text-anchor="middle" x="846.49" y="-102.67" font-family="Times,serif" font-size="14.00">merge C</text>
<text text-anchor="middle" x="846.49" y="-87.67" font-family="Times,serif" font-size="14.00">1:100000</text>
</g>
<!-- 24417&#45;&gt;24421 -->
<g id="edge7" class="edge">
<title>24417&#45;&gt;24421</title>
<path fill="none" stroke="black" stroke-width="2" d="M593.41,-167.05C653.59,-154.73 743.61,-135.74 777.49,-125.74 782.7,-124.2 788.09,-122.46 793.44,-120.62"/>
<polygon fill="black" stroke="black" stroke-width="2" points="794.74,-123.88 803.01,-117.25 792.41,-117.28 794.74,-123.88"/>
</g>
<!-- 24420 -->
<g id="node13" class="node">
<title>24420</title>
<ellipse fill="none" stroke="black" stroke-width="2" cx="435.49" cy="-98.87" rx="59.29" ry="26.74"/>
<text text-anchor="middle" x="435.49" y="-102.67" font-family="Times,serif" font-size="14.00">merge B</text>
<text text-anchor="middle" x="435.49" y="-87.67" font-family="Times,serif" font-size="14.00">1:100000</text>
</g>
<!-- 24417&#45;&gt;24420 -->
<g id="edge11" class="edge">
<title>24417&#45;&gt;24420</title>
<path fill="none" stroke="black" stroke-width="2" d="M514.28,-162.01C502.11,-152.41 486.48,-140.09 472.36,-128.95"/>
<polygon fill="black" stroke="black" stroke-width="2" points="474.27,-126 464.25,-122.56 469.94,-131.5 474.27,-126"/>
</g>
<!-- 24422 -->
<g id="node15" class="node">
<title>24422</title>
<ellipse fill="none" stroke="black" stroke-width="2" cx="572.49" cy="-98.87" rx="59.29" ry="26.74"/>
<text text-anchor="middle" x="572.49" y="-102.67" font-family="Times,serif" font-size="14.00">merge D</text>
<text text-anchor="middle" x="572.49" y="-87.67" font-family="Times,serif" font-size="14.00">1:100000</text>
</g>
<!-- 24417&#45;&gt;24422 -->
<g id="edge15" class="edge">
<title>24417&#45;&gt;24422</title>
<path fill="none" stroke="black" stroke-width="2" d="M543.52,-161.63C547.25,-153.68 551.82,-143.92 556.23,-134.53"/>
<polygon fill="black" stroke="black" stroke-width="2" points="559.46,-135.88 560.54,-125.34 553.12,-132.91 559.46,-135.88"/>
</g>
<!-- 24418 -->
<g id="node3" class="node">
<title>24418</title>
<ellipse fill="none" stroke="red" stroke-width="2" cx="745.49" cy="-179.74" rx="110.48" ry="18"/>
<text text-anchor="middle" x="745.49" y="-176.04" font-family="Times,serif" font-size="14.00">merge 65537:100000</text>
</g>
<!-- 24418&#45;&gt;24419 -->
<g id="edge2" class="edge">
<title>24418&#45;&gt;24419</title>
<path fill="none" stroke="black" stroke-width="2" d="M737.68,-161.63C734.05,-153.68 729.59,-143.92 725.31,-134.53"/>
<polygon fill="black" stroke="black" stroke-width="2" points="728.45,-132.99 721.12,-125.34 722.08,-135.89 728.45,-132.99"/>
</g>
<!-- 24418&#45;&gt;24421 -->
<g id="edge8" class="edge">
<title>24418&#45;&gt;24421</title>
<path fill="none" stroke="red" stroke-width="2" d="M766.91,-162.01C779.2,-152.41 794.99,-140.09 809.25,-128.95"/>
<polygon fill="red" stroke="red" stroke-width="2" points="811.71,-131.47 817.44,-122.56 807.4,-125.95 811.71,-131.47"/>
</g>
<!-- 24418&#45;&gt;24420 -->
<g id="edge12" class="edge">
<title>24418&#45;&gt;24420</title>
<path fill="none" stroke="black" stroke-width="2" d="M674.42,-165.87C626.07,-156.45 560.87,-142.42 504.49,-125.74 499.27,-124.2 493.89,-122.45 488.54,-120.62"/>
<polygon fill="black" stroke="black" stroke-width="2" points="489.57,-117.27 478.97,-117.24 487.24,-123.87 489.57,-117.27"/>
</g>
<!-- 24418&#45;&gt;24422 -->
<g id="edge16" class="edge">
<title>24418&#45;&gt;24422</title>
<path fill="none" stroke="black" stroke-width="2" d="M710.06,-162.59C684.84,-151.09 650.59,-135.48 622.57,-122.7"/>
<polygon fill="black" stroke="black" stroke-width="2" points="623.88,-119.45 613.33,-118.49 620.98,-125.82 623.88,-119.45"/>
</g>
<!-- 24408 -->
<g id="node4" class="node">
<title>24408</title>
<ellipse fill="none" stroke="black" stroke-width="2" cx="253.49" cy="-350.35" rx="78.48" ry="26.74"/>
<text text-anchor="middle" x="253.49" y="-354.15" font-family="Times,serif" font-size="14.00">sort</text>
<text text-anchor="middle" x="253.49" y="-339.15" font-family="Times,serif" font-size="14.00">32769:49152</text>
</g>
<!-- 24414 -->
<g id="node5" class="node">
<title>24414</title>
<ellipse fill="none" stroke="black" stroke-width="2" cx="253.49" cy="-260.61" rx="104.78" ry="18"/>
<text text-anchor="middle" x="253.49" y="-256.91" font-family="Times,serif" font-size="14.00">merge 32769:65536</text>
</g>
<!-- 24408&#45;&gt;24414 -->
<g id="edge4" class="edge">
<title>24408&#45;&gt;24414</title>
<path fill="none" stroke="black" stroke-width="2" d="M253.49,-323.03C253.49,-312.27 253.49,-299.84 253.49,-288.98"/>
<polygon fill="black" stroke="black" stroke-width="2" points="256.99,-288.77 253.49,-278.77 249.99,-288.77 256.99,-288.77"/>
</g>
<!-- 24414&#45;&gt;24417 -->
<g id="edge6" class="edge">
<title>24414&#45;&gt;24417</title>
<path fill="none" stroke="black" stroke-width="2" d="M305.87,-244.96C354.55,-231.35 426.93,-211.1 477.37,-196.99"/>
<polygon fill="black" stroke="black" stroke-width="2" points="478.47,-200.32 487.15,-194.26 476.58,-193.58 478.47,-200.32"/>
</g>
<!-- 24409 -->
<g id="node6" class="node">
<title>24409</title>
<ellipse fill="none" stroke="black" stroke-width="2" cx="78.49" cy="-350.35" rx="78.48" ry="26.74"/>
<text text-anchor="middle" x="78.49" y="-354.15" font-family="Times,serif" font-size="14.00">sort</text>
<text text-anchor="middle" x="78.49" y="-339.15" font-family="Times,serif" font-size="14.00">49153:65536</text>
</g>
<!-- 24409&#45;&gt;24414 -->
<g id="edge3" class="edge">
<title>24409&#45;&gt;24414</title>
<path fill="none" stroke="black" stroke-width="2" d="M121.75,-327.66C149.27,-313.86 184.72,-296.09 211.91,-282.45"/>
<polygon fill="black" stroke="black" stroke-width="2" points="213.79,-285.43 221.16,-277.82 210.65,-279.17 213.79,-285.43"/>
</g>
<!-- 24413 -->
<g id="node7" class="node">
<title>24413</title>
<ellipse fill="none" stroke="black" stroke-width="2" cx="535.49" cy="-260.61" rx="81.49" ry="18"/>
<text text-anchor="middle" x="535.49" y="-256.91" font-family="Times,serif" font-size="14.00">merge 1:32768</text>
</g>
<!-- 24413&#45;&gt;24417 -->
<g id="edge5" class="edge">
<title>24413&#45;&gt;24417</title>
<path fill="none" stroke="black" stroke-width="2" d="M535.49,-242.5C535.49,-232.47 535.49,-219.58 535.49,-208.16"/>
<polygon fill="black" stroke="black" stroke-width="2" points="538.99,-207.82 535.49,-197.82 531.99,-207.82 538.99,-207.82"/>
</g>
<!-- 24421&#45;&gt;24423 -->
<g id="edge23" class="edge">
<title>24421&#45;&gt;24423</title>
<path fill="none" stroke="red" stroke-width="2" d="M802.04,-80.85C765.28,-66.78 713.63,-47 678.7,-33.63"/>
<polygon fill="red" stroke="red" stroke-width="2" points="679.91,-30.35 669.32,-30.04 677.41,-36.88 679.91,-30.35"/>
</g>
<!-- 24415 -->
<g id="node9" class="node">
<title>24415</title>
<ellipse fill="none" stroke="red" stroke-width="2" cx="745.49" cy="-260.61" rx="104.78" ry="18"/>
<text text-anchor="middle" x="745.49" y="-256.91" font-family="Times,serif" font-size="14.00">merge 65537:98304</text>
</g>
<!-- 24415&#45;&gt;24418 -->
<g id="edge19" class="edge">
<title>24415&#45;&gt;24418</title>
<path fill="none" stroke="red" stroke-width="2" d="M745.49,-242.5C745.49,-232.47 745.49,-219.58 745.49,-208.16"/>
<polygon fill="red" stroke="red" stroke-width="2" points="748.99,-207.82 745.49,-197.82 741.99,-207.82 748.99,-207.82"/>
</g>
<!-- 24410 -->
<g id="node10" class="node">
<title>24410</title>
<ellipse fill="none" stroke="red" stroke-width="2" cx="903.49" cy="-350.35" rx="78.48" ry="26.74"/>
<text text-anchor="middle" x="903.49" y="-354.15" font-family="Times,serif" font-size="14.00">sort</text>
<text text-anchor="middle" x="903.49" y="-339.15" font-family="Times,serif" font-size="14.00">65537:81920</text>
</g>
<!-- 24410&#45;&gt;24415 -->
<g id="edge9" class="edge">
<title>24410&#45;&gt;24415</title>
<path fill="none" stroke="red" stroke-width="2" d="M863.21,-326.98C838.89,-313.48 808.06,-296.36 784.06,-283.03"/>
<polygon fill="red" stroke="red" stroke-width="2" points="785.66,-279.91 775.22,-278.12 782.26,-286.03 785.66,-279.91"/>
</g>
<!-- 24411 -->
<g id="node11" class="node">
<title>24411</title>
<ellipse fill="none" stroke="black" stroke-width="2" cx="728.49" cy="-350.35" rx="78.48" ry="26.74"/>
<text text-anchor="middle" x="728.49" y="-354.15" font-family="Times,serif" font-size="14.00">sort</text>
<text text-anchor="middle" x="728.49" y="-339.15" font-family="Times,serif" font-size="14.00">81921:98304</text>
</g>
<!-- 24411&#45;&gt;24415 -->
<g id="edge10" class="edge">
<title>24411&#45;&gt;24415</title>
<path fill="none" stroke="black" stroke-width="2" d="M733.5,-323.5C735.62,-312.54 738.09,-299.77 740.24,-288.69"/>
<polygon fill="black" stroke="black" stroke-width="2" points="743.71,-289.17 742.18,-278.69 736.84,-287.84 743.71,-289.17"/>
</g>
<!-- 24407 -->
<g id="node12" class="node">
<title>24407</title>
<ellipse fill="none" stroke="black" stroke-width="2" cx="553.49" cy="-350.35" rx="78.48" ry="26.74"/>
<text text-anchor="middle" x="553.49" y="-354.15" font-family="Times,serif" font-size="14.00">sort</text>
<text text-anchor="middle" x="553.49" y="-339.15" font-family="Times,serif" font-size="14.00">16385:32768</text>
</g>
<!-- 24407&#45;&gt;24413 -->
<g id="edge14" class="edge">
<title>24407&#45;&gt;24413</title>
<path fill="none" stroke="black" stroke-width="2" d="M548.19,-323.5C545.94,-312.54 543.32,-299.77 541.04,-288.69"/>
<polygon fill="black" stroke="black" stroke-width="2" points="544.43,-287.78 538.99,-278.69 537.57,-289.19 544.43,-287.78"/>
</g>
<!-- 24420&#45;&gt;24423 -->
<g id="edge21" class="edge">
<title>24420&#45;&gt;24423</title>
<path fill="none" stroke="black" stroke-width="2" d="M479.72,-80.85C516.3,-66.78 567.71,-47 602.46,-33.63"/>
<polygon fill="black" stroke="black" stroke-width="2" points="603.72,-36.9 611.8,-30.04 601.21,-30.36 603.72,-36.9"/>
</g>
<!-- 24406 -->
<g id="node14" class="node">
<title>24406</title>
<ellipse fill="none" stroke="black" stroke-width="2" cx="403.49" cy="-350.35" rx="53.07" ry="26.74"/>
<text text-anchor="middle" x="403.49" y="-354.15" font-family="Times,serif" font-size="14.00">sort</text>
<text text-anchor="middle" x="403.49" y="-339.15" font-family="Times,serif" font-size="14.00">1:16384</text>
</g>
<!-- 24406&#45;&gt;24413 -->
<g id="edge13" class="edge">
<title>24406&#45;&gt;24413</title>
<path fill="none" stroke="black" stroke-width="2" d="M434.77,-328.56C455.18,-314.99 481.79,-297.3 502.53,-283.52"/>
<polygon fill="black" stroke="black" stroke-width="2" points="504.63,-286.32 511.03,-277.87 500.76,-280.49 504.63,-286.32"/>
</g>
<!-- 24422&#45;&gt;24423 -->
<g id="edge20" class="edge">
<title>24422&#45;&gt;24423</title>
<path fill="none" stroke="black" stroke-width="2" d="M593.63,-73.35C602.04,-63.6 611.67,-52.42 620.01,-42.75"/>
<polygon fill="black" stroke="black" stroke-width="2" points="622.78,-44.9 626.66,-35.04 617.48,-40.33 622.78,-44.9"/>
</g>
<!-- 24412 -->
<g id="node16" class="node">
<title>24412</title>
<ellipse fill="none" stroke="black" stroke-width="2" cx="1084.49" cy="-350.35" rx="84.71" ry="26.74"/>
<text text-anchor="middle" x="1084.49" y="-354.15" font-family="Times,serif" font-size="14.00">sort</text>
<text text-anchor="middle" x="1084.49" y="-339.15" font-family="Times,serif" font-size="14.00">98305:100000</text>
</g>
<!-- 24416 -->
<g id="node17" class="node">
<title>24416</title>
<ellipse fill="none" stroke="black" stroke-width="2" cx="1026.49" cy="-260.61" rx="84.71" ry="26.74"/>
<text text-anchor="middle" x="1026.49" y="-264.41" font-family="Times,serif" font-size="14.00">copy</text>
<text text-anchor="middle" x="1026.49" y="-249.41" font-family="Times,serif" font-size="14.00">98305:100000</text>
</g>
<!-- 24412&#45;&gt;24416 -->
<g id="edge17" class="edge">
<title>24412&#45;&gt;24416</title>
<path fill="none" stroke="black" stroke-width="2" d="M1067.71,-323.97C1061.87,-315.14 1055.22,-305.08 1048.99,-295.66"/>
<polygon fill="black" stroke="black" stroke-width="2" points="1051.86,-293.65 1043.43,-287.24 1046.02,-297.51 1051.86,-293.65"/>
</g>
<!-- 24416&#45;&gt;24418 -->
<g id="edge18" class="edge">
<title>24416&#45;&gt;24418</title>
<path fill="none" stroke="black" stroke-width="2" d="M964.47,-242.2C918,-229.16 854.66,-211.38 808.05,-198.3"/>
<polygon fill="black" stroke="black" stroke-width="2" points="808.94,-194.92 798.37,-195.58 807.05,-201.66 808.94,-194.92"/>
</g>
</g>
</svg>
