<?xml version="1.0" encoding="UTF-8" standalone="no"?>
<!DOCTYPE svg PUBLIC "-//W3C//DTD SVG 1.1//EN"
 "http://www.w3.org/Graphics/SVG/1.1/DTD/svg11.dtd">
<!-- Generated by graphviz version 2.50.0 (20211204.2007)
 -->
<!-- Title: dag Pages: 1 -->
<svg width="1177pt" height="385pt"
 viewBox="0.00 0.00 1176.98 385.22" xmlns="http://www.w3.org/2000/svg" xmlns:xlink="http://www.w3.org/1999/xlink">
<g id="graph0" class="graph" transform="scale(1 1) rotate(0) translate(4 381.22)">
<title>dag</title>
<polygon fill="white" stroke="transparent" points="-4,4 -4,-381.22 1172.98,-381.22 1172.98,4 -4,4"/>
<!-- 22705 -->
<g id="node1" class="node">
<title>22705</title>
<ellipse fill="none" stroke="black" stroke-width="2" cx="228.49" cy="-260.61" rx="48.99" ry="18"/>
<text text-anchor="middle" x="228.49" y="-256.91" font-family="Times,serif" font-size="14.00">1:32768</text>
</g>
<!-- 22709 -->
<g id="node5" class="node">
<title>22709</title>
<ellipse fill="none" stroke="red" stroke-width="2" cx="571.49" cy="-179.74" rx="48.99" ry="18"/>
<text text-anchor="middle" x="571.49" y="-176.04" font-family="Times,serif" font-size="14.00">1:65536</text>
</g>
<!-- 22705&#45;&gt;22709 -->
<g id="edge17" class="edge">
<title>22705&#45;&gt;22709</title>
<path fill="none" stroke="black" stroke-width="2" d="M268.84,-250.33C331.67,-235.88 452.75,-208.04 521.18,-192.31"/>
<polygon fill="black" stroke="black" stroke-width="2" points="522.33,-195.64 531.29,-189.98 520.76,-188.81 522.33,-195.64"/>
</g>
<!-- 22698 -->
<g id="node2" class="node">
<title>22698</title>
<ellipse fill="none" stroke="black" stroke-width="2" cx="228.49" cy="-350.35" rx="53.07" ry="26.74"/>
<text text-anchor="middle" x="228.49" y="-354.15" font-family="Times,serif" font-size="14.00">sort</text>
<text text-anchor="middle" x="228.49" y="-339.15" font-family="Times,serif" font-size="14.00">1:16384</text>
</g>
<!-- 22698&#45;&gt;22705 -->
<g id="edge1" class="edge">
<title>22698&#45;&gt;22705</title>
<path fill="none" stroke="black" stroke-width="2" d="M228.49,-323.03C228.49,-312.27 228.49,-299.84 228.49,-288.98"/>
<polygon fill="black" stroke="black" stroke-width="2" points="231.99,-288.77 228.49,-278.77 224.99,-288.77 231.99,-288.77"/>
</g>
<!-- 22699 -->
<g id="node3" class="node">
<title>22699</title>
<ellipse fill="none" stroke="black" stroke-width="2" cx="78.49" cy="-350.35" rx="78.48" ry="26.74"/>
<text text-anchor="middle" x="78.49" y="-354.15" font-family="Times,serif" font-size="14.00">sort</text>
<text text-anchor="middle" x="78.49" y="-339.15" font-family="Times,serif" font-size="14.00">16385:32768</text>
</g>
<!-- 22699&#45;&gt;22705 -->
<g id="edge2" class="edge">
<title>22699&#45;&gt;22705</title>
<path fill="none" stroke="black" stroke-width="2" d="M117.12,-326.76C141.18,-312.68 171.83,-294.75 194.89,-281.27"/>
<polygon fill="black" stroke="black" stroke-width="2" points="196.77,-284.22 203.63,-276.15 193.23,-278.18 196.77,-284.22"/>
</g>
<!-- 22712 -->
<g id="node4" class="node">
<title>22712</title>
<ellipse fill="none" stroke="black" stroke-width="2" cx="717.49" cy="-98.87" rx="59.29" ry="26.74"/>
<text text-anchor="middle" x="717.49" y="-102.67" font-family="Times,serif" font-size="14.00">merge B</text>
<text text-anchor="middle" x="717.49" y="-87.67" font-family="Times,serif" font-size="14.00">1:100000</text>
</g>
<!-- 22715 -->
<g id="node18" class="node">
<title>22715</title>
<ellipse fill="none" stroke="red" stroke-width="2" cx="648.49" cy="-18" rx="38.19" ry="18"/>
<text text-anchor="middle" x="648.49" y="-14.3" font-family="Times,serif" font-size="14.00">result</text>
</g>
<!-- 22712&#45;&gt;22715 -->
<g id="edge22" class="edge">
<title>22712&#45;&gt;22715</title>
<path fill="none" stroke="black" stroke-width="2" d="M696.04,-73.35C687.5,-63.6 677.73,-52.42 669.26,-42.75"/>
<polygon fill="black" stroke="black" stroke-width="2" points="671.74,-40.26 662.52,-35.04 666.47,-44.87 671.74,-40.26"/>
</g>
<!-- 22709&#45;&gt;22712 -->
<g id="edge3" class="edge">
<title>22709&#45;&gt;22712</title>
<path fill="none" stroke="black" stroke-width="2" d="M597.93,-164.46C618.33,-153.44 647.06,-137.92 671.24,-124.85"/>
<polygon fill="black" stroke="black" stroke-width="2" points="673.13,-127.81 680.26,-119.98 669.8,-121.65 673.13,-127.81"/>
</g>
<!-- 22713 -->
<g id="node7" class="node">
<title>22713</title>
<ellipse fill="none" stroke="black" stroke-width="2" cx="854.49" cy="-98.87" rx="59.29" ry="26.74"/>
<text text-anchor="middle" x="854.49" y="-102.67" font-family="Times,serif" font-size="14.00">merge C</text>
<text text-anchor="middle" x="854.49" y="-87.67" font-family="Times,serif" font-size="14.00">1:100000</text>
</g>
<!-- 22709&#45;&gt;22713 -->
<g id="edge5" class="edge">
<title>22709&#45;&gt;22713</title>
<path fill="none" stroke="black" stroke-width="2" d="M610.45,-168.8C619.64,-166.47 629.41,-164 638.49,-161.74 703.76,-145.47 721.22,-145.58 785.49,-125.74 790.48,-124.2 795.63,-122.49 800.77,-120.71"/>
<polygon fill="black" stroke="black" stroke-width="2" points="802.34,-123.87 810.59,-117.22 799.99,-117.27 802.34,-123.87"/>
</g>
<!-- 22711 -->
<g id="node15" class="node">
<title>22711</title>
<ellipse fill="none" stroke="red" stroke-width="2" cx="443.49" cy="-98.87" rx="59.29" ry="26.74"/>
<text text-anchor="middle" x="443.49" y="-102.67" font-family="Times,serif" font-size="14.00">merge A</text>
<text text-anchor="middle" x="443.49" y="-87.67" font-family="Times,serif" font-size="14.00">1:100000</text>
</g>
<!-- 22709&#45;&gt;22711 -->
<g id="edge12" class="edge">
<title>22709&#45;&gt;22711</title>
<path fill="none" stroke="red" stroke-width="2" d="M547.41,-163.91C530.25,-153.33 506.72,-138.83 486.39,-126.3"/>
<polygon fill="red" stroke="red" stroke-width="2" points="487.95,-123.16 477.6,-120.89 484.28,-129.11 487.95,-123.16"/>
</g>
<!-- 22714 -->
<g id="node17" class="node">
<title>22714</title>
<ellipse fill="none" stroke="black" stroke-width="2" cx="580.49" cy="-98.87" rx="59.29" ry="26.74"/>
<text text-anchor="middle" x="580.49" y="-102.67" font-family="Times,serif" font-size="14.00">merge D</text>
<text text-anchor="middle" x="580.49" y="-87.67" font-family="Times,serif" font-size="14.00">1:100000</text>
</g>
<!-- 22709&#45;&gt;22714 -->
<g id="edge18" class="edge">
<title>22709&#45;&gt;22714</title>
<path fill="none" stroke="black" stroke-width="2" d="M573.44,-161.63C574.3,-154.14 575.33,-145.05 576.35,-136.17"/>
<polygon fill="black" stroke="black" stroke-width="2" points="579.86,-136.29 577.51,-125.95 572.9,-135.49 579.86,-136.29"/>
</g>
<!-- 22710 -->
<g id="node6" class="node">
<title>22710</title>
<ellipse fill="none" stroke="black" stroke-width="2" cx="725.49" cy="-179.74" rx="77.99" ry="18"/>
<text text-anchor="middle" x="725.49" y="-176.04" font-family="Times,serif" font-size="14.00">65537:100000</text>
</g>
<!-- 22710&#45;&gt;22712 -->
<g id="edge4" class="edge">
<title>22710&#45;&gt;22712</title>
<path fill="none" stroke="black" stroke-width="2" d="M723.75,-161.63C722.99,-154.14 722.07,-145.05 721.17,-136.17"/>
<polygon fill="black" stroke="black" stroke-width="2" points="724.63,-135.55 720.13,-125.95 717.66,-136.26 724.63,-135.55"/>
</g>
<!-- 22710&#45;&gt;22713 -->
<g id="edge6" class="edge">
<title>22710&#45;&gt;22713</title>
<path fill="none" stroke="black" stroke-width="2" d="M751.91,-162.59C768.91,-152.19 791.41,-138.43 811.01,-126.45"/>
<polygon fill="black" stroke="black" stroke-width="2" points="813.07,-129.29 819.78,-121.09 809.42,-123.32 813.07,-129.29"/>
</g>
<!-- 22710&#45;&gt;22711 -->
<g id="edge13" class="edge">
<title>22710&#45;&gt;22711</title>
<path fill="none" stroke="black" stroke-width="2" d="M670.29,-166.84C627,-157.06 565.44,-142.19 512.49,-125.74 507.5,-124.19 502.35,-122.48 497.21,-120.69"/>
<polygon fill="black" stroke="black" stroke-width="2" points="497.99,-117.25 487.4,-117.19 495.64,-123.85 497.99,-117.25"/>
</g>
<!-- 22710&#45;&gt;22714 -->
<g id="edge19" class="edge">
<title>22710&#45;&gt;22714</title>
<path fill="none" stroke="black" stroke-width="2" d="M696.49,-162.97C676.43,-152.06 649.31,-137.3 626.34,-124.81"/>
<polygon fill="black" stroke="black" stroke-width="2" points="627.89,-121.67 617.44,-119.97 624.55,-127.82 627.89,-121.67"/>
</g>
<!-- 22713&#45;&gt;22715 -->
<g id="edge20" class="edge">
<title>22713&#45;&gt;22715</title>
<path fill="none" stroke="black" stroke-width="2" d="M810.04,-80.85C773.28,-66.78 721.63,-47 686.7,-33.63"/>
<polygon fill="black" stroke="black" stroke-width="2" points="687.91,-30.35 677.32,-30.04 685.41,-36.88 687.91,-30.35"/>
</g>
<!-- 22700 -->
<g id="node8" class="node">
<title>22700</title>
<ellipse fill="none" stroke="black" stroke-width="2" cx="553.49" cy="-350.35" rx="78.48" ry="26.74"/>
<text text-anchor="middle" x="553.49" y="-354.15" font-family="Times,serif" font-size="14.00">sort</text>
<text text-anchor="middle" x="553.49" y="-339.15" font-family="Times,serif" font-size="14.00">32769:49152</text>
</g>
<!-- 22706 -->
<g id="node9" class="node">
<title>22706</title>
<ellipse fill="none" stroke="red" stroke-width="2" cx="553.49" cy="-260.61" rx="72.29" ry="18"/>
<text text-anchor="middle" x="553.49" y="-256.91" font-family="Times,serif" font-size="14.00">32769:65536</text>
</g>
<!-- 22700&#45;&gt;22706 -->
<g id="edge7" class="edge">
<title>22700&#45;&gt;22706</title>
<path fill="none" stroke="black" stroke-width="2" d="M553.49,-323.03C553.49,-312.27 553.49,-299.84 553.49,-288.98"/>
<polygon fill="black" stroke="black" stroke-width="2" points="556.99,-288.77 553.49,-278.77 549.99,-288.77 556.99,-288.77"/>
</g>
<!-- 22706&#45;&gt;22709 -->
<g id="edge16" class="edge">
<title>22706&#45;&gt;22709</title>
<path fill="none" stroke="red" stroke-width="2" d="M557.39,-242.5C559.71,-232.37 562.69,-219.31 565.31,-207.81"/>
<polygon fill="red" stroke="red" stroke-width="2" points="568.78,-208.35 567.59,-197.82 561.95,-206.79 568.78,-208.35"/>
</g>
<!-- 22701 -->
<g id="node10" class="node">
<title>22701</title>
<ellipse fill="none" stroke="red" stroke-width="2" cx="378.49" cy="-350.35" rx="78.48" ry="26.74"/>
<text text-anchor="middle" x="378.49" y="-354.15" font-family="Times,serif" font-size="14.00">sort</text>
<text text-anchor="middle" x="378.49" y="-339.15" font-family="Times,serif" font-size="14.00">49153:65536</text>
</g>
<!-- 22701&#45;&gt;22706 -->
<g id="edge8" class="edge">
<title>22701&#45;&gt;22706</title>
<path fill="none" stroke="red" stroke-width="2" d="M421.75,-327.66C449.81,-313.59 486.12,-295.38 513.51,-281.65"/>
<polygon fill="red" stroke="red" stroke-width="2" points="515.43,-284.61 522.8,-277 512.29,-278.35 515.43,-284.61"/>
</g>
<!-- 22702 -->
<g id="node11" class="node">
<title>22702</title>
<ellipse fill="none" stroke="black" stroke-width="2" cx="1090.49" cy="-350.35" rx="78.48" ry="26.74"/>
<text text-anchor="middle" x="1090.49" y="-354.15" font-family="Times,serif" font-size="14.00">sort</text>
<text text-anchor="middle" x="1090.49" y="-339.15" font-family="Times,serif" font-size="14.00">65537:81920</text>
</g>
<!-- 22707 -->
<g id="node14" class="node">
<title>22707</title>
<ellipse fill="none" stroke="black" stroke-width="2" cx="915.49" cy="-260.61" rx="72.29" ry="18"/>
<text text-anchor="middle" x="915.49" y="-256.91" font-family="Times,serif" font-size="14.00">65537:98304</text>
</g>
<!-- 22702&#45;&gt;22707 -->
<g id="edge14" class="edge">
<title>22702&#45;&gt;22707</title>
<path fill="none" stroke="black" stroke-width="2" d="M1047.23,-327.66C1019.16,-313.59 982.85,-295.38 955.46,-281.65"/>
<polygon fill="black" stroke="black" stroke-width="2" points="956.68,-278.35 946.17,-277 953.55,-284.61 956.68,-278.35"/>
</g>
<!-- 22704 -->
<g id="node12" class="node">
<title>22704</title>
<ellipse fill="none" stroke="black" stroke-width="2" cx="734.49" cy="-350.35" rx="84.71" ry="26.74"/>
<text text-anchor="middle" x="734.49" y="-354.15" font-family="Times,serif" font-size="14.00">sort</text>
<text text-anchor="middle" x="734.49" y="-339.15" font-family="Times,serif" font-size="14.00">98305:100000</text>
</g>
<!-- 22708 -->
<g id="node13" class="node">
<title>22708</title>
<ellipse fill="none" stroke="black" stroke-width="2" cx="731.49" cy="-260.61" rx="84.71" ry="26.74"/>
<text text-anchor="middle" x="731.49" y="-264.41" font-family="Times,serif" font-size="14.00">copy</text>
<text text-anchor="middle" x="731.49" y="-249.41" font-family="Times,serif" font-size="14.00">98305:100000</text>
</g>
<!-- 22704&#45;&gt;22708 -->
<g id="edge9" class="edge">
<title>22704&#45;&gt;22708</title>
<path fill="none" stroke="black" stroke-width="2" d="M733.59,-323.03C733.32,-315.06 733.01,-306.17 732.72,-297.68"/>
<polygon fill="black" stroke="black" stroke-width="2" points="736.22,-297.49 732.38,-287.61 729.22,-297.73 736.22,-297.49"/>
</g>
<!-- 22708&#45;&gt;22710 -->
<g id="edge10" class="edge">
<title>22708&#45;&gt;22710</title>
<path fill="none" stroke="black" stroke-width="2" d="M729.49,-233.35C728.87,-225.25 728.19,-216.31 727.57,-208.13"/>
<polygon fill="black" stroke="black" stroke-width="2" points="731.05,-207.67 726.8,-197.96 724.07,-208.2 731.05,-207.67"/>
</g>
<!-- 22707&#45;&gt;22710 -->
<g id="edge11" class="edge">
<title>22707&#45;&gt;22710</title>
<path fill="none" stroke="black" stroke-width="2" d="M879.75,-244.78C849.03,-232.02 804.54,-213.56 771.23,-199.73"/>
<polygon fill="black" stroke="black" stroke-width="2" points="772.29,-196.38 761.71,-195.78 769.61,-202.84 772.29,-196.38"/>
</g>
<!-- 22711&#45;&gt;22715 -->
<g id="edge23" class="edge">
<title>22711&#45;&gt;22715</title>
<path fill="none" stroke="red" stroke-width="2" d="M487.72,-80.85C524.3,-66.78 575.71,-47 610.46,-33.63"/>
<polygon fill="red" stroke="red" stroke-width="2" points="611.72,-36.9 619.8,-30.04 609.21,-30.36 611.72,-36.9"/>
</g>
<!-- 22703 -->
<g id="node16" class="node">
<title>22703</title>
<ellipse fill="none" stroke="black" stroke-width="2" cx="915.49" cy="-350.35" rx="78.48" ry="26.74"/>
<text text-anchor="middle" x="915.49" y="-354.15" font-family="Times,serif" font-size="14.00">sort</text>
<text text-anchor="middle" x="915.49" y="-339.15" font-family="Times,serif" font-size="14.00">81921:98304</text>
</g>
<!-- 22703&#45;&gt;22707 -->
<g id="edge15" class="edge">
<title>22703&#45;&gt;22707</title>
<path fill="none" stroke="black" stroke-width="2" d="M915.49,-323.03C915.49,-312.27 915.49,-299.84 915.49,-288.98"/>
<polygon fill="black" stroke="black" stroke-width="2" points="918.99,-288.77 915.49,-278.77 911.99,-288.77 918.99,-288.77"/>
</g>
<!-- 22714&#45;&gt;22715 -->
<g id="edge21" class="edge">
<title>22714&#45;&gt;22715</title>
<path fill="none" stroke="black" stroke-width="2" d="M601.63,-73.35C610.04,-63.6 619.67,-52.42 628.01,-42.75"/>
<polygon fill="black" stroke="black" stroke-width="2" points="630.78,-44.9 634.66,-35.04 625.48,-40.33 630.78,-44.9"/>
</g>
</g>
</svg>
