<?xml version="1.0" encoding="UTF-8" standalone="no"?>
<!DOCTYPE svg PUBLIC "-//W3C//DTD SVG 1.1//EN"
 "http://www.w3.org/Graphics/SVG/1.1/DTD/svg11.dtd">
<!-- Generated by graphviz version 2.50.0 (20211204.2007)
 -->
<!-- Title: dag Pages: 1 -->
<svg width="1177pt" height="403pt"
 viewBox="0.00 0.00 1176.89 402.96" xmlns="http://www.w3.org/2000/svg" xmlns:xlink="http://www.w3.org/1999/xlink">
<g id="graph0" class="graph" transform="scale(1 1) rotate(0) translate(4 398.96)">
<title>dag</title>
<polygon fill="white" stroke="transparent" points="-4,4 -4,-398.96 1172.89,-398.96 1172.89,4 -4,4"/>
<!-- 23878 -->
<g id="node1" class="node">
<title>23878</title>
<ellipse fill="none" stroke="black" stroke-width="2" cx="84.85" cy="-368.09" rx="84.71" ry="26.74"/>
<text text-anchor="middle" x="84.85" y="-371.89" font-family="Times,serif" font-size="14.00">sort</text>
<text text-anchor="middle" x="84.85" y="-356.89" font-family="Times,serif" font-size="14.00">98305:100000</text>
</g>
<!-- 23882 -->
<g id="node2" class="node">
<title>23882</title>
<ellipse fill="none" stroke="black" stroke-width="2" cx="172.85" cy="-278.35" rx="84.71" ry="26.74"/>
<text text-anchor="middle" x="172.85" y="-282.15" font-family="Times,serif" font-size="14.00">copy</text>
<text text-anchor="middle" x="172.85" y="-267.15" font-family="Times,serif" font-size="14.00">98305:100000</text>
</g>
<!-- 23878&#45;&gt;23882 -->
<g id="edge1" class="edge">
<title>23878&#45;&gt;23882</title>
<path fill="none" stroke="black" stroke-width="2" d="M109.83,-342.18C119.4,-332.64 130.46,-321.62 140.61,-311.5"/>
<polygon fill="black" stroke="black" stroke-width="2" points="143.2,-313.86 147.81,-304.32 138.26,-308.9 143.2,-313.86"/>
</g>
<!-- 23884 -->
<g id="node3" class="node">
<title>23884</title>
<ellipse fill="none" stroke="black" stroke-width="2" cx="449.85" cy="-188.61" rx="84.71" ry="26.74"/>
<text text-anchor="middle" x="449.85" y="-192.41" font-family="Times,serif" font-size="14.00">merge</text>
<text text-anchor="middle" x="449.85" y="-177.41" font-family="Times,serif" font-size="14.00">65537:100000</text>
</g>
<!-- 23882&#45;&gt;23884 -->
<g id="edge2" class="edge">
<title>23882&#45;&gt;23884</title>
<path fill="none" stroke="black" stroke-width="2" d="M231.26,-258.85C275.12,-244.96 335.32,-225.89 381.43,-211.28"/>
<polygon fill="black" stroke="black" stroke-width="2" points="382.57,-214.59 391.05,-208.24 380.46,-207.92 382.57,-214.59"/>
</g>
<!-- 23885 -->
<g id="node11" class="node">
<title>23885</title>
<ellipse fill="none" stroke="red" stroke-width="2" cx="458.85" cy="-98.87" rx="59.29" ry="26.74"/>
<text text-anchor="middle" x="458.85" y="-102.67" font-family="Times,serif" font-size="14.00">merge A</text>
<text text-anchor="middle" x="458.85" y="-87.67" font-family="Times,serif" font-size="14.00">1:100000</text>
</g>
<!-- 23884&#45;&gt;23885 -->
<g id="edge8" class="edge">
<title>23884&#45;&gt;23885</title>
<path fill="none" stroke="black" stroke-width="2" d="M452.55,-161.29C453.37,-153.32 454.28,-144.43 455.15,-135.94"/>
<polygon fill="black" stroke="black" stroke-width="2" points="458.65,-136.18 456.19,-125.87 451.68,-135.46 458.65,-136.18"/>
</g>
<!-- 23886 -->
<g id="node15" class="node">
<title>23886</title>
<ellipse fill="none" stroke="black" stroke-width="2" cx="595.85" cy="-98.87" rx="59.29" ry="26.74"/>
<text text-anchor="middle" x="595.85" y="-102.67" font-family="Times,serif" font-size="14.00">merge B</text>
<text text-anchor="middle" x="595.85" y="-87.67" font-family="Times,serif" font-size="14.00">1:100000</text>
</g>
<!-- 23884&#45;&gt;23886 -->
<g id="edge14" class="edge">
<title>23884&#45;&gt;23886</title>
<path fill="none" stroke="black" stroke-width="2" d="M488.21,-164.56C507.79,-152.79 531.69,-138.43 552,-126.23"/>
<polygon fill="black" stroke="black" stroke-width="2" points="553.98,-129.12 560.75,-120.97 550.37,-123.12 553.98,-129.12"/>
</g>
<!-- 23881 -->
<g id="node4" class="node">
<title>23881</title>
<ellipse fill="none" stroke="black" stroke-width="2" cx="440.85" cy="-278.35" rx="78.48" ry="26.74"/>
<text text-anchor="middle" x="440.85" y="-282.15" font-family="Times,serif" font-size="14.00">merge</text>
<text text-anchor="middle" x="440.85" y="-267.15" font-family="Times,serif" font-size="14.00">65537:98304</text>
</g>
<!-- 23881&#45;&gt;23884 -->
<g id="edge3" class="edge">
<title>23881&#45;&gt;23884</title>
<path fill="none" stroke="black" stroke-width="2" d="M443.55,-251.03C444.37,-243.06 445.28,-234.17 446.15,-225.68"/>
<polygon fill="black" stroke="black" stroke-width="2" points="449.65,-225.92 447.19,-215.61 442.68,-225.2 449.65,-225.92"/>
</g>
<!-- 23874 -->
<g id="node5" class="node">
<title>23874</title>
<ellipse fill="none" stroke="red" stroke-width="2" cx="790.85" cy="-368.09" rx="78.48" ry="26.74"/>
<text text-anchor="middle" x="790.85" y="-371.89" font-family="Times,serif" font-size="14.00">sort</text>
<text text-anchor="middle" x="790.85" y="-356.89" font-family="Times,serif" font-size="14.00">32769:49152</text>
</g>
<!-- 23880 -->
<g id="node9" class="node">
<title>23880</title>
<ellipse fill="none" stroke="red" stroke-width="2" cx="615.85" cy="-278.35" rx="78.48" ry="26.74"/>
<text text-anchor="middle" x="615.85" y="-282.15" font-family="Times,serif" font-size="14.00">merge</text>
<text text-anchor="middle" x="615.85" y="-267.15" font-family="Times,serif" font-size="14.00">32769:65536</text>
</g>
<!-- 23874&#45;&gt;23880 -->
<g id="edge6" class="edge">
<title>23874&#45;&gt;23880</title>
<path fill="none" stroke="red" stroke-width="2" d="M747.59,-345.4C723.53,-333.33 693.4,-318.23 668.03,-305.51"/>
<polygon fill="red" stroke="red" stroke-width="2" points="669.42,-302.29 658.92,-300.94 666.29,-308.55 669.42,-302.29"/>
</g>
<!-- 23872 -->
<g id="node6" class="node">
<title>23872</title>
<ellipse fill="none" stroke="black" stroke-width="2" cx="1115.85" cy="-368.09" rx="53.07" ry="26.74"/>
<text text-anchor="middle" x="1115.85" y="-371.89" font-family="Times,serif" font-size="14.00">sort</text>
<text text-anchor="middle" x="1115.85" y="-356.89" font-family="Times,serif" font-size="14.00">1:16384</text>
</g>
<!-- 23879 -->
<g id="node14" class="node">
<title>23879</title>
<ellipse fill="none" stroke="black" stroke-width="2" cx="965.85" cy="-278.35" rx="53.07" ry="26.74"/>
<text text-anchor="middle" x="965.85" y="-282.15" font-family="Times,serif" font-size="14.00">merge</text>
<text text-anchor="middle" x="965.85" y="-267.15" font-family="Times,serif" font-size="14.00">1:32768</text>
</g>
<!-- 23872&#45;&gt;23879 -->
<g id="edge10" class="edge">
<title>23872&#45;&gt;23879</title>
<path fill="none" stroke="black" stroke-width="2" d="M1081.82,-347.18C1060.05,-334.45 1031.64,-317.83 1008.39,-304.23"/>
<polygon fill="black" stroke="black" stroke-width="2" points="1010.15,-301.21 999.76,-299.18 1006.62,-307.25 1010.15,-301.21"/>
</g>
<!-- 23876 -->
<g id="node7" class="node">
<title>23876</title>
<ellipse fill="none" stroke="black" stroke-width="2" cx="440.85" cy="-368.09" rx="78.48" ry="26.74"/>
<text text-anchor="middle" x="440.85" y="-371.89" font-family="Times,serif" font-size="14.00">sort</text>
<text text-anchor="middle" x="440.85" y="-356.89" font-family="Times,serif" font-size="14.00">65537:81920</text>
</g>
<!-- 23876&#45;&gt;23881 -->
<g id="edge4" class="edge">
<title>23876&#45;&gt;23881</title>
<path fill="none" stroke="black" stroke-width="2" d="M440.85,-340.77C440.85,-332.8 440.85,-323.91 440.85,-315.42"/>
<polygon fill="black" stroke="black" stroke-width="2" points="444.35,-315.35 440.85,-305.35 437.35,-315.35 444.35,-315.35"/>
</g>
<!-- 23877 -->
<g id="node8" class="node">
<title>23877</title>
<ellipse fill="none" stroke="black" stroke-width="2" cx="265.85" cy="-368.09" rx="78.48" ry="26.74"/>
<text text-anchor="middle" x="265.85" y="-371.89" font-family="Times,serif" font-size="14.00">sort</text>
<text text-anchor="middle" x="265.85" y="-356.89" font-family="Times,serif" font-size="14.00">81921:98304</text>
</g>
<!-- 23877&#45;&gt;23881 -->
<g id="edge5" class="edge">
<title>23877&#45;&gt;23881</title>
<path fill="none" stroke="black" stroke-width="2" d="M309.11,-345.4C333.18,-333.33 363.31,-318.23 388.68,-305.51"/>
<polygon fill="black" stroke="black" stroke-width="2" points="390.42,-308.55 397.79,-300.94 387.28,-302.29 390.42,-308.55"/>
</g>
<!-- 23883 -->
<g id="node12" class="node">
<title>23883</title>
<ellipse fill="none" stroke="red" stroke-width="2" cx="610.85" cy="-188.61" rx="53.07" ry="26.74"/>
<text text-anchor="middle" x="610.85" y="-192.41" font-family="Times,serif" font-size="14.00">merge</text>
<text text-anchor="middle" x="610.85" y="-177.41" font-family="Times,serif" font-size="14.00">1:65536</text>
</g>
<!-- 23880&#45;&gt;23883 -->
<g id="edge12" class="edge">
<title>23880&#45;&gt;23883</title>
<path fill="none" stroke="red" stroke-width="2" d="M614.35,-251.03C613.9,-243.06 613.39,-234.17 612.91,-225.68"/>
<polygon fill="red" stroke="red" stroke-width="2" points="616.4,-225.4 612.33,-215.61 609.41,-225.8 616.4,-225.4"/>
</g>
<!-- 23875 -->
<g id="node10" class="node">
<title>23875</title>
<ellipse fill="none" stroke="black" stroke-width="2" cx="615.85" cy="-368.09" rx="78.48" ry="26.74"/>
<text text-anchor="middle" x="615.85" y="-371.89" font-family="Times,serif" font-size="14.00">sort</text>
<text text-anchor="middle" x="615.85" y="-356.89" font-family="Times,serif" font-size="14.00">49153:65536</text>
</g>
<!-- 23875&#45;&gt;23880 -->
<g id="edge7" class="edge">
<title>23875&#45;&gt;23880</title>
<path fill="none" stroke="black" stroke-width="2" d="M615.85,-340.77C615.85,-332.8 615.85,-323.91 615.85,-315.42"/>
<polygon fill="black" stroke="black" stroke-width="2" points="619.35,-315.35 615.85,-305.35 612.35,-315.35 619.35,-315.35"/>
</g>
<!-- 23887 -->
<g id="node16" class="node">
<title>23887</title>
<ellipse fill="none" stroke="red" stroke-width="2" cx="526.85" cy="-18" rx="38.19" ry="18"/>
<text text-anchor="middle" x="526.85" y="-14.3" font-family="Times,serif" font-size="14.00">result</text>
</g>
<!-- 23885&#45;&gt;23887 -->
<g id="edge17" class="edge">
<title>23885&#45;&gt;23887</title>
<path fill="none" stroke="red" stroke-width="2" d="M480,-73.35C488.4,-63.6 498.04,-52.42 506.38,-42.75"/>
<polygon fill="red" stroke="red" stroke-width="2" points="509.14,-44.9 513.02,-35.04 503.84,-40.33 509.14,-44.9"/>
</g>
<!-- 23883&#45;&gt;23885 -->
<g id="edge9" class="edge">
<title>23883&#45;&gt;23885</title>
<path fill="none" stroke="red" stroke-width="2" d="M576.74,-167.92C555.01,-155.38 526.63,-139 503.17,-125.45"/>
<polygon fill="red" stroke="red" stroke-width="2" points="504.85,-122.38 494.44,-120.41 501.35,-128.44 504.85,-122.38"/>
</g>
<!-- 23883&#45;&gt;23886 -->
<g id="edge15" class="edge">
<title>23883&#45;&gt;23886</title>
<path fill="none" stroke="black" stroke-width="2" d="M606.43,-161.76C605.04,-153.62 603.48,-144.48 601.99,-135.77"/>
<polygon fill="black" stroke="black" stroke-width="2" points="605.43,-135.11 600.29,-125.84 598.53,-136.29 605.43,-135.11"/>
</g>
<!-- 23873 -->
<g id="node13" class="node">
<title>23873</title>
<ellipse fill="none" stroke="black" stroke-width="2" cx="965.85" cy="-368.09" rx="78.48" ry="26.74"/>
<text text-anchor="middle" x="965.85" y="-371.89" font-family="Times,serif" font-size="14.00">sort</text>
<text text-anchor="middle" x="965.85" y="-356.89" font-family="Times,serif" font-size="14.00">16385:32768</text>
</g>
<!-- 23873&#45;&gt;23879 -->
<g id="edge11" class="edge">
<title>23873&#45;&gt;23879</title>
<path fill="none" stroke="black" stroke-width="2" d="M965.85,-340.77C965.85,-332.8 965.85,-323.91 965.85,-315.42"/>
<polygon fill="black" stroke="black" stroke-width="2" points="969.35,-315.35 965.85,-305.35 962.35,-315.35 969.35,-315.35"/>
</g>
<!-- 23879&#45;&gt;23883 -->
<g id="edge13" class="edge">
<title>23879&#45;&gt;23883</title>
<path fill="none" stroke="black" stroke-width="2" d="M918.71,-265.7C853.91,-249.68 737.43,-220.89 667.82,-203.69"/>
<polygon fill="black" stroke="black" stroke-width="2" points="668.45,-200.24 657.91,-201.24 666.77,-207.04 668.45,-200.24"/>
</g>
<!-- 23886&#45;&gt;23887 -->
<g id="edge16" class="edge">
<title>23886&#45;&gt;23887</title>
<path fill="none" stroke="black" stroke-width="2" d="M574.4,-73.35C565.87,-63.6 556.09,-52.42 547.63,-42.75"/>
<polygon fill="black" stroke="black" stroke-width="2" points="550.1,-40.26 540.89,-35.04 544.84,-44.87 550.1,-40.26"/>
</g>
</g>
</svg>
