<?xml version="1.0" encoding="UTF-8" standalone="no"?>
<!DOCTYPE svg PUBLIC "-//W3C//DTD SVG 1.1//EN"
 "http://www.w3.org/Graphics/SVG/1.1/DTD/svg11.dtd">
<!-- Generated by graphviz version 2.50.0 (20211204.2007)
 -->
<!-- Title: dag Pages: 1 -->
<svg width="1177pt" height="403pt"
 viewBox="0.00 0.00 1177.34 402.96" xmlns="http://www.w3.org/2000/svg" xmlns:xlink="http://www.w3.org/1999/xlink">
<g id="graph0" class="graph" transform="scale(1 1) rotate(0) translate(4 398.96)">
<title>dag</title>
<polygon fill="white" stroke="transparent" points="-4,4 -4,-398.96 1173.34,-398.96 1173.34,4 -4,4"/>
<!-- 21482 -->
<g id="node1" class="node">
<title>21482</title>
<ellipse fill="none" stroke="red" stroke-width="2" cx="640.49" cy="-18" rx="38.19" ry="18"/>
<text text-anchor="middle" x="640.49" y="-14.3" font-family="Times,serif" font-size="14.00">result</text>
</g>
<!-- 21481 -->
<g id="node2" class="node">
<title>21481</title>
<ellipse fill="none" stroke="red" stroke-width="2" cx="640.49" cy="-98.87" rx="59.29" ry="26.74"/>
<text text-anchor="middle" x="640.49" y="-102.67" font-family="Times,serif" font-size="14.00">merge</text>
<text text-anchor="middle" x="640.49" y="-87.67" font-family="Times,serif" font-size="14.00">1:100000</text>
</g>
<!-- 21481&#45;&gt;21482 -->
<g id="edge1" class="edge">
<title>21481&#45;&gt;21482</title>
<path fill="none" stroke="red" stroke-width="2" d="M640.49,-71.61C640.49,-63.51 640.49,-54.57 640.49,-46.39"/>
<polygon fill="red" stroke="red" stroke-width="2" points="643.99,-46.22 640.49,-36.22 636.99,-46.22 643.99,-46.22"/>
</g>
<!-- 21468 -->
<g id="node3" class="node">
<title>21468</title>
<ellipse fill="none" stroke="red" stroke-width="2" cx="403.49" cy="-368.09" rx="53.07" ry="26.74"/>
<text text-anchor="middle" x="403.49" y="-371.89" font-family="Times,serif" font-size="14.00">sort</text>
<text text-anchor="middle" x="403.49" y="-356.89" font-family="Times,serif" font-size="14.00">1:16384</text>
</g>
<!-- 21475 -->
<g id="node8" class="node">
<title>21475</title>
<ellipse fill="none" stroke="red" stroke-width="2" cx="478.49" cy="-278.35" rx="53.07" ry="26.74"/>
<text text-anchor="middle" x="478.49" y="-282.15" font-family="Times,serif" font-size="14.00">merge</text>
<text text-anchor="middle" x="478.49" y="-267.15" font-family="Times,serif" font-size="14.00">1:32768</text>
</g>
<!-- 21468&#45;&gt;21475 -->
<g id="edge9" class="edge">
<title>21468&#45;&gt;21475</title>
<path fill="none" stroke="red" stroke-width="2" d="M423.98,-343.12C432.42,-333.25 442.3,-321.68 451.33,-311.13"/>
<polygon fill="red" stroke="red" stroke-width="2" points="454.18,-313.17 458.02,-303.3 448.86,-308.62 454.18,-313.17"/>
</g>
<!-- 21476 -->
<g id="node4" class="node">
<title>21476</title>
<ellipse fill="none" stroke="black" stroke-width="2" cx="253.49" cy="-278.35" rx="78.48" ry="26.74"/>
<text text-anchor="middle" x="253.49" y="-282.15" font-family="Times,serif" font-size="14.00">merge</text>
<text text-anchor="middle" x="253.49" y="-267.15" font-family="Times,serif" font-size="14.00">32769:65536</text>
</g>
<!-- 21479 -->
<g id="node7" class="node">
<title>21479</title>
<ellipse fill="none" stroke="red" stroke-width="2" cx="478.49" cy="-188.61" rx="53.07" ry="26.74"/>
<text text-anchor="middle" x="478.49" y="-192.41" font-family="Times,serif" font-size="14.00">merge</text>
<text text-anchor="middle" x="478.49" y="-177.41" font-family="Times,serif" font-size="14.00">1:65536</text>
</g>
<!-- 21476&#45;&gt;21479 -->
<g id="edge4" class="edge">
<title>21476&#45;&gt;21479</title>
<path fill="none" stroke="black" stroke-width="2" d="M303.98,-257.66C340.85,-243.28 390.65,-223.86 427.61,-209.45"/>
<polygon fill="black" stroke="black" stroke-width="2" points="429.14,-212.61 437.19,-205.72 426.6,-206.09 429.14,-212.61"/>
</g>
<!-- 21471 -->
<g id="node5" class="node">
<title>21471</title>
<ellipse fill="none" stroke="black" stroke-width="2" cx="78.49" cy="-368.09" rx="78.48" ry="26.74"/>
<text text-anchor="middle" x="78.49" y="-371.89" font-family="Times,serif" font-size="14.00">sort</text>
<text text-anchor="middle" x="78.49" y="-356.89" font-family="Times,serif" font-size="14.00">49153:65536</text>
</g>
<!-- 21471&#45;&gt;21476 -->
<g id="edge2" class="edge">
<title>21471&#45;&gt;21476</title>
<path fill="none" stroke="black" stroke-width="2" d="M121.75,-345.4C145.82,-333.33 175.95,-318.23 201.31,-305.51"/>
<polygon fill="black" stroke="black" stroke-width="2" points="203.05,-308.55 210.43,-300.94 199.92,-302.29 203.05,-308.55"/>
</g>
<!-- 21470 -->
<g id="node6" class="node">
<title>21470</title>
<ellipse fill="none" stroke="black" stroke-width="2" cx="253.49" cy="-368.09" rx="78.48" ry="26.74"/>
<text text-anchor="middle" x="253.49" y="-371.89" font-family="Times,serif" font-size="14.00">sort</text>
<text text-anchor="middle" x="253.49" y="-356.89" font-family="Times,serif" font-size="14.00">32769:49152</text>
</g>
<!-- 21470&#45;&gt;21476 -->
<g id="edge3" class="edge">
<title>21470&#45;&gt;21476</title>
<path fill="none" stroke="black" stroke-width="2" d="M253.49,-340.77C253.49,-332.8 253.49,-323.91 253.49,-315.42"/>
<polygon fill="black" stroke="black" stroke-width="2" points="256.99,-315.35 253.49,-305.35 249.99,-315.35 256.99,-315.35"/>
</g>
<!-- 21479&#45;&gt;21481 -->
<g id="edge6" class="edge">
<title>21479&#45;&gt;21481</title>
<path fill="none" stroke="red" stroke-width="2" d="M514.04,-168.36C537.6,-155.6 568.74,-138.73 594.22,-124.93"/>
<polygon fill="red" stroke="red" stroke-width="2" points="596.21,-127.83 603.33,-119.99 592.87,-121.68 596.21,-127.83"/>
</g>
<!-- 21475&#45;&gt;21479 -->
<g id="edge5" class="edge">
<title>21475&#45;&gt;21479</title>
<path fill="none" stroke="red" stroke-width="2" d="M478.49,-251.03C478.49,-243.06 478.49,-234.17 478.49,-225.68"/>
<polygon fill="red" stroke="red" stroke-width="2" points="481.99,-225.61 478.49,-215.61 474.99,-225.61 481.99,-225.61"/>
</g>
<!-- 21480 -->
<g id="node9" class="node">
<title>21480</title>
<ellipse fill="none" stroke="black" stroke-width="2" cx="772.49" cy="-188.61" rx="84.71" ry="26.74"/>
<text text-anchor="middle" x="772.49" y="-192.41" font-family="Times,serif" font-size="14.00">merge</text>
<text text-anchor="middle" x="772.49" y="-177.41" font-family="Times,serif" font-size="14.00">65537:100000</text>
</g>
<!-- 21480&#45;&gt;21481 -->
<g id="edge7" class="edge">
<title>21480&#45;&gt;21481</title>
<path fill="none" stroke="black" stroke-width="2" d="M737.12,-164.1C720.05,-152.76 699.48,-139.08 681.71,-127.27"/>
<polygon fill="black" stroke="black" stroke-width="2" points="683.51,-124.26 673.24,-121.64 679.63,-130.09 683.51,-124.26"/>
</g>
<!-- 21469 -->
<g id="node10" class="node">
<title>21469</title>
<ellipse fill="none" stroke="black" stroke-width="2" cx="553.49" cy="-368.09" rx="78.48" ry="26.74"/>
<text text-anchor="middle" x="553.49" y="-371.89" font-family="Times,serif" font-size="14.00">sort</text>
<text text-anchor="middle" x="553.49" y="-356.89" font-family="Times,serif" font-size="14.00">16385:32768</text>
</g>
<!-- 21469&#45;&gt;21475 -->
<g id="edge8" class="edge">
<title>21469&#45;&gt;21475</title>
<path fill="none" stroke="black" stroke-width="2" d="M532.2,-342.18C523.91,-332.49 514.33,-321.28 505.56,-311.02"/>
<polygon fill="black" stroke="black" stroke-width="2" points="508.22,-308.74 499.06,-303.41 502.89,-313.29 508.22,-308.74"/>
</g>
<!-- 21472 -->
<g id="node11" class="node">
<title>21472</title>
<ellipse fill="none" stroke="black" stroke-width="2" cx="728.49" cy="-368.09" rx="78.48" ry="26.74"/>
<text text-anchor="middle" x="728.49" y="-371.89" font-family="Times,serif" font-size="14.00">sort</text>
<text text-anchor="middle" x="728.49" y="-356.89" font-family="Times,serif" font-size="14.00">65537:81920</text>
</g>
<!-- 21477 -->
<g id="node12" class="node">
<title>21477</title>
<ellipse fill="none" stroke="black" stroke-width="2" cx="772.49" cy="-278.35" rx="78.48" ry="26.74"/>
<text text-anchor="middle" x="772.49" y="-282.15" font-family="Times,serif" font-size="14.00">merge</text>
<text text-anchor="middle" x="772.49" y="-267.15" font-family="Times,serif" font-size="14.00">65537:98304</text>
</g>
<!-- 21472&#45;&gt;21477 -->
<g id="edge11" class="edge">
<title>21472&#45;&gt;21477</title>
<path fill="none" stroke="black" stroke-width="2" d="M741.45,-341.24C745.7,-332.76 750.5,-323.2 755.03,-314.16"/>
<polygon fill="black" stroke="black" stroke-width="2" points="758.26,-315.52 759.62,-305.02 752.01,-312.39 758.26,-315.52"/>
</g>
<!-- 21477&#45;&gt;21480 -->
<g id="edge12" class="edge">
<title>21477&#45;&gt;21480</title>
<path fill="none" stroke="black" stroke-width="2" d="M772.49,-251.03C772.49,-243.06 772.49,-234.17 772.49,-225.68"/>
<polygon fill="black" stroke="black" stroke-width="2" points="775.99,-225.61 772.49,-215.61 768.99,-225.61 775.99,-225.61"/>
</g>
<!-- 21473 -->
<g id="node13" class="node">
<title>21473</title>
<ellipse fill="none" stroke="black" stroke-width="2" cx="903.49" cy="-368.09" rx="78.48" ry="26.74"/>
<text text-anchor="middle" x="903.49" y="-371.89" font-family="Times,serif" font-size="14.00">sort</text>
<text text-anchor="middle" x="903.49" y="-356.89" font-family="Times,serif" font-size="14.00">81921:98304</text>
</g>
<!-- 21473&#45;&gt;21477 -->
<g id="edge10" class="edge">
<title>21473&#45;&gt;21477</title>
<path fill="none" stroke="black" stroke-width="2" d="M868.73,-343.81C852.59,-333 833.23,-320.04 816.13,-308.58"/>
<polygon fill="black" stroke="black" stroke-width="2" points="817.67,-305.4 807.41,-302.74 813.77,-311.21 817.67,-305.4"/>
</g>
<!-- 21478 -->
<g id="node14" class="node">
<title>21478</title>
<ellipse fill="none" stroke="black" stroke-width="2" cx="1040.49" cy="-278.35" rx="84.71" ry="26.74"/>
<text text-anchor="middle" x="1040.49" y="-282.15" font-family="Times,serif" font-size="14.00">copy</text>
<text text-anchor="middle" x="1040.49" y="-267.15" font-family="Times,serif" font-size="14.00">98305:100000</text>
</g>
<!-- 21478&#45;&gt;21480 -->
<g id="edge13" class="edge">
<title>21478&#45;&gt;21480</title>
<path fill="none" stroke="black" stroke-width="2" d="M983,-258.53C940.96,-244.76 883.81,-226.06 839.67,-211.6"/>
<polygon fill="black" stroke="black" stroke-width="2" points="840.48,-208.19 829.89,-208.4 838.3,-214.84 840.48,-208.19"/>
</g>
<!-- 21474 -->
<g id="node15" class="node">
<title>21474</title>
<ellipse fill="none" stroke="black" stroke-width="2" cx="1084.49" cy="-368.09" rx="84.71" ry="26.74"/>
<text text-anchor="middle" x="1084.49" y="-371.89" font-family="Times,serif" font-size="14.00">sort</text>
<text text-anchor="middle" x="1084.49" y="-356.89" font-family="Times,serif" font-size="14.00">98305:100000</text>
</g>
<!-- 21474&#45;&gt;21478 -->
<g id="edge14" class="edge">
<title>21474&#45;&gt;21478</title>
<path fill="none" stroke="black" stroke-width="2" d="M1071.53,-341.24C1067.27,-332.76 1062.48,-323.2 1057.95,-314.16"/>
<polygon fill="black" stroke="black" stroke-width="2" points="1060.97,-312.39 1053.36,-305.02 1054.71,-315.52 1060.97,-312.39"/>
</g>
</g>
</svg>
