<?xml version="1.0" encoding="UTF-8" standalone="no"?>
<!DOCTYPE svg PUBLIC "-//W3C//DTD SVG 1.1//EN"
 "http://www.w3.org/Graphics/SVG/1.1/DTD/svg11.dtd">
<!-- Generated by graphviz version 2.50.0 (20211204.2007)
 -->
<!-- Title: dag Pages: 1 -->
<svg width="1177pt" height="403pt"
 viewBox="0.00 0.00 1176.98 402.96" xmlns="http://www.w3.org/2000/svg" xmlns:xlink="http://www.w3.org/1999/xlink">
<g id="graph0" class="graph" transform="scale(1 1) rotate(0) translate(4 398.96)">
<title>dag</title>
<polygon fill="white" stroke="transparent" points="-4,4 -4,-398.96 1172.98,-398.96 1172.98,4 -4,4"/>
<!-- 18860 -->
<g id="node1" class="node">
<title>18860</title>
<ellipse fill="none" stroke="black" stroke-width="2" cx="915.49" cy="-278.35" rx="78.48" ry="26.74"/>
<text text-anchor="middle" x="915.49" y="-282.15" font-family="Times,serif" font-size="14.00">merge</text>
<text text-anchor="middle" x="915.49" y="-267.15" font-family="Times,serif" font-size="14.00">65537:98304</text>
</g>
<!-- 18863 -->
<g id="node11" class="node">
<title>18863</title>
<ellipse fill="none" stroke="black" stroke-width="2" cx="734.49" cy="-188.61" rx="84.71" ry="26.74"/>
<text text-anchor="middle" x="734.49" y="-192.41" font-family="Times,serif" font-size="14.00">merge</text>
<text text-anchor="middle" x="734.49" y="-177.41" font-family="Times,serif" font-size="14.00">65537:100000</text>
</g>
<!-- 18860&#45;&gt;18863 -->
<g id="edge12" class="edge">
<title>18860&#45;&gt;18863</title>
<path fill="none" stroke="black" stroke-width="2" d="M871.21,-255.89C846.31,-243.81 815.02,-228.65 788.67,-215.87"/>
<polygon fill="black" stroke="black" stroke-width="2" points="790.09,-212.67 779.57,-211.46 787.04,-218.97 790.09,-212.67"/>
</g>
<!-- 18856 -->
<g id="node2" class="node">
<title>18856</title>
<ellipse fill="none" stroke="black" stroke-width="2" cx="915.49" cy="-368.09" rx="78.48" ry="26.74"/>
<text text-anchor="middle" x="915.49" y="-371.89" font-family="Times,serif" font-size="14.00">sort</text>
<text text-anchor="middle" x="915.49" y="-356.89" font-family="Times,serif" font-size="14.00">81921:98304</text>
</g>
<!-- 18856&#45;&gt;18860 -->
<g id="edge1" class="edge">
<title>18856&#45;&gt;18860</title>
<path fill="none" stroke="black" stroke-width="2" d="M915.49,-340.77C915.49,-332.8 915.49,-323.91 915.49,-315.42"/>
<polygon fill="black" stroke="black" stroke-width="2" points="918.99,-315.35 915.49,-305.35 911.99,-315.35 918.99,-315.35"/>
</g>
<!-- 18855 -->
<g id="node3" class="node">
<title>18855</title>
<ellipse fill="none" stroke="black" stroke-width="2" cx="1090.49" cy="-368.09" rx="78.48" ry="26.74"/>
<text text-anchor="middle" x="1090.49" y="-371.89" font-family="Times,serif" font-size="14.00">sort</text>
<text text-anchor="middle" x="1090.49" y="-356.89" font-family="Times,serif" font-size="14.00">65537:81920</text>
</g>
<!-- 18855&#45;&gt;18860 -->
<g id="edge2" class="edge">
<title>18855&#45;&gt;18860</title>
<path fill="none" stroke="black" stroke-width="2" d="M1047.23,-345.4C1023.16,-333.33 993.03,-318.23 967.66,-305.51"/>
<polygon fill="black" stroke="black" stroke-width="2" points="969.06,-302.29 958.55,-300.94 965.92,-308.55 969.06,-302.29"/>
</g>
<!-- 18852 -->
<g id="node4" class="node">
<title>18852</title>
<ellipse fill="none" stroke="black" stroke-width="2" cx="78.49" cy="-368.09" rx="78.48" ry="26.74"/>
<text text-anchor="middle" x="78.49" y="-371.89" font-family="Times,serif" font-size="14.00">sort</text>
<text text-anchor="middle" x="78.49" y="-356.89" font-family="Times,serif" font-size="14.00">16385:32768</text>
</g>
<!-- 18858 -->
<g id="node6" class="node">
<title>18858</title>
<ellipse fill="none" stroke="red" stroke-width="2" cx="228.49" cy="-278.35" rx="53.07" ry="26.74"/>
<text text-anchor="middle" x="228.49" y="-282.15" font-family="Times,serif" font-size="14.00">merge</text>
<text text-anchor="middle" x="228.49" y="-267.15" font-family="Times,serif" font-size="14.00">1:32768</text>
</g>
<!-- 18852&#45;&gt;18858 -->
<g id="edge3" class="edge">
<title>18852&#45;&gt;18858</title>
<path fill="none" stroke="black" stroke-width="2" d="M117.12,-344.5C138.17,-332.18 164.28,-316.91 185.92,-304.25"/>
<polygon fill="black" stroke="black" stroke-width="2" points="187.72,-307.25 194.59,-299.18 184.19,-301.21 187.72,-307.25"/>
</g>
<!-- 18853 -->
<g id="node5" class="node">
<title>18853</title>
<ellipse fill="none" stroke="black" stroke-width="2" cx="378.49" cy="-368.09" rx="78.48" ry="26.74"/>
<text text-anchor="middle" x="378.49" y="-371.89" font-family="Times,serif" font-size="14.00">sort</text>
<text text-anchor="middle" x="378.49" y="-356.89" font-family="Times,serif" font-size="14.00">32769:49152</text>
</g>
<!-- 18859 -->
<g id="node9" class="node">
<title>18859</title>
<ellipse fill="none" stroke="black" stroke-width="2" cx="466.49" cy="-278.35" rx="78.48" ry="26.74"/>
<text text-anchor="middle" x="466.49" y="-282.15" font-family="Times,serif" font-size="14.00">merge</text>
<text text-anchor="middle" x="466.49" y="-267.15" font-family="Times,serif" font-size="14.00">32769:65536</text>
</g>
<!-- 18853&#45;&gt;18859 -->
<g id="edge14" class="edge">
<title>18853&#45;&gt;18859</title>
<path fill="none" stroke="black" stroke-width="2" d="M403.47,-342.18C413.12,-332.56 424.28,-321.43 434.51,-311.24"/>
<polygon fill="black" stroke="black" stroke-width="2" points="437.14,-313.56 441.75,-304.02 432.2,-308.6 437.14,-313.56"/>
</g>
<!-- 18862 -->
<g id="node8" class="node">
<title>18862</title>
<ellipse fill="none" stroke="red" stroke-width="2" cx="466.49" cy="-188.61" rx="53.07" ry="26.74"/>
<text text-anchor="middle" x="466.49" y="-192.41" font-family="Times,serif" font-size="14.00">merge</text>
<text text-anchor="middle" x="466.49" y="-177.41" font-family="Times,serif" font-size="14.00">1:65536</text>
</g>
<!-- 18858&#45;&gt;18862 -->
<g id="edge6" class="edge">
<title>18858&#45;&gt;18862</title>
<path fill="none" stroke="red" stroke-width="2" d="M270.49,-261.87C310.81,-247 371.8,-224.52 415.02,-208.58"/>
<polygon fill="red" stroke="red" stroke-width="2" points="416.34,-211.83 424.51,-205.09 413.91,-205.26 416.34,-211.83"/>
</g>
<!-- 18851 -->
<g id="node7" class="node">
<title>18851</title>
<ellipse fill="none" stroke="red" stroke-width="2" cx="228.49" cy="-368.09" rx="53.07" ry="26.74"/>
<text text-anchor="middle" x="228.49" y="-371.89" font-family="Times,serif" font-size="14.00">sort</text>
<text text-anchor="middle" x="228.49" y="-356.89" font-family="Times,serif" font-size="14.00">1:16384</text>
</g>
<!-- 18851&#45;&gt;18858 -->
<g id="edge4" class="edge">
<title>18851&#45;&gt;18858</title>
<path fill="none" stroke="red" stroke-width="2" d="M228.49,-340.77C228.49,-332.8 228.49,-323.91 228.49,-315.42"/>
<polygon fill="red" stroke="red" stroke-width="2" points="231.99,-315.35 228.49,-305.35 224.99,-315.35 231.99,-315.35"/>
</g>
<!-- 18864 -->
<g id="node10" class="node">
<title>18864</title>
<ellipse fill="none" stroke="red" stroke-width="2" cx="556.49" cy="-98.87" rx="59.29" ry="26.74"/>
<text text-anchor="middle" x="556.49" y="-102.67" font-family="Times,serif" font-size="14.00">merge</text>
<text text-anchor="middle" x="556.49" y="-87.67" font-family="Times,serif" font-size="14.00">1:100000</text>
</g>
<!-- 18862&#45;&gt;18864 -->
<g id="edge8" class="edge">
<title>18862&#45;&gt;18864</title>
<path fill="none" stroke="red" stroke-width="2" d="M490.14,-164.56C500.73,-154.23 513.38,-141.89 524.78,-130.78"/>
<polygon fill="red" stroke="red" stroke-width="2" points="527.34,-133.17 532.06,-123.69 522.46,-128.16 527.34,-133.17"/>
</g>
<!-- 18859&#45;&gt;18862 -->
<g id="edge5" class="edge">
<title>18859&#45;&gt;18862</title>
<path fill="none" stroke="black" stroke-width="2" d="M466.49,-251.03C466.49,-243.06 466.49,-234.17 466.49,-225.68"/>
<polygon fill="black" stroke="black" stroke-width="2" points="469.99,-225.61 466.49,-215.61 462.99,-225.61 469.99,-225.61"/>
</g>
<!-- 18865 -->
<g id="node12" class="node">
<title>18865</title>
<ellipse fill="none" stroke="red" stroke-width="2" cx="556.49" cy="-18" rx="38.19" ry="18"/>
<text text-anchor="middle" x="556.49" y="-14.3" font-family="Times,serif" font-size="14.00">result</text>
</g>
<!-- 18864&#45;&gt;18865 -->
<g id="edge9" class="edge">
<title>18864&#45;&gt;18865</title>
<path fill="none" stroke="red" stroke-width="2" d="M556.49,-71.61C556.49,-63.51 556.49,-54.57 556.49,-46.39"/>
<polygon fill="red" stroke="red" stroke-width="2" points="559.99,-46.22 556.49,-36.22 552.99,-46.22 559.99,-46.22"/>
</g>
<!-- 18863&#45;&gt;18864 -->
<g id="edge7" class="edge">
<title>18863&#45;&gt;18864</title>
<path fill="none" stroke="black" stroke-width="2" d="M690.03,-165.7C664.06,-152.89 631.26,-136.73 604.67,-123.62"/>
<polygon fill="black" stroke="black" stroke-width="2" points="606.06,-120.4 595.54,-119.12 602.97,-126.68 606.06,-120.4"/>
</g>
<!-- 18854 -->
<g id="node13" class="node">
<title>18854</title>
<ellipse fill="none" stroke="black" stroke-width="2" cx="553.49" cy="-368.09" rx="78.48" ry="26.74"/>
<text text-anchor="middle" x="553.49" y="-371.89" font-family="Times,serif" font-size="14.00">sort</text>
<text text-anchor="middle" x="553.49" y="-356.89" font-family="Times,serif" font-size="14.00">49153:65536</text>
</g>
<!-- 18854&#45;&gt;18859 -->
<g id="edge13" class="edge">
<title>18854&#45;&gt;18859</title>
<path fill="none" stroke="black" stroke-width="2" d="M528.79,-342.18C519.25,-332.56 508.22,-321.43 498.11,-311.24"/>
<polygon fill="black" stroke="black" stroke-width="2" points="500.47,-308.65 490.95,-304.02 495.5,-313.58 500.47,-308.65"/>
</g>
<!-- 18857 -->
<g id="node14" class="node">
<title>18857</title>
<ellipse fill="none" stroke="black" stroke-width="2" cx="734.49" cy="-368.09" rx="84.71" ry="26.74"/>
<text text-anchor="middle" x="734.49" y="-371.89" font-family="Times,serif" font-size="14.00">sort</text>
<text text-anchor="middle" x="734.49" y="-356.89" font-family="Times,serif" font-size="14.00">98305:100000</text>
</g>
<!-- 18861 -->
<g id="node15" class="node">
<title>18861</title>
<ellipse fill="none" stroke="black" stroke-width="2" cx="734.49" cy="-278.35" rx="84.71" ry="26.74"/>
<text text-anchor="middle" x="734.49" y="-282.15" font-family="Times,serif" font-size="14.00">copy</text>
<text text-anchor="middle" x="734.49" y="-267.15" font-family="Times,serif" font-size="14.00">98305:100000</text>
</g>
<!-- 18857&#45;&gt;18861 -->
<g id="edge10" class="edge">
<title>18857&#45;&gt;18861</title>
<path fill="none" stroke="black" stroke-width="2" d="M734.49,-340.77C734.49,-332.8 734.49,-323.91 734.49,-315.42"/>
<polygon fill="black" stroke="black" stroke-width="2" points="737.99,-315.35 734.49,-305.35 730.99,-315.35 737.99,-315.35"/>
</g>
<!-- 18861&#45;&gt;18863 -->
<g id="edge11" class="edge">
<title>18861&#45;&gt;18863</title>
<path fill="none" stroke="black" stroke-width="2" d="M734.49,-251.03C734.49,-243.06 734.49,-234.17 734.49,-225.68"/>
<polygon fill="black" stroke="black" stroke-width="2" points="737.99,-225.61 734.49,-215.61 730.99,-225.61 737.99,-225.61"/>
</g>
</g>
</svg>
