<?xml version="1.0" encoding="UTF-8" standalone="no"?>
<!DOCTYPE svg PUBLIC "-//W3C//DTD SVG 1.1//EN"
 "http://www.w3.org/Graphics/SVG/1.1/DTD/svg11.dtd">
<!-- Generated by graphviz version 2.50.0 (20211204.2007)
 -->
<!-- Title: dag Pages: 1 -->
<svg width="1177pt" height="403pt"
 viewBox="0.00 0.00 1176.98 402.96" xmlns="http://www.w3.org/2000/svg" xmlns:xlink="http://www.w3.org/1999/xlink">
<g id="graph0" class="graph" transform="scale(1 1) rotate(0) translate(4 398.96)">
<title>dag</title>
<polygon fill="white" stroke="transparent" points="-4,4 -4,-398.96 1172.98,-398.96 1172.98,4 -4,4"/>
<!-- 24019 -->
<g id="node1" class="node">
<title>24019</title>
<ellipse fill="none" stroke="black" stroke-width="2" cx="593.49" cy="-98.87" rx="70.01" ry="26.74"/>
<text text-anchor="middle" x="593.49" y="-102.67" font-family="Times,serif" font-size="14.00">merge</text>
<text text-anchor="middle" x="593.49" y="-87.67" font-family="Times,serif" font-size="14.00">1:100000 B</text>
</g>
<!-- 24022 -->
<g id="node13" class="node">
<title>24022</title>
<ellipse fill="none" stroke="red" stroke-width="2" cx="513.49" cy="-18" rx="38.19" ry="18"/>
<text text-anchor="middle" x="513.49" y="-14.3" font-family="Times,serif" font-size="14.00">result</text>
</g>
<!-- 24019&#45;&gt;24022 -->
<g id="edge14" class="edge">
<title>24019&#45;&gt;24022</title>
<path fill="none" stroke="black" stroke-width="2" d="M568.61,-73.35C558.38,-63.26 546.6,-51.64 536.56,-41.74"/>
<polygon fill="black" stroke="black" stroke-width="2" points="538.85,-39.09 529.28,-34.56 533.94,-44.08 538.85,-39.09"/>
</g>
<!-- 24017 -->
<g id="node2" class="node">
<title>24017</title>
<ellipse fill="none" stroke="black" stroke-width="2" cx="434.49" cy="-188.61" rx="84.71" ry="26.74"/>
<text text-anchor="middle" x="434.49" y="-192.41" font-family="Times,serif" font-size="14.00">merge</text>
<text text-anchor="middle" x="434.49" y="-177.41" font-family="Times,serif" font-size="14.00">65537:100000</text>
</g>
<!-- 24017&#45;&gt;24019 -->
<g id="edge1" class="edge">
<title>24017&#45;&gt;24019</title>
<path fill="none" stroke="black" stroke-width="2" d="M475.44,-165.01C496.87,-153.19 523.23,-138.64 545.6,-126.3"/>
<polygon fill="black" stroke="black" stroke-width="2" points="547.53,-129.23 554.6,-121.33 544.15,-123.1 547.53,-129.23"/>
</g>
<!-- 24020 -->
<g id="node12" class="node">
<title>24020</title>
<ellipse fill="none" stroke="black" stroke-width="2" cx="751.49" cy="-98.87" rx="70.01" ry="26.74"/>
<text text-anchor="middle" x="751.49" y="-102.67" font-family="Times,serif" font-size="14.00">merge</text>
<text text-anchor="middle" x="751.49" y="-87.67" font-family="Times,serif" font-size="14.00">1:100000 C</text>
</g>
<!-- 24017&#45;&gt;24020 -->
<g id="edge9" class="edge">
<title>24017&#45;&gt;24020</title>
<path fill="none" stroke="black" stroke-width="2" d="M497.86,-170.61C509.06,-167.63 520.61,-164.58 531.49,-161.74 594.07,-145.41 610.39,-143.81 672.49,-125.74 678.4,-124.02 684.53,-122.15 690.65,-120.24"/>
<polygon fill="black" stroke="black" stroke-width="2" points="691.75,-123.56 700.22,-117.21 689.63,-116.89 691.75,-123.56"/>
</g>
<!-- 24018 -->
<g id="node14" class="node">
<title>24018</title>
<ellipse fill="none" stroke="red" stroke-width="2" cx="276.49" cy="-98.87" rx="69.09" ry="26.74"/>
<text text-anchor="middle" x="276.49" y="-102.67" font-family="Times,serif" font-size="14.00">merge</text>
<text text-anchor="middle" x="276.49" y="-87.67" font-family="Times,serif" font-size="14.00">1:100000 A</text>
</g>
<!-- 24017&#45;&gt;24018 -->
<g id="edge15" class="edge">
<title>24017&#45;&gt;24018</title>
<path fill="none" stroke="black" stroke-width="2" d="M393.8,-165.01C372.5,-153.19 346.31,-138.64 324.08,-126.3"/>
<polygon fill="black" stroke="black" stroke-width="2" points="325.58,-123.13 315.14,-121.33 322.18,-129.25 325.58,-123.13"/>
</g>
<!-- 24021 -->
<g id="node15" class="node">
<title>24021</title>
<ellipse fill="none" stroke="black" stroke-width="2" cx="434.49" cy="-98.87" rx="70.92" ry="26.74"/>
<text text-anchor="middle" x="434.49" y="-102.67" font-family="Times,serif" font-size="14.00">merge</text>
<text text-anchor="middle" x="434.49" y="-87.67" font-family="Times,serif" font-size="14.00">1:100000 D</text>
</g>
<!-- 24017&#45;&gt;24021 -->
<g id="edge17" class="edge">
<title>24017&#45;&gt;24021</title>
<path fill="none" stroke="black" stroke-width="2" d="M434.49,-161.29C434.49,-153.32 434.49,-144.43 434.49,-135.94"/>
<polygon fill="black" stroke="black" stroke-width="2" points="437.99,-135.87 434.49,-125.87 430.99,-135.87 437.99,-135.87"/>
</g>
<!-- 24016 -->
<g id="node3" class="node">
<title>24016</title>
<ellipse fill="none" stroke="red" stroke-width="2" cx="593.49" cy="-188.61" rx="53.07" ry="26.74"/>
<text text-anchor="middle" x="593.49" y="-192.41" font-family="Times,serif" font-size="14.00">merge</text>
<text text-anchor="middle" x="593.49" y="-177.41" font-family="Times,serif" font-size="14.00">1:65536</text>
</g>
<!-- 24016&#45;&gt;24019 -->
<g id="edge2" class="edge">
<title>24016&#45;&gt;24019</title>
<path fill="none" stroke="black" stroke-width="2" d="M593.49,-161.29C593.49,-153.32 593.49,-144.43 593.49,-135.94"/>
<polygon fill="black" stroke="black" stroke-width="2" points="596.99,-135.87 593.49,-125.87 589.99,-135.87 596.99,-135.87"/>
</g>
<!-- 24016&#45;&gt;24020 -->
<g id="edge10" class="edge">
<title>24016&#45;&gt;24020</title>
<path fill="none" stroke="black" stroke-width="2" d="M628.55,-168.14C650.64,-155.87 679.45,-139.87 703.63,-126.45"/>
<polygon fill="black" stroke="black" stroke-width="2" points="705.6,-129.36 712.64,-121.44 702.2,-123.24 705.6,-129.36"/>
</g>
<!-- 24016&#45;&gt;24018 -->
<g id="edge16" class="edge">
<title>24016&#45;&gt;24018</title>
<path fill="none" stroke="red" stroke-width="2" d="M554,-170.62C545.67,-167.4 536.87,-164.25 528.49,-161.74 452.85,-139.05 430.76,-146.2 354.49,-125.74 348.75,-124.2 342.82,-122.48 336.9,-120.67"/>
<polygon fill="red" stroke="red" stroke-width="2" points="337.59,-117.22 327,-117.57 335.5,-123.9 337.59,-117.22"/>
</g>
<!-- 24016&#45;&gt;24021 -->
<g id="edge18" class="edge">
<title>24016&#45;&gt;24021</title>
<path fill="none" stroke="black" stroke-width="2" d="M558.6,-168.36C536.21,-156 506.84,-139.79 482.29,-126.25"/>
<polygon fill="black" stroke="black" stroke-width="2" points="483.93,-123.16 473.49,-121.39 480.55,-129.29 483.93,-123.16"/>
</g>
<!-- 24007 -->
<g id="node4" class="node">
<title>24007</title>
<ellipse fill="none" stroke="black" stroke-width="2" cx="1090.49" cy="-368.09" rx="78.48" ry="26.74"/>
<text text-anchor="middle" x="1090.49" y="-371.89" font-family="Times,serif" font-size="14.00">sort</text>
<text text-anchor="middle" x="1090.49" y="-356.89" font-family="Times,serif" font-size="14.00">32769:49152</text>
</g>
<!-- 24013 -->
<g id="node18" class="node">
<title>24013</title>
<ellipse fill="none" stroke="black" stroke-width="2" cx="915.49" cy="-278.35" rx="78.48" ry="26.74"/>
<text text-anchor="middle" x="915.49" y="-282.15" font-family="Times,serif" font-size="14.00">merge</text>
<text text-anchor="middle" x="915.49" y="-267.15" font-family="Times,serif" font-size="14.00">32769:65536</text>
</g>
<!-- 24007&#45;&gt;24013 -->
<g id="edge21" class="edge">
<title>24007&#45;&gt;24013</title>
<path fill="none" stroke="black" stroke-width="2" d="M1047.23,-345.4C1023.16,-333.33 993.03,-318.23 967.66,-305.51"/>
<polygon fill="black" stroke="black" stroke-width="2" points="969.06,-302.29 958.55,-300.94 965.92,-308.55 969.06,-302.29"/>
</g>
<!-- 24014 -->
<g id="node5" class="node">
<title>24014</title>
<ellipse fill="none" stroke="black" stroke-width="2" cx="253.49" cy="-278.35" rx="78.48" ry="26.74"/>
<text text-anchor="middle" x="253.49" y="-282.15" font-family="Times,serif" font-size="14.00">merge</text>
<text text-anchor="middle" x="253.49" y="-267.15" font-family="Times,serif" font-size="14.00">65537:98304</text>
</g>
<!-- 24014&#45;&gt;24017 -->
<g id="edge5" class="edge">
<title>24014&#45;&gt;24017</title>
<path fill="none" stroke="black" stroke-width="2" d="M297.77,-255.89C322.67,-243.81 353.95,-228.65 380.31,-215.87"/>
<polygon fill="black" stroke="black" stroke-width="2" points="381.94,-218.97 389.41,-211.46 378.89,-212.67 381.94,-218.97"/>
</g>
<!-- 24010 -->
<g id="node6" class="node">
<title>24010</title>
<ellipse fill="none" stroke="black" stroke-width="2" cx="253.49" cy="-368.09" rx="78.48" ry="26.74"/>
<text text-anchor="middle" x="253.49" y="-371.89" font-family="Times,serif" font-size="14.00">sort</text>
<text text-anchor="middle" x="253.49" y="-356.89" font-family="Times,serif" font-size="14.00">81921:98304</text>
</g>
<!-- 24010&#45;&gt;24014 -->
<g id="edge3" class="edge">
<title>24010&#45;&gt;24014</title>
<path fill="none" stroke="black" stroke-width="2" d="M253.49,-340.77C253.49,-332.8 253.49,-323.91 253.49,-315.42"/>
<polygon fill="black" stroke="black" stroke-width="2" points="256.99,-315.35 253.49,-305.35 249.99,-315.35 256.99,-315.35"/>
</g>
<!-- 24009 -->
<g id="node7" class="node">
<title>24009</title>
<ellipse fill="none" stroke="black" stroke-width="2" cx="78.49" cy="-368.09" rx="78.48" ry="26.74"/>
<text text-anchor="middle" x="78.49" y="-371.89" font-family="Times,serif" font-size="14.00">sort</text>
<text text-anchor="middle" x="78.49" y="-356.89" font-family="Times,serif" font-size="14.00">65537:81920</text>
</g>
<!-- 24009&#45;&gt;24014 -->
<g id="edge4" class="edge">
<title>24009&#45;&gt;24014</title>
<path fill="none" stroke="black" stroke-width="2" d="M121.75,-345.4C145.82,-333.33 175.95,-318.23 201.31,-305.51"/>
<polygon fill="black" stroke="black" stroke-width="2" points="203.05,-308.55 210.43,-300.94 199.92,-302.29 203.05,-308.55"/>
</g>
<!-- 24015 -->
<g id="node8" class="node">
<title>24015</title>
<ellipse fill="none" stroke="black" stroke-width="2" cx="434.49" cy="-278.35" rx="84.71" ry="26.74"/>
<text text-anchor="middle" x="434.49" y="-282.15" font-family="Times,serif" font-size="14.00">copy</text>
<text text-anchor="middle" x="434.49" y="-267.15" font-family="Times,serif" font-size="14.00">98305:100000</text>
</g>
<!-- 24015&#45;&gt;24017 -->
<g id="edge6" class="edge">
<title>24015&#45;&gt;24017</title>
<path fill="none" stroke="black" stroke-width="2" d="M434.49,-251.03C434.49,-243.06 434.49,-234.17 434.49,-225.68"/>
<polygon fill="black" stroke="black" stroke-width="2" points="437.99,-225.61 434.49,-215.61 430.99,-225.61 437.99,-225.61"/>
</g>
<!-- 24012 -->
<g id="node9" class="node">
<title>24012</title>
<ellipse fill="none" stroke="red" stroke-width="2" cx="593.49" cy="-278.35" rx="53.07" ry="26.74"/>
<text text-anchor="middle" x="593.49" y="-282.15" font-family="Times,serif" font-size="14.00">merge</text>
<text text-anchor="middle" x="593.49" y="-267.15" font-family="Times,serif" font-size="14.00">1:32768</text>
</g>
<!-- 24012&#45;&gt;24016 -->
<g id="edge23" class="edge">
<title>24012&#45;&gt;24016</title>
<path fill="none" stroke="red" stroke-width="2" d="M593.49,-251.03C593.49,-243.06 593.49,-234.17 593.49,-225.68"/>
<polygon fill="red" stroke="red" stroke-width="2" points="596.99,-225.61 593.49,-215.61 589.99,-225.61 596.99,-225.61"/>
</g>
<!-- 24006 -->
<g id="node10" class="node">
<title>24006</title>
<ellipse fill="none" stroke="black" stroke-width="2" cx="740.49" cy="-368.09" rx="78.48" ry="26.74"/>
<text text-anchor="middle" x="740.49" y="-371.89" font-family="Times,serif" font-size="14.00">sort</text>
<text text-anchor="middle" x="740.49" y="-356.89" font-family="Times,serif" font-size="14.00">16385:32768</text>
</g>
<!-- 24006&#45;&gt;24012 -->
<g id="edge7" class="edge">
<title>24006&#45;&gt;24012</title>
<path fill="none" stroke="black" stroke-width="2" d="M702.63,-344.5C682.24,-332.32 657.01,-317.26 635.95,-304.69"/>
<polygon fill="black" stroke="black" stroke-width="2" points="637.59,-301.59 627.2,-299.47 634,-307.61 637.59,-301.59"/>
</g>
<!-- 24005 -->
<g id="node11" class="node">
<title>24005</title>
<ellipse fill="none" stroke="red" stroke-width="2" cx="590.49" cy="-368.09" rx="53.07" ry="26.74"/>
<text text-anchor="middle" x="590.49" y="-371.89" font-family="Times,serif" font-size="14.00">sort</text>
<text text-anchor="middle" x="590.49" y="-356.89" font-family="Times,serif" font-size="14.00">1:16384</text>
</g>
<!-- 24005&#45;&gt;24012 -->
<g id="edge8" class="edge">
<title>24005&#45;&gt;24012</title>
<path fill="none" stroke="red" stroke-width="2" d="M591.39,-340.77C591.66,-332.8 591.97,-323.91 592.26,-315.42"/>
<polygon fill="red" stroke="red" stroke-width="2" points="595.76,-315.47 592.6,-305.35 588.76,-315.23 595.76,-315.47"/>
</g>
<!-- 24020&#45;&gt;24022 -->
<g id="edge13" class="edge">
<title>24020&#45;&gt;24022</title>
<path fill="none" stroke="black" stroke-width="2" d="M699.55,-80.66C655.67,-66.12 593.73,-45.59 553.59,-32.29"/>
<polygon fill="black" stroke="black" stroke-width="2" points="554.47,-28.89 543.88,-29.07 552.27,-35.54 554.47,-28.89"/>
</g>
<!-- 24018&#45;&gt;24022 -->
<g id="edge11" class="edge">
<title>24018&#45;&gt;24022</title>
<path fill="none" stroke="red" stroke-width="2" d="M327.91,-80.76C371.59,-66.22 433.39,-45.66 473.46,-32.32"/>
<polygon fill="red" stroke="red" stroke-width="2" points="474.77,-35.58 483.15,-29.1 472.56,-28.93 474.77,-35.58"/>
</g>
<!-- 24021&#45;&gt;24022 -->
<g id="edge12" class="edge">
<title>24021&#45;&gt;24022</title>
<path fill="none" stroke="black" stroke-width="2" d="M459.05,-73.35C469.16,-63.26 480.79,-51.64 490.71,-41.74"/>
<polygon fill="black" stroke="black" stroke-width="2" points="493.29,-44.11 497.9,-34.56 488.35,-39.15 493.29,-44.11"/>
</g>
<!-- 24011 -->
<g id="node16" class="node">
<title>24011</title>
<ellipse fill="none" stroke="black" stroke-width="2" cx="434.49" cy="-368.09" rx="84.71" ry="26.74"/>
<text text-anchor="middle" x="434.49" y="-371.89" font-family="Times,serif" font-size="14.00">sort</text>
<text text-anchor="middle" x="434.49" y="-356.89" font-family="Times,serif" font-size="14.00">98305:100000</text>
</g>
<!-- 24011&#45;&gt;24015 -->
<g id="edge19" class="edge">
<title>24011&#45;&gt;24015</title>
<path fill="none" stroke="black" stroke-width="2" d="M434.49,-340.77C434.49,-332.8 434.49,-323.91 434.49,-315.42"/>
<polygon fill="black" stroke="black" stroke-width="2" points="437.99,-315.35 434.49,-305.35 430.99,-315.35 437.99,-315.35"/>
</g>
<!-- 24008 -->
<g id="node17" class="node">
<title>24008</title>
<ellipse fill="none" stroke="black" stroke-width="2" cx="915.49" cy="-368.09" rx="78.48" ry="26.74"/>
<text text-anchor="middle" x="915.49" y="-371.89" font-family="Times,serif" font-size="14.00">sort</text>
<text text-anchor="middle" x="915.49" y="-356.89" font-family="Times,serif" font-size="14.00">49153:65536</text>
</g>
<!-- 24008&#45;&gt;24013 -->
<g id="edge20" class="edge">
<title>24008&#45;&gt;24013</title>
<path fill="none" stroke="black" stroke-width="2" d="M915.49,-340.77C915.49,-332.8 915.49,-323.91 915.49,-315.42"/>
<polygon fill="black" stroke="black" stroke-width="2" points="918.99,-315.35 915.49,-305.35 911.99,-315.35 918.99,-315.35"/>
</g>
<!-- 24013&#45;&gt;24016 -->
<g id="edge22" class="edge">
<title>24013&#45;&gt;24016</title>
<path fill="none" stroke="black" stroke-width="2" d="M855.3,-260.95C796.28,-244.87 707.01,-220.54 649.48,-204.87"/>
<polygon fill="black" stroke="black" stroke-width="2" points="650.39,-201.49 639.83,-202.24 648.55,-208.24 650.39,-201.49"/>
</g>
</g>
</svg>
