<?xml version="1.0" encoding="UTF-8" standalone="no"?>
<!DOCTYPE svg PUBLIC "-//W3C//DTD SVG 1.1//EN"
 "http://www.w3.org/Graphics/SVG/1.1/DTD/svg11.dtd">
<!-- Generated by graphviz version 2.50.0 (20211204.2007)
 -->
<!-- Title: dag Pages: 1 -->
<svg width="1177pt" height="403pt"
 viewBox="0.00 0.00 1176.52 402.96" xmlns="http://www.w3.org/2000/svg" xmlns:xlink="http://www.w3.org/1999/xlink">
<g id="graph0" class="graph" transform="scale(1 1) rotate(0) translate(4 398.96)">
<title>dag</title>
<polygon fill="white" stroke="transparent" points="-4,4 -4,-398.96 1172.52,-398.96 1172.52,4 -4,4"/>
<!-- 22413 -->
<g id="node1" class="node">
<title>22413</title>
<ellipse fill="none" stroke="red" stroke-width="2" cx="565.03" cy="-188.61" rx="53.07" ry="26.74"/>
<text text-anchor="middle" x="565.03" y="-192.41" font-family="Times,serif" font-size="14.00">merge</text>
<text text-anchor="middle" x="565.03" y="-177.41" font-family="Times,serif" font-size="14.00">1:65536</text>
</g>
<!-- 22415 -->
<g id="node5" class="node">
<title>22415</title>
<ellipse fill="none" stroke="black" stroke-width="2" cx="574.03" cy="-98.87" rx="59.29" ry="26.74"/>
<text text-anchor="middle" x="574.03" y="-102.67" font-family="Times,serif" font-size="14.00">merge A</text>
<text text-anchor="middle" x="574.03" y="-87.67" font-family="Times,serif" font-size="14.00">1:100000</text>
</g>
<!-- 22413&#45;&gt;22415 -->
<g id="edge14" class="edge">
<title>22413&#45;&gt;22415</title>
<path fill="none" stroke="black" stroke-width="2" d="M567.68,-161.76C568.51,-153.71 569.44,-144.68 570.32,-136.06"/>
<polygon fill="black" stroke="black" stroke-width="2" points="573.83,-136.14 571.37,-125.84 566.87,-135.43 573.83,-136.14"/>
</g>
<!-- 22416 -->
<g id="node6" class="node">
<title>22416</title>
<ellipse fill="none" stroke="red" stroke-width="2" cx="711.03" cy="-98.87" rx="59.29" ry="26.74"/>
<text text-anchor="middle" x="711.03" y="-102.67" font-family="Times,serif" font-size="14.00">merge B</text>
<text text-anchor="middle" x="711.03" y="-87.67" font-family="Times,serif" font-size="14.00">1:100000</text>
</g>
<!-- 22413&#45;&gt;22416 -->
<g id="edge8" class="edge">
<title>22413&#45;&gt;22416</title>
<path fill="none" stroke="red" stroke-width="2" d="M598.53,-167.48C618.95,-155.21 645.28,-139.39 667.33,-126.14"/>
<polygon fill="red" stroke="red" stroke-width="2" points="669.4,-128.97 676.17,-120.82 665.8,-122.97 669.4,-128.97"/>
</g>
<!-- 22409 -->
<g id="node2" class="node">
<title>22409</title>
<ellipse fill="none" stroke="black" stroke-width="2" cx="203.03" cy="-278.35" rx="53.07" ry="26.74"/>
<text text-anchor="middle" x="203.03" y="-282.15" font-family="Times,serif" font-size="14.00">merge</text>
<text text-anchor="middle" x="203.03" y="-267.15" font-family="Times,serif" font-size="14.00">1:32768</text>
</g>
<!-- 22409&#45;&gt;22413 -->
<g id="edge1" class="edge">
<title>22409&#45;&gt;22413</title>
<path fill="none" stroke="black" stroke-width="2" d="M250.36,-265.88C316.57,-249.83 436.72,-220.71 507.86,-203.47"/>
<polygon fill="black" stroke="black" stroke-width="2" points="509.09,-206.77 517.98,-201.01 507.44,-199.97 509.09,-206.77"/>
</g>
<!-- 22410 -->
<g id="node3" class="node">
<title>22410</title>
<ellipse fill="none" stroke="red" stroke-width="2" cx="553.03" cy="-278.35" rx="78.48" ry="26.74"/>
<text text-anchor="middle" x="553.03" y="-282.15" font-family="Times,serif" font-size="14.00">merge</text>
<text text-anchor="middle" x="553.03" y="-267.15" font-family="Times,serif" font-size="14.00">32769:65536</text>
</g>
<!-- 22410&#45;&gt;22413 -->
<g id="edge2" class="edge">
<title>22410&#45;&gt;22413</title>
<path fill="none" stroke="red" stroke-width="2" d="M556.57,-251.5C557.68,-243.36 558.93,-234.22 560.12,-225.51"/>
<polygon fill="red" stroke="red" stroke-width="2" points="563.59,-225.96 561.48,-215.58 556.66,-225.01 563.59,-225.96"/>
</g>
<!-- 22417 -->
<g id="node4" class="node">
<title>22417</title>
<ellipse fill="none" stroke="red" stroke-width="2" cx="642.03" cy="-18" rx="38.19" ry="18"/>
<text text-anchor="middle" x="642.03" y="-14.3" font-family="Times,serif" font-size="14.00">result</text>
</g>
<!-- 22415&#45;&gt;22417 -->
<g id="edge3" class="edge">
<title>22415&#45;&gt;22417</title>
<path fill="none" stroke="black" stroke-width="2" d="M595.18,-73.35C603.58,-63.6 613.22,-52.42 621.56,-42.75"/>
<polygon fill="black" stroke="black" stroke-width="2" points="624.32,-44.9 628.2,-35.04 619.02,-40.33 624.32,-44.9"/>
</g>
<!-- 22416&#45;&gt;22417 -->
<g id="edge4" class="edge">
<title>22416&#45;&gt;22417</title>
<path fill="none" stroke="red" stroke-width="2" d="M689.58,-73.35C681.05,-63.6 671.27,-52.42 662.81,-42.75"/>
<polygon fill="red" stroke="red" stroke-width="2" points="665.29,-40.26 656.07,-35.04 660.02,-44.87 665.29,-40.26"/>
</g>
<!-- 22403 -->
<g id="node7" class="node">
<title>22403</title>
<ellipse fill="none" stroke="black" stroke-width="2" cx="203.03" cy="-368.09" rx="78.48" ry="26.74"/>
<text text-anchor="middle" x="203.03" y="-371.89" font-family="Times,serif" font-size="14.00">sort</text>
<text text-anchor="middle" x="203.03" y="-356.89" font-family="Times,serif" font-size="14.00">16385:32768</text>
</g>
<!-- 22403&#45;&gt;22409 -->
<g id="edge11" class="edge">
<title>22403&#45;&gt;22409</title>
<path fill="none" stroke="black" stroke-width="2" d="M203.03,-340.77C203.03,-332.8 203.03,-323.91 203.03,-315.42"/>
<polygon fill="black" stroke="black" stroke-width="2" points="206.53,-315.35 203.03,-305.35 199.53,-315.35 206.53,-315.35"/>
</g>
<!-- 22405 -->
<g id="node8" class="node">
<title>22405</title>
<ellipse fill="none" stroke="red" stroke-width="2" cx="553.03" cy="-368.09" rx="78.48" ry="26.74"/>
<text text-anchor="middle" x="553.03" y="-371.89" font-family="Times,serif" font-size="14.00">sort</text>
<text text-anchor="middle" x="553.03" y="-356.89" font-family="Times,serif" font-size="14.00">49153:65536</text>
</g>
<!-- 22405&#45;&gt;22410 -->
<g id="edge5" class="edge">
<title>22405&#45;&gt;22410</title>
<path fill="none" stroke="red" stroke-width="2" d="M553.03,-340.77C553.03,-332.8 553.03,-323.91 553.03,-315.42"/>
<polygon fill="red" stroke="red" stroke-width="2" points="556.53,-315.35 553.03,-305.35 549.53,-315.35 556.53,-315.35"/>
</g>
<!-- 22404 -->
<g id="node9" class="node">
<title>22404</title>
<ellipse fill="none" stroke="black" stroke-width="2" cx="378.03" cy="-368.09" rx="78.48" ry="26.74"/>
<text text-anchor="middle" x="378.03" y="-371.89" font-family="Times,serif" font-size="14.00">sort</text>
<text text-anchor="middle" x="378.03" y="-356.89" font-family="Times,serif" font-size="14.00">32769:49152</text>
</g>
<!-- 22404&#45;&gt;22410 -->
<g id="edge6" class="edge">
<title>22404&#45;&gt;22410</title>
<path fill="none" stroke="black" stroke-width="2" d="M421.29,-345.4C445.36,-333.33 475.49,-318.23 500.86,-305.51"/>
<polygon fill="black" stroke="black" stroke-width="2" points="502.6,-308.55 509.97,-300.94 499.46,-302.29 502.6,-308.55"/>
</g>
<!-- 22408 -->
<g id="node10" class="node">
<title>22408</title>
<ellipse fill="none" stroke="black" stroke-width="2" cx="734.03" cy="-368.09" rx="84.71" ry="26.74"/>
<text text-anchor="middle" x="734.03" y="-371.89" font-family="Times,serif" font-size="14.00">sort</text>
<text text-anchor="middle" x="734.03" y="-356.89" font-family="Times,serif" font-size="14.00">98305:100000</text>
</g>
<!-- 22412 -->
<g id="node11" class="node">
<title>22412</title>
<ellipse fill="none" stroke="black" stroke-width="2" cx="734.03" cy="-278.35" rx="84.71" ry="26.74"/>
<text text-anchor="middle" x="734.03" y="-282.15" font-family="Times,serif" font-size="14.00">copy</text>
<text text-anchor="middle" x="734.03" y="-267.15" font-family="Times,serif" font-size="14.00">98305:100000</text>
</g>
<!-- 22408&#45;&gt;22412 -->
<g id="edge7" class="edge">
<title>22408&#45;&gt;22412</title>
<path fill="none" stroke="black" stroke-width="2" d="M734.03,-340.77C734.03,-332.8 734.03,-323.91 734.03,-315.42"/>
<polygon fill="black" stroke="black" stroke-width="2" points="737.53,-315.35 734.03,-305.35 730.53,-315.35 737.53,-315.35"/>
</g>
<!-- 22414 -->
<g id="node12" class="node">
<title>22414</title>
<ellipse fill="none" stroke="black" stroke-width="2" cx="727.03" cy="-188.61" rx="84.71" ry="26.74"/>
<text text-anchor="middle" x="727.03" y="-192.41" font-family="Times,serif" font-size="14.00">merge</text>
<text text-anchor="middle" x="727.03" y="-177.41" font-family="Times,serif" font-size="14.00">65537:100000</text>
</g>
<!-- 22412&#45;&gt;22414 -->
<g id="edge13" class="edge">
<title>22412&#45;&gt;22414</title>
<path fill="none" stroke="black" stroke-width="2" d="M731.93,-251.03C731.3,-243.06 730.59,-234.17 729.91,-225.68"/>
<polygon fill="black" stroke="black" stroke-width="2" points="733.39,-225.3 729.11,-215.61 726.41,-225.86 733.39,-225.3"/>
</g>
<!-- 22414&#45;&gt;22415 -->
<g id="edge15" class="edge">
<title>22414&#45;&gt;22415</title>
<path fill="none" stroke="black" stroke-width="2" d="M687.23,-164.79C666.22,-152.74 640.37,-137.91 618.68,-125.47"/>
<polygon fill="black" stroke="black" stroke-width="2" points="620.39,-122.42 609.97,-120.48 616.91,-128.49 620.39,-122.42"/>
</g>
<!-- 22414&#45;&gt;22416 -->
<g id="edge9" class="edge">
<title>22414&#45;&gt;22416</title>
<path fill="none" stroke="black" stroke-width="2" d="M722.32,-161.76C720.83,-153.62 719.17,-144.48 717.58,-135.77"/>
<polygon fill="black" stroke="black" stroke-width="2" points="721.01,-135.05 715.77,-125.84 714.12,-136.3 721.01,-135.05"/>
</g>
<!-- 22402 -->
<g id="node13" class="node">
<title>22402</title>
<ellipse fill="none" stroke="black" stroke-width="2" cx="53.03" cy="-368.09" rx="53.07" ry="26.74"/>
<text text-anchor="middle" x="53.03" y="-371.89" font-family="Times,serif" font-size="14.00">sort</text>
<text text-anchor="middle" x="53.03" y="-356.89" font-family="Times,serif" font-size="14.00">1:16384</text>
</g>
<!-- 22402&#45;&gt;22409 -->
<g id="edge10" class="edge">
<title>22402&#45;&gt;22409</title>
<path fill="none" stroke="black" stroke-width="2" d="M87.07,-347.18C108.84,-334.45 137.25,-317.83 160.5,-304.23"/>
<polygon fill="black" stroke="black" stroke-width="2" points="162.27,-307.25 169.13,-299.18 158.73,-301.21 162.27,-307.25"/>
</g>
<!-- 22411 -->
<g id="node14" class="node">
<title>22411</title>
<ellipse fill="none" stroke="black" stroke-width="2" cx="915.03" cy="-278.35" rx="78.48" ry="26.74"/>
<text text-anchor="middle" x="915.03" y="-282.15" font-family="Times,serif" font-size="14.00">merge</text>
<text text-anchor="middle" x="915.03" y="-267.15" font-family="Times,serif" font-size="14.00">65537:98304</text>
</g>
<!-- 22411&#45;&gt;22414 -->
<g id="edge12" class="edge">
<title>22411&#45;&gt;22414</title>
<path fill="none" stroke="black" stroke-width="2" d="M870,-256.33C843.75,-244.08 810.42,-228.53 782.55,-215.52"/>
<polygon fill="black" stroke="black" stroke-width="2" points="783.87,-212.27 773.33,-211.22 780.91,-218.62 783.87,-212.27"/>
</g>
<!-- 22407 -->
<g id="node15" class="node">
<title>22407</title>
<ellipse fill="none" stroke="black" stroke-width="2" cx="1090.03" cy="-368.09" rx="78.48" ry="26.74"/>
<text text-anchor="middle" x="1090.03" y="-371.89" font-family="Times,serif" font-size="14.00">sort</text>
<text text-anchor="middle" x="1090.03" y="-356.89" font-family="Times,serif" font-size="14.00">81921:98304</text>
</g>
<!-- 22407&#45;&gt;22411 -->
<g id="edge17" class="edge">
<title>22407&#45;&gt;22411</title>
<path fill="none" stroke="black" stroke-width="2" d="M1046.77,-345.4C1022.71,-333.33 992.58,-318.23 967.21,-305.51"/>
<polygon fill="black" stroke="black" stroke-width="2" points="968.6,-302.29 958.1,-300.94 965.47,-308.55 968.6,-302.29"/>
</g>
<!-- 22406 -->
<g id="node16" class="node">
<title>22406</title>
<ellipse fill="none" stroke="black" stroke-width="2" cx="915.03" cy="-368.09" rx="78.48" ry="26.74"/>
<text text-anchor="middle" x="915.03" y="-371.89" font-family="Times,serif" font-size="14.00">sort</text>
<text text-anchor="middle" x="915.03" y="-356.89" font-family="Times,serif" font-size="14.00">65537:81920</text>
</g>
<!-- 22406&#45;&gt;22411 -->
<g id="edge16" class="edge">
<title>22406&#45;&gt;22411</title>
<path fill="none" stroke="black" stroke-width="2" d="M915.03,-340.77C915.03,-332.8 915.03,-323.91 915.03,-315.42"/>
<polygon fill="black" stroke="black" stroke-width="2" points="918.53,-315.35 915.03,-305.35 911.53,-315.35 918.53,-315.35"/>
</g>
</g>
</svg>
