<?xml version="1.0" encoding="UTF-8" standalone="no"?>
<!DOCTYPE svg PUBLIC "-//W3C//DTD SVG 1.1//EN"
 "http://www.w3.org/Graphics/SVG/1.1/DTD/svg11.dtd">
<!-- Generated by graphviz version 2.50.0 (20211204.2007)
 -->
<!-- Title: dag Pages: 1 -->
<svg width="1177pt" height="403pt"
 viewBox="0.00 0.00 1176.98 402.96" xmlns="http://www.w3.org/2000/svg" xmlns:xlink="http://www.w3.org/1999/xlink">
<g id="graph0" class="graph" transform="scale(1 1) rotate(0) translate(4 398.96)">
<title>dag</title>
<polygon fill="white" stroke="transparent" points="-4,4 -4,-398.96 1172.98,-398.96 1172.98,4 -4,4"/>
<!-- 23215 -->
<g id="node1" class="node">
<title>23215</title>
<ellipse fill="none" stroke="black" stroke-width="2" cx="1090.49" cy="-368.09" rx="78.48" ry="26.74"/>
<text text-anchor="middle" x="1090.49" y="-371.89" font-family="Times,serif" font-size="14.00">sort</text>
<text text-anchor="middle" x="1090.49" y="-356.89" font-family="Times,serif" font-size="14.00">16385:32768</text>
</g>
<!-- 23221 -->
<g id="node14" class="node">
<title>23221</title>
<ellipse fill="none" stroke="black" stroke-width="2" cx="940.49" cy="-278.35" rx="53.07" ry="26.74"/>
<text text-anchor="middle" x="940.49" y="-282.15" font-family="Times,serif" font-size="14.00">merge</text>
<text text-anchor="middle" x="940.49" y="-267.15" font-family="Times,serif" font-size="14.00">1:32768</text>
</g>
<!-- 23215&#45;&gt;23221 -->
<g id="edge10" class="edge">
<title>23215&#45;&gt;23221</title>
<path fill="none" stroke="black" stroke-width="2" d="M1051.86,-344.5C1030.8,-332.18 1004.7,-316.91 983.06,-304.25"/>
<polygon fill="black" stroke="black" stroke-width="2" points="984.79,-301.21 974.39,-299.18 981.26,-307.25 984.79,-301.21"/>
</g>
<!-- 23227 -->
<g id="node2" class="node">
<title>23227</title>
<ellipse fill="none" stroke="black" stroke-width="2" cx="455.49" cy="-98.87" rx="59.29" ry="26.74"/>
<text text-anchor="middle" x="455.49" y="-102.67" font-family="Times,serif" font-size="14.00">merge A</text>
<text text-anchor="middle" x="455.49" y="-87.67" font-family="Times,serif" font-size="14.00">1:100000</text>
</g>
<!-- 23229 -->
<g id="node16" class="node">
<title>23229</title>
<ellipse fill="none" stroke="red" stroke-width="2" cx="523.49" cy="-18" rx="38.19" ry="18"/>
<text text-anchor="middle" x="523.49" y="-14.3" font-family="Times,serif" font-size="14.00">result</text>
</g>
<!-- 23227&#45;&gt;23229 -->
<g id="edge17" class="edge">
<title>23227&#45;&gt;23229</title>
<path fill="none" stroke="black" stroke-width="2" d="M476.63,-73.35C485.04,-63.6 494.67,-52.42 503.01,-42.75"/>
<polygon fill="black" stroke="black" stroke-width="2" points="505.78,-44.9 509.66,-35.04 500.48,-40.33 505.78,-44.9"/>
</g>
<!-- 23226 -->
<g id="node3" class="node">
<title>23226</title>
<ellipse fill="none" stroke="black" stroke-width="2" cx="446.49" cy="-188.61" rx="84.71" ry="26.74"/>
<text text-anchor="middle" x="446.49" y="-192.41" font-family="Times,serif" font-size="14.00">merge</text>
<text text-anchor="middle" x="446.49" y="-177.41" font-family="Times,serif" font-size="14.00">65537:100000</text>
</g>
<!-- 23226&#45;&gt;23227 -->
<g id="edge1" class="edge">
<title>23226&#45;&gt;23227</title>
<path fill="none" stroke="black" stroke-width="2" d="M449.19,-161.29C450.01,-153.32 450.92,-144.43 451.79,-135.94"/>
<polygon fill="black" stroke="black" stroke-width="2" points="455.28,-136.18 452.82,-125.87 448.32,-135.46 455.28,-136.18"/>
</g>
<!-- 23228 -->
<g id="node15" class="node">
<title>23228</title>
<ellipse fill="none" stroke="red" stroke-width="2" cx="592.49" cy="-98.87" rx="59.29" ry="26.74"/>
<text text-anchor="middle" x="592.49" y="-102.67" font-family="Times,serif" font-size="14.00">merge B</text>
<text text-anchor="middle" x="592.49" y="-87.67" font-family="Times,serif" font-size="14.00">1:100000</text>
</g>
<!-- 23226&#45;&gt;23228 -->
<g id="edge14" class="edge">
<title>23226&#45;&gt;23228</title>
<path fill="none" stroke="black" stroke-width="2" d="M484.85,-164.56C504.43,-152.79 528.33,-138.43 548.63,-126.23"/>
<polygon fill="black" stroke="black" stroke-width="2" points="550.62,-129.12 557.38,-120.97 547.01,-123.12 550.62,-129.12"/>
</g>
<!-- 23225 -->
<g id="node4" class="node">
<title>23225</title>
<ellipse fill="none" stroke="red" stroke-width="2" cx="608.49" cy="-188.61" rx="53.07" ry="26.74"/>
<text text-anchor="middle" x="608.49" y="-192.41" font-family="Times,serif" font-size="14.00">merge</text>
<text text-anchor="middle" x="608.49" y="-177.41" font-family="Times,serif" font-size="14.00">1:65536</text>
</g>
<!-- 23225&#45;&gt;23227 -->
<g id="edge2" class="edge">
<title>23225&#45;&gt;23227</title>
<path fill="none" stroke="black" stroke-width="2" d="M574.15,-167.92C552.28,-155.38 523.71,-139 500.09,-125.45"/>
<polygon fill="black" stroke="black" stroke-width="2" points="501.72,-122.35 491.31,-120.41 498.24,-128.42 501.72,-122.35"/>
</g>
<!-- 23225&#45;&gt;23228 -->
<g id="edge15" class="edge">
<title>23225&#45;&gt;23228</title>
<path fill="none" stroke="red" stroke-width="2" d="M603.77,-161.76C602.29,-153.62 600.62,-144.48 599.04,-135.77"/>
<polygon fill="red" stroke="red" stroke-width="2" points="602.46,-135.05 597.22,-125.84 595.58,-136.3 602.46,-135.05"/>
</g>
<!-- 23218 -->
<g id="node5" class="node">
<title>23218</title>
<ellipse fill="none" stroke="black" stroke-width="2" cx="253.49" cy="-368.09" rx="78.48" ry="26.74"/>
<text text-anchor="middle" x="253.49" y="-371.89" font-family="Times,serif" font-size="14.00">sort</text>
<text text-anchor="middle" x="253.49" y="-356.89" font-family="Times,serif" font-size="14.00">65537:81920</text>
</g>
<!-- 23223 -->
<g id="node11" class="node">
<title>23223</title>
<ellipse fill="none" stroke="black" stroke-width="2" cx="253.49" cy="-278.35" rx="78.48" ry="26.74"/>
<text text-anchor="middle" x="253.49" y="-282.15" font-family="Times,serif" font-size="14.00">merge</text>
<text text-anchor="middle" x="253.49" y="-267.15" font-family="Times,serif" font-size="14.00">65537:98304</text>
</g>
<!-- 23218&#45;&gt;23223 -->
<g id="edge6" class="edge">
<title>23218&#45;&gt;23223</title>
<path fill="none" stroke="black" stroke-width="2" d="M253.49,-340.77C253.49,-332.8 253.49,-323.91 253.49,-315.42"/>
<polygon fill="black" stroke="black" stroke-width="2" points="256.99,-315.35 253.49,-305.35 249.99,-315.35 256.99,-315.35"/>
</g>
<!-- 23214 -->
<g id="node6" class="node">
<title>23214</title>
<ellipse fill="none" stroke="black" stroke-width="2" cx="940.49" cy="-368.09" rx="53.07" ry="26.74"/>
<text text-anchor="middle" x="940.49" y="-371.89" font-family="Times,serif" font-size="14.00">sort</text>
<text text-anchor="middle" x="940.49" y="-356.89" font-family="Times,serif" font-size="14.00">1:16384</text>
</g>
<!-- 23214&#45;&gt;23221 -->
<g id="edge11" class="edge">
<title>23214&#45;&gt;23221</title>
<path fill="none" stroke="black" stroke-width="2" d="M940.49,-340.77C940.49,-332.8 940.49,-323.91 940.49,-315.42"/>
<polygon fill="black" stroke="black" stroke-width="2" points="943.99,-315.35 940.49,-305.35 936.99,-315.35 943.99,-315.35"/>
</g>
<!-- 23222 -->
<g id="node7" class="node">
<title>23222</title>
<ellipse fill="none" stroke="red" stroke-width="2" cx="615.49" cy="-278.35" rx="78.48" ry="26.74"/>
<text text-anchor="middle" x="615.49" y="-282.15" font-family="Times,serif" font-size="14.00">merge</text>
<text text-anchor="middle" x="615.49" y="-267.15" font-family="Times,serif" font-size="14.00">32769:65536</text>
</g>
<!-- 23222&#45;&gt;23225 -->
<g id="edge12" class="edge">
<title>23222&#45;&gt;23225</title>
<path fill="none" stroke="red" stroke-width="2" d="M613.39,-251.03C612.75,-243.06 612.04,-234.17 611.37,-225.68"/>
<polygon fill="red" stroke="red" stroke-width="2" points="614.85,-225.3 610.56,-215.61 607.87,-225.86 614.85,-225.3"/>
</g>
<!-- 23216 -->
<g id="node8" class="node">
<title>23216</title>
<ellipse fill="none" stroke="black" stroke-width="2" cx="790.49" cy="-368.09" rx="78.48" ry="26.74"/>
<text text-anchor="middle" x="790.49" y="-371.89" font-family="Times,serif" font-size="14.00">sort</text>
<text text-anchor="middle" x="790.49" y="-356.89" font-family="Times,serif" font-size="14.00">32769:49152</text>
</g>
<!-- 23216&#45;&gt;23222 -->
<g id="edge3" class="edge">
<title>23216&#45;&gt;23222</title>
<path fill="none" stroke="black" stroke-width="2" d="M747.23,-345.4C723.16,-333.33 693.03,-318.23 667.66,-305.51"/>
<polygon fill="black" stroke="black" stroke-width="2" points="669.06,-302.29 658.55,-300.94 665.92,-308.55 669.06,-302.29"/>
</g>
<!-- 23217 -->
<g id="node9" class="node">
<title>23217</title>
<ellipse fill="none" stroke="red" stroke-width="2" cx="615.49" cy="-368.09" rx="78.48" ry="26.74"/>
<text text-anchor="middle" x="615.49" y="-371.89" font-family="Times,serif" font-size="14.00">sort</text>
<text text-anchor="middle" x="615.49" y="-356.89" font-family="Times,serif" font-size="14.00">49153:65536</text>
</g>
<!-- 23217&#45;&gt;23222 -->
<g id="edge4" class="edge">
<title>23217&#45;&gt;23222</title>
<path fill="none" stroke="red" stroke-width="2" d="M615.49,-340.77C615.49,-332.8 615.49,-323.91 615.49,-315.42"/>
<polygon fill="red" stroke="red" stroke-width="2" points="618.99,-315.35 615.49,-305.35 611.99,-315.35 618.99,-315.35"/>
</g>
<!-- 23219 -->
<g id="node10" class="node">
<title>23219</title>
<ellipse fill="none" stroke="black" stroke-width="2" cx="78.49" cy="-368.09" rx="78.48" ry="26.74"/>
<text text-anchor="middle" x="78.49" y="-371.89" font-family="Times,serif" font-size="14.00">sort</text>
<text text-anchor="middle" x="78.49" y="-356.89" font-family="Times,serif" font-size="14.00">81921:98304</text>
</g>
<!-- 23219&#45;&gt;23223 -->
<g id="edge5" class="edge">
<title>23219&#45;&gt;23223</title>
<path fill="none" stroke="black" stroke-width="2" d="M121.75,-345.4C145.82,-333.33 175.95,-318.23 201.31,-305.51"/>
<polygon fill="black" stroke="black" stroke-width="2" points="203.05,-308.55 210.43,-300.94 199.92,-302.29 203.05,-308.55"/>
</g>
<!-- 23223&#45;&gt;23226 -->
<g id="edge8" class="edge">
<title>23223&#45;&gt;23226</title>
<path fill="none" stroke="black" stroke-width="2" d="M299.72,-256.33C326.89,-243.98 361.43,-228.28 390.18,-215.21"/>
<polygon fill="black" stroke="black" stroke-width="2" points="391.64,-218.39 399.3,-211.06 388.75,-212.02 391.64,-218.39"/>
</g>
<!-- 23224 -->
<g id="node12" class="node">
<title>23224</title>
<ellipse fill="none" stroke="black" stroke-width="2" cx="434.49" cy="-278.35" rx="84.71" ry="26.74"/>
<text text-anchor="middle" x="434.49" y="-282.15" font-family="Times,serif" font-size="14.00">copy</text>
<text text-anchor="middle" x="434.49" y="-267.15" font-family="Times,serif" font-size="14.00">98305:100000</text>
</g>
<!-- 23224&#45;&gt;23226 -->
<g id="edge7" class="edge">
<title>23224&#45;&gt;23226</title>
<path fill="none" stroke="black" stroke-width="2" d="M438.02,-251.5C439.14,-243.36 440.39,-234.22 441.58,-225.51"/>
<polygon fill="black" stroke="black" stroke-width="2" points="445.05,-225.96 442.94,-215.58 438.11,-225.01 445.05,-225.96"/>
</g>
<!-- 23220 -->
<g id="node13" class="node">
<title>23220</title>
<ellipse fill="none" stroke="black" stroke-width="2" cx="434.49" cy="-368.09" rx="84.71" ry="26.74"/>
<text text-anchor="middle" x="434.49" y="-371.89" font-family="Times,serif" font-size="14.00">sort</text>
<text text-anchor="middle" x="434.49" y="-356.89" font-family="Times,serif" font-size="14.00">98305:100000</text>
</g>
<!-- 23220&#45;&gt;23224 -->
<g id="edge9" class="edge">
<title>23220&#45;&gt;23224</title>
<path fill="none" stroke="black" stroke-width="2" d="M434.49,-340.77C434.49,-332.8 434.49,-323.91 434.49,-315.42"/>
<polygon fill="black" stroke="black" stroke-width="2" points="437.99,-315.35 434.49,-305.35 430.99,-315.35 437.99,-315.35"/>
</g>
<!-- 23221&#45;&gt;23225 -->
<g id="edge13" class="edge">
<title>23221&#45;&gt;23225</title>
<path fill="none" stroke="black" stroke-width="2" d="M893.98,-265.06C833.84,-249.17 729.2,-221.51 664.68,-204.46"/>
<polygon fill="black" stroke="black" stroke-width="2" points="665.25,-200.99 654.69,-201.82 663.46,-207.76 665.25,-200.99"/>
</g>
<!-- 23228&#45;&gt;23229 -->
<g id="edge16" class="edge">
<title>23228&#45;&gt;23229</title>
<path fill="none" stroke="red" stroke-width="2" d="M571.04,-73.35C562.5,-63.6 552.73,-52.42 544.26,-42.75"/>
<polygon fill="red" stroke="red" stroke-width="2" points="546.74,-40.26 537.52,-35.04 541.47,-44.87 546.74,-40.26"/>
</g>
</g>
</svg>
