<?xml version="1.0" encoding="UTF-8" standalone="no"?>
<!DOCTYPE svg PUBLIC "-//W3C//DTD SVG 1.1//EN"
 "http://www.w3.org/Graphics/SVG/1.1/DTD/svg11.dtd">
<!-- Generated by graphviz version 2.50.0 (20211204.2007)
 -->
<!-- Title: dag Pages: 1 -->
<svg width="1177pt" height="403pt"
 viewBox="0.00 0.00 1176.52 402.96" xmlns="http://www.w3.org/2000/svg" xmlns:xlink="http://www.w3.org/1999/xlink">
<g id="graph0" class="graph" transform="scale(1 1) rotate(0) translate(4 398.96)">
<title>dag</title>
<polygon fill="white" stroke="transparent" points="-4,4 -4,-398.96 1172.52,-398.96 1172.52,4 -4,4"/>
<!-- 20565 -->
<g id="node1" class="node">
<title>20565</title>
<ellipse fill="none" stroke="black" stroke-width="2" cx="965.49" cy="-278.35" rx="53.07" ry="26.74"/>
<text text-anchor="middle" x="965.49" y="-282.15" font-family="Times,serif" font-size="14.00">merge</text>
<text text-anchor="middle" x="965.49" y="-267.15" font-family="Times,serif" font-size="14.00">1:32768</text>
</g>
<!-- 20569 -->
<g id="node10" class="node">
<title>20569</title>
<ellipse fill="none" stroke="black" stroke-width="2" cx="702.49" cy="-188.61" rx="53.07" ry="26.74"/>
<text text-anchor="middle" x="702.49" y="-192.41" font-family="Times,serif" font-size="14.00">merge</text>
<text text-anchor="middle" x="702.49" y="-177.41" font-family="Times,serif" font-size="14.00">1:65536</text>
</g>
<!-- 20565&#45;&gt;20569 -->
<g id="edge7" class="edge">
<title>20565&#45;&gt;20569</title>
<path fill="none" stroke="black" stroke-width="2" d="M922.06,-262.86C876.47,-247.65 804.75,-223.72 755.77,-207.38"/>
<polygon fill="black" stroke="black" stroke-width="2" points="756.58,-203.96 745.98,-204.12 754.36,-210.61 756.58,-203.96"/>
</g>
<!-- 20559 -->
<g id="node2" class="node">
<title>20559</title>
<ellipse fill="none" stroke="black" stroke-width="2" cx="965.49" cy="-368.09" rx="78.48" ry="26.74"/>
<text text-anchor="middle" x="965.49" y="-371.89" font-family="Times,serif" font-size="14.00">sort</text>
<text text-anchor="middle" x="965.49" y="-356.89" font-family="Times,serif" font-size="14.00">16385:32768</text>
</g>
<!-- 20559&#45;&gt;20565 -->
<g id="edge1" class="edge">
<title>20559&#45;&gt;20565</title>
<path fill="none" stroke="black" stroke-width="2" d="M965.49,-340.77C965.49,-332.8 965.49,-323.91 965.49,-315.42"/>
<polygon fill="black" stroke="black" stroke-width="2" points="968.99,-315.35 965.49,-305.35 961.99,-315.35 968.99,-315.35"/>
</g>
<!-- 20558 -->
<g id="node3" class="node">
<title>20558</title>
<ellipse fill="none" stroke="black" stroke-width="2" cx="1115.49" cy="-368.09" rx="53.07" ry="26.74"/>
<text text-anchor="middle" x="1115.49" y="-371.89" font-family="Times,serif" font-size="14.00">sort</text>
<text text-anchor="middle" x="1115.49" y="-356.89" font-family="Times,serif" font-size="14.00">1:16384</text>
</g>
<!-- 20558&#45;&gt;20565 -->
<g id="edge2" class="edge">
<title>20558&#45;&gt;20565</title>
<path fill="none" stroke="black" stroke-width="2" d="M1081.45,-347.18C1059.68,-334.45 1031.28,-317.83 1008.03,-304.23"/>
<polygon fill="black" stroke="black" stroke-width="2" points="1009.79,-301.21 999.39,-299.18 1006.26,-307.25 1009.79,-301.21"/>
</g>
<!-- 20560 -->
<g id="node4" class="node">
<title>20560</title>
<ellipse fill="none" stroke="black" stroke-width="2" cx="615.49" cy="-368.09" rx="78.48" ry="26.74"/>
<text text-anchor="middle" x="615.49" y="-371.89" font-family="Times,serif" font-size="14.00">sort</text>
<text text-anchor="middle" x="615.49" y="-356.89" font-family="Times,serif" font-size="14.00">32769:49152</text>
</g>
<!-- 20566 -->
<g id="node6" class="node">
<title>20566</title>
<ellipse fill="none" stroke="black" stroke-width="2" cx="702.49" cy="-278.35" rx="78.48" ry="26.74"/>
<text text-anchor="middle" x="702.49" y="-282.15" font-family="Times,serif" font-size="14.00">merge</text>
<text text-anchor="middle" x="702.49" y="-267.15" font-family="Times,serif" font-size="14.00">32769:65536</text>
</g>
<!-- 20560&#45;&gt;20566 -->
<g id="edge3" class="edge">
<title>20560&#45;&gt;20566</title>
<path fill="none" stroke="black" stroke-width="2" d="M640.19,-342.18C649.73,-332.56 660.76,-321.43 670.87,-311.24"/>
<polygon fill="black" stroke="black" stroke-width="2" points="673.47,-313.58 678.03,-304.02 668.5,-308.65 673.47,-313.58"/>
</g>
<!-- 20561 -->
<g id="node5" class="node">
<title>20561</title>
<ellipse fill="none" stroke="black" stroke-width="2" cx="790.49" cy="-368.09" rx="78.48" ry="26.74"/>
<text text-anchor="middle" x="790.49" y="-371.89" font-family="Times,serif" font-size="14.00">sort</text>
<text text-anchor="middle" x="790.49" y="-356.89" font-family="Times,serif" font-size="14.00">49153:65536</text>
</g>
<!-- 20561&#45;&gt;20566 -->
<g id="edge4" class="edge">
<title>20561&#45;&gt;20566</title>
<path fill="none" stroke="black" stroke-width="2" d="M765.51,-342.18C755.86,-332.56 744.7,-321.43 734.47,-311.24"/>
<polygon fill="black" stroke="black" stroke-width="2" points="736.78,-308.6 727.23,-304.02 731.84,-313.56 736.78,-308.6"/>
</g>
<!-- 20566&#45;&gt;20569 -->
<g id="edge8" class="edge">
<title>20566&#45;&gt;20569</title>
<path fill="none" stroke="black" stroke-width="2" d="M702.49,-251.03C702.49,-243.06 702.49,-234.17 702.49,-225.68"/>
<polygon fill="black" stroke="black" stroke-width="2" points="705.99,-225.61 702.49,-215.61 698.99,-225.61 705.99,-225.61"/>
</g>
<!-- 20567 -->
<g id="node7" class="node">
<title>20567</title>
<ellipse fill="none" stroke="red" stroke-width="2" cx="253.49" cy="-278.35" rx="78.48" ry="26.74"/>
<text text-anchor="middle" x="253.49" y="-282.15" font-family="Times,serif" font-size="14.00">merge</text>
<text text-anchor="middle" x="253.49" y="-267.15" font-family="Times,serif" font-size="14.00">65537:98304</text>
</g>
<!-- 20570 -->
<g id="node13" class="node">
<title>20570</title>
<ellipse fill="none" stroke="red" stroke-width="2" cx="434.49" cy="-188.61" rx="84.71" ry="26.74"/>
<text text-anchor="middle" x="434.49" y="-192.41" font-family="Times,serif" font-size="14.00">merge</text>
<text text-anchor="middle" x="434.49" y="-177.41" font-family="Times,serif" font-size="14.00">65537:100000</text>
</g>
<!-- 20567&#45;&gt;20570 -->
<g id="edge11" class="edge">
<title>20567&#45;&gt;20570</title>
<path fill="none" stroke="red" stroke-width="2" d="M297.77,-255.89C322.67,-243.81 353.95,-228.65 380.31,-215.87"/>
<polygon fill="red" stroke="red" stroke-width="2" points="381.94,-218.97 389.41,-211.46 378.89,-212.67 381.94,-218.97"/>
</g>
<!-- 20562 -->
<g id="node8" class="node">
<title>20562</title>
<ellipse fill="none" stroke="black" stroke-width="2" cx="78.49" cy="-368.09" rx="78.48" ry="26.74"/>
<text text-anchor="middle" x="78.49" y="-371.89" font-family="Times,serif" font-size="14.00">sort</text>
<text text-anchor="middle" x="78.49" y="-356.89" font-family="Times,serif" font-size="14.00">65537:81920</text>
</g>
<!-- 20562&#45;&gt;20567 -->
<g id="edge5" class="edge">
<title>20562&#45;&gt;20567</title>
<path fill="none" stroke="black" stroke-width="2" d="M121.75,-345.4C145.82,-333.33 175.95,-318.23 201.31,-305.51"/>
<polygon fill="black" stroke="black" stroke-width="2" points="203.05,-308.55 210.43,-300.94 199.92,-302.29 203.05,-308.55"/>
</g>
<!-- 20563 -->
<g id="node9" class="node">
<title>20563</title>
<ellipse fill="none" stroke="red" stroke-width="2" cx="253.49" cy="-368.09" rx="78.48" ry="26.74"/>
<text text-anchor="middle" x="253.49" y="-371.89" font-family="Times,serif" font-size="14.00">sort</text>
<text text-anchor="middle" x="253.49" y="-356.89" font-family="Times,serif" font-size="14.00">81921:98304</text>
</g>
<!-- 20563&#45;&gt;20567 -->
<g id="edge6" class="edge">
<title>20563&#45;&gt;20567</title>
<path fill="none" stroke="red" stroke-width="2" d="M253.49,-340.77C253.49,-332.8 253.49,-323.91 253.49,-315.42"/>
<polygon fill="red" stroke="red" stroke-width="2" points="256.99,-315.35 253.49,-305.35 249.99,-315.35 256.99,-315.35"/>
</g>
<!-- 20571 -->
<g id="node14" class="node">
<title>20571</title>
<ellipse fill="none" stroke="red" stroke-width="2" cx="524.49" cy="-98.87" rx="59.29" ry="26.74"/>
<text text-anchor="middle" x="524.49" y="-102.67" font-family="Times,serif" font-size="14.00">merge</text>
<text text-anchor="middle" x="524.49" y="-87.67" font-family="Times,serif" font-size="14.00">1:100000</text>
</g>
<!-- 20569&#45;&gt;20571 -->
<g id="edge12" class="edge">
<title>20569&#45;&gt;20571</title>
<path fill="none" stroke="black" stroke-width="2" d="M665.17,-169.22C638.31,-155.98 601.84,-138 572.76,-123.67"/>
<polygon fill="black" stroke="black" stroke-width="2" points="574.12,-120.43 563.6,-119.15 571.03,-126.71 574.12,-120.43"/>
</g>
<!-- 20564 -->
<g id="node11" class="node">
<title>20564</title>
<ellipse fill="none" stroke="black" stroke-width="2" cx="434.49" cy="-368.09" rx="84.71" ry="26.74"/>
<text text-anchor="middle" x="434.49" y="-371.89" font-family="Times,serif" font-size="14.00">sort</text>
<text text-anchor="middle" x="434.49" y="-356.89" font-family="Times,serif" font-size="14.00">98305:100000</text>
</g>
<!-- 20568 -->
<g id="node12" class="node">
<title>20568</title>
<ellipse fill="none" stroke="black" stroke-width="2" cx="434.49" cy="-278.35" rx="84.71" ry="26.74"/>
<text text-anchor="middle" x="434.49" y="-282.15" font-family="Times,serif" font-size="14.00">copy</text>
<text text-anchor="middle" x="434.49" y="-267.15" font-family="Times,serif" font-size="14.00">98305:100000</text>
</g>
<!-- 20564&#45;&gt;20568 -->
<g id="edge9" class="edge">
<title>20564&#45;&gt;20568</title>
<path fill="none" stroke="black" stroke-width="2" d="M434.49,-340.77C434.49,-332.8 434.49,-323.91 434.49,-315.42"/>
<polygon fill="black" stroke="black" stroke-width="2" points="437.99,-315.35 434.49,-305.35 430.99,-315.35 437.99,-315.35"/>
</g>
<!-- 20568&#45;&gt;20570 -->
<g id="edge10" class="edge">
<title>20568&#45;&gt;20570</title>
<path fill="none" stroke="black" stroke-width="2" d="M434.49,-251.03C434.49,-243.06 434.49,-234.17 434.49,-225.68"/>
<polygon fill="black" stroke="black" stroke-width="2" points="437.99,-225.61 434.49,-215.61 430.99,-225.61 437.99,-225.61"/>
</g>
<!-- 20570&#45;&gt;20571 -->
<g id="edge13" class="edge">
<title>20570&#45;&gt;20571</title>
<path fill="none" stroke="red" stroke-width="2" d="M460.04,-162.7C470.26,-152.74 482.13,-141.16 492.88,-130.68"/>
<polygon fill="red" stroke="red" stroke-width="2" points="495.4,-133.12 500.12,-123.63 490.51,-128.11 495.4,-133.12"/>
</g>
<!-- 20572 -->
<g id="node15" class="node">
<title>20572</title>
<ellipse fill="none" stroke="red" stroke-width="2" cx="524.49" cy="-18" rx="38.19" ry="18"/>
<text text-anchor="middle" x="524.49" y="-14.3" font-family="Times,serif" font-size="14.00">result</text>
</g>
<!-- 20571&#45;&gt;20572 -->
<g id="edge14" class="edge">
<title>20571&#45;&gt;20572</title>
<path fill="none" stroke="red" stroke-width="2" d="M524.49,-71.61C524.49,-63.51 524.49,-54.57 524.49,-46.39"/>
<polygon fill="red" stroke="red" stroke-width="2" points="527.99,-46.22 524.49,-36.22 520.99,-46.22 527.99,-46.22"/>
</g>
</g>
</svg>
