<?xml version="1.0" encoding="UTF-8" standalone="no"?>
<!DOCTYPE svg PUBLIC "-//W3C//DTD SVG 1.1//EN"
 "http://www.w3.org/Graphics/SVG/1.1/DTD/svg11.dtd">
<!-- Generated by graphviz version 2.50.0 (20211204.2007)
 -->
<!-- Title: dag Pages: 1 -->
<svg width="240pt" height="188pt"
 viewBox="0.00 0.00 240.24 188.00" xmlns="http://www.w3.org/2000/svg" xmlns:xlink="http://www.w3.org/1999/xlink">
<g id="graph0" class="graph" transform="scale(1 1) rotate(0) translate(4 184)">
<title>dag</title>
<polygon fill="white" stroke="transparent" points="-4,4 -4,-184 236.24,-184 236.24,4 -4,4"/>
<!-- 53984 -->
<g id="node1" class="node">
<title>53984</title>
<ellipse fill="none" stroke="red" stroke-width="2" cx="53.95" cy="-162" rx="36.29" ry="18"/>
<text text-anchor="middle" x="53.95" y="-158.3" font-family="Times,serif" font-size="14.00">init B</text>
</g>
<!-- 53986 -->
<g id="node4" class="node">
<title>53986</title>
<ellipse fill="none" stroke="red" stroke-width="2" cx="53.95" cy="-90" rx="53.89" ry="18"/>
<text text-anchor="middle" x="53.95" y="-86.3" font-family="Times,serif" font-size="14.00">mutate B</text>
</g>
<!-- 53984&#45;&gt;53986 -->
<g id="edge4" class="edge">
<title>53984&#45;&gt;53986</title>
<path fill="none" stroke="red" stroke-width="2" d="M53.95,-143.7C53.95,-135.98 53.95,-126.71 53.95,-118.11"/>
<polygon fill="red" stroke="red" stroke-width="2" points="57.45,-118.1 53.95,-108.1 50.45,-118.1 57.45,-118.1"/>
</g>
<!-- 53983 -->
<g id="node2" class="node">
<title>53983</title>
<ellipse fill="none" stroke="black" stroke-width="2" cx="178.95" cy="-162" rx="36" ry="18"/>
<text text-anchor="middle" x="178.95" y="-158.3" font-family="Times,serif" font-size="14.00">init A</text>
</g>
<!-- 53985 -->
<g id="node5" class="node">
<title>53985</title>
<ellipse fill="none" stroke="black" stroke-width="2" cx="178.95" cy="-90" rx="53.09" ry="18"/>
<text text-anchor="middle" x="178.95" y="-86.3" font-family="Times,serif" font-size="14.00">mutate A</text>
</g>
<!-- 53983&#45;&gt;53985 -->
<g id="edge3" class="edge">
<title>53983&#45;&gt;53985</title>
<path fill="none" stroke="black" stroke-width="2" d="M178.95,-143.7C178.95,-135.98 178.95,-126.71 178.95,-118.11"/>
<polygon fill="black" stroke="black" stroke-width="2" points="182.45,-118.1 178.95,-108.1 175.45,-118.1 182.45,-118.1"/>
</g>
<!-- 53987 -->
<g id="node3" class="node">
<title>53987</title>
<ellipse fill="none" stroke="red" stroke-width="2" cx="115.95" cy="-18" rx="50.89" ry="18"/>
<text text-anchor="middle" x="115.95" y="-14.3" font-family="Times,serif" font-size="14.00">read A,B</text>
</g>
<!-- 53986&#45;&gt;53987 -->
<g id="edge1" class="edge">
<title>53986&#45;&gt;53987</title>
<path fill="none" stroke="red" stroke-width="2" d="M68.64,-72.41C76.36,-63.69 85.97,-52.85 94.5,-43.21"/>
<polygon fill="red" stroke="red" stroke-width="2" points="97.35,-45.28 101.36,-35.47 92.11,-40.64 97.35,-45.28"/>
</g>
<!-- 53985&#45;&gt;53987 -->
<g id="edge2" class="edge">
<title>53985&#45;&gt;53987</title>
<path fill="none" stroke="black" stroke-width="2" d="M164.02,-72.41C156.09,-63.61 146.21,-52.63 137.47,-42.92"/>
<polygon fill="black" stroke="black" stroke-width="2" points="140.06,-40.56 130.77,-35.47 134.86,-45.24 140.06,-40.56"/>
</g>
</g>
</svg>
