<?xml version="1.0" encoding="UTF-8" standalone="no"?>
<!DOCTYPE svg PUBLIC "-//W3C//DTD SVG 1.1//EN"
 "http://www.w3.org/Graphics/SVG/1.1/DTD/svg11.dtd">
<!-- Generated by graphviz version 2.50.0 (20211204.2007)
 -->
<!-- Title: dag Pages: 1 -->
<svg width="1177pt" height="493pt"
 viewBox="0.00 0.00 1176.98 492.70" xmlns="http://www.w3.org/2000/svg" xmlns:xlink="http://www.w3.org/1999/xlink">
<g id="graph0" class="graph" transform="scale(1 1) rotate(0) translate(4 488.7)">
<title>dag</title>
<polygon fill="white" stroke="transparent" points="-4,4 -4,-488.7 1172.98,-488.7 1172.98,4 -4,4"/>
<!-- 43688 -->
<g id="node1" class="node">
<title>43688</title>
<ellipse fill="none" stroke="red" stroke-width="2" cx="512.49" cy="-188.61" rx="59.29" ry="26.74"/>
<text text-anchor="middle" x="512.49" y="-192.41" font-family="Times,serif" font-size="14.00">split</text>
<text text-anchor="middle" x="512.49" y="-177.41" font-family="Times,serif" font-size="14.00">1:100000</text>
</g>
<!-- 43689 -->
<g id="node12" class="node">
<title>43689</title>
<ellipse fill="none" stroke="red" stroke-width="2" cx="444.49" cy="-98.87" rx="59.29" ry="26.74"/>
<text text-anchor="middle" x="444.49" y="-102.67" font-family="Times,serif" font-size="14.00">merge A</text>
<text text-anchor="middle" x="444.49" y="-87.67" font-family="Times,serif" font-size="14.00">1:100000</text>
</g>
<!-- 43688&#45;&gt;43689 -->
<g id="edge12" class="edge">
<title>43688&#45;&gt;43689</title>
<path fill="none" stroke="red" stroke-width="2" d="M493.18,-162.7C485.95,-153.36 477.6,-142.6 469.9,-132.65"/>
<polygon fill="red" stroke="red" stroke-width="2" points="472.5,-130.3 463.61,-124.54 466.97,-134.58 472.5,-130.3"/>
</g>
<!-- 43690 -->
<g id="node13" class="node">
<title>43690</title>
<ellipse fill="none" stroke="black" stroke-width="2" cx="581.49" cy="-98.87" rx="59.29" ry="26.74"/>
<text text-anchor="middle" x="581.49" y="-102.67" font-family="Times,serif" font-size="14.00">merge B</text>
<text text-anchor="middle" x="581.49" y="-87.67" font-family="Times,serif" font-size="14.00">1:100000</text>
</g>
<!-- 43688&#45;&gt;43690 -->
<g id="edge11" class="edge">
<title>43688&#45;&gt;43690</title>
<path fill="none" stroke="black" stroke-width="2" d="M531.71,-163.17C539.2,-153.65 547.89,-142.59 555.9,-132.41"/>
<polygon fill="black" stroke="black" stroke-width="2" points="558.7,-134.51 562.13,-124.48 553.2,-130.18 558.7,-134.51"/>
</g>
<!-- 43687 -->
<g id="node2" class="node">
<title>43687</title>
<ellipse fill="none" stroke="black" stroke-width="2" cx="434.49" cy="-278.35" rx="84.71" ry="26.74"/>
<text text-anchor="middle" x="434.49" y="-282.15" font-family="Times,serif" font-size="14.00">merge</text>
<text text-anchor="middle" x="434.49" y="-267.15" font-family="Times,serif" font-size="14.00">65537:100000</text>
</g>
<!-- 43687&#45;&gt;43688 -->
<g id="edge1" class="edge">
<title>43687&#45;&gt;43688</title>
<path fill="none" stroke="black" stroke-width="2" d="M457.05,-251.97C465.58,-242.37 475.4,-231.33 484.38,-221.23"/>
<polygon fill="black" stroke="black" stroke-width="2" points="487.02,-223.52 491.05,-213.73 481.79,-218.87 487.02,-223.52"/>
</g>
<!-- 43686 -->
<g id="node3" class="node">
<title>43686</title>
<ellipse fill="none" stroke="red" stroke-width="2" cx="665.49" cy="-278.35" rx="53.07" ry="26.74"/>
<text text-anchor="middle" x="665.49" y="-282.15" font-family="Times,serif" font-size="14.00">merge</text>
<text text-anchor="middle" x="665.49" y="-267.15" font-family="Times,serif" font-size="14.00">1:65536</text>
</g>
<!-- 43686&#45;&gt;43688 -->
<g id="edge2" class="edge">
<title>43686&#45;&gt;43688</title>
<path fill="none" stroke="red" stroke-width="2" d="M631.15,-257.66C609.28,-245.12 580.71,-228.74 557.09,-215.19"/>
<polygon fill="red" stroke="red" stroke-width="2" points="558.72,-212.09 548.31,-210.15 555.24,-218.16 558.72,-212.09"/>
</g>
<!-- 43675 -->
<g id="node4" class="node">
<title>43675</title>
<ellipse fill="none" stroke="black" stroke-width="2" cx="590.49" cy="-457.83" rx="53.07" ry="26.74"/>
<text text-anchor="middle" x="590.49" y="-461.63" font-family="Times,serif" font-size="14.00">sort</text>
<text text-anchor="middle" x="590.49" y="-446.63" font-family="Times,serif" font-size="14.00">1:16384</text>
</g>
<!-- 43682 -->
<g id="node5" class="node">
<title>43682</title>
<ellipse fill="none" stroke="black" stroke-width="2" cx="665.49" cy="-368.09" rx="53.07" ry="26.74"/>
<text text-anchor="middle" x="665.49" y="-371.89" font-family="Times,serif" font-size="14.00">merge</text>
<text text-anchor="middle" x="665.49" y="-356.89" font-family="Times,serif" font-size="14.00">1:32768</text>
</g>
<!-- 43675&#45;&gt;43682 -->
<g id="edge4" class="edge">
<title>43675&#45;&gt;43682</title>
<path fill="none" stroke="black" stroke-width="2" d="M610.98,-432.86C619.42,-422.99 629.3,-411.42 638.33,-400.87"/>
<polygon fill="black" stroke="black" stroke-width="2" points="641.18,-402.91 645.02,-393.04 635.86,-398.36 641.18,-402.91"/>
</g>
<!-- 43682&#45;&gt;43686 -->
<g id="edge17" class="edge">
<title>43682&#45;&gt;43686</title>
<path fill="none" stroke="black" stroke-width="2" d="M665.49,-340.77C665.49,-332.8 665.49,-323.91 665.49,-315.42"/>
<polygon fill="black" stroke="black" stroke-width="2" points="668.99,-315.35 665.49,-305.35 661.99,-315.35 668.99,-315.35"/>
</g>
<!-- 43676 -->
<g id="node6" class="node">
<title>43676</title>
<ellipse fill="none" stroke="black" stroke-width="2" cx="740.49" cy="-457.83" rx="78.48" ry="26.74"/>
<text text-anchor="middle" x="740.49" y="-461.63" font-family="Times,serif" font-size="14.00">sort</text>
<text text-anchor="middle" x="740.49" y="-446.63" font-family="Times,serif" font-size="14.00">16385:32768</text>
</g>
<!-- 43676&#45;&gt;43682 -->
<g id="edge3" class="edge">
<title>43676&#45;&gt;43682</title>
<path fill="none" stroke="black" stroke-width="2" d="M719.2,-431.92C710.91,-422.23 701.33,-411.02 692.56,-400.76"/>
<polygon fill="black" stroke="black" stroke-width="2" points="695.22,-398.48 686.06,-393.15 689.89,-403.03 695.22,-398.48"/>
</g>
<!-- 43684 -->
<g id="node7" class="node">
<title>43684</title>
<ellipse fill="none" stroke="black" stroke-width="2" cx="253.49" cy="-368.09" rx="78.48" ry="26.74"/>
<text text-anchor="middle" x="253.49" y="-371.89" font-family="Times,serif" font-size="14.00">merge</text>
<text text-anchor="middle" x="253.49" y="-356.89" font-family="Times,serif" font-size="14.00">65537:98304</text>
</g>
<!-- 43684&#45;&gt;43687 -->
<g id="edge5" class="edge">
<title>43684&#45;&gt;43687</title>
<path fill="none" stroke="black" stroke-width="2" d="M297.77,-345.63C322.67,-333.56 353.95,-318.39 380.31,-305.61"/>
<polygon fill="black" stroke="black" stroke-width="2" points="381.94,-308.71 389.41,-301.2 378.89,-302.41 381.94,-308.71"/>
</g>
<!-- 43685 -->
<g id="node8" class="node">
<title>43685</title>
<ellipse fill="none" stroke="black" stroke-width="2" cx="434.49" cy="-368.09" rx="84.71" ry="26.74"/>
<text text-anchor="middle" x="434.49" y="-371.89" font-family="Times,serif" font-size="14.00">copy</text>
<text text-anchor="middle" x="434.49" y="-356.89" font-family="Times,serif" font-size="14.00">98305:100000</text>
</g>
<!-- 43685&#45;&gt;43687 -->
<g id="edge6" class="edge">
<title>43685&#45;&gt;43687</title>
<path fill="none" stroke="black" stroke-width="2" d="M434.49,-340.77C434.49,-332.8 434.49,-323.91 434.49,-315.42"/>
<polygon fill="black" stroke="black" stroke-width="2" points="437.99,-315.35 434.49,-305.35 430.99,-315.35 437.99,-315.35"/>
</g>
<!-- 43679 -->
<g id="node9" class="node">
<title>43679</title>
<ellipse fill="none" stroke="black" stroke-width="2" cx="78.49" cy="-457.83" rx="78.48" ry="26.74"/>
<text text-anchor="middle" x="78.49" y="-461.63" font-family="Times,serif" font-size="14.00">sort</text>
<text text-anchor="middle" x="78.49" y="-446.63" font-family="Times,serif" font-size="14.00">65537:81920</text>
</g>
<!-- 43679&#45;&gt;43684 -->
<g id="edge7" class="edge">
<title>43679&#45;&gt;43684</title>
<path fill="none" stroke="black" stroke-width="2" d="M121.75,-435.14C145.82,-423.07 175.95,-407.97 201.31,-395.25"/>
<polygon fill="black" stroke="black" stroke-width="2" points="203.05,-398.29 210.43,-390.68 199.92,-392.03 203.05,-398.29"/>
</g>
<!-- 43680 -->
<g id="node10" class="node">
<title>43680</title>
<ellipse fill="none" stroke="black" stroke-width="2" cx="253.49" cy="-457.83" rx="78.48" ry="26.74"/>
<text text-anchor="middle" x="253.49" y="-461.63" font-family="Times,serif" font-size="14.00">sort</text>
<text text-anchor="middle" x="253.49" y="-446.63" font-family="Times,serif" font-size="14.00">81921:98304</text>
</g>
<!-- 43680&#45;&gt;43684 -->
<g id="edge8" class="edge">
<title>43680&#45;&gt;43684</title>
<path fill="none" stroke="black" stroke-width="2" d="M253.49,-430.51C253.49,-422.54 253.49,-413.65 253.49,-405.16"/>
<polygon fill="black" stroke="black" stroke-width="2" points="256.99,-405.09 253.49,-395.09 249.99,-405.09 256.99,-405.09"/>
</g>
<!-- 43691 -->
<g id="node11" class="node">
<title>43691</title>
<ellipse fill="none" stroke="red" stroke-width="2" cx="512.49" cy="-18" rx="38.19" ry="18"/>
<text text-anchor="middle" x="512.49" y="-14.3" font-family="Times,serif" font-size="14.00">result</text>
</g>
<!-- 43689&#45;&gt;43691 -->
<g id="edge9" class="edge">
<title>43689&#45;&gt;43691</title>
<path fill="none" stroke="red" stroke-width="2" d="M465.63,-73.35C474.04,-63.6 483.67,-52.42 492.01,-42.75"/>
<polygon fill="red" stroke="red" stroke-width="2" points="494.78,-44.9 498.66,-35.04 489.48,-40.33 494.78,-44.9"/>
</g>
<!-- 43690&#45;&gt;43691 -->
<g id="edge10" class="edge">
<title>43690&#45;&gt;43691</title>
<path fill="none" stroke="black" stroke-width="2" d="M560.04,-73.35C551.5,-63.6 541.73,-52.42 533.26,-42.75"/>
<polygon fill="black" stroke="black" stroke-width="2" points="535.74,-40.26 526.52,-35.04 530.47,-44.87 535.74,-40.26"/>
</g>
<!-- 43678 -->
<g id="node14" class="node">
<title>43678</title>
<ellipse fill="none" stroke="red" stroke-width="2" cx="915.49" cy="-457.83" rx="78.48" ry="26.74"/>
<text text-anchor="middle" x="915.49" y="-461.63" font-family="Times,serif" font-size="14.00">sort</text>
<text text-anchor="middle" x="915.49" y="-446.63" font-family="Times,serif" font-size="14.00">49153:65536</text>
</g>
<!-- 43683 -->
<g id="node16" class="node">
<title>43683</title>
<ellipse fill="none" stroke="red" stroke-width="2" cx="915.49" cy="-368.09" rx="78.48" ry="26.74"/>
<text text-anchor="middle" x="915.49" y="-371.89" font-family="Times,serif" font-size="14.00">merge</text>
<text text-anchor="middle" x="915.49" y="-356.89" font-family="Times,serif" font-size="14.00">32769:65536</text>
</g>
<!-- 43678&#45;&gt;43683 -->
<g id="edge13" class="edge">
<title>43678&#45;&gt;43683</title>
<path fill="none" stroke="red" stroke-width="2" d="M915.49,-430.51C915.49,-422.54 915.49,-413.65 915.49,-405.16"/>
<polygon fill="red" stroke="red" stroke-width="2" points="918.99,-405.09 915.49,-395.09 911.99,-405.09 918.99,-405.09"/>
</g>
<!-- 43677 -->
<g id="node15" class="node">
<title>43677</title>
<ellipse fill="none" stroke="black" stroke-width="2" cx="1090.49" cy="-457.83" rx="78.48" ry="26.74"/>
<text text-anchor="middle" x="1090.49" y="-461.63" font-family="Times,serif" font-size="14.00">sort</text>
<text text-anchor="middle" x="1090.49" y="-446.63" font-family="Times,serif" font-size="14.00">32769:49152</text>
</g>
<!-- 43677&#45;&gt;43683 -->
<g id="edge14" class="edge">
<title>43677&#45;&gt;43683</title>
<path fill="none" stroke="black" stroke-width="2" d="M1047.23,-435.14C1023.16,-423.07 993.03,-407.97 967.66,-395.25"/>
<polygon fill="black" stroke="black" stroke-width="2" points="969.06,-392.03 958.55,-390.68 965.92,-398.29 969.06,-392.03"/>
</g>
<!-- 43683&#45;&gt;43686 -->
<g id="edge16" class="edge">
<title>43683&#45;&gt;43686</title>
<path fill="none" stroke="red" stroke-width="2" d="M861.86,-348.27C819.26,-333.32 760.04,-312.54 717.8,-297.71"/>
<polygon fill="red" stroke="red" stroke-width="2" points="718.85,-294.37 708.25,-294.36 716.53,-300.97 718.85,-294.37"/>
</g>
<!-- 43681 -->
<g id="node17" class="node">
<title>43681</title>
<ellipse fill="none" stroke="black" stroke-width="2" cx="434.49" cy="-457.83" rx="84.71" ry="26.74"/>
<text text-anchor="middle" x="434.49" y="-461.63" font-family="Times,serif" font-size="14.00">sort</text>
<text text-anchor="middle" x="434.49" y="-446.63" font-family="Times,serif" font-size="14.00">98305:100000</text>
</g>
<!-- 43681&#45;&gt;43685 -->
<g id="edge15" class="edge">
<title>43681&#45;&gt;43685</title>
<path fill="none" stroke="black" stroke-width="2" d="M434.49,-430.51C434.49,-422.54 434.49,-413.65 434.49,-405.16"/>
<polygon fill="black" stroke="black" stroke-width="2" points="437.99,-405.09 434.49,-395.09 430.99,-405.09 437.99,-405.09"/>
</g>
</g>
</svg>
