<?xml version="1.0" encoding="UTF-8" standalone="no"?>
<!DOCTYPE svg PUBLIC "-//W3C//DTD SVG 1.1//EN"
 "http://www.w3.org/Graphics/SVG/1.1/DTD/svg11.dtd">
<!-- Generated by graphviz version 2.50.0 (20211204.2007)
 -->
<!-- Title: dag Pages: 1 -->
<svg width="1177pt" height="403pt"
 viewBox="0.00 0.00 1176.89 402.96" xmlns="http://www.w3.org/2000/svg" xmlns:xlink="http://www.w3.org/1999/xlink">
<g id="graph0" class="graph" transform="scale(1 1) rotate(0) translate(4 398.96)">
<title>dag</title>
<polygon fill="white" stroke="transparent" points="-4,4 -4,-398.96 1172.89,-398.96 1172.89,4 -4,4"/>
<!-- 21762 -->
<g id="node1" class="node">
<title>21762</title>
<ellipse fill="none" stroke="red" stroke-width="2" cx="702.85" cy="-188.61" rx="53.07" ry="26.74"/>
<text text-anchor="middle" x="702.85" y="-192.41" font-family="Times,serif" font-size="14.00">merge</text>
<text text-anchor="middle" x="702.85" y="-177.41" font-family="Times,serif" font-size="14.00">1:65536</text>
</g>
<!-- 21764 -->
<g id="node5" class="node">
<title>21764</title>
<ellipse fill="none" stroke="red" stroke-width="2" cx="440.85" cy="-98.87" rx="59.29" ry="26.74"/>
<text text-anchor="middle" x="440.85" y="-102.67" font-family="Times,serif" font-size="14.00">merge</text>
<text text-anchor="middle" x="440.85" y="-87.67" font-family="Times,serif" font-size="14.00">1:100000</text>
</g>
<!-- 21762&#45;&gt;21764 -->
<g id="edge4" class="edge">
<title>21762&#45;&gt;21764</title>
<path fill="none" stroke="red" stroke-width="2" d="M659.29,-173.02C614.92,-158.16 545.9,-135.05 497.34,-118.79"/>
<polygon fill="red" stroke="red" stroke-width="2" points="498.21,-115.39 487.61,-115.53 495.98,-122.02 498.21,-115.39"/>
</g>
<!-- 21759 -->
<g id="node2" class="node">
<title>21759</title>
<ellipse fill="none" stroke="red" stroke-width="2" cx="702.85" cy="-278.35" rx="78.48" ry="26.74"/>
<text text-anchor="middle" x="702.85" y="-282.15" font-family="Times,serif" font-size="14.00">merge</text>
<text text-anchor="middle" x="702.85" y="-267.15" font-family="Times,serif" font-size="14.00">32769:65536</text>
</g>
<!-- 21759&#45;&gt;21762 -->
<g id="edge1" class="edge">
<title>21759&#45;&gt;21762</title>
<path fill="none" stroke="red" stroke-width="2" d="M702.85,-251.03C702.85,-243.06 702.85,-234.17 702.85,-225.68"/>
<polygon fill="red" stroke="red" stroke-width="2" points="706.35,-225.61 702.85,-215.61 699.35,-225.61 706.35,-225.61"/>
</g>
<!-- 21758 -->
<g id="node3" class="node">
<title>21758</title>
<ellipse fill="none" stroke="black" stroke-width="2" cx="965.85" cy="-278.35" rx="53.07" ry="26.74"/>
<text text-anchor="middle" x="965.85" y="-282.15" font-family="Times,serif" font-size="14.00">merge</text>
<text text-anchor="middle" x="965.85" y="-267.15" font-family="Times,serif" font-size="14.00">1:32768</text>
</g>
<!-- 21758&#45;&gt;21762 -->
<g id="edge2" class="edge">
<title>21758&#45;&gt;21762</title>
<path fill="none" stroke="black" stroke-width="2" d="M922.42,-262.86C876.83,-247.65 805.11,-223.72 756.13,-207.38"/>
<polygon fill="black" stroke="black" stroke-width="2" points="756.94,-203.96 746.35,-204.12 754.72,-210.61 756.94,-203.96"/>
</g>
<!-- 21754 -->
<g id="node4" class="node">
<title>21754</title>
<ellipse fill="none" stroke="red" stroke-width="2" cx="615.85" cy="-368.09" rx="78.48" ry="26.74"/>
<text text-anchor="middle" x="615.85" y="-371.89" font-family="Times,serif" font-size="14.00">sort</text>
<text text-anchor="middle" x="615.85" y="-356.89" font-family="Times,serif" font-size="14.00">49153:65536</text>
</g>
<!-- 21754&#45;&gt;21759 -->
<g id="edge9" class="edge">
<title>21754&#45;&gt;21759</title>
<path fill="none" stroke="red" stroke-width="2" d="M640.55,-342.18C650.09,-332.56 661.13,-321.43 671.23,-311.24"/>
<polygon fill="red" stroke="red" stroke-width="2" points="673.84,-313.58 678.39,-304.02 668.87,-308.65 673.84,-313.58"/>
</g>
<!-- 21765 -->
<g id="node7" class="node">
<title>21765</title>
<ellipse fill="none" stroke="red" stroke-width="2" cx="440.85" cy="-18" rx="38.19" ry="18"/>
<text text-anchor="middle" x="440.85" y="-14.3" font-family="Times,serif" font-size="14.00">result</text>
</g>
<!-- 21764&#45;&gt;21765 -->
<g id="edge5" class="edge">
<title>21764&#45;&gt;21765</title>
<path fill="none" stroke="red" stroke-width="2" d="M440.85,-71.61C440.85,-63.51 440.85,-54.57 440.85,-46.39"/>
<polygon fill="red" stroke="red" stroke-width="2" points="444.35,-46.22 440.85,-36.22 437.35,-46.22 444.35,-46.22"/>
</g>
<!-- 21763 -->
<g id="node6" class="node">
<title>21763</title>
<ellipse fill="none" stroke="black" stroke-width="2" cx="353.85" cy="-188.61" rx="84.71" ry="26.74"/>
<text text-anchor="middle" x="353.85" y="-192.41" font-family="Times,serif" font-size="14.00">merge</text>
<text text-anchor="middle" x="353.85" y="-177.41" font-family="Times,serif" font-size="14.00">65537:100000</text>
</g>
<!-- 21763&#45;&gt;21764 -->
<g id="edge3" class="edge">
<title>21763&#45;&gt;21764</title>
<path fill="none" stroke="black" stroke-width="2" d="M378.55,-162.7C388.33,-152.84 399.69,-141.39 410,-130.98"/>
<polygon fill="black" stroke="black" stroke-width="2" points="412.74,-133.2 417.29,-123.63 407.77,-128.27 412.74,-133.2"/>
</g>
<!-- 21752 -->
<g id="node8" class="node">
<title>21752</title>
<ellipse fill="none" stroke="black" stroke-width="2" cx="965.85" cy="-368.09" rx="78.48" ry="26.74"/>
<text text-anchor="middle" x="965.85" y="-371.89" font-family="Times,serif" font-size="14.00">sort</text>
<text text-anchor="middle" x="965.85" y="-356.89" font-family="Times,serif" font-size="14.00">16385:32768</text>
</g>
<!-- 21752&#45;&gt;21758 -->
<g id="edge6" class="edge">
<title>21752&#45;&gt;21758</title>
<path fill="none" stroke="black" stroke-width="2" d="M965.85,-340.77C965.85,-332.8 965.85,-323.91 965.85,-315.42"/>
<polygon fill="black" stroke="black" stroke-width="2" points="969.35,-315.35 965.85,-305.35 962.35,-315.35 969.35,-315.35"/>
</g>
<!-- 21751 -->
<g id="node9" class="node">
<title>21751</title>
<ellipse fill="none" stroke="black" stroke-width="2" cx="1115.85" cy="-368.09" rx="53.07" ry="26.74"/>
<text text-anchor="middle" x="1115.85" y="-371.89" font-family="Times,serif" font-size="14.00">sort</text>
<text text-anchor="middle" x="1115.85" y="-356.89" font-family="Times,serif" font-size="14.00">1:16384</text>
</g>
<!-- 21751&#45;&gt;21758 -->
<g id="edge7" class="edge">
<title>21751&#45;&gt;21758</title>
<path fill="none" stroke="black" stroke-width="2" d="M1081.82,-347.18C1060.05,-334.45 1031.64,-317.83 1008.39,-304.23"/>
<polygon fill="black" stroke="black" stroke-width="2" points="1010.15,-301.21 999.76,-299.18 1006.62,-307.25 1010.15,-301.21"/>
</g>
<!-- 21757 -->
<g id="node10" class="node">
<title>21757</title>
<ellipse fill="none" stroke="black" stroke-width="2" cx="84.85" cy="-368.09" rx="84.71" ry="26.74"/>
<text text-anchor="middle" x="84.85" y="-371.89" font-family="Times,serif" font-size="14.00">sort</text>
<text text-anchor="middle" x="84.85" y="-356.89" font-family="Times,serif" font-size="14.00">98305:100000</text>
</g>
<!-- 21761 -->
<g id="node11" class="node">
<title>21761</title>
<ellipse fill="none" stroke="black" stroke-width="2" cx="128.85" cy="-278.35" rx="84.71" ry="26.74"/>
<text text-anchor="middle" x="128.85" y="-282.15" font-family="Times,serif" font-size="14.00">copy</text>
<text text-anchor="middle" x="128.85" y="-267.15" font-family="Times,serif" font-size="14.00">98305:100000</text>
</g>
<!-- 21757&#45;&gt;21761 -->
<g id="edge8" class="edge">
<title>21757&#45;&gt;21761</title>
<path fill="none" stroke="black" stroke-width="2" d="M97.82,-341.24C102.07,-332.76 106.87,-323.2 111.39,-314.16"/>
<polygon fill="black" stroke="black" stroke-width="2" points="114.63,-315.52 115.98,-305.02 108.37,-312.39 114.63,-315.52"/>
</g>
<!-- 21761&#45;&gt;21763 -->
<g id="edge11" class="edge">
<title>21761&#45;&gt;21763</title>
<path fill="none" stroke="black" stroke-width="2" d="M181.04,-257C214.14,-244.09 257.15,-227.32 291.97,-213.74"/>
<polygon fill="black" stroke="black" stroke-width="2" points="293.52,-216.9 301.56,-210 290.97,-210.37 293.52,-216.9"/>
</g>
<!-- 21753 -->
<g id="node12" class="node">
<title>21753</title>
<ellipse fill="none" stroke="black" stroke-width="2" cx="790.85" cy="-368.09" rx="78.48" ry="26.74"/>
<text text-anchor="middle" x="790.85" y="-371.89" font-family="Times,serif" font-size="14.00">sort</text>
<text text-anchor="middle" x="790.85" y="-356.89" font-family="Times,serif" font-size="14.00">32769:49152</text>
</g>
<!-- 21753&#45;&gt;21759 -->
<g id="edge10" class="edge">
<title>21753&#45;&gt;21759</title>
<path fill="none" stroke="black" stroke-width="2" d="M765.87,-342.18C756.22,-332.56 745.06,-321.43 734.84,-311.24"/>
<polygon fill="black" stroke="black" stroke-width="2" points="737.15,-308.6 727.59,-304.02 732.2,-313.56 737.15,-308.6"/>
</g>
<!-- 21755 -->
<g id="node13" class="node">
<title>21755</title>
<ellipse fill="none" stroke="black" stroke-width="2" cx="265.85" cy="-368.09" rx="78.48" ry="26.74"/>
<text text-anchor="middle" x="265.85" y="-371.89" font-family="Times,serif" font-size="14.00">sort</text>
<text text-anchor="middle" x="265.85" y="-356.89" font-family="Times,serif" font-size="14.00">65537:81920</text>
</g>
<!-- 21760 -->
<g id="node14" class="node">
<title>21760</title>
<ellipse fill="none" stroke="black" stroke-width="2" cx="353.85" cy="-278.35" rx="78.48" ry="26.74"/>
<text text-anchor="middle" x="353.85" y="-282.15" font-family="Times,serif" font-size="14.00">merge</text>
<text text-anchor="middle" x="353.85" y="-267.15" font-family="Times,serif" font-size="14.00">65537:98304</text>
</g>
<!-- 21755&#45;&gt;21760 -->
<g id="edge13" class="edge">
<title>21755&#45;&gt;21760</title>
<path fill="none" stroke="black" stroke-width="2" d="M290.83,-342.18C300.48,-332.56 311.65,-321.43 321.87,-311.24"/>
<polygon fill="black" stroke="black" stroke-width="2" points="324.5,-313.56 329.11,-304.02 319.56,-308.6 324.5,-313.56"/>
</g>
<!-- 21760&#45;&gt;21763 -->
<g id="edge12" class="edge">
<title>21760&#45;&gt;21763</title>
<path fill="none" stroke="black" stroke-width="2" d="M353.85,-251.03C353.85,-243.06 353.85,-234.17 353.85,-225.68"/>
<polygon fill="black" stroke="black" stroke-width="2" points="357.35,-225.61 353.85,-215.61 350.35,-225.61 357.35,-225.61"/>
</g>
<!-- 21756 -->
<g id="node15" class="node">
<title>21756</title>
<ellipse fill="none" stroke="black" stroke-width="2" cx="440.85" cy="-368.09" rx="78.48" ry="26.74"/>
<text text-anchor="middle" x="440.85" y="-371.89" font-family="Times,serif" font-size="14.00">sort</text>
<text text-anchor="middle" x="440.85" y="-356.89" font-family="Times,serif" font-size="14.00">81921:98304</text>
</g>
<!-- 21756&#45;&gt;21760 -->
<g id="edge14" class="edge">
<title>21756&#45;&gt;21760</title>
<path fill="none" stroke="black" stroke-width="2" d="M416.15,-342.18C406.61,-332.56 395.58,-321.43 385.47,-311.24"/>
<polygon fill="black" stroke="black" stroke-width="2" points="387.84,-308.65 378.31,-304.02 382.87,-313.58 387.84,-308.65"/>
</g>
</g>
</svg>
