<?xml version="1.0" encoding="UTF-8" standalone="no"?>
<!DOCTYPE svg PUBLIC "-//W3C//DTD SVG 1.1//EN"
 "http://www.w3.org/Graphics/SVG/1.1/DTD/svg11.dtd">
<!-- Generated by graphviz version 2.50.0 (20211204.2007)
 -->
<!-- Title: dag Pages: 1 -->
<svg width="1177pt" height="493pt"
 viewBox="0.00 0.00 1176.98 492.70" xmlns="http://www.w3.org/2000/svg" xmlns:xlink="http://www.w3.org/1999/xlink">
<g id="graph0" class="graph" transform="scale(1 1) rotate(0) translate(4 488.7)">
<title>dag</title>
<polygon fill="white" stroke="transparent" points="-4,4 -4,-488.7 1172.98,-488.7 1172.98,4 -4,4"/>
<!-- 23503 -->
<g id="node1" class="node">
<title>23503</title>
<ellipse fill="none" stroke="red" stroke-width="2" cx="656.49" cy="-188.61" rx="59.29" ry="26.74"/>
<text text-anchor="middle" x="656.49" y="-192.41" font-family="Times,serif" font-size="14.00">split</text>
<text text-anchor="middle" x="656.49" y="-177.41" font-family="Times,serif" font-size="14.00">1:100000</text>
</g>
<!-- 23505 -->
<g id="node10" class="node">
<title>23505</title>
<ellipse fill="none" stroke="black" stroke-width="2" cx="588.49" cy="-98.87" rx="59.29" ry="26.74"/>
<text text-anchor="middle" x="588.49" y="-102.67" font-family="Times,serif" font-size="14.00">merge B</text>
<text text-anchor="middle" x="588.49" y="-87.67" font-family="Times,serif" font-size="14.00">1:100000</text>
</g>
<!-- 23503&#45;&gt;23505 -->
<g id="edge7" class="edge">
<title>23503&#45;&gt;23505</title>
<path fill="none" stroke="black" stroke-width="2" d="M637.18,-162.7C629.95,-153.36 621.6,-142.6 613.9,-132.65"/>
<polygon fill="black" stroke="black" stroke-width="2" points="616.5,-130.3 607.61,-124.54 610.97,-134.58 616.5,-130.3"/>
</g>
<!-- 23504 -->
<g id="node16" class="node">
<title>23504</title>
<ellipse fill="none" stroke="red" stroke-width="2" cx="725.49" cy="-98.87" rx="59.29" ry="26.74"/>
<text text-anchor="middle" x="725.49" y="-102.67" font-family="Times,serif" font-size="14.00">merge A</text>
<text text-anchor="middle" x="725.49" y="-87.67" font-family="Times,serif" font-size="14.00">1:100000</text>
</g>
<!-- 23503&#45;&gt;23504 -->
<g id="edge15" class="edge">
<title>23503&#45;&gt;23504</title>
<path fill="none" stroke="red" stroke-width="2" d="M675.71,-163.17C683.2,-153.65 691.89,-142.59 699.9,-132.41"/>
<polygon fill="red" stroke="red" stroke-width="2" points="702.7,-134.51 706.13,-124.48 697.2,-130.18 702.7,-134.51"/>
</g>
<!-- 23501 -->
<g id="node2" class="node">
<title>23501</title>
<ellipse fill="none" stroke="red" stroke-width="2" cx="503.49" cy="-278.35" rx="53.07" ry="26.74"/>
<text text-anchor="middle" x="503.49" y="-282.15" font-family="Times,serif" font-size="14.00">merge</text>
<text text-anchor="middle" x="503.49" y="-267.15" font-family="Times,serif" font-size="14.00">1:65536</text>
</g>
<!-- 23501&#45;&gt;23503 -->
<g id="edge1" class="edge">
<title>23501&#45;&gt;23503</title>
<path fill="none" stroke="red" stroke-width="2" d="M537.83,-257.66C559.7,-245.12 588.26,-228.74 611.88,-215.19"/>
<polygon fill="red" stroke="red" stroke-width="2" points="613.74,-218.16 620.67,-210.15 610.26,-212.09 613.74,-218.16"/>
</g>
<!-- 23502 -->
<g id="node3" class="node">
<title>23502</title>
<ellipse fill="none" stroke="black" stroke-width="2" cx="734.49" cy="-278.35" rx="84.71" ry="26.74"/>
<text text-anchor="middle" x="734.49" y="-282.15" font-family="Times,serif" font-size="14.00">merge</text>
<text text-anchor="middle" x="734.49" y="-267.15" font-family="Times,serif" font-size="14.00">65537:100000</text>
</g>
<!-- 23502&#45;&gt;23503 -->
<g id="edge2" class="edge">
<title>23502&#45;&gt;23503</title>
<path fill="none" stroke="black" stroke-width="2" d="M711.93,-251.97C703.39,-242.37 693.58,-231.33 684.6,-221.23"/>
<polygon fill="black" stroke="black" stroke-width="2" points="687.19,-218.87 677.93,-213.73 681.96,-223.52 687.19,-218.87"/>
</g>
<!-- 23491 -->
<g id="node4" class="node">
<title>23491</title>
<ellipse fill="none" stroke="red" stroke-width="2" cx="428.49" cy="-457.83" rx="78.48" ry="26.74"/>
<text text-anchor="middle" x="428.49" y="-461.63" font-family="Times,serif" font-size="14.00">sort</text>
<text text-anchor="middle" x="428.49" y="-446.63" font-family="Times,serif" font-size="14.00">16385:32768</text>
</g>
<!-- 23497 -->
<g id="node12" class="node">
<title>23497</title>
<ellipse fill="none" stroke="red" stroke-width="2" cx="503.49" cy="-368.09" rx="53.07" ry="26.74"/>
<text text-anchor="middle" x="503.49" y="-371.89" font-family="Times,serif" font-size="14.00">merge</text>
<text text-anchor="middle" x="503.49" y="-356.89" font-family="Times,serif" font-size="14.00">1:32768</text>
</g>
<!-- 23491&#45;&gt;23497 -->
<g id="edge9" class="edge">
<title>23491&#45;&gt;23497</title>
<path fill="none" stroke="red" stroke-width="2" d="M449.78,-431.92C458.06,-422.23 467.65,-411.02 476.42,-400.76"/>
<polygon fill="red" stroke="red" stroke-width="2" points="479.08,-403.03 482.92,-393.15 473.76,-398.48 479.08,-403.03"/>
</g>
<!-- 23492 -->
<g id="node5" class="node">
<title>23492</title>
<ellipse fill="none" stroke="black" stroke-width="2" cx="78.49" cy="-457.83" rx="78.48" ry="26.74"/>
<text text-anchor="middle" x="78.49" y="-461.63" font-family="Times,serif" font-size="14.00">sort</text>
<text text-anchor="middle" x="78.49" y="-446.63" font-family="Times,serif" font-size="14.00">32769:49152</text>
</g>
<!-- 23498 -->
<g id="node6" class="node">
<title>23498</title>
<ellipse fill="none" stroke="black" stroke-width="2" cx="253.49" cy="-368.09" rx="78.48" ry="26.74"/>
<text text-anchor="middle" x="253.49" y="-371.89" font-family="Times,serif" font-size="14.00">merge</text>
<text text-anchor="middle" x="253.49" y="-356.89" font-family="Times,serif" font-size="14.00">32769:65536</text>
</g>
<!-- 23492&#45;&gt;23498 -->
<g id="edge4" class="edge">
<title>23492&#45;&gt;23498</title>
<path fill="none" stroke="black" stroke-width="2" d="M121.75,-435.14C145.82,-423.07 175.95,-407.97 201.31,-395.25"/>
<polygon fill="black" stroke="black" stroke-width="2" points="203.05,-398.29 210.43,-390.68 199.92,-392.03 203.05,-398.29"/>
</g>
<!-- 23498&#45;&gt;23501 -->
<g id="edge11" class="edge">
<title>23498&#45;&gt;23501</title>
<path fill="none" stroke="black" stroke-width="2" d="M307.12,-348.27C349.71,-333.32 408.93,-312.54 451.18,-297.71"/>
<polygon fill="black" stroke="black" stroke-width="2" points="452.45,-300.97 460.73,-294.36 450.13,-294.37 452.45,-300.97"/>
</g>
<!-- 23493 -->
<g id="node7" class="node">
<title>23493</title>
<ellipse fill="none" stroke="black" stroke-width="2" cx="253.49" cy="-457.83" rx="78.48" ry="26.74"/>
<text text-anchor="middle" x="253.49" y="-461.63" font-family="Times,serif" font-size="14.00">sort</text>
<text text-anchor="middle" x="253.49" y="-446.63" font-family="Times,serif" font-size="14.00">49153:65536</text>
</g>
<!-- 23493&#45;&gt;23498 -->
<g id="edge3" class="edge">
<title>23493&#45;&gt;23498</title>
<path fill="none" stroke="black" stroke-width="2" d="M253.49,-430.51C253.49,-422.54 253.49,-413.65 253.49,-405.16"/>
<polygon fill="black" stroke="black" stroke-width="2" points="256.99,-405.09 253.49,-395.09 249.99,-405.09 256.99,-405.09"/>
</g>
<!-- 23500 -->
<g id="node8" class="node">
<title>23500</title>
<ellipse fill="none" stroke="black" stroke-width="2" cx="734.49" cy="-368.09" rx="84.71" ry="26.74"/>
<text text-anchor="middle" x="734.49" y="-371.89" font-family="Times,serif" font-size="14.00">copy</text>
<text text-anchor="middle" x="734.49" y="-356.89" font-family="Times,serif" font-size="14.00">98305:100000</text>
</g>
<!-- 23500&#45;&gt;23502 -->
<g id="edge5" class="edge">
<title>23500&#45;&gt;23502</title>
<path fill="none" stroke="black" stroke-width="2" d="M734.49,-340.77C734.49,-332.8 734.49,-323.91 734.49,-315.42"/>
<polygon fill="black" stroke="black" stroke-width="2" points="737.99,-315.35 734.49,-305.35 730.99,-315.35 737.99,-315.35"/>
</g>
<!-- 23499 -->
<g id="node9" class="node">
<title>23499</title>
<ellipse fill="none" stroke="black" stroke-width="2" cx="915.49" cy="-368.09" rx="78.48" ry="26.74"/>
<text text-anchor="middle" x="915.49" y="-371.89" font-family="Times,serif" font-size="14.00">merge</text>
<text text-anchor="middle" x="915.49" y="-356.89" font-family="Times,serif" font-size="14.00">65537:98304</text>
</g>
<!-- 23499&#45;&gt;23502 -->
<g id="edge6" class="edge">
<title>23499&#45;&gt;23502</title>
<path fill="none" stroke="black" stroke-width="2" d="M871.21,-345.63C846.31,-333.56 815.02,-318.39 788.67,-305.61"/>
<polygon fill="black" stroke="black" stroke-width="2" points="790.09,-302.41 779.57,-301.2 787.04,-308.71 790.09,-302.41"/>
</g>
<!-- 23506 -->
<g id="node15" class="node">
<title>23506</title>
<ellipse fill="none" stroke="red" stroke-width="2" cx="656.49" cy="-18" rx="38.19" ry="18"/>
<text text-anchor="middle" x="656.49" y="-14.3" font-family="Times,serif" font-size="14.00">result</text>
</g>
<!-- 23505&#45;&gt;23506 -->
<g id="edge14" class="edge">
<title>23505&#45;&gt;23506</title>
<path fill="none" stroke="black" stroke-width="2" d="M609.63,-73.35C618.04,-63.6 627.67,-52.42 636.01,-42.75"/>
<polygon fill="black" stroke="black" stroke-width="2" points="638.78,-44.9 642.66,-35.04 633.48,-40.33 638.78,-44.9"/>
</g>
<!-- 23496 -->
<g id="node11" class="node">
<title>23496</title>
<ellipse fill="none" stroke="black" stroke-width="2" cx="734.49" cy="-457.83" rx="84.71" ry="26.74"/>
<text text-anchor="middle" x="734.49" y="-461.63" font-family="Times,serif" font-size="14.00">sort</text>
<text text-anchor="middle" x="734.49" y="-446.63" font-family="Times,serif" font-size="14.00">98305:100000</text>
</g>
<!-- 23496&#45;&gt;23500 -->
<g id="edge8" class="edge">
<title>23496&#45;&gt;23500</title>
<path fill="none" stroke="black" stroke-width="2" d="M734.49,-430.51C734.49,-422.54 734.49,-413.65 734.49,-405.16"/>
<polygon fill="black" stroke="black" stroke-width="2" points="737.99,-405.09 734.49,-395.09 730.99,-405.09 737.99,-405.09"/>
</g>
<!-- 23497&#45;&gt;23501 -->
<g id="edge12" class="edge">
<title>23497&#45;&gt;23501</title>
<path fill="none" stroke="red" stroke-width="2" d="M503.49,-340.77C503.49,-332.8 503.49,-323.91 503.49,-315.42"/>
<polygon fill="red" stroke="red" stroke-width="2" points="506.99,-315.35 503.49,-305.35 499.99,-315.35 506.99,-315.35"/>
</g>
<!-- 23490 -->
<g id="node13" class="node">
<title>23490</title>
<ellipse fill="none" stroke="black" stroke-width="2" cx="578.49" cy="-457.83" rx="53.07" ry="26.74"/>
<text text-anchor="middle" x="578.49" y="-461.63" font-family="Times,serif" font-size="14.00">sort</text>
<text text-anchor="middle" x="578.49" y="-446.63" font-family="Times,serif" font-size="14.00">1:16384</text>
</g>
<!-- 23490&#45;&gt;23497 -->
<g id="edge10" class="edge">
<title>23490&#45;&gt;23497</title>
<path fill="none" stroke="black" stroke-width="2" d="M557.99,-432.86C549.56,-422.99 539.67,-411.42 530.65,-400.87"/>
<polygon fill="black" stroke="black" stroke-width="2" points="533.12,-398.36 523.96,-393.04 527.8,-402.91 533.12,-398.36"/>
</g>
<!-- 23495 -->
<g id="node14" class="node">
<title>23495</title>
<ellipse fill="none" stroke="black" stroke-width="2" cx="915.49" cy="-457.83" rx="78.48" ry="26.74"/>
<text text-anchor="middle" x="915.49" y="-461.63" font-family="Times,serif" font-size="14.00">sort</text>
<text text-anchor="middle" x="915.49" y="-446.63" font-family="Times,serif" font-size="14.00">81921:98304</text>
</g>
<!-- 23495&#45;&gt;23499 -->
<g id="edge16" class="edge">
<title>23495&#45;&gt;23499</title>
<path fill="none" stroke="black" stroke-width="2" d="M915.49,-430.51C915.49,-422.54 915.49,-413.65 915.49,-405.16"/>
<polygon fill="black" stroke="black" stroke-width="2" points="918.99,-405.09 915.49,-395.09 911.99,-405.09 918.99,-405.09"/>
</g>
<!-- 23504&#45;&gt;23506 -->
<g id="edge13" class="edge">
<title>23504&#45;&gt;23506</title>
<path fill="none" stroke="red" stroke-width="2" d="M704.04,-73.35C695.5,-63.6 685.73,-52.42 677.26,-42.75"/>
<polygon fill="red" stroke="red" stroke-width="2" points="679.74,-40.26 670.52,-35.04 674.47,-44.87 679.74,-40.26"/>
</g>
<!-- 23494 -->
<g id="node17" class="node">
<title>23494</title>
<ellipse fill="none" stroke="black" stroke-width="2" cx="1090.49" cy="-457.83" rx="78.48" ry="26.74"/>
<text text-anchor="middle" x="1090.49" y="-461.63" font-family="Times,serif" font-size="14.00">sort</text>
<text text-anchor="middle" x="1090.49" y="-446.63" font-family="Times,serif" font-size="14.00">65537:81920</text>
</g>
<!-- 23494&#45;&gt;23499 -->
<g id="edge17" class="edge">
<title>23494&#45;&gt;23499</title>
<path fill="none" stroke="black" stroke-width="2" d="M1047.23,-435.14C1023.16,-423.07 993.03,-407.97 967.66,-395.25"/>
<polygon fill="black" stroke="black" stroke-width="2" points="969.06,-392.03 958.55,-390.68 965.92,-398.29 969.06,-392.03"/>
</g>
</g>
</svg>
