<?xml version="1.0" encoding="UTF-8" standalone="no"?>
<!DOCTYPE svg PUBLIC "-//W3C//DTD SVG 1.1//EN"
 "http://www.w3.org/Graphics/SVG/1.1/DTD/svg11.dtd">
<!-- Generated by graphviz version 2.50.0 (20211204.2007)
 -->
<!-- Title: dag Pages: 1 -->
<svg width="661pt" height="764pt"
 viewBox="0.00 0.00 661.19 764.00" xmlns="http://www.w3.org/2000/svg" xmlns:xlink="http://www.w3.org/1999/xlink">
<g id="graph0" class="graph" transform="scale(1 1) rotate(0) translate(4 760)">
<title>dag</title>
<polygon fill="white" stroke="transparent" points="-4,4 -4,-760 657.19,-760 657.19,4 -4,4"/>
<!-- 25540 -->
<g id="node1" class="node">
<title>25540</title>
<ellipse fill="none" stroke="black" stroke-width="2" cx="106.09" cy="-594" rx="51.99" ry="18"/>
<text text-anchor="middle" x="106.09" y="-590.3" font-family="Times,serif" font-size="14.00">ldiv (1,3)</text>
</g>
<!-- 25545 -->
<g id="node3" class="node">
<title>25545</title>
<ellipse fill="none" stroke="black" stroke-width="2" cx="61.09" cy="-450" rx="61.19" ry="18"/>
<text text-anchor="middle" x="61.09" y="-446.3" font-family="Times,serif" font-size="14.00">schur (3,3)</text>
</g>
<!-- 25540&#45;&gt;25545 -->
<g id="edge2" class="edge">
<title>25540&#45;&gt;25545</title>
<path fill="none" stroke="black" stroke-width="2" d="M76.53,-578.97C61.47,-570.1 44.58,-557.06 36.09,-540 26.06,-519.81 34.57,-494.97 44.29,-476.67"/>
<polygon fill="black" stroke="black" stroke-width="2" points="47.46,-478.17 49.39,-467.75 41.39,-474.69 47.46,-478.17"/>
</g>
<!-- 25543 -->
<g id="node7" class="node">
<title>25543</title>
<ellipse fill="none" stroke="black" stroke-width="2" cx="106.09" cy="-522" rx="61.19" ry="18"/>
<text text-anchor="middle" x="106.09" y="-518.3" font-family="Times,serif" font-size="14.00">schur (2,3)</text>
</g>
<!-- 25540&#45;&gt;25543 -->
<g id="edge31" class="edge">
<title>25540&#45;&gt;25543</title>
<path fill="none" stroke="black" stroke-width="2" d="M106.09,-575.7C106.09,-567.98 106.09,-558.71 106.09,-550.11"/>
<polygon fill="black" stroke="black" stroke-width="2" points="109.59,-550.1 106.09,-540.1 102.59,-550.1 109.59,-550.1"/>
</g>
<!-- 25546 -->
<g id="node14" class="node">
<title>25546</title>
<ellipse fill="none" stroke="black" stroke-width="2" cx="372.09" cy="-522" rx="61.19" ry="18"/>
<text text-anchor="middle" x="372.09" y="-518.3" font-family="Times,serif" font-size="14.00">schur (3,4)</text>
</g>
<!-- 25540&#45;&gt;25546 -->
<g id="edge16" class="edge">
<title>25540&#45;&gt;25546</title>
<path fill="none" stroke="black" stroke-width="2" d="M146.21,-582.44C192.06,-570.38 267.34,-550.57 318.26,-537.17"/>
<polygon fill="black" stroke="black" stroke-width="2" points="319.33,-540.51 328.11,-534.58 317.55,-533.74 319.33,-540.51"/>
</g>
<!-- 25538 -->
<g id="node2" class="node">
<title>25538</title>
<ellipse fill="none" stroke="red" stroke-width="2" cx="275.09" cy="-738" rx="53.89" ry="18"/>
<text text-anchor="middle" x="275.09" y="-734.3" font-family="Times,serif" font-size="14.00">chol (1,1)</text>
</g>
<!-- 25538&#45;&gt;25540 -->
<g id="edge1" class="edge">
<title>25538&#45;&gt;25540</title>
<path fill="none" stroke="black" stroke-width="2" d="M256.04,-720.99C225.91,-695.67 167.18,-646.33 132.84,-617.48"/>
<polygon fill="black" stroke="black" stroke-width="2" points="134.99,-614.71 125.08,-610.95 130.49,-620.07 134.99,-614.71"/>
</g>
<!-- 25539 -->
<g id="node10" class="node">
<title>25539</title>
<ellipse fill="none" stroke="red" stroke-width="2" cx="275.09" cy="-666" rx="51.99" ry="18"/>
<text text-anchor="middle" x="275.09" y="-662.3" font-family="Times,serif" font-size="14.00">ldiv (1,2)</text>
</g>
<!-- 25538&#45;&gt;25539 -->
<g id="edge9" class="edge">
<title>25538&#45;&gt;25539</title>
<path fill="none" stroke="red" stroke-width="2" d="M275.09,-719.7C275.09,-711.98 275.09,-702.71 275.09,-694.11"/>
<polygon fill="red" stroke="red" stroke-width="2" points="278.59,-694.1 275.09,-684.1 271.59,-694.1 278.59,-694.1"/>
</g>
<!-- 25541 -->
<g id="node12" class="node">
<title>25541</title>
<ellipse fill="none" stroke="black" stroke-width="2" cx="495.09" cy="-594" rx="51.99" ry="18"/>
<text text-anchor="middle" x="495.09" y="-590.3" font-family="Times,serif" font-size="14.00">ldiv (1,4)</text>
</g>
<!-- 25538&#45;&gt;25541 -->
<g id="edge14" class="edge">
<title>25538&#45;&gt;25541</title>
<path fill="none" stroke="black" stroke-width="2" d="M298.64,-721.8C338.34,-696.18 418.62,-644.36 463.28,-615.53"/>
<polygon fill="black" stroke="black" stroke-width="2" points="465.22,-618.45 471.72,-610.09 461.42,-612.57 465.22,-618.45"/>
</g>
<!-- 25551 -->
<g id="node8" class="node">
<title>25551</title>
<ellipse fill="none" stroke="black" stroke-width="2" cx="232.09" cy="-378" rx="61.19" ry="18"/>
<text text-anchor="middle" x="232.09" y="-374.3" font-family="Times,serif" font-size="14.00">schur (3,3)</text>
</g>
<!-- 25545&#45;&gt;25551 -->
<g id="edge7" class="edge">
<title>25545&#45;&gt;25551</title>
<path fill="none" stroke="black" stroke-width="2" d="M95.29,-435C122.08,-424.03 159.55,-408.7 188.5,-396.85"/>
<polygon fill="black" stroke="black" stroke-width="2" points="190.03,-400 197.96,-392.97 187.38,-393.52 190.03,-400"/>
</g>
<!-- 25548 -->
<g id="node4" class="node">
<title>25548</title>
<ellipse fill="none" stroke="red" stroke-width="2" cx="239.09" cy="-522" rx="53.89" ry="18"/>
<text text-anchor="middle" x="239.09" y="-518.3" font-family="Times,serif" font-size="14.00">chol (2,2)</text>
</g>
<!-- 25549 -->
<g id="node6" class="node">
<title>25549</title>
<ellipse fill="none" stroke="black" stroke-width="2" cx="236.09" cy="-450" rx="51.99" ry="18"/>
<text text-anchor="middle" x="236.09" y="-446.3" font-family="Times,serif" font-size="14.00">ldiv (2,3)</text>
</g>
<!-- 25548&#45;&gt;25549 -->
<g id="edge4" class="edge">
<title>25548&#45;&gt;25549</title>
<path fill="none" stroke="black" stroke-width="2" d="M238.35,-503.7C238.02,-495.98 237.63,-486.71 237.26,-478.11"/>
<polygon fill="black" stroke="black" stroke-width="2" points="240.75,-477.95 236.83,-468.1 233.76,-478.25 240.75,-477.95"/>
</g>
<!-- 25550 -->
<g id="node13" class="node">
<title>25550</title>
<ellipse fill="none" stroke="red" stroke-width="2" cx="457.09" cy="-450" rx="51.99" ry="18"/>
<text text-anchor="middle" x="457.09" y="-446.3" font-family="Times,serif" font-size="14.00">ldiv (2,4)</text>
</g>
<!-- 25548&#45;&gt;25550 -->
<g id="edge12" class="edge">
<title>25548&#45;&gt;25550</title>
<path fill="none" stroke="red" stroke-width="2" d="M276.57,-508.97C313.68,-497.05 370.6,-478.77 410.58,-465.93"/>
<polygon fill="red" stroke="red" stroke-width="2" points="411.66,-469.27 420.11,-462.88 409.52,-462.6 411.66,-469.27"/>
</g>
<!-- 25542 -->
<g id="node5" class="node">
<title>25542</title>
<ellipse fill="none" stroke="red" stroke-width="2" cx="275.09" cy="-594" rx="61.19" ry="18"/>
<text text-anchor="middle" x="275.09" y="-590.3" font-family="Times,serif" font-size="14.00">schur (2,2)</text>
</g>
<!-- 25542&#45;&gt;25548 -->
<g id="edge3" class="edge">
<title>25542&#45;&gt;25548</title>
<path fill="none" stroke="red" stroke-width="2" d="M266.38,-576.05C262.18,-567.89 257.05,-557.91 252.38,-548.82"/>
<polygon fill="red" stroke="red" stroke-width="2" points="255.41,-547.08 247.73,-539.79 249.19,-550.28 255.41,-547.08"/>
</g>
<!-- 25549&#45;&gt;25551 -->
<g id="edge6" class="edge">
<title>25549&#45;&gt;25551</title>
<path fill="none" stroke="black" stroke-width="2" d="M235.11,-431.7C234.67,-423.98 234.14,-414.71 233.64,-406.11"/>
<polygon fill="black" stroke="black" stroke-width="2" points="237.14,-405.89 233.07,-396.1 230.15,-406.29 237.14,-405.89"/>
</g>
<!-- 25552 -->
<g id="node15" class="node">
<title>25552</title>
<ellipse fill="none" stroke="red" stroke-width="2" cx="372.09" cy="-378" rx="61.19" ry="18"/>
<text text-anchor="middle" x="372.09" y="-374.3" font-family="Times,serif" font-size="14.00">schur (3,4)</text>
</g>
<!-- 25549&#45;&gt;25552 -->
<g id="edge17" class="edge">
<title>25549&#45;&gt;25552</title>
<path fill="none" stroke="black" stroke-width="2" d="M263.94,-434.67C284.07,-424.31 311.51,-410.18 333.71,-398.75"/>
<polygon fill="black" stroke="black" stroke-width="2" points="335.58,-401.73 342.87,-394.04 332.38,-395.51 335.58,-401.73"/>
</g>
<!-- 25543&#45;&gt;25549 -->
<g id="edge5" class="edge">
<title>25543&#45;&gt;25549</title>
<path fill="none" stroke="black" stroke-width="2" d="M133.98,-505.98C153.35,-495.56 179.33,-481.57 200.23,-470.31"/>
<polygon fill="black" stroke="black" stroke-width="2" points="202,-473.34 209.14,-465.51 198.68,-467.17 202,-473.34"/>
</g>
<!-- 25554 -->
<g id="node9" class="node">
<title>25554</title>
<ellipse fill="none" stroke="black" stroke-width="2" cx="261.09" cy="-306" rx="53.89" ry="18"/>
<text text-anchor="middle" x="261.09" y="-302.3" font-family="Times,serif" font-size="14.00">chol (3,3)</text>
</g>
<!-- 25551&#45;&gt;25554 -->
<g id="edge8" class="edge">
<title>25551&#45;&gt;25554</title>
<path fill="none" stroke="black" stroke-width="2" d="M239.11,-360.05C242.38,-352.18 246.34,-342.62 249.99,-333.79"/>
<polygon fill="black" stroke="black" stroke-width="2" points="253.34,-334.85 253.94,-324.28 246.88,-332.17 253.34,-334.85"/>
</g>
<!-- 25555 -->
<g id="node16" class="node">
<title>25555</title>
<ellipse fill="none" stroke="red" stroke-width="2" cx="372.09" cy="-234" rx="51.99" ry="18"/>
<text text-anchor="middle" x="372.09" y="-230.3" font-family="Times,serif" font-size="14.00">ldiv (3,4)</text>
</g>
<!-- 25554&#45;&gt;25555 -->
<g id="edge21" class="edge">
<title>25554&#45;&gt;25555</title>
<path fill="none" stroke="black" stroke-width="2" d="M285.18,-289.81C301.03,-279.81 321.99,-266.6 339.35,-255.65"/>
<polygon fill="black" stroke="black" stroke-width="2" points="341.46,-258.45 348.06,-250.16 337.73,-252.53 341.46,-258.45"/>
</g>
<!-- 25539&#45;&gt;25542 -->
<g id="edge26" class="edge">
<title>25539&#45;&gt;25542</title>
<path fill="none" stroke="red" stroke-width="2" d="M275.09,-647.7C275.09,-639.98 275.09,-630.71 275.09,-622.11"/>
<polygon fill="red" stroke="red" stroke-width="2" points="278.59,-622.1 275.09,-612.1 271.59,-622.1 278.59,-622.1"/>
</g>
<!-- 25539&#45;&gt;25543 -->
<g id="edge30" class="edge">
<title>25539&#45;&gt;25543</title>
<path fill="none" stroke="black" stroke-width="2" d="M253.48,-649.59C239.4,-639.32 220.79,-625.31 205.09,-612 187.35,-596.96 184.32,-591.63 167.09,-576 156.08,-566.01 143.73,-555.21 133.04,-545.98"/>
<polygon fill="black" stroke="black" stroke-width="2" points="135.1,-543.13 125.24,-539.26 130.54,-548.44 135.1,-543.13"/>
</g>
<!-- 25544 -->
<g id="node11" class="node">
<title>25544</title>
<ellipse fill="none" stroke="black" stroke-width="2" cx="512.09" cy="-522" rx="61.19" ry="18"/>
<text text-anchor="middle" x="512.09" y="-518.3" font-family="Times,serif" font-size="14.00">schur (2,4)</text>
</g>
<!-- 25539&#45;&gt;25544 -->
<g id="edge11" class="edge">
<title>25539&#45;&gt;25544</title>
<path fill="none" stroke="black" stroke-width="2" d="M300.01,-650.07C342.55,-624.58 429.26,-572.63 477.6,-543.67"/>
<polygon fill="black" stroke="black" stroke-width="2" points="479.66,-546.51 486.44,-538.37 476.06,-540.51 479.66,-546.51"/>
</g>
<!-- 25544&#45;&gt;25550 -->
<g id="edge13" class="edge">
<title>25544&#45;&gt;25550</title>
<path fill="none" stroke="black" stroke-width="2" d="M499.06,-504.41C492.28,-495.78 483.86,-485.06 476.34,-475.5"/>
<polygon fill="black" stroke="black" stroke-width="2" points="478.97,-473.17 470.04,-467.47 473.46,-477.5 478.97,-473.17"/>
</g>
<!-- 25541&#45;&gt;25544 -->
<g id="edge10" class="edge">
<title>25541&#45;&gt;25544</title>
<path fill="none" stroke="black" stroke-width="2" d="M499.21,-576.05C501.1,-568.26 503.39,-558.82 505.52,-550.08"/>
<polygon fill="black" stroke="black" stroke-width="2" points="508.94,-550.82 507.9,-540.28 502.14,-549.17 508.94,-550.82"/>
</g>
<!-- 25541&#45;&gt;25546 -->
<g id="edge15" class="edge">
<title>25541&#45;&gt;25546</title>
<path fill="none" stroke="black" stroke-width="2" d="M469.31,-578.33C451.47,-568.17 427.5,-554.53 407.82,-543.33"/>
<polygon fill="black" stroke="black" stroke-width="2" points="409.55,-540.29 399.12,-538.38 406.08,-546.37 409.55,-540.29"/>
</g>
<!-- 25547 -->
<g id="node19" class="node">
<title>25547</title>
<ellipse fill="none" stroke="black" stroke-width="2" cx="592.09" cy="-450" rx="61.19" ry="18"/>
<text text-anchor="middle" x="592.09" y="-446.3" font-family="Times,serif" font-size="14.00">schur (4,4)</text>
</g>
<!-- 25541&#45;&gt;25547 -->
<g id="edge27" class="edge">
<title>25541&#45;&gt;25547</title>
<path fill="none" stroke="black" stroke-width="2" d="M529.9,-580.62C548.51,-572.13 570.02,-558.94 582.09,-540 593.75,-521.72 595.68,-496.96 595.01,-478.19"/>
<polygon fill="black" stroke="black" stroke-width="2" points="598.51,-477.96 594.4,-468.2 591.52,-478.39 598.51,-477.96"/>
</g>
<!-- 25550&#45;&gt;25552 -->
<g id="edge18" class="edge">
<title>25550&#45;&gt;25552</title>
<path fill="none" stroke="red" stroke-width="2" d="M437.81,-433.12C426.48,-423.78 411.97,-411.84 399.47,-401.55"/>
<polygon fill="red" stroke="red" stroke-width="2" points="401.54,-398.72 391.6,-395.06 397.09,-404.12 401.54,-398.72"/>
</g>
<!-- 25553 -->
<g id="node18" class="node">
<title>25553</title>
<ellipse fill="none" stroke="black" stroke-width="2" cx="512.09" cy="-378" rx="61.19" ry="18"/>
<text text-anchor="middle" x="512.09" y="-374.3" font-family="Times,serif" font-size="14.00">schur (4,4)</text>
</g>
<!-- 25550&#45;&gt;25553 -->
<g id="edge24" class="edge">
<title>25550&#45;&gt;25553</title>
<path fill="none" stroke="black" stroke-width="2" d="M470.13,-432.41C476.81,-423.91 485.09,-413.37 492.52,-403.91"/>
<polygon fill="black" stroke="black" stroke-width="2" points="495.35,-405.98 498.77,-395.96 489.84,-401.66 495.35,-405.98"/>
</g>
<!-- 25546&#45;&gt;25552 -->
<g id="edge19" class="edge">
<title>25546&#45;&gt;25552</title>
<path fill="none" stroke="black" stroke-width="2" d="M372.09,-503.87C372.09,-479.67 372.09,-435.21 372.09,-406.39"/>
<polygon fill="black" stroke="black" stroke-width="2" points="375.59,-406.19 372.09,-396.19 368.59,-406.19 375.59,-406.19"/>
</g>
<!-- 25552&#45;&gt;25555 -->
<g id="edge20" class="edge">
<title>25552&#45;&gt;25555</title>
<path fill="none" stroke="red" stroke-width="2" d="M372.09,-359.87C372.09,-335.67 372.09,-291.21 372.09,-262.39"/>
<polygon fill="red" stroke="red" stroke-width="2" points="375.59,-262.19 372.09,-252.19 368.59,-262.19 375.59,-262.19"/>
</g>
<!-- 25556 -->
<g id="node17" class="node">
<title>25556</title>
<ellipse fill="none" stroke="red" stroke-width="2" cx="412.09" cy="-162" rx="61.19" ry="18"/>
<text text-anchor="middle" x="412.09" y="-158.3" font-family="Times,serif" font-size="14.00">schur (4,4)</text>
</g>
<!-- 25555&#45;&gt;25556 -->
<g id="edge22" class="edge">
<title>25555&#45;&gt;25556</title>
<path fill="none" stroke="red" stroke-width="2" d="M381.78,-216.05C386.49,-207.8 392.27,-197.7 397.5,-188.54"/>
<polygon fill="red" stroke="red" stroke-width="2" points="400.58,-190.21 402.5,-179.79 394.5,-186.73 400.58,-190.21"/>
</g>
<!-- 25557 -->
<g id="node20" class="node">
<title>25557</title>
<ellipse fill="none" stroke="red" stroke-width="2" cx="412.09" cy="-90" rx="53.89" ry="18"/>
<text text-anchor="middle" x="412.09" y="-86.3" font-family="Times,serif" font-size="14.00">chol (4,4)</text>
</g>
<!-- 25556&#45;&gt;25557 -->
<g id="edge28" class="edge">
<title>25556&#45;&gt;25557</title>
<path fill="none" stroke="red" stroke-width="2" d="M412.09,-143.7C412.09,-135.98 412.09,-126.71 412.09,-118.11"/>
<polygon fill="red" stroke="red" stroke-width="2" points="415.59,-118.1 412.09,-108.1 408.59,-118.1 415.59,-118.1"/>
</g>
<!-- 25553&#45;&gt;25556 -->
<g id="edge23" class="edge">
<title>25553&#45;&gt;25556</title>
<path fill="none" stroke="black" stroke-width="2" d="M504.08,-359.85C486.63,-322.5 445.1,-233.63 424.34,-189.21"/>
<polygon fill="black" stroke="black" stroke-width="2" points="427.41,-187.51 420.01,-179.94 421.07,-190.48 427.41,-187.51"/>
</g>
<!-- 25547&#45;&gt;25553 -->
<g id="edge25" class="edge">
<title>25547&#45;&gt;25553</title>
<path fill="none" stroke="black" stroke-width="2" d="M573.54,-432.76C563.11,-423.64 549.93,-412.1 538.45,-402.06"/>
<polygon fill="black" stroke="black" stroke-width="2" points="540.66,-399.34 530.83,-395.39 536.05,-404.61 540.66,-399.34"/>
</g>
<!-- 25558 -->
<g id="node21" class="node">
<title>25558</title>
<ellipse fill="none" stroke="red" stroke-width="2" cx="412.09" cy="-18" rx="38.19" ry="18"/>
<text text-anchor="middle" x="412.09" y="-14.3" font-family="Times,serif" font-size="14.00">result</text>
</g>
<!-- 25557&#45;&gt;25558 -->
<g id="edge29" class="edge">
<title>25557&#45;&gt;25558</title>
<path fill="none" stroke="red" stroke-width="2" d="M412.09,-71.7C412.09,-63.98 412.09,-54.71 412.09,-46.11"/>
<polygon fill="red" stroke="red" stroke-width="2" points="415.59,-46.1 412.09,-36.1 408.59,-46.1 415.59,-46.1"/>
</g>
</g>
</svg>
