<?xml version="1.0" encoding="UTF-8" standalone="no"?>
<!DOCTYPE svg PUBLIC "-//W3C//DTD SVG 1.1//EN"
 "http://www.w3.org/Graphics/SVG/1.1/DTD/svg11.dtd">
<!-- Generated by graphviz version 2.50.0 (20211204.2007)
 -->
<!-- Title: dag Pages: 1 -->
<svg width="1177pt" height="403pt"
 viewBox="0.00 0.00 1176.98 402.96" xmlns="http://www.w3.org/2000/svg" xmlns:xlink="http://www.w3.org/1999/xlink">
<g id="graph0" class="graph" transform="scale(1 1) rotate(0) translate(4 398.96)">
<title>dag</title>
<polygon fill="white" stroke="transparent" points="-4,4 -4,-398.96 1172.98,-398.96 1172.98,4 -4,4"/>
<!-- 40379 -->
<g id="node1" class="node">
<title>40379</title>
<ellipse fill="none" stroke="black" stroke-width="2" cx="734.49" cy="-188.61" rx="84.71" ry="26.74"/>
<text text-anchor="middle" x="734.49" y="-192.41" font-family="Times,serif" font-size="14.00">merge</text>
<text text-anchor="middle" x="734.49" y="-177.41" font-family="Times,serif" font-size="14.00">65537:100000</text>
</g>
<!-- 40380 -->
<g id="node12" class="node">
<title>40380</title>
<ellipse fill="none" stroke="red" stroke-width="2" cx="656.49" cy="-98.87" rx="59.29" ry="26.74"/>
<text text-anchor="middle" x="656.49" y="-102.67" font-family="Times,serif" font-size="14.00">merge</text>
<text text-anchor="middle" x="656.49" y="-87.67" font-family="Times,serif" font-size="14.00">1:100000</text>
</g>
<!-- 40379&#45;&gt;40380 -->
<g id="edge9" class="edge">
<title>40379&#45;&gt;40380</title>
<path fill="none" stroke="black" stroke-width="2" d="M711.93,-162.23C703.39,-152.63 693.58,-141.59 684.6,-131.49"/>
<polygon fill="black" stroke="black" stroke-width="2" points="687.19,-129.13 677.93,-123.99 681.96,-133.78 687.19,-129.13"/>
</g>
<!-- 40377 -->
<g id="node2" class="node">
<title>40377</title>
<ellipse fill="none" stroke="black" stroke-width="2" cx="734.49" cy="-278.35" rx="84.71" ry="26.74"/>
<text text-anchor="middle" x="734.49" y="-282.15" font-family="Times,serif" font-size="14.00">copy</text>
<text text-anchor="middle" x="734.49" y="-267.15" font-family="Times,serif" font-size="14.00">98305:100000</text>
</g>
<!-- 40377&#45;&gt;40379 -->
<g id="edge1" class="edge">
<title>40377&#45;&gt;40379</title>
<path fill="none" stroke="black" stroke-width="2" d="M734.49,-251.03C734.49,-243.06 734.49,-234.17 734.49,-225.68"/>
<polygon fill="black" stroke="black" stroke-width="2" points="737.99,-225.61 734.49,-215.61 730.99,-225.61 737.99,-225.61"/>
</g>
<!-- 40376 -->
<g id="node3" class="node">
<title>40376</title>
<ellipse fill="none" stroke="black" stroke-width="2" cx="915.49" cy="-278.35" rx="78.48" ry="26.74"/>
<text text-anchor="middle" x="915.49" y="-282.15" font-family="Times,serif" font-size="14.00">merge</text>
<text text-anchor="middle" x="915.49" y="-267.15" font-family="Times,serif" font-size="14.00">65537:98304</text>
</g>
<!-- 40376&#45;&gt;40379 -->
<g id="edge2" class="edge">
<title>40376&#45;&gt;40379</title>
<path fill="none" stroke="black" stroke-width="2" d="M871.21,-255.89C846.31,-243.81 815.02,-228.65 788.67,-215.87"/>
<polygon fill="black" stroke="black" stroke-width="2" points="790.09,-212.67 779.57,-211.46 787.04,-218.97 790.09,-212.67"/>
</g>
<!-- 40378 -->
<g id="node4" class="node">
<title>40378</title>
<ellipse fill="none" stroke="red" stroke-width="2" cx="503.49" cy="-188.61" rx="53.07" ry="26.74"/>
<text text-anchor="middle" x="503.49" y="-192.41" font-family="Times,serif" font-size="14.00">merge</text>
<text text-anchor="middle" x="503.49" y="-177.41" font-family="Times,serif" font-size="14.00">1:65536</text>
</g>
<!-- 40378&#45;&gt;40380 -->
<g id="edge10" class="edge">
<title>40378&#45;&gt;40380</title>
<path fill="none" stroke="red" stroke-width="2" d="M537.83,-167.92C559.7,-155.38 588.26,-139 611.88,-125.45"/>
<polygon fill="red" stroke="red" stroke-width="2" points="613.74,-128.42 620.67,-120.41 610.26,-122.35 613.74,-128.42"/>
</g>
<!-- 40375 -->
<g id="node5" class="node">
<title>40375</title>
<ellipse fill="none" stroke="red" stroke-width="2" cx="253.49" cy="-278.35" rx="78.48" ry="26.74"/>
<text text-anchor="middle" x="253.49" y="-282.15" font-family="Times,serif" font-size="14.00">merge</text>
<text text-anchor="middle" x="253.49" y="-267.15" font-family="Times,serif" font-size="14.00">32769:65536</text>
</g>
<!-- 40375&#45;&gt;40378 -->
<g id="edge3" class="edge">
<title>40375&#45;&gt;40378</title>
<path fill="none" stroke="red" stroke-width="2" d="M307.12,-258.53C349.71,-243.58 408.93,-222.8 451.18,-207.97"/>
<polygon fill="red" stroke="red" stroke-width="2" points="452.45,-211.23 460.73,-204.62 450.13,-204.63 452.45,-211.23"/>
</g>
<!-- 40374 -->
<g id="node6" class="node">
<title>40374</title>
<ellipse fill="none" stroke="black" stroke-width="2" cx="503.49" cy="-278.35" rx="53.07" ry="26.74"/>
<text text-anchor="middle" x="503.49" y="-282.15" font-family="Times,serif" font-size="14.00">merge</text>
<text text-anchor="middle" x="503.49" y="-267.15" font-family="Times,serif" font-size="14.00">1:32768</text>
</g>
<!-- 40374&#45;&gt;40378 -->
<g id="edge4" class="edge">
<title>40374&#45;&gt;40378</title>
<path fill="none" stroke="black" stroke-width="2" d="M503.49,-251.03C503.49,-243.06 503.49,-234.17 503.49,-225.68"/>
<polygon fill="black" stroke="black" stroke-width="2" points="506.99,-225.61 503.49,-215.61 499.99,-225.61 506.99,-225.61"/>
</g>
<!-- 40368 -->
<g id="node7" class="node">
<title>40368</title>
<ellipse fill="none" stroke="black" stroke-width="2" cx="428.49" cy="-368.09" rx="78.48" ry="26.74"/>
<text text-anchor="middle" x="428.49" y="-371.89" font-family="Times,serif" font-size="14.00">sort</text>
<text text-anchor="middle" x="428.49" y="-356.89" font-family="Times,serif" font-size="14.00">16385:32768</text>
</g>
<!-- 40368&#45;&gt;40374 -->
<g id="edge5" class="edge">
<title>40368&#45;&gt;40374</title>
<path fill="none" stroke="black" stroke-width="2" d="M449.78,-342.18C458.06,-332.49 467.65,-321.28 476.42,-311.02"/>
<polygon fill="black" stroke="black" stroke-width="2" points="479.08,-313.29 482.92,-303.41 473.76,-308.74 479.08,-313.29"/>
</g>
<!-- 40367 -->
<g id="node8" class="node">
<title>40367</title>
<ellipse fill="none" stroke="black" stroke-width="2" cx="578.49" cy="-368.09" rx="53.07" ry="26.74"/>
<text text-anchor="middle" x="578.49" y="-371.89" font-family="Times,serif" font-size="14.00">sort</text>
<text text-anchor="middle" x="578.49" y="-356.89" font-family="Times,serif" font-size="14.00">1:16384</text>
</g>
<!-- 40367&#45;&gt;40374 -->
<g id="edge6" class="edge">
<title>40367&#45;&gt;40374</title>
<path fill="none" stroke="black" stroke-width="2" d="M557.99,-343.12C549.56,-333.25 539.67,-321.68 530.65,-311.13"/>
<polygon fill="black" stroke="black" stroke-width="2" points="533.12,-308.62 523.96,-303.3 527.8,-313.17 533.12,-308.62"/>
</g>
<!-- 40369 -->
<g id="node9" class="node">
<title>40369</title>
<ellipse fill="none" stroke="red" stroke-width="2" cx="78.49" cy="-368.09" rx="78.48" ry="26.74"/>
<text text-anchor="middle" x="78.49" y="-371.89" font-family="Times,serif" font-size="14.00">sort</text>
<text text-anchor="middle" x="78.49" y="-356.89" font-family="Times,serif" font-size="14.00">32769:49152</text>
</g>
<!-- 40369&#45;&gt;40375 -->
<g id="edge14" class="edge">
<title>40369&#45;&gt;40375</title>
<path fill="none" stroke="red" stroke-width="2" d="M121.75,-345.4C145.82,-333.33 175.95,-318.23 201.31,-305.51"/>
<polygon fill="red" stroke="red" stroke-width="2" points="203.05,-308.55 210.43,-300.94 199.92,-302.29 203.05,-308.55"/>
</g>
<!-- 40371 -->
<g id="node10" class="node">
<title>40371</title>
<ellipse fill="none" stroke="black" stroke-width="2" cx="915.49" cy="-368.09" rx="78.48" ry="26.74"/>
<text text-anchor="middle" x="915.49" y="-371.89" font-family="Times,serif" font-size="14.00">sort</text>
<text text-anchor="middle" x="915.49" y="-356.89" font-family="Times,serif" font-size="14.00">65537:81920</text>
</g>
<!-- 40371&#45;&gt;40376 -->
<g id="edge7" class="edge">
<title>40371&#45;&gt;40376</title>
<path fill="none" stroke="black" stroke-width="2" d="M915.49,-340.77C915.49,-332.8 915.49,-323.91 915.49,-315.42"/>
<polygon fill="black" stroke="black" stroke-width="2" points="918.99,-315.35 915.49,-305.35 911.99,-315.35 918.99,-315.35"/>
</g>
<!-- 40372 -->
<g id="node11" class="node">
<title>40372</title>
<ellipse fill="none" stroke="black" stroke-width="2" cx="1090.49" cy="-368.09" rx="78.48" ry="26.74"/>
<text text-anchor="middle" x="1090.49" y="-371.89" font-family="Times,serif" font-size="14.00">sort</text>
<text text-anchor="middle" x="1090.49" y="-356.89" font-family="Times,serif" font-size="14.00">81921:98304</text>
</g>
<!-- 40372&#45;&gt;40376 -->
<g id="edge8" class="edge">
<title>40372&#45;&gt;40376</title>
<path fill="none" stroke="black" stroke-width="2" d="M1047.23,-345.4C1023.16,-333.33 993.03,-318.23 967.66,-305.51"/>
<polygon fill="black" stroke="black" stroke-width="2" points="969.06,-302.29 958.55,-300.94 965.92,-308.55 969.06,-302.29"/>
</g>
<!-- 40381 -->
<g id="node13" class="node">
<title>40381</title>
<ellipse fill="none" stroke="red" stroke-width="2" cx="656.49" cy="-18" rx="38.19" ry="18"/>
<text text-anchor="middle" x="656.49" y="-14.3" font-family="Times,serif" font-size="14.00">result</text>
</g>
<!-- 40380&#45;&gt;40381 -->
<g id="edge11" class="edge">
<title>40380&#45;&gt;40381</title>
<path fill="none" stroke="red" stroke-width="2" d="M656.49,-71.61C656.49,-63.51 656.49,-54.57 656.49,-46.39"/>
<polygon fill="red" stroke="red" stroke-width="2" points="659.99,-46.22 656.49,-36.22 652.99,-46.22 659.99,-46.22"/>
</g>
<!-- 40370 -->
<g id="node14" class="node">
<title>40370</title>
<ellipse fill="none" stroke="black" stroke-width="2" cx="253.49" cy="-368.09" rx="78.48" ry="26.74"/>
<text text-anchor="middle" x="253.49" y="-371.89" font-family="Times,serif" font-size="14.00">sort</text>
<text text-anchor="middle" x="253.49" y="-356.89" font-family="Times,serif" font-size="14.00">49153:65536</text>
</g>
<!-- 40370&#45;&gt;40375 -->
<g id="edge13" class="edge">
<title>40370&#45;&gt;40375</title>
<path fill="none" stroke="black" stroke-width="2" d="M253.49,-340.77C253.49,-332.8 253.49,-323.91 253.49,-315.42"/>
<polygon fill="black" stroke="black" stroke-width="2" points="256.99,-315.35 253.49,-305.35 249.99,-315.35 256.99,-315.35"/>
</g>
<!-- 40373 -->
<g id="node15" class="node">
<title>40373</title>
<ellipse fill="none" stroke="black" stroke-width="2" cx="734.49" cy="-368.09" rx="84.71" ry="26.74"/>
<text text-anchor="middle" x="734.49" y="-371.89" font-family="Times,serif" font-size="14.00">sort</text>
<text text-anchor="middle" x="734.49" y="-356.89" font-family="Times,serif" font-size="14.00">98305:100000</text>
</g>
<!-- 40373&#45;&gt;40377 -->
<g id="edge12" class="edge">
<title>40373&#45;&gt;40377</title>
<path fill="none" stroke="black" stroke-width="2" d="M734.49,-340.77C734.49,-332.8 734.49,-323.91 734.49,-315.42"/>
<polygon fill="black" stroke="black" stroke-width="2" points="737.99,-315.35 734.49,-305.35 730.99,-315.35 737.99,-315.35"/>
</g>
</g>
</svg>
