<?xml version="1.0" encoding="UTF-8" standalone="no"?>
<!DOCTYPE svg PUBLIC "-//W3C//DTD SVG 1.1//EN"
 "http://www.w3.org/Graphics/SVG/1.1/DTD/svg11.dtd">
<!-- Generated by graphviz version 2.50.0 (20211204.2007)
 -->
<!-- Title: dag Pages: 1 -->
<svg width="1177pt" height="403pt"
 viewBox="0.00 0.00 1176.98 402.96" xmlns="http://www.w3.org/2000/svg" xmlns:xlink="http://www.w3.org/1999/xlink">
<g id="graph0" class="graph" transform="scale(1 1) rotate(0) translate(4 398.96)">
<title>dag</title>
<polygon fill="white" stroke="transparent" points="-4,4 -4,-398.96 1172.98,-398.96 1172.98,4 -4,4"/>
<!-- 38656 -->
<g id="node1" class="node">
<title>38656</title>
<ellipse fill="none" stroke="black" stroke-width="2" cx="915.49" cy="-278.35" rx="78.48" ry="26.74"/>
<text text-anchor="middle" x="915.49" y="-282.15" font-family="Times,serif" font-size="14.00">merge</text>
<text text-anchor="middle" x="915.49" y="-267.15" font-family="Times,serif" font-size="14.00">65537:98304</text>
</g>
<!-- 38659 -->
<g id="node10" class="node">
<title>38659</title>
<ellipse fill="none" stroke="black" stroke-width="2" cx="734.49" cy="-188.61" rx="84.71" ry="26.74"/>
<text text-anchor="middle" x="734.49" y="-192.41" font-family="Times,serif" font-size="14.00">merge</text>
<text text-anchor="middle" x="734.49" y="-177.41" font-family="Times,serif" font-size="14.00">65537:100000</text>
</g>
<!-- 38656&#45;&gt;38659 -->
<g id="edge6" class="edge">
<title>38656&#45;&gt;38659</title>
<path fill="none" stroke="black" stroke-width="2" d="M871.21,-255.89C846.31,-243.81 815.02,-228.65 788.67,-215.87"/>
<polygon fill="black" stroke="black" stroke-width="2" points="790.09,-212.67 779.57,-211.46 787.04,-218.97 790.09,-212.67"/>
</g>
<!-- 38651 -->
<g id="node2" class="node">
<title>38651</title>
<ellipse fill="none" stroke="black" stroke-width="2" cx="915.49" cy="-368.09" rx="78.48" ry="26.74"/>
<text text-anchor="middle" x="915.49" y="-371.89" font-family="Times,serif" font-size="14.00">sort</text>
<text text-anchor="middle" x="915.49" y="-356.89" font-family="Times,serif" font-size="14.00">65537:81920</text>
</g>
<!-- 38651&#45;&gt;38656 -->
<g id="edge1" class="edge">
<title>38651&#45;&gt;38656</title>
<path fill="none" stroke="black" stroke-width="2" d="M915.49,-340.77C915.49,-332.8 915.49,-323.91 915.49,-315.42"/>
<polygon fill="black" stroke="black" stroke-width="2" points="918.99,-315.35 915.49,-305.35 911.99,-315.35 918.99,-315.35"/>
</g>
<!-- 38652 -->
<g id="node3" class="node">
<title>38652</title>
<ellipse fill="none" stroke="black" stroke-width="2" cx="1090.49" cy="-368.09" rx="78.48" ry="26.74"/>
<text text-anchor="middle" x="1090.49" y="-371.89" font-family="Times,serif" font-size="14.00">sort</text>
<text text-anchor="middle" x="1090.49" y="-356.89" font-family="Times,serif" font-size="14.00">81921:98304</text>
</g>
<!-- 38652&#45;&gt;38656 -->
<g id="edge2" class="edge">
<title>38652&#45;&gt;38656</title>
<path fill="none" stroke="black" stroke-width="2" d="M1047.23,-345.4C1023.16,-333.33 993.03,-318.23 967.66,-305.51"/>
<polygon fill="black" stroke="black" stroke-width="2" points="969.06,-302.29 958.55,-300.94 965.92,-308.55 969.06,-302.29"/>
</g>
<!-- 38647 -->
<g id="node4" class="node">
<title>38647</title>
<ellipse fill="none" stroke="black" stroke-width="2" cx="403.49" cy="-368.09" rx="53.07" ry="26.74"/>
<text text-anchor="middle" x="403.49" y="-371.89" font-family="Times,serif" font-size="14.00">sort</text>
<text text-anchor="middle" x="403.49" y="-356.89" font-family="Times,serif" font-size="14.00">1:16384</text>
</g>
<!-- 38654 -->
<g id="node13" class="node">
<title>38654</title>
<ellipse fill="none" stroke="red" stroke-width="2" cx="478.49" cy="-278.35" rx="53.07" ry="26.74"/>
<text text-anchor="middle" x="478.49" y="-282.15" font-family="Times,serif" font-size="14.00">merge</text>
<text text-anchor="middle" x="478.49" y="-267.15" font-family="Times,serif" font-size="14.00">1:32768</text>
</g>
<!-- 38647&#45;&gt;38654 -->
<g id="edge13" class="edge">
<title>38647&#45;&gt;38654</title>
<path fill="none" stroke="black" stroke-width="2" d="M423.98,-343.12C432.42,-333.25 442.3,-321.68 451.33,-311.13"/>
<polygon fill="black" stroke="black" stroke-width="2" points="454.18,-313.17 458.02,-303.3 448.86,-308.62 454.18,-313.17"/>
</g>
<!-- 38649 -->
<g id="node5" class="node">
<title>38649</title>
<ellipse fill="none" stroke="black" stroke-width="2" cx="78.49" cy="-368.09" rx="78.48" ry="26.74"/>
<text text-anchor="middle" x="78.49" y="-371.89" font-family="Times,serif" font-size="14.00">sort</text>
<text text-anchor="middle" x="78.49" y="-356.89" font-family="Times,serif" font-size="14.00">32769:49152</text>
</g>
<!-- 38655 -->
<g id="node7" class="node">
<title>38655</title>
<ellipse fill="none" stroke="black" stroke-width="2" cx="253.49" cy="-278.35" rx="78.48" ry="26.74"/>
<text text-anchor="middle" x="253.49" y="-282.15" font-family="Times,serif" font-size="14.00">merge</text>
<text text-anchor="middle" x="253.49" y="-267.15" font-family="Times,serif" font-size="14.00">32769:65536</text>
</g>
<!-- 38649&#45;&gt;38655 -->
<g id="edge3" class="edge">
<title>38649&#45;&gt;38655</title>
<path fill="none" stroke="black" stroke-width="2" d="M121.75,-345.4C145.82,-333.33 175.95,-318.23 201.31,-305.51"/>
<polygon fill="black" stroke="black" stroke-width="2" points="203.05,-308.55 210.43,-300.94 199.92,-302.29 203.05,-308.55"/>
</g>
<!-- 38650 -->
<g id="node6" class="node">
<title>38650</title>
<ellipse fill="none" stroke="black" stroke-width="2" cx="253.49" cy="-368.09" rx="78.48" ry="26.74"/>
<text text-anchor="middle" x="253.49" y="-371.89" font-family="Times,serif" font-size="14.00">sort</text>
<text text-anchor="middle" x="253.49" y="-356.89" font-family="Times,serif" font-size="14.00">49153:65536</text>
</g>
<!-- 38650&#45;&gt;38655 -->
<g id="edge4" class="edge">
<title>38650&#45;&gt;38655</title>
<path fill="none" stroke="black" stroke-width="2" d="M253.49,-340.77C253.49,-332.8 253.49,-323.91 253.49,-315.42"/>
<polygon fill="black" stroke="black" stroke-width="2" points="256.99,-315.35 253.49,-305.35 249.99,-315.35 256.99,-315.35"/>
</g>
<!-- 38658 -->
<g id="node12" class="node">
<title>38658</title>
<ellipse fill="none" stroke="red" stroke-width="2" cx="478.49" cy="-188.61" rx="53.07" ry="26.74"/>
<text text-anchor="middle" x="478.49" y="-192.41" font-family="Times,serif" font-size="14.00">merge</text>
<text text-anchor="middle" x="478.49" y="-177.41" font-family="Times,serif" font-size="14.00">1:65536</text>
</g>
<!-- 38655&#45;&gt;38658 -->
<g id="edge8" class="edge">
<title>38655&#45;&gt;38658</title>
<path fill="none" stroke="black" stroke-width="2" d="M303.98,-257.66C340.85,-243.28 390.65,-223.86 427.61,-209.45"/>
<polygon fill="black" stroke="black" stroke-width="2" points="429.14,-212.61 437.19,-205.72 426.6,-206.09 429.14,-212.61"/>
</g>
<!-- 38653 -->
<g id="node8" class="node">
<title>38653</title>
<ellipse fill="none" stroke="black" stroke-width="2" cx="734.49" cy="-368.09" rx="84.71" ry="26.74"/>
<text text-anchor="middle" x="734.49" y="-371.89" font-family="Times,serif" font-size="14.00">sort</text>
<text text-anchor="middle" x="734.49" y="-356.89" font-family="Times,serif" font-size="14.00">98305:100000</text>
</g>
<!-- 38657 -->
<g id="node11" class="node">
<title>38657</title>
<ellipse fill="none" stroke="black" stroke-width="2" cx="734.49" cy="-278.35" rx="84.71" ry="26.74"/>
<text text-anchor="middle" x="734.49" y="-282.15" font-family="Times,serif" font-size="14.00">copy</text>
<text text-anchor="middle" x="734.49" y="-267.15" font-family="Times,serif" font-size="14.00">98305:100000</text>
</g>
<!-- 38653&#45;&gt;38657 -->
<g id="edge7" class="edge">
<title>38653&#45;&gt;38657</title>
<path fill="none" stroke="black" stroke-width="2" d="M734.49,-340.77C734.49,-332.8 734.49,-323.91 734.49,-315.42"/>
<polygon fill="black" stroke="black" stroke-width="2" points="737.99,-315.35 734.49,-305.35 730.99,-315.35 737.99,-315.35"/>
</g>
<!-- 38648 -->
<g id="node9" class="node">
<title>38648</title>
<ellipse fill="none" stroke="red" stroke-width="2" cx="553.49" cy="-368.09" rx="78.48" ry="26.74"/>
<text text-anchor="middle" x="553.49" y="-371.89" font-family="Times,serif" font-size="14.00">sort</text>
<text text-anchor="middle" x="553.49" y="-356.89" font-family="Times,serif" font-size="14.00">16385:32768</text>
</g>
<!-- 38648&#45;&gt;38654 -->
<g id="edge12" class="edge">
<title>38648&#45;&gt;38654</title>
<path fill="none" stroke="red" stroke-width="2" d="M532.2,-342.18C523.91,-332.49 514.33,-321.28 505.56,-311.02"/>
<polygon fill="red" stroke="red" stroke-width="2" points="508.22,-308.74 499.06,-303.41 502.89,-313.29 508.22,-308.74"/>
</g>
<!-- 38660 -->
<g id="node14" class="node">
<title>38660</title>
<ellipse fill="none" stroke="red" stroke-width="2" cx="643.49" cy="-98.87" rx="59.29" ry="26.74"/>
<text text-anchor="middle" x="643.49" y="-102.67" font-family="Times,serif" font-size="14.00">merge</text>
<text text-anchor="middle" x="643.49" y="-87.67" font-family="Times,serif" font-size="14.00">1:100000</text>
</g>
<!-- 38659&#45;&gt;38660 -->
<g id="edge11" class="edge">
<title>38659&#45;&gt;38660</title>
<path fill="none" stroke="black" stroke-width="2" d="M708.66,-162.7C698.32,-152.74 686.32,-141.16 675.44,-130.68"/>
<polygon fill="black" stroke="black" stroke-width="2" points="677.76,-128.05 668.13,-123.63 672.9,-133.09 677.76,-128.05"/>
</g>
<!-- 38657&#45;&gt;38659 -->
<g id="edge5" class="edge">
<title>38657&#45;&gt;38659</title>
<path fill="none" stroke="black" stroke-width="2" d="M734.49,-251.03C734.49,-243.06 734.49,-234.17 734.49,-225.68"/>
<polygon fill="black" stroke="black" stroke-width="2" points="737.99,-225.61 734.49,-215.61 730.99,-225.61 737.99,-225.61"/>
</g>
<!-- 38658&#45;&gt;38660 -->
<g id="edge10" class="edge">
<title>38658&#45;&gt;38660</title>
<path fill="none" stroke="red" stroke-width="2" d="M514.29,-168.57C538.54,-155.68 570.81,-138.52 597.04,-124.57"/>
<polygon fill="red" stroke="red" stroke-width="2" points="598.85,-127.57 606.04,-119.78 595.57,-121.39 598.85,-127.57"/>
</g>
<!-- 38654&#45;&gt;38658 -->
<g id="edge9" class="edge">
<title>38654&#45;&gt;38658</title>
<path fill="none" stroke="red" stroke-width="2" d="M478.49,-251.03C478.49,-243.06 478.49,-234.17 478.49,-225.68"/>
<polygon fill="red" stroke="red" stroke-width="2" points="481.99,-225.61 478.49,-215.61 474.99,-225.61 481.99,-225.61"/>
</g>
<!-- 38661 -->
<g id="node15" class="node">
<title>38661</title>
<ellipse fill="none" stroke="red" stroke-width="2" cx="643.49" cy="-18" rx="38.19" ry="18"/>
<text text-anchor="middle" x="643.49" y="-14.3" font-family="Times,serif" font-size="14.00">result</text>
</g>
<!-- 38660&#45;&gt;38661 -->
<g id="edge14" class="edge">
<title>38660&#45;&gt;38661</title>
<path fill="none" stroke="red" stroke-width="2" d="M643.49,-71.61C643.49,-63.51 643.49,-54.57 643.49,-46.39"/>
<polygon fill="red" stroke="red" stroke-width="2" points="646.99,-46.22 643.49,-36.22 639.99,-46.22 646.99,-46.22"/>
</g>
</g>
</svg>
