<?xml version="1.0" encoding="UTF-8" standalone="no"?>
<!DOCTYPE svg PUBLIC "-//W3C//DTD SVG 1.1//EN"
 "http://www.w3.org/Graphics/SVG/1.1/DTD/svg11.dtd">
<!-- Generated by graphviz version 2.50.0 (20211204.2007)
 -->
<!-- Title: dag Pages: 1 -->
<svg width="1177pt" height="493pt"
 viewBox="0.00 0.00 1176.98 492.70" xmlns="http://www.w3.org/2000/svg" xmlns:xlink="http://www.w3.org/1999/xlink">
<g id="graph0" class="graph" transform="scale(1 1) rotate(0) translate(4 488.7)">
<title>dag</title>
<polygon fill="white" stroke="transparent" points="-4,4 -4,-488.7 1172.98,-488.7 1172.98,4 -4,4"/>
<!-- 77168 -->
<g id="node1" class="node">
<title>77168</title>
<ellipse fill="none" stroke="red" stroke-width="2" cx="524.49" cy="-188.61" rx="59.29" ry="26.74"/>
<text text-anchor="middle" x="524.49" y="-192.41" font-family="Times,serif" font-size="14.00">split</text>
<text text-anchor="middle" x="524.49" y="-177.41" font-family="Times,serif" font-size="14.00">1:100000</text>
</g>
<!-- 77169 -->
<g id="node7" class="node">
<title>77169</title>
<ellipse fill="none" stroke="black" stroke-width="2" cx="456.49" cy="-98.87" rx="59.29" ry="26.74"/>
<text text-anchor="middle" x="456.49" y="-102.67" font-family="Times,serif" font-size="14.00">merge A</text>
<text text-anchor="middle" x="456.49" y="-87.67" font-family="Times,serif" font-size="14.00">1:100000</text>
</g>
<!-- 77168&#45;&gt;77169 -->
<g id="edge5" class="edge">
<title>77168&#45;&gt;77169</title>
<path fill="none" stroke="black" stroke-width="2" d="M505.18,-162.7C497.95,-153.36 489.6,-142.6 481.9,-132.65"/>
<polygon fill="black" stroke="black" stroke-width="2" points="484.5,-130.3 475.61,-124.54 478.97,-134.58 484.5,-130.3"/>
</g>
<!-- 77170 -->
<g id="node15" class="node">
<title>77170</title>
<ellipse fill="none" stroke="red" stroke-width="2" cx="593.49" cy="-98.87" rx="59.29" ry="26.74"/>
<text text-anchor="middle" x="593.49" y="-102.67" font-family="Times,serif" font-size="14.00">merge B</text>
<text text-anchor="middle" x="593.49" y="-87.67" font-family="Times,serif" font-size="14.00">1:100000</text>
</g>
<!-- 77168&#45;&gt;77170 -->
<g id="edge13" class="edge">
<title>77168&#45;&gt;77170</title>
<path fill="none" stroke="red" stroke-width="2" d="M543.71,-163.17C551.2,-153.65 559.89,-142.59 567.9,-132.41"/>
<polygon fill="red" stroke="red" stroke-width="2" points="570.7,-134.51 574.13,-124.48 565.2,-130.18 570.7,-134.51"/>
</g>
<!-- 77167 -->
<g id="node2" class="node">
<title>77167</title>
<ellipse fill="none" stroke="black" stroke-width="2" cx="434.49" cy="-278.35" rx="84.71" ry="26.74"/>
<text text-anchor="middle" x="434.49" y="-282.15" font-family="Times,serif" font-size="14.00">merge</text>
<text text-anchor="middle" x="434.49" y="-267.15" font-family="Times,serif" font-size="14.00">65537:100000</text>
</g>
<!-- 77167&#45;&gt;77168 -->
<g id="edge1" class="edge">
<title>77167&#45;&gt;77168</title>
<path fill="none" stroke="black" stroke-width="2" d="M460.04,-252.44C470.26,-242.48 482.13,-230.9 492.88,-220.42"/>
<polygon fill="black" stroke="black" stroke-width="2" points="495.4,-222.86 500.12,-213.37 490.51,-217.85 495.4,-222.86"/>
</g>
<!-- 77166 -->
<g id="node3" class="node">
<title>77166</title>
<ellipse fill="none" stroke="red" stroke-width="2" cx="690.49" cy="-278.35" rx="53.07" ry="26.74"/>
<text text-anchor="middle" x="690.49" y="-282.15" font-family="Times,serif" font-size="14.00">merge</text>
<text text-anchor="middle" x="690.49" y="-267.15" font-family="Times,serif" font-size="14.00">1:65536</text>
</g>
<!-- 77166&#45;&gt;77168 -->
<g id="edge2" class="edge">
<title>77166&#45;&gt;77168</title>
<path fill="none" stroke="red" stroke-width="2" d="M654.47,-258.31C630.07,-245.42 597.6,-228.26 571.22,-214.31"/>
<polygon fill="red" stroke="red" stroke-width="2" points="572.64,-211.1 562.17,-209.52 569.37,-217.29 572.64,-211.1"/>
</g>
<!-- 77159 -->
<g id="node4" class="node">
<title>77159</title>
<ellipse fill="none" stroke="black" stroke-width="2" cx="78.49" cy="-457.83" rx="78.48" ry="26.74"/>
<text text-anchor="middle" x="78.49" y="-461.63" font-family="Times,serif" font-size="14.00">sort</text>
<text text-anchor="middle" x="78.49" y="-446.63" font-family="Times,serif" font-size="14.00">65537:81920</text>
</g>
<!-- 77164 -->
<g id="node5" class="node">
<title>77164</title>
<ellipse fill="none" stroke="black" stroke-width="2" cx="253.49" cy="-368.09" rx="78.48" ry="26.74"/>
<text text-anchor="middle" x="253.49" y="-371.89" font-family="Times,serif" font-size="14.00">merge</text>
<text text-anchor="middle" x="253.49" y="-356.89" font-family="Times,serif" font-size="14.00">65537:98304</text>
</g>
<!-- 77159&#45;&gt;77164 -->
<g id="edge3" class="edge">
<title>77159&#45;&gt;77164</title>
<path fill="none" stroke="black" stroke-width="2" d="M121.75,-435.14C145.82,-423.07 175.95,-407.97 201.31,-395.25"/>
<polygon fill="black" stroke="black" stroke-width="2" points="203.05,-398.29 210.43,-390.68 199.92,-392.03 203.05,-398.29"/>
</g>
<!-- 77164&#45;&gt;77167 -->
<g id="edge10" class="edge">
<title>77164&#45;&gt;77167</title>
<path fill="none" stroke="black" stroke-width="2" d="M297.77,-345.63C322.67,-333.56 353.95,-318.39 380.31,-305.61"/>
<polygon fill="black" stroke="black" stroke-width="2" points="381.94,-308.71 389.41,-301.2 378.89,-302.41 381.94,-308.71"/>
</g>
<!-- 77160 -->
<g id="node6" class="node">
<title>77160</title>
<ellipse fill="none" stroke="black" stroke-width="2" cx="253.49" cy="-457.83" rx="78.48" ry="26.74"/>
<text text-anchor="middle" x="253.49" y="-461.63" font-family="Times,serif" font-size="14.00">sort</text>
<text text-anchor="middle" x="253.49" y="-446.63" font-family="Times,serif" font-size="14.00">81921:98304</text>
</g>
<!-- 77160&#45;&gt;77164 -->
<g id="edge4" class="edge">
<title>77160&#45;&gt;77164</title>
<path fill="none" stroke="black" stroke-width="2" d="M253.49,-430.51C253.49,-422.54 253.49,-413.65 253.49,-405.16"/>
<polygon fill="black" stroke="black" stroke-width="2" points="256.99,-405.09 253.49,-395.09 249.99,-405.09 256.99,-405.09"/>
</g>
<!-- 77171 -->
<g id="node17" class="node">
<title>77171</title>
<ellipse fill="none" stroke="red" stroke-width="2" cx="524.49" cy="-18" rx="38.19" ry="18"/>
<text text-anchor="middle" x="524.49" y="-14.3" font-family="Times,serif" font-size="14.00">result</text>
</g>
<!-- 77169&#45;&gt;77171 -->
<g id="edge16" class="edge">
<title>77169&#45;&gt;77171</title>
<path fill="none" stroke="black" stroke-width="2" d="M477.63,-73.35C486.04,-63.6 495.67,-52.42 504.01,-42.75"/>
<polygon fill="black" stroke="black" stroke-width="2" points="506.78,-44.9 510.66,-35.04 501.48,-40.33 506.78,-44.9"/>
</g>
<!-- 77158 -->
<g id="node8" class="node">
<title>77158</title>
<ellipse fill="none" stroke="red" stroke-width="2" cx="915.49" cy="-457.83" rx="78.48" ry="26.74"/>
<text text-anchor="middle" x="915.49" y="-461.63" font-family="Times,serif" font-size="14.00">sort</text>
<text text-anchor="middle" x="915.49" y="-446.63" font-family="Times,serif" font-size="14.00">49153:65536</text>
</g>
<!-- 77163 -->
<g id="node10" class="node">
<title>77163</title>
<ellipse fill="none" stroke="red" stroke-width="2" cx="915.49" cy="-368.09" rx="78.48" ry="26.74"/>
<text text-anchor="middle" x="915.49" y="-371.89" font-family="Times,serif" font-size="14.00">merge</text>
<text text-anchor="middle" x="915.49" y="-356.89" font-family="Times,serif" font-size="14.00">32769:65536</text>
</g>
<!-- 77158&#45;&gt;77163 -->
<g id="edge11" class="edge">
<title>77158&#45;&gt;77163</title>
<path fill="none" stroke="red" stroke-width="2" d="M915.49,-430.51C915.49,-422.54 915.49,-413.65 915.49,-405.16"/>
<polygon fill="red" stroke="red" stroke-width="2" points="918.99,-405.09 915.49,-395.09 911.99,-405.09 918.99,-405.09"/>
</g>
<!-- 77162 -->
<g id="node9" class="node">
<title>77162</title>
<ellipse fill="none" stroke="black" stroke-width="2" cx="690.49" cy="-368.09" rx="53.07" ry="26.74"/>
<text text-anchor="middle" x="690.49" y="-371.89" font-family="Times,serif" font-size="14.00">merge</text>
<text text-anchor="middle" x="690.49" y="-356.89" font-family="Times,serif" font-size="14.00">1:32768</text>
</g>
<!-- 77162&#45;&gt;77166 -->
<g id="edge6" class="edge">
<title>77162&#45;&gt;77166</title>
<path fill="none" stroke="black" stroke-width="2" d="M690.49,-340.77C690.49,-332.8 690.49,-323.91 690.49,-315.42"/>
<polygon fill="black" stroke="black" stroke-width="2" points="693.99,-315.35 690.49,-305.35 686.99,-315.35 693.99,-315.35"/>
</g>
<!-- 77163&#45;&gt;77166 -->
<g id="edge7" class="edge">
<title>77163&#45;&gt;77166</title>
<path fill="none" stroke="red" stroke-width="2" d="M864.99,-347.4C828.12,-333.02 778.33,-313.61 741.37,-299.19"/>
<polygon fill="red" stroke="red" stroke-width="2" points="742.38,-295.83 731.79,-295.46 739.83,-302.35 742.38,-295.83"/>
</g>
<!-- 77161 -->
<g id="node11" class="node">
<title>77161</title>
<ellipse fill="none" stroke="black" stroke-width="2" cx="434.49" cy="-457.83" rx="84.71" ry="26.74"/>
<text text-anchor="middle" x="434.49" y="-461.63" font-family="Times,serif" font-size="14.00">sort</text>
<text text-anchor="middle" x="434.49" y="-446.63" font-family="Times,serif" font-size="14.00">98305:100000</text>
</g>
<!-- 77165 -->
<g id="node12" class="node">
<title>77165</title>
<ellipse fill="none" stroke="black" stroke-width="2" cx="434.49" cy="-368.09" rx="84.71" ry="26.74"/>
<text text-anchor="middle" x="434.49" y="-371.89" font-family="Times,serif" font-size="14.00">copy</text>
<text text-anchor="middle" x="434.49" y="-356.89" font-family="Times,serif" font-size="14.00">98305:100000</text>
</g>
<!-- 77161&#45;&gt;77165 -->
<g id="edge8" class="edge">
<title>77161&#45;&gt;77165</title>
<path fill="none" stroke="black" stroke-width="2" d="M434.49,-430.51C434.49,-422.54 434.49,-413.65 434.49,-405.16"/>
<polygon fill="black" stroke="black" stroke-width="2" points="437.99,-405.09 434.49,-395.09 430.99,-405.09 437.99,-405.09"/>
</g>
<!-- 77165&#45;&gt;77167 -->
<g id="edge9" class="edge">
<title>77165&#45;&gt;77167</title>
<path fill="none" stroke="black" stroke-width="2" d="M434.49,-340.77C434.49,-332.8 434.49,-323.91 434.49,-315.42"/>
<polygon fill="black" stroke="black" stroke-width="2" points="437.99,-315.35 434.49,-305.35 430.99,-315.35 437.99,-315.35"/>
</g>
<!-- 77156 -->
<g id="node13" class="node">
<title>77156</title>
<ellipse fill="none" stroke="black" stroke-width="2" cx="615.49" cy="-457.83" rx="78.48" ry="26.74"/>
<text text-anchor="middle" x="615.49" y="-461.63" font-family="Times,serif" font-size="14.00">sort</text>
<text text-anchor="middle" x="615.49" y="-446.63" font-family="Times,serif" font-size="14.00">16385:32768</text>
</g>
<!-- 77156&#45;&gt;77162 -->
<g id="edge15" class="edge">
<title>77156&#45;&gt;77162</title>
<path fill="none" stroke="black" stroke-width="2" d="M636.78,-431.92C645.06,-422.23 654.65,-411.02 663.42,-400.76"/>
<polygon fill="black" stroke="black" stroke-width="2" points="666.08,-403.03 669.92,-393.15 660.76,-398.48 666.08,-403.03"/>
</g>
<!-- 77157 -->
<g id="node14" class="node">
<title>77157</title>
<ellipse fill="none" stroke="black" stroke-width="2" cx="1090.49" cy="-457.83" rx="78.48" ry="26.74"/>
<text text-anchor="middle" x="1090.49" y="-461.63" font-family="Times,serif" font-size="14.00">sort</text>
<text text-anchor="middle" x="1090.49" y="-446.63" font-family="Times,serif" font-size="14.00">32769:49152</text>
</g>
<!-- 77157&#45;&gt;77163 -->
<g id="edge12" class="edge">
<title>77157&#45;&gt;77163</title>
<path fill="none" stroke="black" stroke-width="2" d="M1047.23,-435.14C1023.16,-423.07 993.03,-407.97 967.66,-395.25"/>
<polygon fill="black" stroke="black" stroke-width="2" points="969.06,-392.03 958.55,-390.68 965.92,-398.29 969.06,-392.03"/>
</g>
<!-- 77170&#45;&gt;77171 -->
<g id="edge17" class="edge">
<title>77170&#45;&gt;77171</title>
<path fill="none" stroke="red" stroke-width="2" d="M572.04,-73.35C563.5,-63.6 553.73,-52.42 545.26,-42.75"/>
<polygon fill="red" stroke="red" stroke-width="2" points="547.74,-40.26 538.52,-35.04 542.47,-44.87 547.74,-40.26"/>
</g>
<!-- 77155 -->
<g id="node16" class="node">
<title>77155</title>
<ellipse fill="none" stroke="black" stroke-width="2" cx="765.49" cy="-457.83" rx="53.07" ry="26.74"/>
<text text-anchor="middle" x="765.49" y="-461.63" font-family="Times,serif" font-size="14.00">sort</text>
<text text-anchor="middle" x="765.49" y="-446.63" font-family="Times,serif" font-size="14.00">1:16384</text>
</g>
<!-- 77155&#45;&gt;77162 -->
<g id="edge14" class="edge">
<title>77155&#45;&gt;77162</title>
<path fill="none" stroke="black" stroke-width="2" d="M744.99,-432.86C736.56,-422.99 726.67,-411.42 717.65,-400.87"/>
<polygon fill="black" stroke="black" stroke-width="2" points="720.12,-398.36 710.96,-393.04 714.8,-402.91 720.12,-398.36"/>
</g>
</g>
</svg>
