<?xml version="1.0" encoding="UTF-8" standalone="no"?>
<!DOCTYPE svg PUBLIC "-//W3C//DTD SVG 1.1//EN"
 "http://www.w3.org/Graphics/SVG/1.1/DTD/svg11.dtd">
<!-- Generated by graphviz version 2.50.0 (20211204.2007)
 -->
<!-- Title: dag Pages: 1 -->
<svg width="1177pt" height="493pt"
 viewBox="0.00 0.00 1176.98 492.70" xmlns="http://www.w3.org/2000/svg" xmlns:xlink="http://www.w3.org/1999/xlink">
<g id="graph0" class="graph" transform="scale(1 1) rotate(0) translate(4 488.7)">
<title>dag</title>
<polygon fill="white" stroke="transparent" points="-4,4 -4,-488.7 1172.98,-488.7 1172.98,4 -4,4"/>
<!-- 42335 -->
<g id="node1" class="node">
<title>42335</title>
<ellipse fill="none" stroke="red" stroke-width="2" cx="228.49" cy="-457.83" rx="53.07" ry="26.74"/>
<text text-anchor="middle" x="228.49" y="-461.63" font-family="Times,serif" font-size="14.00">sort</text>
<text text-anchor="middle" x="228.49" y="-446.63" font-family="Times,serif" font-size="14.00">1:16384</text>
</g>
<!-- 42342 -->
<g id="node7" class="node">
<title>42342</title>
<ellipse fill="none" stroke="red" stroke-width="2" cx="228.49" cy="-368.09" rx="53.07" ry="26.74"/>
<text text-anchor="middle" x="228.49" y="-371.89" font-family="Times,serif" font-size="14.00">merge</text>
<text text-anchor="middle" x="228.49" y="-356.89" font-family="Times,serif" font-size="14.00">1:32768</text>
</g>
<!-- 42335&#45;&gt;42342 -->
<g id="edge4" class="edge">
<title>42335&#45;&gt;42342</title>
<path fill="none" stroke="red" stroke-width="2" d="M228.49,-430.51C228.49,-422.54 228.49,-413.65 228.49,-405.16"/>
<polygon fill="red" stroke="red" stroke-width="2" points="231.99,-405.09 228.49,-395.09 224.99,-405.09 231.99,-405.09"/>
</g>
<!-- 42337 -->
<g id="node2" class="node">
<title>42337</title>
<ellipse fill="none" stroke="black" stroke-width="2" cx="378.49" cy="-457.83" rx="78.48" ry="26.74"/>
<text text-anchor="middle" x="378.49" y="-461.63" font-family="Times,serif" font-size="14.00">sort</text>
<text text-anchor="middle" x="378.49" y="-446.63" font-family="Times,serif" font-size="14.00">32769:49152</text>
</g>
<!-- 42343 -->
<g id="node3" class="node">
<title>42343</title>
<ellipse fill="none" stroke="black" stroke-width="2" cx="466.49" cy="-368.09" rx="78.48" ry="26.74"/>
<text text-anchor="middle" x="466.49" y="-371.89" font-family="Times,serif" font-size="14.00">merge</text>
<text text-anchor="middle" x="466.49" y="-356.89" font-family="Times,serif" font-size="14.00">32769:65536</text>
</g>
<!-- 42337&#45;&gt;42343 -->
<g id="edge2" class="edge">
<title>42337&#45;&gt;42343</title>
<path fill="none" stroke="black" stroke-width="2" d="M403.47,-431.92C413.12,-422.3 424.28,-411.17 434.51,-400.98"/>
<polygon fill="black" stroke="black" stroke-width="2" points="437.14,-403.3 441.75,-393.76 432.2,-398.34 437.14,-403.3"/>
</g>
<!-- 42346 -->
<g id="node15" class="node">
<title>42346</title>
<ellipse fill="none" stroke="red" stroke-width="2" cx="466.49" cy="-278.35" rx="53.07" ry="26.74"/>
<text text-anchor="middle" x="466.49" y="-282.15" font-family="Times,serif" font-size="14.00">merge</text>
<text text-anchor="middle" x="466.49" y="-267.15" font-family="Times,serif" font-size="14.00">1:65536</text>
</g>
<!-- 42343&#45;&gt;42346 -->
<g id="edge11" class="edge">
<title>42343&#45;&gt;42346</title>
<path fill="none" stroke="black" stroke-width="2" d="M466.49,-340.77C466.49,-332.8 466.49,-323.91 466.49,-315.42"/>
<polygon fill="black" stroke="black" stroke-width="2" points="469.99,-315.35 466.49,-305.35 462.99,-315.35 469.99,-315.35"/>
</g>
<!-- 42338 -->
<g id="node4" class="node">
<title>42338</title>
<ellipse fill="none" stroke="black" stroke-width="2" cx="553.49" cy="-457.83" rx="78.48" ry="26.74"/>
<text text-anchor="middle" x="553.49" y="-461.63" font-family="Times,serif" font-size="14.00">sort</text>
<text text-anchor="middle" x="553.49" y="-446.63" font-family="Times,serif" font-size="14.00">49153:65536</text>
</g>
<!-- 42338&#45;&gt;42343 -->
<g id="edge1" class="edge">
<title>42338&#45;&gt;42343</title>
<path fill="none" stroke="black" stroke-width="2" d="M528.79,-431.92C519.25,-422.3 508.22,-411.17 498.11,-400.98"/>
<polygon fill="black" stroke="black" stroke-width="2" points="500.47,-398.39 490.95,-393.76 495.5,-403.32 500.47,-398.39"/>
</g>
<!-- 42345 -->
<g id="node5" class="node">
<title>42345</title>
<ellipse fill="none" stroke="black" stroke-width="2" cx="734.49" cy="-368.09" rx="84.71" ry="26.74"/>
<text text-anchor="middle" x="734.49" y="-371.89" font-family="Times,serif" font-size="14.00">copy</text>
<text text-anchor="middle" x="734.49" y="-356.89" font-family="Times,serif" font-size="14.00">98305:100000</text>
</g>
<!-- 42347 -->
<g id="node9" class="node">
<title>42347</title>
<ellipse fill="none" stroke="black" stroke-width="2" cx="734.49" cy="-278.35" rx="84.71" ry="26.74"/>
<text text-anchor="middle" x="734.49" y="-282.15" font-family="Times,serif" font-size="14.00">merge</text>
<text text-anchor="middle" x="734.49" y="-267.15" font-family="Times,serif" font-size="14.00">65537:100000</text>
</g>
<!-- 42345&#45;&gt;42347 -->
<g id="edge6" class="edge">
<title>42345&#45;&gt;42347</title>
<path fill="none" stroke="black" stroke-width="2" d="M734.49,-340.77C734.49,-332.8 734.49,-323.91 734.49,-315.42"/>
<polygon fill="black" stroke="black" stroke-width="2" points="737.99,-315.35 734.49,-305.35 730.99,-315.35 737.99,-315.35"/>
</g>
<!-- 42341 -->
<g id="node6" class="node">
<title>42341</title>
<ellipse fill="none" stroke="black" stroke-width="2" cx="734.49" cy="-457.83" rx="84.71" ry="26.74"/>
<text text-anchor="middle" x="734.49" y="-461.63" font-family="Times,serif" font-size="14.00">sort</text>
<text text-anchor="middle" x="734.49" y="-446.63" font-family="Times,serif" font-size="14.00">98305:100000</text>
</g>
<!-- 42341&#45;&gt;42345 -->
<g id="edge3" class="edge">
<title>42341&#45;&gt;42345</title>
<path fill="none" stroke="black" stroke-width="2" d="M734.49,-430.51C734.49,-422.54 734.49,-413.65 734.49,-405.16"/>
<polygon fill="black" stroke="black" stroke-width="2" points="737.99,-405.09 734.49,-395.09 730.99,-405.09 737.99,-405.09"/>
</g>
<!-- 42342&#45;&gt;42346 -->
<g id="edge10" class="edge">
<title>42342&#45;&gt;42346</title>
<path fill="none" stroke="red" stroke-width="2" d="M270.49,-351.61C310.81,-336.74 371.8,-314.26 415.02,-298.32"/>
<polygon fill="red" stroke="red" stroke-width="2" points="416.34,-301.57 424.51,-294.83 413.91,-295 416.34,-301.57"/>
</g>
<!-- 42336 -->
<g id="node8" class="node">
<title>42336</title>
<ellipse fill="none" stroke="black" stroke-width="2" cx="78.49" cy="-457.83" rx="78.48" ry="26.74"/>
<text text-anchor="middle" x="78.49" y="-461.63" font-family="Times,serif" font-size="14.00">sort</text>
<text text-anchor="middle" x="78.49" y="-446.63" font-family="Times,serif" font-size="14.00">16385:32768</text>
</g>
<!-- 42336&#45;&gt;42342 -->
<g id="edge5" class="edge">
<title>42336&#45;&gt;42342</title>
<path fill="none" stroke="black" stroke-width="2" d="M117.12,-434.24C138.17,-421.92 164.28,-406.65 185.92,-393.99"/>
<polygon fill="black" stroke="black" stroke-width="2" points="187.72,-396.99 194.59,-388.92 184.19,-390.95 187.72,-396.99"/>
</g>
<!-- 42348 -->
<g id="node17" class="node">
<title>42348</title>
<ellipse fill="none" stroke="red" stroke-width="2" cx="556.49" cy="-188.61" rx="59.29" ry="26.74"/>
<text text-anchor="middle" x="556.49" y="-192.41" font-family="Times,serif" font-size="14.00">split</text>
<text text-anchor="middle" x="556.49" y="-177.41" font-family="Times,serif" font-size="14.00">1:100000</text>
</g>
<!-- 42347&#45;&gt;42348 -->
<g id="edge13" class="edge">
<title>42347&#45;&gt;42348</title>
<path fill="none" stroke="black" stroke-width="2" d="M690.03,-255.44C664.06,-242.63 631.26,-226.47 604.67,-213.36"/>
<polygon fill="black" stroke="black" stroke-width="2" points="606.06,-210.14 595.54,-208.86 602.97,-216.42 606.06,-210.14"/>
</g>
<!-- 42344 -->
<g id="node10" class="node">
<title>42344</title>
<ellipse fill="none" stroke="black" stroke-width="2" cx="915.49" cy="-368.09" rx="78.48" ry="26.74"/>
<text text-anchor="middle" x="915.49" y="-371.89" font-family="Times,serif" font-size="14.00">merge</text>
<text text-anchor="middle" x="915.49" y="-356.89" font-family="Times,serif" font-size="14.00">65537:98304</text>
</g>
<!-- 42344&#45;&gt;42347 -->
<g id="edge7" class="edge">
<title>42344&#45;&gt;42347</title>
<path fill="none" stroke="black" stroke-width="2" d="M871.21,-345.63C846.31,-333.56 815.02,-318.39 788.67,-305.61"/>
<polygon fill="black" stroke="black" stroke-width="2" points="790.09,-302.41 779.57,-301.2 787.04,-308.71 790.09,-302.41"/>
</g>
<!-- 42351 -->
<g id="node11" class="node">
<title>42351</title>
<ellipse fill="none" stroke="red" stroke-width="2" cx="556.49" cy="-18" rx="38.19" ry="18"/>
<text text-anchor="middle" x="556.49" y="-14.3" font-family="Times,serif" font-size="14.00">result</text>
</g>
<!-- 42350 -->
<g id="node12" class="node">
<title>42350</title>
<ellipse fill="none" stroke="black" stroke-width="2" cx="488.49" cy="-98.87" rx="59.29" ry="26.74"/>
<text text-anchor="middle" x="488.49" y="-102.67" font-family="Times,serif" font-size="14.00">merge B</text>
<text text-anchor="middle" x="488.49" y="-87.67" font-family="Times,serif" font-size="14.00">1:100000</text>
</g>
<!-- 42350&#45;&gt;42351 -->
<g id="edge8" class="edge">
<title>42350&#45;&gt;42351</title>
<path fill="none" stroke="black" stroke-width="2" d="M509.63,-73.35C518.04,-63.6 527.67,-52.42 536.01,-42.75"/>
<polygon fill="black" stroke="black" stroke-width="2" points="538.78,-44.9 542.66,-35.04 533.48,-40.33 538.78,-44.9"/>
</g>
<!-- 42349 -->
<g id="node13" class="node">
<title>42349</title>
<ellipse fill="none" stroke="red" stroke-width="2" cx="625.49" cy="-98.87" rx="59.29" ry="26.74"/>
<text text-anchor="middle" x="625.49" y="-102.67" font-family="Times,serif" font-size="14.00">merge A</text>
<text text-anchor="middle" x="625.49" y="-87.67" font-family="Times,serif" font-size="14.00">1:100000</text>
</g>
<!-- 42349&#45;&gt;42351 -->
<g id="edge9" class="edge">
<title>42349&#45;&gt;42351</title>
<path fill="none" stroke="red" stroke-width="2" d="M604.04,-73.35C595.5,-63.6 585.73,-52.42 577.26,-42.75"/>
<polygon fill="red" stroke="red" stroke-width="2" points="579.74,-40.26 570.52,-35.04 574.47,-44.87 579.74,-40.26"/>
</g>
<!-- 42340 -->
<g id="node14" class="node">
<title>42340</title>
<ellipse fill="none" stroke="black" stroke-width="2" cx="1090.49" cy="-457.83" rx="78.48" ry="26.74"/>
<text text-anchor="middle" x="1090.49" y="-461.63" font-family="Times,serif" font-size="14.00">sort</text>
<text text-anchor="middle" x="1090.49" y="-446.63" font-family="Times,serif" font-size="14.00">81921:98304</text>
</g>
<!-- 42340&#45;&gt;42344 -->
<g id="edge16" class="edge">
<title>42340&#45;&gt;42344</title>
<path fill="none" stroke="black" stroke-width="2" d="M1047.23,-435.14C1023.16,-423.07 993.03,-407.97 967.66,-395.25"/>
<polygon fill="black" stroke="black" stroke-width="2" points="969.06,-392.03 958.55,-390.68 965.92,-398.29 969.06,-392.03"/>
</g>
<!-- 42346&#45;&gt;42348 -->
<g id="edge12" class="edge">
<title>42346&#45;&gt;42348</title>
<path fill="none" stroke="red" stroke-width="2" d="M490.14,-254.3C500.73,-243.97 513.38,-231.63 524.78,-220.52"/>
<polygon fill="red" stroke="red" stroke-width="2" points="527.34,-222.91 532.06,-213.43 522.46,-217.9 527.34,-222.91"/>
</g>
<!-- 42339 -->
<g id="node16" class="node">
<title>42339</title>
<ellipse fill="none" stroke="black" stroke-width="2" cx="915.49" cy="-457.83" rx="78.48" ry="26.74"/>
<text text-anchor="middle" x="915.49" y="-461.63" font-family="Times,serif" font-size="14.00">sort</text>
<text text-anchor="middle" x="915.49" y="-446.63" font-family="Times,serif" font-size="14.00">65537:81920</text>
</g>
<!-- 42339&#45;&gt;42344 -->
<g id="edge15" class="edge">
<title>42339&#45;&gt;42344</title>
<path fill="none" stroke="black" stroke-width="2" d="M915.49,-430.51C915.49,-422.54 915.49,-413.65 915.49,-405.16"/>
<polygon fill="black" stroke="black" stroke-width="2" points="918.99,-405.09 915.49,-395.09 911.99,-405.09 918.99,-405.09"/>
</g>
<!-- 42348&#45;&gt;42350 -->
<g id="edge17" class="edge">
<title>42348&#45;&gt;42350</title>
<path fill="none" stroke="black" stroke-width="2" d="M537.18,-162.7C529.95,-153.36 521.6,-142.6 513.9,-132.65"/>
<polygon fill="black" stroke="black" stroke-width="2" points="516.5,-130.3 507.61,-124.54 510.97,-134.58 516.5,-130.3"/>
</g>
<!-- 42348&#45;&gt;42349 -->
<g id="edge14" class="edge">
<title>42348&#45;&gt;42349</title>
<path fill="none" stroke="red" stroke-width="2" d="M575.71,-163.17C583.2,-153.65 591.89,-142.59 599.9,-132.41"/>
<polygon fill="red" stroke="red" stroke-width="2" points="602.7,-134.51 606.13,-124.48 597.2,-130.18 602.7,-134.51"/>
</g>
</g>
</svg>
