<?xml version="1.0" encoding="UTF-8" standalone="no"?>
<!DOCTYPE svg PUBLIC "-//W3C//DTD SVG 1.1//EN"
 "http://www.w3.org/Graphics/SVG/1.1/DTD/svg11.dtd">
<!-- Generated by graphviz version 2.50.0 (20211204.2007)
 -->
<!-- Title: dag Pages: 1 -->
<svg width="1177pt" height="493pt"
 viewBox="0.00 0.00 1177.34 492.70" xmlns="http://www.w3.org/2000/svg" xmlns:xlink="http://www.w3.org/1999/xlink">
<g id="graph0" class="graph" transform="scale(1 1) rotate(0) translate(4 488.7)">
<title>dag</title>
<polygon fill="white" stroke="transparent" points="-4,4 -4,-488.7 1173.34,-488.7 1173.34,4 -4,4"/>
<!-- 41556 -->
<g id="node1" class="node">
<title>41556</title>
<ellipse fill="none" stroke="black" stroke-width="2" cx="253.49" cy="-457.83" rx="78.48" ry="26.74"/>
<text text-anchor="middle" x="253.49" y="-461.63" font-family="Times,serif" font-size="14.00">sort</text>
<text text-anchor="middle" x="253.49" y="-446.63" font-family="Times,serif" font-size="14.00">32769:49152</text>
</g>
<!-- 41562 -->
<g id="node2" class="node">
<title>41562</title>
<ellipse fill="none" stroke="red" stroke-width="2" cx="253.49" cy="-368.09" rx="78.48" ry="26.74"/>
<text text-anchor="middle" x="253.49" y="-371.89" font-family="Times,serif" font-size="14.00">merge</text>
<text text-anchor="middle" x="253.49" y="-356.89" font-family="Times,serif" font-size="14.00">32769:65536</text>
</g>
<!-- 41556&#45;&gt;41562 -->
<g id="edge1" class="edge">
<title>41556&#45;&gt;41562</title>
<path fill="none" stroke="black" stroke-width="2" d="M253.49,-430.51C253.49,-422.54 253.49,-413.65 253.49,-405.16"/>
<polygon fill="black" stroke="black" stroke-width="2" points="256.99,-405.09 253.49,-395.09 249.99,-405.09 256.99,-405.09"/>
</g>
<!-- 41565 -->
<g id="node9" class="node">
<title>41565</title>
<ellipse fill="none" stroke="red" stroke-width="2" cx="478.49" cy="-278.35" rx="53.07" ry="26.74"/>
<text text-anchor="middle" x="478.49" y="-282.15" font-family="Times,serif" font-size="14.00">merge</text>
<text text-anchor="middle" x="478.49" y="-267.15" font-family="Times,serif" font-size="14.00">1:65536</text>
</g>
<!-- 41562&#45;&gt;41565 -->
<g id="edge14" class="edge">
<title>41562&#45;&gt;41565</title>
<path fill="none" stroke="red" stroke-width="2" d="M303.98,-347.4C340.85,-333.02 390.65,-313.61 427.61,-299.19"/>
<polygon fill="red" stroke="red" stroke-width="2" points="429.14,-302.35 437.19,-295.46 426.6,-295.83 429.14,-302.35"/>
</g>
<!-- 41557 -->
<g id="node3" class="node">
<title>41557</title>
<ellipse fill="none" stroke="red" stroke-width="2" cx="78.49" cy="-457.83" rx="78.48" ry="26.74"/>
<text text-anchor="middle" x="78.49" y="-461.63" font-family="Times,serif" font-size="14.00">sort</text>
<text text-anchor="middle" x="78.49" y="-446.63" font-family="Times,serif" font-size="14.00">49153:65536</text>
</g>
<!-- 41557&#45;&gt;41562 -->
<g id="edge2" class="edge">
<title>41557&#45;&gt;41562</title>
<path fill="none" stroke="red" stroke-width="2" d="M121.75,-435.14C145.82,-423.07 175.95,-407.97 201.31,-395.25"/>
<polygon fill="red" stroke="red" stroke-width="2" points="203.05,-398.29 210.43,-390.68 199.92,-392.03 203.05,-398.29"/>
</g>
<!-- 41554 -->
<g id="node4" class="node">
<title>41554</title>
<ellipse fill="none" stroke="black" stroke-width="2" cx="403.49" cy="-457.83" rx="53.07" ry="26.74"/>
<text text-anchor="middle" x="403.49" y="-461.63" font-family="Times,serif" font-size="14.00">sort</text>
<text text-anchor="middle" x="403.49" y="-446.63" font-family="Times,serif" font-size="14.00">1:16384</text>
</g>
<!-- 41561 -->
<g id="node5" class="node">
<title>41561</title>
<ellipse fill="none" stroke="black" stroke-width="2" cx="478.49" cy="-368.09" rx="53.07" ry="26.74"/>
<text text-anchor="middle" x="478.49" y="-371.89" font-family="Times,serif" font-size="14.00">merge</text>
<text text-anchor="middle" x="478.49" y="-356.89" font-family="Times,serif" font-size="14.00">1:32768</text>
</g>
<!-- 41554&#45;&gt;41561 -->
<g id="edge3" class="edge">
<title>41554&#45;&gt;41561</title>
<path fill="none" stroke="black" stroke-width="2" d="M423.98,-432.86C432.42,-422.99 442.3,-411.42 451.33,-400.87"/>
<polygon fill="black" stroke="black" stroke-width="2" points="454.18,-402.91 458.02,-393.04 448.86,-398.36 454.18,-402.91"/>
</g>
<!-- 41561&#45;&gt;41565 -->
<g id="edge13" class="edge">
<title>41561&#45;&gt;41565</title>
<path fill="none" stroke="black" stroke-width="2" d="M478.49,-340.77C478.49,-332.8 478.49,-323.91 478.49,-315.42"/>
<polygon fill="black" stroke="black" stroke-width="2" points="481.99,-315.35 478.49,-305.35 474.99,-315.35 481.99,-315.35"/>
</g>
<!-- 41555 -->
<g id="node6" class="node">
<title>41555</title>
<ellipse fill="none" stroke="black" stroke-width="2" cx="553.49" cy="-457.83" rx="78.48" ry="26.74"/>
<text text-anchor="middle" x="553.49" y="-461.63" font-family="Times,serif" font-size="14.00">sort</text>
<text text-anchor="middle" x="553.49" y="-446.63" font-family="Times,serif" font-size="14.00">16385:32768</text>
</g>
<!-- 41555&#45;&gt;41561 -->
<g id="edge4" class="edge">
<title>41555&#45;&gt;41561</title>
<path fill="none" stroke="black" stroke-width="2" d="M532.2,-431.92C523.91,-422.23 514.33,-411.02 505.56,-400.76"/>
<polygon fill="black" stroke="black" stroke-width="2" points="508.22,-398.48 499.06,-393.15 502.89,-403.03 508.22,-398.48"/>
</g>
<!-- 41558 -->
<g id="node7" class="node">
<title>41558</title>
<ellipse fill="none" stroke="black" stroke-width="2" cx="903.49" cy="-457.83" rx="78.48" ry="26.74"/>
<text text-anchor="middle" x="903.49" y="-461.63" font-family="Times,serif" font-size="14.00">sort</text>
<text text-anchor="middle" x="903.49" y="-446.63" font-family="Times,serif" font-size="14.00">65537:81920</text>
</g>
<!-- 41563 -->
<g id="node15" class="node">
<title>41563</title>
<ellipse fill="none" stroke="black" stroke-width="2" cx="772.49" cy="-368.09" rx="78.48" ry="26.74"/>
<text text-anchor="middle" x="772.49" y="-371.89" font-family="Times,serif" font-size="14.00">merge</text>
<text text-anchor="middle" x="772.49" y="-356.89" font-family="Times,serif" font-size="14.00">65537:98304</text>
</g>
<!-- 41558&#45;&gt;41563 -->
<g id="edge15" class="edge">
<title>41558&#45;&gt;41563</title>
<path fill="none" stroke="black" stroke-width="2" d="M868.73,-433.55C852.59,-422.74 833.23,-409.78 816.13,-398.32"/>
<polygon fill="black" stroke="black" stroke-width="2" points="817.67,-395.14 807.41,-392.48 813.77,-400.95 817.67,-395.14"/>
</g>
<!-- 41567 -->
<g id="node8" class="node">
<title>41567</title>
<ellipse fill="none" stroke="red" stroke-width="2" cx="640.49" cy="-188.61" rx="59.29" ry="26.74"/>
<text text-anchor="middle" x="640.49" y="-192.41" font-family="Times,serif" font-size="14.00">split</text>
<text text-anchor="middle" x="640.49" y="-177.41" font-family="Times,serif" font-size="14.00">1:100000</text>
</g>
<!-- 41568 -->
<g id="node12" class="node">
<title>41568</title>
<ellipse fill="none" stroke="black" stroke-width="2" cx="572.49" cy="-98.87" rx="59.29" ry="26.74"/>
<text text-anchor="middle" x="572.49" y="-102.67" font-family="Times,serif" font-size="14.00">merge A</text>
<text text-anchor="middle" x="572.49" y="-87.67" font-family="Times,serif" font-size="14.00">1:100000</text>
</g>
<!-- 41567&#45;&gt;41568 -->
<g id="edge11" class="edge">
<title>41567&#45;&gt;41568</title>
<path fill="none" stroke="black" stroke-width="2" d="M621.18,-162.7C613.95,-153.36 605.6,-142.6 597.9,-132.65"/>
<polygon fill="black" stroke="black" stroke-width="2" points="600.5,-130.3 591.61,-124.54 594.97,-134.58 600.5,-130.3"/>
</g>
<!-- 41569 -->
<g id="node13" class="node">
<title>41569</title>
<ellipse fill="none" stroke="red" stroke-width="2" cx="709.49" cy="-98.87" rx="59.29" ry="26.74"/>
<text text-anchor="middle" x="709.49" y="-102.67" font-family="Times,serif" font-size="14.00">merge B</text>
<text text-anchor="middle" x="709.49" y="-87.67" font-family="Times,serif" font-size="14.00">1:100000</text>
</g>
<!-- 41567&#45;&gt;41569 -->
<g id="edge17" class="edge">
<title>41567&#45;&gt;41569</title>
<path fill="none" stroke="red" stroke-width="2" d="M659.71,-163.17C667.2,-153.65 675.89,-142.59 683.9,-132.41"/>
<polygon fill="red" stroke="red" stroke-width="2" points="686.7,-134.51 690.13,-124.48 681.2,-130.18 686.7,-134.51"/>
</g>
<!-- 41565&#45;&gt;41567 -->
<g id="edge5" class="edge">
<title>41565&#45;&gt;41567</title>
<path fill="none" stroke="red" stroke-width="2" d="M514.04,-258.1C537.6,-245.34 568.74,-228.47 594.22,-214.67"/>
<polygon fill="red" stroke="red" stroke-width="2" points="596.21,-217.57 603.33,-209.73 592.87,-211.42 596.21,-217.57"/>
</g>
<!-- 41566 -->
<g id="node10" class="node">
<title>41566</title>
<ellipse fill="none" stroke="black" stroke-width="2" cx="772.49" cy="-278.35" rx="84.71" ry="26.74"/>
<text text-anchor="middle" x="772.49" y="-282.15" font-family="Times,serif" font-size="14.00">merge</text>
<text text-anchor="middle" x="772.49" y="-267.15" font-family="Times,serif" font-size="14.00">65537:100000</text>
</g>
<!-- 41566&#45;&gt;41567 -->
<g id="edge6" class="edge">
<title>41566&#45;&gt;41567</title>
<path fill="none" stroke="black" stroke-width="2" d="M737.12,-253.84C720.05,-242.5 699.48,-228.82 681.71,-217.01"/>
<polygon fill="black" stroke="black" stroke-width="2" points="683.51,-214 673.24,-211.38 679.63,-219.83 683.51,-214"/>
</g>
<!-- 41570 -->
<g id="node11" class="node">
<title>41570</title>
<ellipse fill="none" stroke="red" stroke-width="2" cx="640.49" cy="-18" rx="38.19" ry="18"/>
<text text-anchor="middle" x="640.49" y="-14.3" font-family="Times,serif" font-size="14.00">result</text>
</g>
<!-- 41568&#45;&gt;41570 -->
<g id="edge7" class="edge">
<title>41568&#45;&gt;41570</title>
<path fill="none" stroke="black" stroke-width="2" d="M593.63,-73.35C602.04,-63.6 611.67,-52.42 620.01,-42.75"/>
<polygon fill="black" stroke="black" stroke-width="2" points="622.78,-44.9 626.66,-35.04 617.48,-40.33 622.78,-44.9"/>
</g>
<!-- 41569&#45;&gt;41570 -->
<g id="edge8" class="edge">
<title>41569&#45;&gt;41570</title>
<path fill="none" stroke="red" stroke-width="2" d="M688.04,-73.35C679.5,-63.6 669.73,-52.42 661.26,-42.75"/>
<polygon fill="red" stroke="red" stroke-width="2" points="663.74,-40.26 654.52,-35.04 658.47,-44.87 663.74,-40.26"/>
</g>
<!-- 41559 -->
<g id="node14" class="node">
<title>41559</title>
<ellipse fill="none" stroke="black" stroke-width="2" cx="728.49" cy="-457.83" rx="78.48" ry="26.74"/>
<text text-anchor="middle" x="728.49" y="-461.63" font-family="Times,serif" font-size="14.00">sort</text>
<text text-anchor="middle" x="728.49" y="-446.63" font-family="Times,serif" font-size="14.00">81921:98304</text>
</g>
<!-- 41559&#45;&gt;41563 -->
<g id="edge16" class="edge">
<title>41559&#45;&gt;41563</title>
<path fill="none" stroke="black" stroke-width="2" d="M741.45,-430.98C745.7,-422.5 750.5,-412.94 755.03,-403.91"/>
<polygon fill="black" stroke="black" stroke-width="2" points="758.26,-405.26 759.62,-394.76 752.01,-402.13 758.26,-405.26"/>
</g>
<!-- 41563&#45;&gt;41566 -->
<g id="edge9" class="edge">
<title>41563&#45;&gt;41566</title>
<path fill="none" stroke="black" stroke-width="2" d="M772.49,-340.77C772.49,-332.8 772.49,-323.91 772.49,-315.42"/>
<polygon fill="black" stroke="black" stroke-width="2" points="775.99,-315.35 772.49,-305.35 768.99,-315.35 775.99,-315.35"/>
</g>
<!-- 41564 -->
<g id="node16" class="node">
<title>41564</title>
<ellipse fill="none" stroke="black" stroke-width="2" cx="1040.49" cy="-368.09" rx="84.71" ry="26.74"/>
<text text-anchor="middle" x="1040.49" y="-371.89" font-family="Times,serif" font-size="14.00">copy</text>
<text text-anchor="middle" x="1040.49" y="-356.89" font-family="Times,serif" font-size="14.00">98305:100000</text>
</g>
<!-- 41564&#45;&gt;41566 -->
<g id="edge10" class="edge">
<title>41564&#45;&gt;41566</title>
<path fill="none" stroke="black" stroke-width="2" d="M983,-348.27C940.96,-334.5 883.81,-315.8 839.67,-301.34"/>
<polygon fill="black" stroke="black" stroke-width="2" points="840.48,-297.93 829.89,-298.14 838.3,-304.58 840.48,-297.93"/>
</g>
<!-- 41560 -->
<g id="node17" class="node">
<title>41560</title>
<ellipse fill="none" stroke="black" stroke-width="2" cx="1084.49" cy="-457.83" rx="84.71" ry="26.74"/>
<text text-anchor="middle" x="1084.49" y="-461.63" font-family="Times,serif" font-size="14.00">sort</text>
<text text-anchor="middle" x="1084.49" y="-446.63" font-family="Times,serif" font-size="14.00">98305:100000</text>
</g>
<!-- 41560&#45;&gt;41564 -->
<g id="edge12" class="edge">
<title>41560&#45;&gt;41564</title>
<path fill="none" stroke="black" stroke-width="2" d="M1071.53,-430.98C1067.27,-422.5 1062.48,-412.94 1057.95,-403.91"/>
<polygon fill="black" stroke="black" stroke-width="2" points="1060.97,-402.13 1053.36,-394.76 1054.71,-405.26 1060.97,-402.13"/>
</g>
</g>
</svg>
