<?xml version="1.0" encoding="UTF-8" standalone="no"?>
<!DOCTYPE svg PUBLIC "-//W3C//DTD SVG 1.1//EN"
 "http://www.w3.org/Graphics/SVG/1.1/DTD/svg11.dtd">
<!-- Generated by graphviz version 2.50.0 (20211204.2007)
 -->
<!-- Title: dag Pages: 1 -->
<svg width="1177pt" height="403pt"
 viewBox="0.00 0.00 1176.98 402.96" xmlns="http://www.w3.org/2000/svg" xmlns:xlink="http://www.w3.org/1999/xlink">
<g id="graph0" class="graph" transform="scale(1 1) rotate(0) translate(4 398.96)">
<title>dag</title>
<polygon fill="white" stroke="transparent" points="-4,4 -4,-398.96 1172.98,-398.96 1172.98,4 -4,4"/>
<!-- 44956 -->
<g id="node1" class="node">
<title>44956</title>
<ellipse fill="none" stroke="black" stroke-width="2" cx="690.49" cy="-188.61" rx="53.07" ry="26.74"/>
<text text-anchor="middle" x="690.49" y="-192.41" font-family="Times,serif" font-size="14.00">merge</text>
<text text-anchor="middle" x="690.49" y="-177.41" font-family="Times,serif" font-size="14.00">1:65536</text>
</g>
<!-- 44958 -->
<g id="node8" class="node">
<title>44958</title>
<ellipse fill="none" stroke="red" stroke-width="2" cx="524.49" cy="-98.87" rx="59.29" ry="26.74"/>
<text text-anchor="middle" x="524.49" y="-102.67" font-family="Times,serif" font-size="14.00">merge</text>
<text text-anchor="middle" x="524.49" y="-87.67" font-family="Times,serif" font-size="14.00">1:100000</text>
</g>
<!-- 44956&#45;&gt;44958 -->
<g id="edge6" class="edge">
<title>44956&#45;&gt;44958</title>
<path fill="none" stroke="black" stroke-width="2" d="M654.47,-168.57C630.07,-155.68 597.6,-138.52 571.22,-124.57"/>
<polygon fill="black" stroke="black" stroke-width="2" points="572.64,-121.36 562.17,-119.78 569.37,-127.55 572.64,-121.36"/>
</g>
<!-- 44952 -->
<g id="node2" class="node">
<title>44952</title>
<ellipse fill="none" stroke="black" stroke-width="2" cx="690.49" cy="-278.35" rx="53.07" ry="26.74"/>
<text text-anchor="middle" x="690.49" y="-282.15" font-family="Times,serif" font-size="14.00">merge</text>
<text text-anchor="middle" x="690.49" y="-267.15" font-family="Times,serif" font-size="14.00">1:32768</text>
</g>
<!-- 44952&#45;&gt;44956 -->
<g id="edge1" class="edge">
<title>44952&#45;&gt;44956</title>
<path fill="none" stroke="black" stroke-width="2" d="M690.49,-251.03C690.49,-243.06 690.49,-234.17 690.49,-225.68"/>
<polygon fill="black" stroke="black" stroke-width="2" points="693.99,-225.61 690.49,-215.61 686.99,-225.61 693.99,-225.61"/>
</g>
<!-- 44953 -->
<g id="node3" class="node">
<title>44953</title>
<ellipse fill="none" stroke="black" stroke-width="2" cx="915.49" cy="-278.35" rx="78.48" ry="26.74"/>
<text text-anchor="middle" x="915.49" y="-282.15" font-family="Times,serif" font-size="14.00">merge</text>
<text text-anchor="middle" x="915.49" y="-267.15" font-family="Times,serif" font-size="14.00">32769:65536</text>
</g>
<!-- 44953&#45;&gt;44956 -->
<g id="edge2" class="edge">
<title>44953&#45;&gt;44956</title>
<path fill="none" stroke="black" stroke-width="2" d="M864.99,-257.66C828.12,-243.28 778.33,-223.86 741.37,-209.45"/>
<polygon fill="black" stroke="black" stroke-width="2" points="742.38,-206.09 731.79,-205.72 739.83,-212.61 742.38,-206.09"/>
</g>
<!-- 44957 -->
<g id="node4" class="node">
<title>44957</title>
<ellipse fill="none" stroke="red" stroke-width="2" cx="434.49" cy="-188.61" rx="84.71" ry="26.74"/>
<text text-anchor="middle" x="434.49" y="-192.41" font-family="Times,serif" font-size="14.00">merge</text>
<text text-anchor="middle" x="434.49" y="-177.41" font-family="Times,serif" font-size="14.00">65537:100000</text>
</g>
<!-- 44957&#45;&gt;44958 -->
<g id="edge5" class="edge">
<title>44957&#45;&gt;44958</title>
<path fill="none" stroke="red" stroke-width="2" d="M460.04,-162.7C470.26,-152.74 482.13,-141.16 492.88,-130.68"/>
<polygon fill="red" stroke="red" stroke-width="2" points="495.4,-133.12 500.12,-123.63 490.51,-128.11 495.4,-133.12"/>
</g>
<!-- 44954 -->
<g id="node5" class="node">
<title>44954</title>
<ellipse fill="none" stroke="red" stroke-width="2" cx="253.49" cy="-278.35" rx="78.48" ry="26.74"/>
<text text-anchor="middle" x="253.49" y="-282.15" font-family="Times,serif" font-size="14.00">merge</text>
<text text-anchor="middle" x="253.49" y="-267.15" font-family="Times,serif" font-size="14.00">65537:98304</text>
</g>
<!-- 44954&#45;&gt;44957 -->
<g id="edge3" class="edge">
<title>44954&#45;&gt;44957</title>
<path fill="none" stroke="red" stroke-width="2" d="M297.77,-255.89C322.67,-243.81 353.95,-228.65 380.31,-215.87"/>
<polygon fill="red" stroke="red" stroke-width="2" points="381.94,-218.97 389.41,-211.46 378.89,-212.67 381.94,-218.97"/>
</g>
<!-- 44955 -->
<g id="node6" class="node">
<title>44955</title>
<ellipse fill="none" stroke="black" stroke-width="2" cx="434.49" cy="-278.35" rx="84.71" ry="26.74"/>
<text text-anchor="middle" x="434.49" y="-282.15" font-family="Times,serif" font-size="14.00">copy</text>
<text text-anchor="middle" x="434.49" y="-267.15" font-family="Times,serif" font-size="14.00">98305:100000</text>
</g>
<!-- 44955&#45;&gt;44957 -->
<g id="edge4" class="edge">
<title>44955&#45;&gt;44957</title>
<path fill="none" stroke="black" stroke-width="2" d="M434.49,-251.03C434.49,-243.06 434.49,-234.17 434.49,-225.68"/>
<polygon fill="black" stroke="black" stroke-width="2" points="437.99,-225.61 434.49,-215.61 430.99,-225.61 437.99,-225.61"/>
</g>
<!-- 44950 -->
<g id="node7" class="node">
<title>44950</title>
<ellipse fill="none" stroke="red" stroke-width="2" cx="78.49" cy="-368.09" rx="78.48" ry="26.74"/>
<text text-anchor="middle" x="78.49" y="-371.89" font-family="Times,serif" font-size="14.00">sort</text>
<text text-anchor="middle" x="78.49" y="-356.89" font-family="Times,serif" font-size="14.00">81921:98304</text>
</g>
<!-- 44950&#45;&gt;44954 -->
<g id="edge11" class="edge">
<title>44950&#45;&gt;44954</title>
<path fill="none" stroke="red" stroke-width="2" d="M121.75,-345.4C145.82,-333.33 175.95,-318.23 201.31,-305.51"/>
<polygon fill="red" stroke="red" stroke-width="2" points="203.05,-308.55 210.43,-300.94 199.92,-302.29 203.05,-308.55"/>
</g>
<!-- 44959 -->
<g id="node9" class="node">
<title>44959</title>
<ellipse fill="none" stroke="red" stroke-width="2" cx="524.49" cy="-18" rx="38.19" ry="18"/>
<text text-anchor="middle" x="524.49" y="-14.3" font-family="Times,serif" font-size="14.00">result</text>
</g>
<!-- 44958&#45;&gt;44959 -->
<g id="edge7" class="edge">
<title>44958&#45;&gt;44959</title>
<path fill="none" stroke="red" stroke-width="2" d="M524.49,-71.61C524.49,-63.51 524.49,-54.57 524.49,-46.39"/>
<polygon fill="red" stroke="red" stroke-width="2" points="527.99,-46.22 524.49,-36.22 520.99,-46.22 527.99,-46.22"/>
</g>
<!-- 44946 -->
<g id="node10" class="node">
<title>44946</title>
<ellipse fill="none" stroke="black" stroke-width="2" cx="615.49" cy="-368.09" rx="78.48" ry="26.74"/>
<text text-anchor="middle" x="615.49" y="-371.89" font-family="Times,serif" font-size="14.00">sort</text>
<text text-anchor="middle" x="615.49" y="-356.89" font-family="Times,serif" font-size="14.00">16385:32768</text>
</g>
<!-- 44946&#45;&gt;44952 -->
<g id="edge9" class="edge">
<title>44946&#45;&gt;44952</title>
<path fill="none" stroke="black" stroke-width="2" d="M636.78,-342.18C645.06,-332.49 654.65,-321.28 663.42,-311.02"/>
<polygon fill="black" stroke="black" stroke-width="2" points="666.08,-313.29 669.92,-303.41 660.76,-308.74 666.08,-313.29"/>
</g>
<!-- 44945 -->
<g id="node11" class="node">
<title>44945</title>
<ellipse fill="none" stroke="black" stroke-width="2" cx="765.49" cy="-368.09" rx="53.07" ry="26.74"/>
<text text-anchor="middle" x="765.49" y="-371.89" font-family="Times,serif" font-size="14.00">sort</text>
<text text-anchor="middle" x="765.49" y="-356.89" font-family="Times,serif" font-size="14.00">1:16384</text>
</g>
<!-- 44945&#45;&gt;44952 -->
<g id="edge8" class="edge">
<title>44945&#45;&gt;44952</title>
<path fill="none" stroke="black" stroke-width="2" d="M744.99,-343.12C736.56,-333.25 726.67,-321.68 717.65,-311.13"/>
<polygon fill="black" stroke="black" stroke-width="2" points="720.12,-308.62 710.96,-303.3 714.8,-313.17 720.12,-308.62"/>
</g>
<!-- 44949 -->
<g id="node12" class="node">
<title>44949</title>
<ellipse fill="none" stroke="black" stroke-width="2" cx="253.49" cy="-368.09" rx="78.48" ry="26.74"/>
<text text-anchor="middle" x="253.49" y="-371.89" font-family="Times,serif" font-size="14.00">sort</text>
<text text-anchor="middle" x="253.49" y="-356.89" font-family="Times,serif" font-size="14.00">65537:81920</text>
</g>
<!-- 44949&#45;&gt;44954 -->
<g id="edge10" class="edge">
<title>44949&#45;&gt;44954</title>
<path fill="none" stroke="black" stroke-width="2" d="M253.49,-340.77C253.49,-332.8 253.49,-323.91 253.49,-315.42"/>
<polygon fill="black" stroke="black" stroke-width="2" points="256.99,-315.35 253.49,-305.35 249.99,-315.35 256.99,-315.35"/>
</g>
<!-- 44951 -->
<g id="node13" class="node">
<title>44951</title>
<ellipse fill="none" stroke="black" stroke-width="2" cx="434.49" cy="-368.09" rx="84.71" ry="26.74"/>
<text text-anchor="middle" x="434.49" y="-371.89" font-family="Times,serif" font-size="14.00">sort</text>
<text text-anchor="middle" x="434.49" y="-356.89" font-family="Times,serif" font-size="14.00">98305:100000</text>
</g>
<!-- 44951&#45;&gt;44955 -->
<g id="edge12" class="edge">
<title>44951&#45;&gt;44955</title>
<path fill="none" stroke="black" stroke-width="2" d="M434.49,-340.77C434.49,-332.8 434.49,-323.91 434.49,-315.42"/>
<polygon fill="black" stroke="black" stroke-width="2" points="437.99,-315.35 434.49,-305.35 430.99,-315.35 437.99,-315.35"/>
</g>
<!-- 44948 -->
<g id="node14" class="node">
<title>44948</title>
<ellipse fill="none" stroke="black" stroke-width="2" cx="915.49" cy="-368.09" rx="78.48" ry="26.74"/>
<text text-anchor="middle" x="915.49" y="-371.89" font-family="Times,serif" font-size="14.00">sort</text>
<text text-anchor="middle" x="915.49" y="-356.89" font-family="Times,serif" font-size="14.00">49153:65536</text>
</g>
<!-- 44948&#45;&gt;44953 -->
<g id="edge14" class="edge">
<title>44948&#45;&gt;44953</title>
<path fill="none" stroke="black" stroke-width="2" d="M915.49,-340.77C915.49,-332.8 915.49,-323.91 915.49,-315.42"/>
<polygon fill="black" stroke="black" stroke-width="2" points="918.99,-315.35 915.49,-305.35 911.99,-315.35 918.99,-315.35"/>
</g>
<!-- 44947 -->
<g id="node15" class="node">
<title>44947</title>
<ellipse fill="none" stroke="black" stroke-width="2" cx="1090.49" cy="-368.09" rx="78.48" ry="26.74"/>
<text text-anchor="middle" x="1090.49" y="-371.89" font-family="Times,serif" font-size="14.00">sort</text>
<text text-anchor="middle" x="1090.49" y="-356.89" font-family="Times,serif" font-size="14.00">32769:49152</text>
</g>
<!-- 44947&#45;&gt;44953 -->
<g id="edge13" class="edge">
<title>44947&#45;&gt;44953</title>
<path fill="none" stroke="black" stroke-width="2" d="M1047.23,-345.4C1023.16,-333.33 993.03,-318.23 967.66,-305.51"/>
<polygon fill="black" stroke="black" stroke-width="2" points="969.06,-302.29 958.55,-300.94 965.92,-308.55 969.06,-302.29"/>
</g>
</g>
</svg>
