<?xml version="1.0" encoding="UTF-8" standalone="no"?>
<!DOCTYPE svg PUBLIC "-//W3C//DTD SVG 1.1//EN"
 "http://www.w3.org/Graphics/SVG/1.1/DTD/svg11.dtd">
<!-- Generated by graphviz version 2.50.0 (20211204.2007)
 -->
<!-- Title: dag Pages: 1 -->
<svg width="1177pt" height="493pt"
 viewBox="0.00 0.00 1177.34 492.70" xmlns="http://www.w3.org/2000/svg" xmlns:xlink="http://www.w3.org/1999/xlink">
<g id="graph0" class="graph" transform="scale(1 1) rotate(0) translate(4 488.7)">
<title>dag</title>
<polygon fill="white" stroke="transparent" points="-4,4 -4,-488.7 1173.34,-488.7 1173.34,4 -4,4"/>
<!-- 43503 -->
<g id="node1" class="node">
<title>43503</title>
<ellipse fill="none" stroke="black" stroke-width="2" cx="228.49" cy="-457.83" rx="53.07" ry="26.74"/>
<text text-anchor="middle" x="228.49" y="-461.63" font-family="Times,serif" font-size="14.00">sort</text>
<text text-anchor="middle" x="228.49" y="-446.63" font-family="Times,serif" font-size="14.00">1:16384</text>
</g>
<!-- 43510 -->
<g id="node6" class="node">
<title>43510</title>
<ellipse fill="none" stroke="black" stroke-width="2" cx="228.49" cy="-368.09" rx="53.07" ry="26.74"/>
<text text-anchor="middle" x="228.49" y="-371.89" font-family="Times,serif" font-size="14.00">merge</text>
<text text-anchor="middle" x="228.49" y="-356.89" font-family="Times,serif" font-size="14.00">1:32768</text>
</g>
<!-- 43503&#45;&gt;43510 -->
<g id="edge12" class="edge">
<title>43503&#45;&gt;43510</title>
<path fill="none" stroke="black" stroke-width="2" d="M228.49,-430.51C228.49,-422.54 228.49,-413.65 228.49,-405.16"/>
<polygon fill="black" stroke="black" stroke-width="2" points="231.99,-405.09 228.49,-395.09 224.99,-405.09 231.99,-405.09"/>
</g>
<!-- 43511 -->
<g id="node2" class="node">
<title>43511</title>
<ellipse fill="none" stroke="red" stroke-width="2" cx="509.49" cy="-368.09" rx="78.48" ry="26.74"/>
<text text-anchor="middle" x="509.49" y="-371.89" font-family="Times,serif" font-size="14.00">merge</text>
<text text-anchor="middle" x="509.49" y="-356.89" font-family="Times,serif" font-size="14.00">32769:65536</text>
</g>
<!-- 43514 -->
<g id="node5" class="node">
<title>43514</title>
<ellipse fill="none" stroke="red" stroke-width="2" cx="509.49" cy="-278.35" rx="53.07" ry="26.74"/>
<text text-anchor="middle" x="509.49" y="-282.15" font-family="Times,serif" font-size="14.00">merge</text>
<text text-anchor="middle" x="509.49" y="-267.15" font-family="Times,serif" font-size="14.00">1:65536</text>
</g>
<!-- 43511&#45;&gt;43514 -->
<g id="edge3" class="edge">
<title>43511&#45;&gt;43514</title>
<path fill="none" stroke="red" stroke-width="2" d="M509.49,-340.77C509.49,-332.8 509.49,-323.91 509.49,-315.42"/>
<polygon fill="red" stroke="red" stroke-width="2" points="512.99,-315.35 509.49,-305.35 505.99,-315.35 512.99,-315.35"/>
</g>
<!-- 43506 -->
<g id="node3" class="node">
<title>43506</title>
<ellipse fill="none" stroke="red" stroke-width="2" cx="378.49" cy="-457.83" rx="78.48" ry="26.74"/>
<text text-anchor="middle" x="378.49" y="-461.63" font-family="Times,serif" font-size="14.00">sort</text>
<text text-anchor="middle" x="378.49" y="-446.63" font-family="Times,serif" font-size="14.00">49153:65536</text>
</g>
<!-- 43506&#45;&gt;43511 -->
<g id="edge1" class="edge">
<title>43506&#45;&gt;43511</title>
<path fill="none" stroke="red" stroke-width="2" d="M413.25,-433.55C429.39,-422.74 448.74,-409.78 465.85,-398.32"/>
<polygon fill="red" stroke="red" stroke-width="2" points="468.2,-400.95 474.56,-392.48 464.31,-395.14 468.2,-400.95"/>
</g>
<!-- 43505 -->
<g id="node4" class="node">
<title>43505</title>
<ellipse fill="none" stroke="black" stroke-width="2" cx="553.49" cy="-457.83" rx="78.48" ry="26.74"/>
<text text-anchor="middle" x="553.49" y="-461.63" font-family="Times,serif" font-size="14.00">sort</text>
<text text-anchor="middle" x="553.49" y="-446.63" font-family="Times,serif" font-size="14.00">32769:49152</text>
</g>
<!-- 43505&#45;&gt;43511 -->
<g id="edge2" class="edge">
<title>43505&#45;&gt;43511</title>
<path fill="none" stroke="black" stroke-width="2" d="M540.53,-430.98C536.27,-422.5 531.48,-412.94 526.95,-403.91"/>
<polygon fill="black" stroke="black" stroke-width="2" points="529.97,-402.13 522.36,-394.76 523.71,-405.26 529.97,-402.13"/>
</g>
<!-- 43516 -->
<g id="node8" class="node">
<title>43516</title>
<ellipse fill="none" stroke="red" stroke-width="2" cx="596.49" cy="-188.61" rx="59.29" ry="26.74"/>
<text text-anchor="middle" x="596.49" y="-192.41" font-family="Times,serif" font-size="14.00">split</text>
<text text-anchor="middle" x="596.49" y="-177.41" font-family="Times,serif" font-size="14.00">1:100000</text>
</g>
<!-- 43514&#45;&gt;43516 -->
<g id="edge9" class="edge">
<title>43514&#45;&gt;43516</title>
<path fill="none" stroke="red" stroke-width="2" d="M532.8,-253.84C542.86,-243.69 554.77,-231.68 565.56,-220.8"/>
<polygon fill="red" stroke="red" stroke-width="2" points="568.25,-223.06 572.81,-213.49 563.28,-218.13 568.25,-223.06"/>
</g>
<!-- 43510&#45;&gt;43514 -->
<g id="edge4" class="edge">
<title>43510&#45;&gt;43514</title>
<path fill="none" stroke="black" stroke-width="2" d="M273.01,-353.19C322.55,-337.72 402.57,-312.74 455.6,-296.18"/>
<polygon fill="black" stroke="black" stroke-width="2" points="456.67,-299.51 465.17,-293.19 454.58,-292.83 456.67,-299.51"/>
</g>
<!-- 43518 -->
<g id="node7" class="node">
<title>43518</title>
<ellipse fill="none" stroke="black" stroke-width="2" cx="528.49" cy="-98.87" rx="59.29" ry="26.74"/>
<text text-anchor="middle" x="528.49" y="-102.67" font-family="Times,serif" font-size="14.00">merge B</text>
<text text-anchor="middle" x="528.49" y="-87.67" font-family="Times,serif" font-size="14.00">1:100000</text>
</g>
<!-- 43519 -->
<g id="node16" class="node">
<title>43519</title>
<ellipse fill="none" stroke="red" stroke-width="2" cx="596.49" cy="-18" rx="38.19" ry="18"/>
<text text-anchor="middle" x="596.49" y="-14.3" font-family="Times,serif" font-size="14.00">result</text>
</g>
<!-- 43518&#45;&gt;43519 -->
<g id="edge14" class="edge">
<title>43518&#45;&gt;43519</title>
<path fill="none" stroke="black" stroke-width="2" d="M549.63,-73.35C558.04,-63.6 567.67,-52.42 576.01,-42.75"/>
<polygon fill="black" stroke="black" stroke-width="2" points="578.78,-44.9 582.66,-35.04 573.48,-40.33 578.78,-44.9"/>
</g>
<!-- 43516&#45;&gt;43518 -->
<g id="edge5" class="edge">
<title>43516&#45;&gt;43518</title>
<path fill="none" stroke="black" stroke-width="2" d="M577.18,-162.7C569.95,-153.36 561.6,-142.6 553.9,-132.65"/>
<polygon fill="black" stroke="black" stroke-width="2" points="556.5,-130.3 547.61,-124.54 550.97,-134.58 556.5,-130.3"/>
</g>
<!-- 43517 -->
<g id="node10" class="node">
<title>43517</title>
<ellipse fill="none" stroke="red" stroke-width="2" cx="665.49" cy="-98.87" rx="59.29" ry="26.74"/>
<text text-anchor="middle" x="665.49" y="-102.67" font-family="Times,serif" font-size="14.00">merge A</text>
<text text-anchor="middle" x="665.49" y="-87.67" font-family="Times,serif" font-size="14.00">1:100000</text>
</g>
<!-- 43516&#45;&gt;43517 -->
<g id="edge6" class="edge">
<title>43516&#45;&gt;43517</title>
<path fill="none" stroke="red" stroke-width="2" d="M615.71,-163.17C623.2,-153.65 631.89,-142.59 639.9,-132.41"/>
<polygon fill="red" stroke="red" stroke-width="2" points="642.7,-134.51 646.13,-124.48 637.2,-130.18 642.7,-134.51"/>
</g>
<!-- 43504 -->
<g id="node9" class="node">
<title>43504</title>
<ellipse fill="none" stroke="black" stroke-width="2" cx="78.49" cy="-457.83" rx="78.48" ry="26.74"/>
<text text-anchor="middle" x="78.49" y="-461.63" font-family="Times,serif" font-size="14.00">sort</text>
<text text-anchor="middle" x="78.49" y="-446.63" font-family="Times,serif" font-size="14.00">16385:32768</text>
</g>
<!-- 43504&#45;&gt;43510 -->
<g id="edge11" class="edge">
<title>43504&#45;&gt;43510</title>
<path fill="none" stroke="black" stroke-width="2" d="M117.12,-434.24C138.17,-421.92 164.28,-406.65 185.92,-393.99"/>
<polygon fill="black" stroke="black" stroke-width="2" points="187.72,-396.99 194.59,-388.92 184.19,-390.95 187.72,-396.99"/>
</g>
<!-- 43517&#45;&gt;43519 -->
<g id="edge13" class="edge">
<title>43517&#45;&gt;43519</title>
<path fill="none" stroke="red" stroke-width="2" d="M644.04,-73.35C635.5,-63.6 625.73,-52.42 617.26,-42.75"/>
<polygon fill="red" stroke="red" stroke-width="2" points="619.74,-40.26 610.52,-35.04 614.47,-44.87 619.74,-40.26"/>
</g>
<!-- 43509 -->
<g id="node11" class="node">
<title>43509</title>
<ellipse fill="none" stroke="black" stroke-width="2" cx="1084.49" cy="-457.83" rx="84.71" ry="26.74"/>
<text text-anchor="middle" x="1084.49" y="-461.63" font-family="Times,serif" font-size="14.00">sort</text>
<text text-anchor="middle" x="1084.49" y="-446.63" font-family="Times,serif" font-size="14.00">98305:100000</text>
</g>
<!-- 43513 -->
<g id="node17" class="node">
<title>43513</title>
<ellipse fill="none" stroke="black" stroke-width="2" cx="1039.49" cy="-368.09" rx="84.71" ry="26.74"/>
<text text-anchor="middle" x="1039.49" y="-371.89" font-family="Times,serif" font-size="14.00">copy</text>
<text text-anchor="middle" x="1039.49" y="-356.89" font-family="Times,serif" font-size="14.00">98305:100000</text>
</g>
<!-- 43509&#45;&gt;43513 -->
<g id="edge15" class="edge">
<title>43509&#45;&gt;43513</title>
<path fill="none" stroke="black" stroke-width="2" d="M1071.23,-430.98C1066.88,-422.5 1061.98,-412.94 1057.34,-403.91"/>
<polygon fill="black" stroke="black" stroke-width="2" points="1060.33,-402.06 1052.65,-394.76 1054.1,-405.25 1060.33,-402.06"/>
</g>
<!-- 43508 -->
<g id="node12" class="node">
<title>43508</title>
<ellipse fill="none" stroke="black" stroke-width="2" cx="903.49" cy="-457.83" rx="78.48" ry="26.74"/>
<text text-anchor="middle" x="903.49" y="-461.63" font-family="Times,serif" font-size="14.00">sort</text>
<text text-anchor="middle" x="903.49" y="-446.63" font-family="Times,serif" font-size="14.00">81921:98304</text>
</g>
<!-- 43512 -->
<g id="node13" class="node">
<title>43512</title>
<ellipse fill="none" stroke="black" stroke-width="2" cx="771.49" cy="-368.09" rx="78.48" ry="26.74"/>
<text text-anchor="middle" x="771.49" y="-371.89" font-family="Times,serif" font-size="14.00">merge</text>
<text text-anchor="middle" x="771.49" y="-356.89" font-family="Times,serif" font-size="14.00">65537:98304</text>
</g>
<!-- 43508&#45;&gt;43512 -->
<g id="edge7" class="edge">
<title>43508&#45;&gt;43512</title>
<path fill="none" stroke="black" stroke-width="2" d="M868.46,-433.55C852.2,-422.74 832.7,-409.78 815.46,-398.32"/>
<polygon fill="black" stroke="black" stroke-width="2" points="816.95,-395.1 806.68,-392.48 813.07,-400.93 816.95,-395.1"/>
</g>
<!-- 43515 -->
<g id="node15" class="node">
<title>43515</title>
<ellipse fill="none" stroke="black" stroke-width="2" cx="771.49" cy="-278.35" rx="84.71" ry="26.74"/>
<text text-anchor="middle" x="771.49" y="-282.15" font-family="Times,serif" font-size="14.00">merge</text>
<text text-anchor="middle" x="771.49" y="-267.15" font-family="Times,serif" font-size="14.00">65537:100000</text>
</g>
<!-- 43512&#45;&gt;43515 -->
<g id="edge16" class="edge">
<title>43512&#45;&gt;43515</title>
<path fill="none" stroke="black" stroke-width="2" d="M771.49,-340.77C771.49,-332.8 771.49,-323.91 771.49,-315.42"/>
<polygon fill="black" stroke="black" stroke-width="2" points="774.99,-315.35 771.49,-305.35 767.99,-315.35 774.99,-315.35"/>
</g>
<!-- 43507 -->
<g id="node14" class="node">
<title>43507</title>
<ellipse fill="none" stroke="black" stroke-width="2" cx="728.49" cy="-457.83" rx="78.48" ry="26.74"/>
<text text-anchor="middle" x="728.49" y="-461.63" font-family="Times,serif" font-size="14.00">sort</text>
<text text-anchor="middle" x="728.49" y="-446.63" font-family="Times,serif" font-size="14.00">65537:81920</text>
</g>
<!-- 43507&#45;&gt;43512 -->
<g id="edge8" class="edge">
<title>43507&#45;&gt;43512</title>
<path fill="none" stroke="black" stroke-width="2" d="M741.16,-430.98C745.31,-422.5 750,-412.94 754.43,-403.91"/>
<polygon fill="black" stroke="black" stroke-width="2" points="757.65,-405.28 758.91,-394.76 751.37,-402.2 757.65,-405.28"/>
</g>
<!-- 43515&#45;&gt;43516 -->
<g id="edge10" class="edge">
<title>43515&#45;&gt;43516</title>
<path fill="none" stroke="black" stroke-width="2" d="M727.33,-255.21C702.08,-242.55 670.39,-226.66 644.52,-213.69"/>
<polygon fill="black" stroke="black" stroke-width="2" points="645.78,-210.41 635.27,-209.06 642.64,-216.67 645.78,-210.41"/>
</g>
<!-- 43513&#45;&gt;43515 -->
<g id="edge17" class="edge">
<title>43513&#45;&gt;43515</title>
<path fill="none" stroke="black" stroke-width="2" d="M982,-348.27C939.96,-334.5 882.81,-315.8 838.67,-301.34"/>
<polygon fill="black" stroke="black" stroke-width="2" points="839.48,-297.93 828.89,-298.14 837.3,-304.58 839.48,-297.93"/>
</g>
</g>
</svg>
