<?xml version="1.0" encoding="UTF-8" standalone="no"?>
<!DOCTYPE svg PUBLIC "-//W3C//DTD SVG 1.1//EN"
 "http://www.w3.org/Graphics/SVG/1.1/DTD/svg11.dtd">
<!-- Generated by graphviz version 2.50.0 (20211204.2007)
 -->
<!-- Title: dag Pages: 1 -->
<svg width="1177pt" height="403pt"
 viewBox="0.00 0.00 1177.34 402.96" xmlns="http://www.w3.org/2000/svg" xmlns:xlink="http://www.w3.org/1999/xlink">
<g id="graph0" class="graph" transform="scale(1 1) rotate(0) translate(4 398.96)">
<title>dag</title>
<polygon fill="white" stroke="transparent" points="-4,4 -4,-398.96 1173.34,-398.96 1173.34,4 -4,4"/>
<!-- 42269 -->
<g id="node1" class="node">
<title>42269</title>
<ellipse fill="none" stroke="black" stroke-width="2" cx="915.85" cy="-278.35" rx="78.48" ry="26.74"/>
<text text-anchor="middle" x="915.85" y="-282.15" font-family="Times,serif" font-size="14.00">merge</text>
<text text-anchor="middle" x="915.85" y="-267.15" font-family="Times,serif" font-size="14.00">32769:65536</text>
</g>
<!-- 42272 -->
<g id="node5" class="node">
<title>42272</title>
<ellipse fill="none" stroke="red" stroke-width="2" cx="666.85" cy="-188.61" rx="53.07" ry="26.74"/>
<text text-anchor="middle" x="666.85" y="-192.41" font-family="Times,serif" font-size="14.00">merge</text>
<text text-anchor="middle" x="666.85" y="-177.41" font-family="Times,serif" font-size="14.00">1:65536</text>
</g>
<!-- 42269&#45;&gt;42272 -->
<g id="edge9" class="edge">
<title>42269&#45;&gt;42272</title>
<path fill="none" stroke="black" stroke-width="2" d="M862.44,-258.53C820.15,-243.63 761.4,-222.93 719.35,-208.11"/>
<polygon fill="black" stroke="black" stroke-width="2" points="720.44,-204.78 709.84,-204.76 718.11,-211.38 720.44,-204.78"/>
</g>
<!-- 42264 -->
<g id="node2" class="node">
<title>42264</title>
<ellipse fill="none" stroke="black" stroke-width="2" cx="915.85" cy="-368.09" rx="78.48" ry="26.74"/>
<text text-anchor="middle" x="915.85" y="-371.89" font-family="Times,serif" font-size="14.00">sort</text>
<text text-anchor="middle" x="915.85" y="-356.89" font-family="Times,serif" font-size="14.00">49153:65536</text>
</g>
<!-- 42264&#45;&gt;42269 -->
<g id="edge1" class="edge">
<title>42264&#45;&gt;42269</title>
<path fill="none" stroke="black" stroke-width="2" d="M915.85,-340.77C915.85,-332.8 915.85,-323.91 915.85,-315.42"/>
<polygon fill="black" stroke="black" stroke-width="2" points="919.35,-315.35 915.85,-305.35 912.35,-315.35 919.35,-315.35"/>
</g>
<!-- 42263 -->
<g id="node3" class="node">
<title>42263</title>
<ellipse fill="none" stroke="black" stroke-width="2" cx="1090.85" cy="-368.09" rx="78.48" ry="26.74"/>
<text text-anchor="middle" x="1090.85" y="-371.89" font-family="Times,serif" font-size="14.00">sort</text>
<text text-anchor="middle" x="1090.85" y="-356.89" font-family="Times,serif" font-size="14.00">32769:49152</text>
</g>
<!-- 42263&#45;&gt;42269 -->
<g id="edge2" class="edge">
<title>42263&#45;&gt;42269</title>
<path fill="none" stroke="black" stroke-width="2" d="M1047.59,-345.4C1023.53,-333.33 993.4,-318.23 968.03,-305.51"/>
<polygon fill="black" stroke="black" stroke-width="2" points="969.42,-302.29 958.92,-300.94 966.29,-308.55 969.42,-302.29"/>
</g>
<!-- 42274 -->
<g id="node4" class="node">
<title>42274</title>
<ellipse fill="none" stroke="red" stroke-width="2" cx="515.85" cy="-98.87" rx="59.29" ry="26.74"/>
<text text-anchor="middle" x="515.85" y="-102.67" font-family="Times,serif" font-size="14.00">merge</text>
<text text-anchor="middle" x="515.85" y="-87.67" font-family="Times,serif" font-size="14.00">1:100000</text>
</g>
<!-- 42275 -->
<g id="node10" class="node">
<title>42275</title>
<ellipse fill="none" stroke="red" stroke-width="2" cx="515.85" cy="-18" rx="38.19" ry="18"/>
<text text-anchor="middle" x="515.85" y="-14.3" font-family="Times,serif" font-size="14.00">result</text>
</g>
<!-- 42274&#45;&gt;42275 -->
<g id="edge8" class="edge">
<title>42274&#45;&gt;42275</title>
<path fill="none" stroke="red" stroke-width="2" d="M515.85,-71.61C515.85,-63.51 515.85,-54.57 515.85,-46.39"/>
<polygon fill="red" stroke="red" stroke-width="2" points="519.35,-46.22 515.85,-36.22 512.35,-46.22 519.35,-46.22"/>
</g>
<!-- 42272&#45;&gt;42274 -->
<g id="edge3" class="edge">
<title>42272&#45;&gt;42274</title>
<path fill="none" stroke="red" stroke-width="2" d="M632.97,-167.92C611.45,-155.42 583.39,-139.11 560.12,-125.59"/>
<polygon fill="red" stroke="red" stroke-width="2" points="561.87,-122.56 551.47,-120.56 558.35,-128.61 561.87,-122.56"/>
</g>
<!-- 42273 -->
<g id="node6" class="node">
<title>42273</title>
<ellipse fill="none" stroke="black" stroke-width="2" cx="437.85" cy="-188.61" rx="84.71" ry="26.74"/>
<text text-anchor="middle" x="437.85" y="-192.41" font-family="Times,serif" font-size="14.00">merge</text>
<text text-anchor="middle" x="437.85" y="-177.41" font-family="Times,serif" font-size="14.00">65537:100000</text>
</g>
<!-- 42273&#45;&gt;42274 -->
<g id="edge4" class="edge">
<title>42273&#45;&gt;42274</title>
<path fill="none" stroke="black" stroke-width="2" d="M460.41,-162.23C468.95,-152.63 478.77,-141.59 487.75,-131.49"/>
<polygon fill="black" stroke="black" stroke-width="2" points="490.39,-133.78 494.41,-123.99 485.15,-129.13 490.39,-133.78"/>
</g>
<!-- 42267 -->
<g id="node7" class="node">
<title>42267</title>
<ellipse fill="none" stroke="black" stroke-width="2" cx="84.85" cy="-368.09" rx="84.71" ry="26.74"/>
<text text-anchor="middle" x="84.85" y="-371.89" font-family="Times,serif" font-size="14.00">sort</text>
<text text-anchor="middle" x="84.85" y="-356.89" font-family="Times,serif" font-size="14.00">98305:100000</text>
</g>
<!-- 42271 -->
<g id="node8" class="node">
<title>42271</title>
<ellipse fill="none" stroke="black" stroke-width="2" cx="170.85" cy="-278.35" rx="84.71" ry="26.74"/>
<text text-anchor="middle" x="170.85" y="-282.15" font-family="Times,serif" font-size="14.00">copy</text>
<text text-anchor="middle" x="170.85" y="-267.15" font-family="Times,serif" font-size="14.00">98305:100000</text>
</g>
<!-- 42267&#45;&gt;42271 -->
<g id="edge5" class="edge">
<title>42267&#45;&gt;42271</title>
<path fill="none" stroke="black" stroke-width="2" d="M109.27,-342.18C118.62,-332.64 129.42,-321.62 139.34,-311.5"/>
<polygon fill="black" stroke="black" stroke-width="2" points="141.88,-313.91 146.38,-304.32 136.88,-309.01 141.88,-313.91"/>
</g>
<!-- 42271&#45;&gt;42273 -->
<g id="edge6" class="edge">
<title>42271&#45;&gt;42273</title>
<path fill="none" stroke="black" stroke-width="2" d="M228.46,-258.42C270.22,-244.7 326.81,-226.1 370.64,-211.7"/>
<polygon fill="black" stroke="black" stroke-width="2" points="371.94,-214.95 380.35,-208.51 369.76,-208.3 371.94,-214.95"/>
</g>
<!-- 42270 -->
<g id="node9" class="node">
<title>42270</title>
<ellipse fill="none" stroke="black" stroke-width="2" cx="437.85" cy="-278.35" rx="78.48" ry="26.74"/>
<text text-anchor="middle" x="437.85" y="-282.15" font-family="Times,serif" font-size="14.00">merge</text>
<text text-anchor="middle" x="437.85" y="-267.15" font-family="Times,serif" font-size="14.00">65537:98304</text>
</g>
<!-- 42270&#45;&gt;42273 -->
<g id="edge7" class="edge">
<title>42270&#45;&gt;42273</title>
<path fill="none" stroke="black" stroke-width="2" d="M437.85,-251.03C437.85,-243.06 437.85,-234.17 437.85,-225.68"/>
<polygon fill="black" stroke="black" stroke-width="2" points="441.35,-225.61 437.85,-215.61 434.35,-225.61 441.35,-225.61"/>
</g>
<!-- 42265 -->
<g id="node11" class="node">
<title>42265</title>
<ellipse fill="none" stroke="black" stroke-width="2" cx="265.85" cy="-368.09" rx="78.48" ry="26.74"/>
<text text-anchor="middle" x="265.85" y="-371.89" font-family="Times,serif" font-size="14.00">sort</text>
<text text-anchor="middle" x="265.85" y="-356.89" font-family="Times,serif" font-size="14.00">65537:81920</text>
</g>
<!-- 42265&#45;&gt;42270 -->
<g id="edge12" class="edge">
<title>42265&#45;&gt;42270</title>
<path fill="none" stroke="black" stroke-width="2" d="M308.37,-345.4C331.94,-333.38 361.42,-318.34 386.29,-305.65"/>
<polygon fill="black" stroke="black" stroke-width="2" points="387.91,-308.76 395.23,-301.09 384.73,-302.52 387.91,-308.76"/>
</g>
<!-- 42268 -->
<g id="node12" class="node">
<title>42268</title>
<ellipse fill="none" stroke="red" stroke-width="2" cx="666.85" cy="-278.35" rx="53.07" ry="26.74"/>
<text text-anchor="middle" x="666.85" y="-282.15" font-family="Times,serif" font-size="14.00">merge</text>
<text text-anchor="middle" x="666.85" y="-267.15" font-family="Times,serif" font-size="14.00">1:32768</text>
</g>
<!-- 42268&#45;&gt;42272 -->
<g id="edge10" class="edge">
<title>42268&#45;&gt;42272</title>
<path fill="none" stroke="red" stroke-width="2" d="M666.85,-251.03C666.85,-243.06 666.85,-234.17 666.85,-225.68"/>
<polygon fill="red" stroke="red" stroke-width="2" points="670.35,-225.61 666.85,-215.61 663.35,-225.61 670.35,-225.61"/>
</g>
<!-- 42261 -->
<g id="node13" class="node">
<title>42261</title>
<ellipse fill="none" stroke="black" stroke-width="2" cx="590.85" cy="-368.09" rx="53.07" ry="26.74"/>
<text text-anchor="middle" x="590.85" y="-371.89" font-family="Times,serif" font-size="14.00">sort</text>
<text text-anchor="middle" x="590.85" y="-356.89" font-family="Times,serif" font-size="14.00">1:16384</text>
</g>
<!-- 42261&#45;&gt;42268 -->
<g id="edge14" class="edge">
<title>42261&#45;&gt;42268</title>
<path fill="none" stroke="black" stroke-width="2" d="M611.62,-343.12C620.17,-333.25 630.19,-321.68 639.33,-311.13"/>
<polygon fill="black" stroke="black" stroke-width="2" points="642.21,-313.15 646.11,-303.3 636.92,-308.56 642.21,-313.15"/>
</g>
<!-- 42266 -->
<g id="node14" class="node">
<title>42266</title>
<ellipse fill="none" stroke="black" stroke-width="2" cx="440.85" cy="-368.09" rx="78.48" ry="26.74"/>
<text text-anchor="middle" x="440.85" y="-371.89" font-family="Times,serif" font-size="14.00">sort</text>
<text text-anchor="middle" x="440.85" y="-356.89" font-family="Times,serif" font-size="14.00">81921:98304</text>
</g>
<!-- 42266&#45;&gt;42270 -->
<g id="edge11" class="edge">
<title>42266&#45;&gt;42270</title>
<path fill="none" stroke="black" stroke-width="2" d="M439.95,-340.77C439.68,-332.8 439.38,-323.91 439.09,-315.42"/>
<polygon fill="black" stroke="black" stroke-width="2" points="442.58,-315.23 438.74,-305.35 435.59,-315.47 442.58,-315.23"/>
</g>
<!-- 42262 -->
<g id="node15" class="node">
<title>42262</title>
<ellipse fill="none" stroke="red" stroke-width="2" cx="740.85" cy="-368.09" rx="78.48" ry="26.74"/>
<text text-anchor="middle" x="740.85" y="-371.89" font-family="Times,serif" font-size="14.00">sort</text>
<text text-anchor="middle" x="740.85" y="-356.89" font-family="Times,serif" font-size="14.00">16385:32768</text>
</g>
<!-- 42262&#45;&gt;42268 -->
<g id="edge13" class="edge">
<title>42262&#45;&gt;42268</title>
<path fill="none" stroke="red" stroke-width="2" d="M719.85,-342.18C711.75,-332.59 702.4,-321.5 693.82,-311.32"/>
<polygon fill="red" stroke="red" stroke-width="2" points="696.27,-308.8 687.15,-303.41 690.92,-313.31 696.27,-308.8"/>
</g>
</g>
</svg>
