<?xml version="1.0" encoding="UTF-8" standalone="no"?>
<!DOCTYPE svg PUBLIC "-//W3C//DTD SVG 1.1//EN"
 "http://www.w3.org/Graphics/SVG/1.1/DTD/svg11.dtd">
<!-- Generated by graphviz version 2.50.0 (20211204.2007)
 -->
<!-- Title: dag Pages: 1 -->
<svg width="1177pt" height="493pt"
 viewBox="0.00 0.00 1176.98 492.70" xmlns="http://www.w3.org/2000/svg" xmlns:xlink="http://www.w3.org/1999/xlink">
<g id="graph0" class="graph" transform="scale(1 1) rotate(0) translate(4 488.7)">
<title>dag</title>
<polygon fill="white" stroke="transparent" points="-4,4 -4,-488.7 1172.98,-488.7 1172.98,4 -4,4"/>
<!-- 46316 -->
<g id="node1" class="node">
<title>46316</title>
<ellipse fill="none" stroke="black" stroke-width="2" cx="734.49" cy="-278.35" rx="84.71" ry="26.74"/>
<text text-anchor="middle" x="734.49" y="-282.15" font-family="Times,serif" font-size="14.00">merge</text>
<text text-anchor="middle" x="734.49" y="-267.15" font-family="Times,serif" font-size="14.00">65537:100000</text>
</g>
<!-- 46317 -->
<g id="node8" class="node">
<title>46317</title>
<ellipse fill="none" stroke="red" stroke-width="2" cx="643.49" cy="-188.61" rx="59.29" ry="26.74"/>
<text text-anchor="middle" x="643.49" y="-192.41" font-family="Times,serif" font-size="14.00">split</text>
<text text-anchor="middle" x="643.49" y="-177.41" font-family="Times,serif" font-size="14.00">1:100000</text>
</g>
<!-- 46316&#45;&gt;46317 -->
<g id="edge17" class="edge">
<title>46316&#45;&gt;46317</title>
<path fill="none" stroke="black" stroke-width="2" d="M708.66,-252.44C698.32,-242.48 686.32,-230.9 675.44,-220.42"/>
<polygon fill="black" stroke="black" stroke-width="2" points="677.76,-217.79 668.13,-213.37 672.9,-222.83 677.76,-217.79"/>
</g>
<!-- 46314 -->
<g id="node2" class="node">
<title>46314</title>
<ellipse fill="none" stroke="black" stroke-width="2" cx="734.49" cy="-368.09" rx="84.71" ry="26.74"/>
<text text-anchor="middle" x="734.49" y="-371.89" font-family="Times,serif" font-size="14.00">copy</text>
<text text-anchor="middle" x="734.49" y="-356.89" font-family="Times,serif" font-size="14.00">98305:100000</text>
</g>
<!-- 46314&#45;&gt;46316 -->
<g id="edge1" class="edge">
<title>46314&#45;&gt;46316</title>
<path fill="none" stroke="black" stroke-width="2" d="M734.49,-340.77C734.49,-332.8 734.49,-323.91 734.49,-315.42"/>
<polygon fill="black" stroke="black" stroke-width="2" points="737.99,-315.35 734.49,-305.35 730.99,-315.35 737.99,-315.35"/>
</g>
<!-- 46313 -->
<g id="node3" class="node">
<title>46313</title>
<ellipse fill="none" stroke="black" stroke-width="2" cx="915.49" cy="-368.09" rx="78.48" ry="26.74"/>
<text text-anchor="middle" x="915.49" y="-371.89" font-family="Times,serif" font-size="14.00">merge</text>
<text text-anchor="middle" x="915.49" y="-356.89" font-family="Times,serif" font-size="14.00">65537:98304</text>
</g>
<!-- 46313&#45;&gt;46316 -->
<g id="edge2" class="edge">
<title>46313&#45;&gt;46316</title>
<path fill="none" stroke="black" stroke-width="2" d="M871.21,-345.63C846.31,-333.56 815.02,-318.39 788.67,-305.61"/>
<polygon fill="black" stroke="black" stroke-width="2" points="790.09,-302.41 779.57,-301.2 787.04,-308.71 790.09,-302.41"/>
</g>
<!-- 46304 -->
<g id="node4" class="node">
<title>46304</title>
<ellipse fill="none" stroke="black" stroke-width="2" cx="403.49" cy="-457.83" rx="53.07" ry="26.74"/>
<text text-anchor="middle" x="403.49" y="-461.63" font-family="Times,serif" font-size="14.00">sort</text>
<text text-anchor="middle" x="403.49" y="-446.63" font-family="Times,serif" font-size="14.00">1:16384</text>
</g>
<!-- 46311 -->
<g id="node16" class="node">
<title>46311</title>
<ellipse fill="none" stroke="black" stroke-width="2" cx="478.49" cy="-368.09" rx="53.07" ry="26.74"/>
<text text-anchor="middle" x="478.49" y="-371.89" font-family="Times,serif" font-size="14.00">merge</text>
<text text-anchor="middle" x="478.49" y="-356.89" font-family="Times,serif" font-size="14.00">1:32768</text>
</g>
<!-- 46304&#45;&gt;46311 -->
<g id="edge12" class="edge">
<title>46304&#45;&gt;46311</title>
<path fill="none" stroke="black" stroke-width="2" d="M423.98,-432.86C432.42,-422.99 442.3,-411.42 451.33,-400.87"/>
<polygon fill="black" stroke="black" stroke-width="2" points="454.18,-402.91 458.02,-393.04 448.86,-398.36 454.18,-402.91"/>
</g>
<!-- 46308 -->
<g id="node5" class="node">
<title>46308</title>
<ellipse fill="none" stroke="black" stroke-width="2" cx="915.49" cy="-457.83" rx="78.48" ry="26.74"/>
<text text-anchor="middle" x="915.49" y="-461.63" font-family="Times,serif" font-size="14.00">sort</text>
<text text-anchor="middle" x="915.49" y="-446.63" font-family="Times,serif" font-size="14.00">65537:81920</text>
</g>
<!-- 46308&#45;&gt;46313 -->
<g id="edge3" class="edge">
<title>46308&#45;&gt;46313</title>
<path fill="none" stroke="black" stroke-width="2" d="M915.49,-430.51C915.49,-422.54 915.49,-413.65 915.49,-405.16"/>
<polygon fill="black" stroke="black" stroke-width="2" points="918.99,-405.09 915.49,-395.09 911.99,-405.09 918.99,-405.09"/>
</g>
<!-- 46309 -->
<g id="node6" class="node">
<title>46309</title>
<ellipse fill="none" stroke="black" stroke-width="2" cx="1090.49" cy="-457.83" rx="78.48" ry="26.74"/>
<text text-anchor="middle" x="1090.49" y="-461.63" font-family="Times,serif" font-size="14.00">sort</text>
<text text-anchor="middle" x="1090.49" y="-446.63" font-family="Times,serif" font-size="14.00">81921:98304</text>
</g>
<!-- 46309&#45;&gt;46313 -->
<g id="edge4" class="edge">
<title>46309&#45;&gt;46313</title>
<path fill="none" stroke="black" stroke-width="2" d="M1047.23,-435.14C1023.16,-423.07 993.03,-407.97 967.66,-395.25"/>
<polygon fill="black" stroke="black" stroke-width="2" points="969.06,-392.03 958.55,-390.68 965.92,-398.29 969.06,-392.03"/>
</g>
<!-- 46319 -->
<g id="node7" class="node">
<title>46319</title>
<ellipse fill="none" stroke="red" stroke-width="2" cx="575.49" cy="-98.87" rx="59.29" ry="26.74"/>
<text text-anchor="middle" x="575.49" y="-102.67" font-family="Times,serif" font-size="14.00">merge B</text>
<text text-anchor="middle" x="575.49" y="-87.67" font-family="Times,serif" font-size="14.00">1:100000</text>
</g>
<!-- 46320 -->
<g id="node11" class="node">
<title>46320</title>
<ellipse fill="none" stroke="red" stroke-width="2" cx="643.49" cy="-18" rx="38.19" ry="18"/>
<text text-anchor="middle" x="643.49" y="-14.3" font-family="Times,serif" font-size="14.00">result</text>
</g>
<!-- 46319&#45;&gt;46320 -->
<g id="edge8" class="edge">
<title>46319&#45;&gt;46320</title>
<path fill="none" stroke="red" stroke-width="2" d="M596.63,-73.35C605.04,-63.6 614.67,-52.42 623.01,-42.75"/>
<polygon fill="red" stroke="red" stroke-width="2" points="625.78,-44.9 629.66,-35.04 620.48,-40.33 625.78,-44.9"/>
</g>
<!-- 46317&#45;&gt;46319 -->
<g id="edge5" class="edge">
<title>46317&#45;&gt;46319</title>
<path fill="none" stroke="red" stroke-width="2" d="M624.18,-162.7C616.95,-153.36 608.6,-142.6 600.9,-132.65"/>
<polygon fill="red" stroke="red" stroke-width="2" points="603.5,-130.3 594.61,-124.54 597.97,-134.58 603.5,-130.3"/>
</g>
<!-- 46318 -->
<g id="node12" class="node">
<title>46318</title>
<ellipse fill="none" stroke="black" stroke-width="2" cx="712.49" cy="-98.87" rx="59.29" ry="26.74"/>
<text text-anchor="middle" x="712.49" y="-102.67" font-family="Times,serif" font-size="14.00">merge A</text>
<text text-anchor="middle" x="712.49" y="-87.67" font-family="Times,serif" font-size="14.00">1:100000</text>
</g>
<!-- 46317&#45;&gt;46318 -->
<g id="edge11" class="edge">
<title>46317&#45;&gt;46318</title>
<path fill="none" stroke="black" stroke-width="2" d="M662.71,-163.17C670.2,-153.65 678.89,-142.59 686.9,-132.41"/>
<polygon fill="black" stroke="black" stroke-width="2" points="689.7,-134.51 693.13,-124.48 684.2,-130.18 689.7,-134.51"/>
</g>
<!-- 46310 -->
<g id="node9" class="node">
<title>46310</title>
<ellipse fill="none" stroke="black" stroke-width="2" cx="734.49" cy="-457.83" rx="84.71" ry="26.74"/>
<text text-anchor="middle" x="734.49" y="-461.63" font-family="Times,serif" font-size="14.00">sort</text>
<text text-anchor="middle" x="734.49" y="-446.63" font-family="Times,serif" font-size="14.00">98305:100000</text>
</g>
<!-- 46310&#45;&gt;46314 -->
<g id="edge6" class="edge">
<title>46310&#45;&gt;46314</title>
<path fill="none" stroke="black" stroke-width="2" d="M734.49,-430.51C734.49,-422.54 734.49,-413.65 734.49,-405.16"/>
<polygon fill="black" stroke="black" stroke-width="2" points="737.99,-405.09 734.49,-395.09 730.99,-405.09 737.99,-405.09"/>
</g>
<!-- 46306 -->
<g id="node10" class="node">
<title>46306</title>
<ellipse fill="none" stroke="red" stroke-width="2" cx="78.49" cy="-457.83" rx="78.48" ry="26.74"/>
<text text-anchor="middle" x="78.49" y="-461.63" font-family="Times,serif" font-size="14.00">sort</text>
<text text-anchor="middle" x="78.49" y="-446.63" font-family="Times,serif" font-size="14.00">32769:49152</text>
</g>
<!-- 46312 -->
<g id="node14" class="node">
<title>46312</title>
<ellipse fill="none" stroke="red" stroke-width="2" cx="253.49" cy="-368.09" rx="78.48" ry="26.74"/>
<text text-anchor="middle" x="253.49" y="-371.89" font-family="Times,serif" font-size="14.00">merge</text>
<text text-anchor="middle" x="253.49" y="-356.89" font-family="Times,serif" font-size="14.00">32769:65536</text>
</g>
<!-- 46306&#45;&gt;46312 -->
<g id="edge10" class="edge">
<title>46306&#45;&gt;46312</title>
<path fill="none" stroke="red" stroke-width="2" d="M121.75,-435.14C145.82,-423.07 175.95,-407.97 201.31,-395.25"/>
<polygon fill="red" stroke="red" stroke-width="2" points="203.05,-398.29 210.43,-390.68 199.92,-392.03 203.05,-398.29"/>
</g>
<!-- 46318&#45;&gt;46320 -->
<g id="edge7" class="edge">
<title>46318&#45;&gt;46320</title>
<path fill="none" stroke="black" stroke-width="2" d="M691.04,-73.35C682.5,-63.6 672.73,-52.42 664.26,-42.75"/>
<polygon fill="black" stroke="black" stroke-width="2" points="666.74,-40.26 657.52,-35.04 661.47,-44.87 666.74,-40.26"/>
</g>
<!-- 46305 -->
<g id="node13" class="node">
<title>46305</title>
<ellipse fill="none" stroke="black" stroke-width="2" cx="553.49" cy="-457.83" rx="78.48" ry="26.74"/>
<text text-anchor="middle" x="553.49" y="-461.63" font-family="Times,serif" font-size="14.00">sort</text>
<text text-anchor="middle" x="553.49" y="-446.63" font-family="Times,serif" font-size="14.00">16385:32768</text>
</g>
<!-- 46305&#45;&gt;46311 -->
<g id="edge13" class="edge">
<title>46305&#45;&gt;46311</title>
<path fill="none" stroke="black" stroke-width="2" d="M532.2,-431.92C523.91,-422.23 514.33,-411.02 505.56,-400.76"/>
<polygon fill="black" stroke="black" stroke-width="2" points="508.22,-398.48 499.06,-393.15 502.89,-403.03 508.22,-398.48"/>
</g>
<!-- 46315 -->
<g id="node17" class="node">
<title>46315</title>
<ellipse fill="none" stroke="red" stroke-width="2" cx="478.49" cy="-278.35" rx="53.07" ry="26.74"/>
<text text-anchor="middle" x="478.49" y="-282.15" font-family="Times,serif" font-size="14.00">merge</text>
<text text-anchor="middle" x="478.49" y="-267.15" font-family="Times,serif" font-size="14.00">1:65536</text>
</g>
<!-- 46312&#45;&gt;46315 -->
<g id="edge14" class="edge">
<title>46312&#45;&gt;46315</title>
<path fill="none" stroke="red" stroke-width="2" d="M303.98,-347.4C340.85,-333.02 390.65,-313.61 427.61,-299.19"/>
<polygon fill="red" stroke="red" stroke-width="2" points="429.14,-302.35 437.19,-295.46 426.6,-295.83 429.14,-302.35"/>
</g>
<!-- 46307 -->
<g id="node15" class="node">
<title>46307</title>
<ellipse fill="none" stroke="black" stroke-width="2" cx="253.49" cy="-457.83" rx="78.48" ry="26.74"/>
<text text-anchor="middle" x="253.49" y="-461.63" font-family="Times,serif" font-size="14.00">sort</text>
<text text-anchor="middle" x="253.49" y="-446.63" font-family="Times,serif" font-size="14.00">49153:65536</text>
</g>
<!-- 46307&#45;&gt;46312 -->
<g id="edge9" class="edge">
<title>46307&#45;&gt;46312</title>
<path fill="none" stroke="black" stroke-width="2" d="M253.49,-430.51C253.49,-422.54 253.49,-413.65 253.49,-405.16"/>
<polygon fill="black" stroke="black" stroke-width="2" points="256.99,-405.09 253.49,-395.09 249.99,-405.09 256.99,-405.09"/>
</g>
<!-- 46311&#45;&gt;46315 -->
<g id="edge15" class="edge">
<title>46311&#45;&gt;46315</title>
<path fill="none" stroke="black" stroke-width="2" d="M478.49,-340.77C478.49,-332.8 478.49,-323.91 478.49,-315.42"/>
<polygon fill="black" stroke="black" stroke-width="2" points="481.99,-315.35 478.49,-305.35 474.99,-315.35 481.99,-315.35"/>
</g>
<!-- 46315&#45;&gt;46317 -->
<g id="edge16" class="edge">
<title>46315&#45;&gt;46317</title>
<path fill="none" stroke="red" stroke-width="2" d="M514.29,-258.31C538.54,-245.42 570.81,-228.26 597.04,-214.31"/>
<polygon fill="red" stroke="red" stroke-width="2" points="598.85,-217.31 606.04,-209.52 595.57,-211.13 598.85,-217.31"/>
</g>
</g>
</svg>
