<?xml version="1.0" encoding="UTF-8" standalone="no"?>
<!DOCTYPE svg PUBLIC "-//W3C//DTD SVG 1.1//EN"
 "http://www.w3.org/Graphics/SVG/1.1/DTD/svg11.dtd">
<!-- Generated by graphviz version 2.50.0 (20211204.2007)
 -->
<!-- Title: dag Pages: 1 -->
<svg width="1177pt" height="403pt"
 viewBox="0.00 0.00 1176.98 402.96" xmlns="http://www.w3.org/2000/svg" xmlns:xlink="http://www.w3.org/1999/xlink">
<g id="graph0" class="graph" transform="scale(1 1) rotate(0) translate(4 398.96)">
<title>dag</title>
<polygon fill="white" stroke="transparent" points="-4,4 -4,-398.96 1172.98,-398.96 1172.98,4 -4,4"/>
<!-- 73753 -->
<g id="node1" class="node">
<title>73753</title>
<ellipse fill="none" stroke="black" stroke-width="2" cx="253.49" cy="-368.09" rx="78.48" ry="26.74"/>
<text text-anchor="middle" x="253.49" y="-371.89" font-family="Times,serif" font-size="14.00">sort</text>
<text text-anchor="middle" x="253.49" y="-356.89" font-family="Times,serif" font-size="14.00">81921:98304</text>
</g>
<!-- 73757 -->
<g id="node5" class="node">
<title>73757</title>
<ellipse fill="none" stroke="black" stroke-width="2" cx="253.49" cy="-278.35" rx="78.48" ry="26.74"/>
<text text-anchor="middle" x="253.49" y="-282.15" font-family="Times,serif" font-size="14.00">merge</text>
<text text-anchor="middle" x="253.49" y="-267.15" font-family="Times,serif" font-size="14.00">65537:98304</text>
</g>
<!-- 73753&#45;&gt;73757 -->
<g id="edge12" class="edge">
<title>73753&#45;&gt;73757</title>
<path fill="none" stroke="black" stroke-width="2" d="M253.49,-340.77C253.49,-332.8 253.49,-323.91 253.49,-315.42"/>
<polygon fill="black" stroke="black" stroke-width="2" points="256.99,-315.35 253.49,-305.35 249.99,-315.35 256.99,-315.35"/>
</g>
<!-- 73754 -->
<g id="node2" class="node">
<title>73754</title>
<ellipse fill="none" stroke="black" stroke-width="2" cx="434.49" cy="-368.09" rx="84.71" ry="26.74"/>
<text text-anchor="middle" x="434.49" y="-371.89" font-family="Times,serif" font-size="14.00">sort</text>
<text text-anchor="middle" x="434.49" y="-356.89" font-family="Times,serif" font-size="14.00">98305:100000</text>
</g>
<!-- 73758 -->
<g id="node3" class="node">
<title>73758</title>
<ellipse fill="none" stroke="black" stroke-width="2" cx="434.49" cy="-278.35" rx="84.71" ry="26.74"/>
<text text-anchor="middle" x="434.49" y="-282.15" font-family="Times,serif" font-size="14.00">copy</text>
<text text-anchor="middle" x="434.49" y="-267.15" font-family="Times,serif" font-size="14.00">98305:100000</text>
</g>
<!-- 73754&#45;&gt;73758 -->
<g id="edge1" class="edge">
<title>73754&#45;&gt;73758</title>
<path fill="none" stroke="black" stroke-width="2" d="M434.49,-340.77C434.49,-332.8 434.49,-323.91 434.49,-315.42"/>
<polygon fill="black" stroke="black" stroke-width="2" points="437.99,-315.35 434.49,-305.35 430.99,-315.35 437.99,-315.35"/>
</g>
<!-- 73760 -->
<g id="node4" class="node">
<title>73760</title>
<ellipse fill="none" stroke="black" stroke-width="2" cx="434.49" cy="-188.61" rx="84.71" ry="26.74"/>
<text text-anchor="middle" x="434.49" y="-192.41" font-family="Times,serif" font-size="14.00">merge</text>
<text text-anchor="middle" x="434.49" y="-177.41" font-family="Times,serif" font-size="14.00">65537:100000</text>
</g>
<!-- 73758&#45;&gt;73760 -->
<g id="edge2" class="edge">
<title>73758&#45;&gt;73760</title>
<path fill="none" stroke="black" stroke-width="2" d="M434.49,-251.03C434.49,-243.06 434.49,-234.17 434.49,-225.68"/>
<polygon fill="black" stroke="black" stroke-width="2" points="437.99,-225.61 434.49,-215.61 430.99,-225.61 437.99,-225.61"/>
</g>
<!-- 73761 -->
<g id="node11" class="node">
<title>73761</title>
<ellipse fill="none" stroke="red" stroke-width="2" cx="612.49" cy="-98.87" rx="59.29" ry="26.74"/>
<text text-anchor="middle" x="612.49" y="-102.67" font-family="Times,serif" font-size="14.00">merge</text>
<text text-anchor="middle" x="612.49" y="-87.67" font-family="Times,serif" font-size="14.00">1:100000</text>
</g>
<!-- 73760&#45;&gt;73761 -->
<g id="edge9" class="edge">
<title>73760&#45;&gt;73761</title>
<path fill="none" stroke="black" stroke-width="2" d="M478.95,-165.7C504.92,-152.89 537.72,-136.73 564.31,-123.62"/>
<polygon fill="black" stroke="black" stroke-width="2" points="566.01,-126.68 573.43,-119.12 562.92,-120.4 566.01,-126.68"/>
</g>
<!-- 73757&#45;&gt;73760 -->
<g id="edge3" class="edge">
<title>73757&#45;&gt;73760</title>
<path fill="none" stroke="black" stroke-width="2" d="M297.77,-255.89C322.67,-243.81 353.95,-228.65 380.31,-215.87"/>
<polygon fill="black" stroke="black" stroke-width="2" points="381.94,-218.97 389.41,-211.46 378.89,-212.67 381.94,-218.97"/>
</g>
<!-- 73750 -->
<g id="node6" class="node">
<title>73750</title>
<ellipse fill="none" stroke="black" stroke-width="2" cx="790.49" cy="-368.09" rx="78.48" ry="26.74"/>
<text text-anchor="middle" x="790.49" y="-371.89" font-family="Times,serif" font-size="14.00">sort</text>
<text text-anchor="middle" x="790.49" y="-356.89" font-family="Times,serif" font-size="14.00">32769:49152</text>
</g>
<!-- 73756 -->
<g id="node8" class="node">
<title>73756</title>
<ellipse fill="none" stroke="red" stroke-width="2" cx="703.49" cy="-278.35" rx="78.48" ry="26.74"/>
<text text-anchor="middle" x="703.49" y="-282.15" font-family="Times,serif" font-size="14.00">merge</text>
<text text-anchor="middle" x="703.49" y="-267.15" font-family="Times,serif" font-size="14.00">32769:65536</text>
</g>
<!-- 73750&#45;&gt;73756 -->
<g id="edge5" class="edge">
<title>73750&#45;&gt;73756</title>
<path fill="none" stroke="black" stroke-width="2" d="M765.79,-342.18C756.25,-332.56 745.22,-321.43 735.11,-311.24"/>
<polygon fill="black" stroke="black" stroke-width="2" points="737.47,-308.65 727.95,-304.02 732.5,-313.58 737.47,-308.65"/>
</g>
<!-- 73751 -->
<g id="node7" class="node">
<title>73751</title>
<ellipse fill="none" stroke="red" stroke-width="2" cx="615.49" cy="-368.09" rx="78.48" ry="26.74"/>
<text text-anchor="middle" x="615.49" y="-371.89" font-family="Times,serif" font-size="14.00">sort</text>
<text text-anchor="middle" x="615.49" y="-356.89" font-family="Times,serif" font-size="14.00">49153:65536</text>
</g>
<!-- 73751&#45;&gt;73756 -->
<g id="edge4" class="edge">
<title>73751&#45;&gt;73756</title>
<path fill="none" stroke="red" stroke-width="2" d="M640.47,-342.18C650.12,-332.56 661.28,-321.43 671.51,-311.24"/>
<polygon fill="red" stroke="red" stroke-width="2" points="674.14,-313.56 678.75,-304.02 669.2,-308.6 674.14,-313.56"/>
</g>
<!-- 73759 -->
<g id="node9" class="node">
<title>73759</title>
<ellipse fill="none" stroke="red" stroke-width="2" cx="703.49" cy="-188.61" rx="53.07" ry="26.74"/>
<text text-anchor="middle" x="703.49" y="-192.41" font-family="Times,serif" font-size="14.00">merge</text>
<text text-anchor="middle" x="703.49" y="-177.41" font-family="Times,serif" font-size="14.00">1:65536</text>
</g>
<!-- 73756&#45;&gt;73759 -->
<g id="edge7" class="edge">
<title>73756&#45;&gt;73759</title>
<path fill="none" stroke="red" stroke-width="2" d="M703.49,-251.03C703.49,-243.06 703.49,-234.17 703.49,-225.68"/>
<polygon fill="red" stroke="red" stroke-width="2" points="706.99,-225.61 703.49,-215.61 699.99,-225.61 706.99,-225.61"/>
</g>
<!-- 73759&#45;&gt;73761 -->
<g id="edge8" class="edge">
<title>73759&#45;&gt;73761</title>
<path fill="none" stroke="red" stroke-width="2" d="M679.58,-164.56C668.78,-154.15 655.87,-141.7 644.27,-130.51"/>
<polygon fill="red" stroke="red" stroke-width="2" points="646.5,-127.8 636.87,-123.38 641.64,-132.84 646.5,-127.8"/>
</g>
<!-- 73755 -->
<g id="node10" class="node">
<title>73755</title>
<ellipse fill="none" stroke="black" stroke-width="2" cx="940.49" cy="-278.35" rx="53.07" ry="26.74"/>
<text text-anchor="middle" x="940.49" y="-282.15" font-family="Times,serif" font-size="14.00">merge</text>
<text text-anchor="middle" x="940.49" y="-267.15" font-family="Times,serif" font-size="14.00">1:32768</text>
</g>
<!-- 73755&#45;&gt;73759 -->
<g id="edge6" class="edge">
<title>73755&#45;&gt;73759</title>
<path fill="none" stroke="black" stroke-width="2" d="M898.39,-261.77C858.32,-246.93 797.94,-224.58 755.02,-208.69"/>
<polygon fill="black" stroke="black" stroke-width="2" points="756.19,-205.39 745.59,-205.2 753.76,-211.95 756.19,-205.39"/>
</g>
<!-- 73762 -->
<g id="node12" class="node">
<title>73762</title>
<ellipse fill="none" stroke="red" stroke-width="2" cx="612.49" cy="-18" rx="38.19" ry="18"/>
<text text-anchor="middle" x="612.49" y="-14.3" font-family="Times,serif" font-size="14.00">result</text>
</g>
<!-- 73761&#45;&gt;73762 -->
<g id="edge10" class="edge">
<title>73761&#45;&gt;73762</title>
<path fill="none" stroke="red" stroke-width="2" d="M612.49,-71.61C612.49,-63.51 612.49,-54.57 612.49,-46.39"/>
<polygon fill="red" stroke="red" stroke-width="2" points="615.99,-46.22 612.49,-36.22 608.99,-46.22 615.99,-46.22"/>
</g>
<!-- 73749 -->
<g id="node13" class="node">
<title>73749</title>
<ellipse fill="none" stroke="black" stroke-width="2" cx="1090.49" cy="-368.09" rx="78.48" ry="26.74"/>
<text text-anchor="middle" x="1090.49" y="-371.89" font-family="Times,serif" font-size="14.00">sort</text>
<text text-anchor="middle" x="1090.49" y="-356.89" font-family="Times,serif" font-size="14.00">16385:32768</text>
</g>
<!-- 73749&#45;&gt;73755 -->
<g id="edge13" class="edge">
<title>73749&#45;&gt;73755</title>
<path fill="none" stroke="black" stroke-width="2" d="M1051.86,-344.5C1030.8,-332.18 1004.7,-316.91 983.06,-304.25"/>
<polygon fill="black" stroke="black" stroke-width="2" points="984.79,-301.21 974.39,-299.18 981.26,-307.25 984.79,-301.21"/>
</g>
<!-- 73748 -->
<g id="node14" class="node">
<title>73748</title>
<ellipse fill="none" stroke="black" stroke-width="2" cx="940.49" cy="-368.09" rx="53.07" ry="26.74"/>
<text text-anchor="middle" x="940.49" y="-371.89" font-family="Times,serif" font-size="14.00">sort</text>
<text text-anchor="middle" x="940.49" y="-356.89" font-family="Times,serif" font-size="14.00">1:16384</text>
</g>
<!-- 73748&#45;&gt;73755 -->
<g id="edge14" class="edge">
<title>73748&#45;&gt;73755</title>
<path fill="none" stroke="black" stroke-width="2" d="M940.49,-340.77C940.49,-332.8 940.49,-323.91 940.49,-315.42"/>
<polygon fill="black" stroke="black" stroke-width="2" points="943.99,-315.35 940.49,-305.35 936.99,-315.35 943.99,-315.35"/>
</g>
<!-- 73752 -->
<g id="node15" class="node">
<title>73752</title>
<ellipse fill="none" stroke="black" stroke-width="2" cx="78.49" cy="-368.09" rx="78.48" ry="26.74"/>
<text text-anchor="middle" x="78.49" y="-371.89" font-family="Times,serif" font-size="14.00">sort</text>
<text text-anchor="middle" x="78.49" y="-356.89" font-family="Times,serif" font-size="14.00">65537:81920</text>
</g>
<!-- 73752&#45;&gt;73757 -->
<g id="edge11" class="edge">
<title>73752&#45;&gt;73757</title>
<path fill="none" stroke="black" stroke-width="2" d="M121.75,-345.4C145.82,-333.33 175.95,-318.23 201.31,-305.51"/>
<polygon fill="black" stroke="black" stroke-width="2" points="203.05,-308.55 210.43,-300.94 199.92,-302.29 203.05,-308.55"/>
</g>
</g>
</svg>
