<?xml version="1.0" encoding="UTF-8" standalone="no"?>
<!DOCTYPE svg PUBLIC "-//W3C//DTD SVG 1.1//EN"
 "http://www.w3.org/Graphics/SVG/1.1/DTD/svg11.dtd">
<!-- Generated by graphviz version 2.50.0 (20211204.2007)
 -->
<!-- Title: dag Pages: 1 -->
<svg width="1177pt" height="403pt"
 viewBox="0.00 0.00 1176.89 402.96" xmlns="http://www.w3.org/2000/svg" xmlns:xlink="http://www.w3.org/1999/xlink">
<g id="graph0" class="graph" transform="scale(1 1) rotate(0) translate(4 398.96)">
<title>dag</title>
<polygon fill="white" stroke="transparent" points="-4,4 -4,-398.96 1172.89,-398.96 1172.89,4 -4,4"/>
<!-- 44304 -->
<g id="node1" class="node">
<title>44304</title>
<ellipse fill="none" stroke="red" stroke-width="2" cx="553.03" cy="-98.87" rx="59.29" ry="26.74"/>
<text text-anchor="middle" x="553.03" y="-102.67" font-family="Times,serif" font-size="14.00">merge</text>
<text text-anchor="middle" x="553.03" y="-87.67" font-family="Times,serif" font-size="14.00">1:100000</text>
</g>
<!-- 44305 -->
<g id="node4" class="node">
<title>44305</title>
<ellipse fill="none" stroke="red" stroke-width="2" cx="553.03" cy="-18" rx="38.19" ry="18"/>
<text text-anchor="middle" x="553.03" y="-14.3" font-family="Times,serif" font-size="14.00">result</text>
</g>
<!-- 44304&#45;&gt;44305 -->
<g id="edge3" class="edge">
<title>44304&#45;&gt;44305</title>
<path fill="none" stroke="red" stroke-width="2" d="M553.03,-71.61C553.03,-63.51 553.03,-54.57 553.03,-46.39"/>
<polygon fill="red" stroke="red" stroke-width="2" points="556.53,-46.22 553.03,-36.22 549.53,-46.22 556.53,-46.22"/>
</g>
<!-- 44302 -->
<g id="node2" class="node">
<title>44302</title>
<ellipse fill="none" stroke="red" stroke-width="2" cx="466.03" cy="-188.61" rx="53.07" ry="26.74"/>
<text text-anchor="middle" x="466.03" y="-192.41" font-family="Times,serif" font-size="14.00">merge</text>
<text text-anchor="middle" x="466.03" y="-177.41" font-family="Times,serif" font-size="14.00">1:65536</text>
</g>
<!-- 44302&#45;&gt;44304 -->
<g id="edge1" class="edge">
<title>44302&#45;&gt;44304</title>
<path fill="none" stroke="red" stroke-width="2" d="M489.35,-164.1C499.41,-153.95 511.32,-141.94 522.1,-131.06"/>
<polygon fill="red" stroke="red" stroke-width="2" points="524.8,-133.32 529.35,-123.75 519.83,-128.39 524.8,-133.32"/>
</g>
<!-- 44303 -->
<g id="node3" class="node">
<title>44303</title>
<ellipse fill="none" stroke="black" stroke-width="2" cx="772.03" cy="-188.61" rx="84.71" ry="26.74"/>
<text text-anchor="middle" x="772.03" y="-192.41" font-family="Times,serif" font-size="14.00">merge</text>
<text text-anchor="middle" x="772.03" y="-177.41" font-family="Times,serif" font-size="14.00">65537:100000</text>
</g>
<!-- 44303&#45;&gt;44304 -->
<g id="edge2" class="edge">
<title>44303&#45;&gt;44304</title>
<path fill="none" stroke="black" stroke-width="2" d="M720.96,-167.15C686.42,-153.31 640.9,-135.08 605.97,-121.08"/>
<polygon fill="black" stroke="black" stroke-width="2" points="607,-117.72 596.42,-117.25 604.4,-124.22 607,-117.72"/>
</g>
<!-- 44293 -->
<g id="node5" class="node">
<title>44293</title>
<ellipse fill="none" stroke="red" stroke-width="2" cx="378.03" cy="-368.09" rx="78.48" ry="26.74"/>
<text text-anchor="middle" x="378.03" y="-371.89" font-family="Times,serif" font-size="14.00">sort</text>
<text text-anchor="middle" x="378.03" y="-356.89" font-family="Times,serif" font-size="14.00">32769:49152</text>
</g>
<!-- 44299 -->
<g id="node15" class="node">
<title>44299</title>
<ellipse fill="none" stroke="red" stroke-width="2" cx="466.03" cy="-278.35" rx="78.48" ry="26.74"/>
<text text-anchor="middle" x="466.03" y="-282.15" font-family="Times,serif" font-size="14.00">merge</text>
<text text-anchor="middle" x="466.03" y="-267.15" font-family="Times,serif" font-size="14.00">32769:65536</text>
</g>
<!-- 44293&#45;&gt;44299 -->
<g id="edge14" class="edge">
<title>44293&#45;&gt;44299</title>
<path fill="none" stroke="red" stroke-width="2" d="M403.01,-342.18C412.66,-332.56 423.83,-321.43 434.05,-311.24"/>
<polygon fill="red" stroke="red" stroke-width="2" points="436.68,-313.56 441.29,-304.02 431.74,-308.6 436.68,-313.56"/>
</g>
<!-- 44300 -->
<g id="node6" class="node">
<title>44300</title>
<ellipse fill="none" stroke="black" stroke-width="2" cx="772.03" cy="-278.35" rx="78.48" ry="26.74"/>
<text text-anchor="middle" x="772.03" y="-282.15" font-family="Times,serif" font-size="14.00">merge</text>
<text text-anchor="middle" x="772.03" y="-267.15" font-family="Times,serif" font-size="14.00">65537:98304</text>
</g>
<!-- 44300&#45;&gt;44303 -->
<g id="edge8" class="edge">
<title>44300&#45;&gt;44303</title>
<path fill="none" stroke="black" stroke-width="2" d="M772.03,-251.03C772.03,-243.06 772.03,-234.17 772.03,-225.68"/>
<polygon fill="black" stroke="black" stroke-width="2" points="775.53,-225.61 772.03,-215.61 768.53,-225.61 775.53,-225.61"/>
</g>
<!-- 44296 -->
<g id="node7" class="node">
<title>44296</title>
<ellipse fill="none" stroke="black" stroke-width="2" cx="728.03" cy="-368.09" rx="78.48" ry="26.74"/>
<text text-anchor="middle" x="728.03" y="-371.89" font-family="Times,serif" font-size="14.00">sort</text>
<text text-anchor="middle" x="728.03" y="-356.89" font-family="Times,serif" font-size="14.00">81921:98304</text>
</g>
<!-- 44296&#45;&gt;44300 -->
<g id="edge4" class="edge">
<title>44296&#45;&gt;44300</title>
<path fill="none" stroke="black" stroke-width="2" d="M741,-341.24C745.25,-332.76 750.05,-323.2 754.57,-314.16"/>
<polygon fill="black" stroke="black" stroke-width="2" points="757.81,-315.52 759.16,-305.02 751.55,-312.39 757.81,-315.52"/>
</g>
<!-- 44295 -->
<g id="node8" class="node">
<title>44295</title>
<ellipse fill="none" stroke="black" stroke-width="2" cx="903.03" cy="-368.09" rx="78.48" ry="26.74"/>
<text text-anchor="middle" x="903.03" y="-371.89" font-family="Times,serif" font-size="14.00">sort</text>
<text text-anchor="middle" x="903.03" y="-356.89" font-family="Times,serif" font-size="14.00">65537:81920</text>
</g>
<!-- 44295&#45;&gt;44300 -->
<g id="edge5" class="edge">
<title>44295&#45;&gt;44300</title>
<path fill="none" stroke="black" stroke-width="2" d="M868.27,-343.81C852.13,-333 832.78,-320.04 815.67,-308.58"/>
<polygon fill="black" stroke="black" stroke-width="2" points="817.21,-305.4 806.96,-302.74 813.32,-311.21 817.21,-305.4"/>
</g>
<!-- 44294 -->
<g id="node9" class="node">
<title>44294</title>
<ellipse fill="none" stroke="black" stroke-width="2" cx="553.03" cy="-368.09" rx="78.48" ry="26.74"/>
<text text-anchor="middle" x="553.03" y="-371.89" font-family="Times,serif" font-size="14.00">sort</text>
<text text-anchor="middle" x="553.03" y="-356.89" font-family="Times,serif" font-size="14.00">49153:65536</text>
</g>
<!-- 44294&#45;&gt;44299 -->
<g id="edge13" class="edge">
<title>44294&#45;&gt;44299</title>
<path fill="none" stroke="black" stroke-width="2" d="M528.34,-342.18C518.79,-332.56 507.76,-321.43 497.65,-311.24"/>
<polygon fill="black" stroke="black" stroke-width="2" points="500.02,-308.65 490.49,-304.02 495.05,-313.58 500.02,-308.65"/>
</g>
<!-- 44297 -->
<g id="node10" class="node">
<title>44297</title>
<ellipse fill="none" stroke="black" stroke-width="2" cx="1084.03" cy="-368.09" rx="84.71" ry="26.74"/>
<text text-anchor="middle" x="1084.03" y="-371.89" font-family="Times,serif" font-size="14.00">sort</text>
<text text-anchor="middle" x="1084.03" y="-356.89" font-family="Times,serif" font-size="14.00">98305:100000</text>
</g>
<!-- 44301 -->
<g id="node11" class="node">
<title>44301</title>
<ellipse fill="none" stroke="black" stroke-width="2" cx="1040.03" cy="-278.35" rx="84.71" ry="26.74"/>
<text text-anchor="middle" x="1040.03" y="-282.15" font-family="Times,serif" font-size="14.00">copy</text>
<text text-anchor="middle" x="1040.03" y="-267.15" font-family="Times,serif" font-size="14.00">98305:100000</text>
</g>
<!-- 44297&#45;&gt;44301 -->
<g id="edge6" class="edge">
<title>44297&#45;&gt;44301</title>
<path fill="none" stroke="black" stroke-width="2" d="M1071.07,-341.24C1066.82,-332.76 1062.02,-323.2 1057.49,-314.16"/>
<polygon fill="black" stroke="black" stroke-width="2" points="1060.52,-312.39 1052.9,-305.02 1054.26,-315.52 1060.52,-312.39"/>
</g>
<!-- 44301&#45;&gt;44303 -->
<g id="edge7" class="edge">
<title>44301&#45;&gt;44303</title>
<path fill="none" stroke="black" stroke-width="2" d="M982.54,-258.53C940.5,-244.76 883.35,-226.06 839.21,-211.6"/>
<polygon fill="black" stroke="black" stroke-width="2" points="840.02,-208.19 829.43,-208.4 837.85,-214.84 840.02,-208.19"/>
</g>
<!-- 44291 -->
<g id="node12" class="node">
<title>44291</title>
<ellipse fill="none" stroke="black" stroke-width="2" cx="53.03" cy="-368.09" rx="53.07" ry="26.74"/>
<text text-anchor="middle" x="53.03" y="-371.89" font-family="Times,serif" font-size="14.00">sort</text>
<text text-anchor="middle" x="53.03" y="-356.89" font-family="Times,serif" font-size="14.00">1:16384</text>
</g>
<!-- 44298 -->
<g id="node14" class="node">
<title>44298</title>
<ellipse fill="none" stroke="black" stroke-width="2" cx="203.03" cy="-278.35" rx="53.07" ry="26.74"/>
<text text-anchor="middle" x="203.03" y="-282.15" font-family="Times,serif" font-size="14.00">merge</text>
<text text-anchor="middle" x="203.03" y="-267.15" font-family="Times,serif" font-size="14.00">1:32768</text>
</g>
<!-- 44291&#45;&gt;44298 -->
<g id="edge10" class="edge">
<title>44291&#45;&gt;44298</title>
<path fill="none" stroke="black" stroke-width="2" d="M87.07,-347.18C108.84,-334.45 137.25,-317.83 160.5,-304.23"/>
<polygon fill="black" stroke="black" stroke-width="2" points="162.27,-307.25 169.13,-299.18 158.73,-301.21 162.27,-307.25"/>
</g>
<!-- 44292 -->
<g id="node13" class="node">
<title>44292</title>
<ellipse fill="none" stroke="black" stroke-width="2" cx="203.03" cy="-368.09" rx="78.48" ry="26.74"/>
<text text-anchor="middle" x="203.03" y="-371.89" font-family="Times,serif" font-size="14.00">sort</text>
<text text-anchor="middle" x="203.03" y="-356.89" font-family="Times,serif" font-size="14.00">16385:32768</text>
</g>
<!-- 44292&#45;&gt;44298 -->
<g id="edge9" class="edge">
<title>44292&#45;&gt;44298</title>
<path fill="none" stroke="black" stroke-width="2" d="M203.03,-340.77C203.03,-332.8 203.03,-323.91 203.03,-315.42"/>
<polygon fill="black" stroke="black" stroke-width="2" points="206.53,-315.35 203.03,-305.35 199.53,-315.35 206.53,-315.35"/>
</g>
<!-- 44298&#45;&gt;44302 -->
<g id="edge11" class="edge">
<title>44298&#45;&gt;44302</title>
<path fill="none" stroke="black" stroke-width="2" d="M246.46,-262.86C292.05,-247.65 363.78,-223.72 412.76,-207.38"/>
<polygon fill="black" stroke="black" stroke-width="2" points="414.16,-210.61 422.54,-204.12 411.95,-203.96 414.16,-210.61"/>
</g>
<!-- 44299&#45;&gt;44302 -->
<g id="edge12" class="edge">
<title>44299&#45;&gt;44302</title>
<path fill="none" stroke="red" stroke-width="2" d="M466.03,-251.03C466.03,-243.06 466.03,-234.17 466.03,-225.68"/>
<polygon fill="red" stroke="red" stroke-width="2" points="469.53,-225.61 466.03,-215.61 462.53,-225.61 469.53,-225.61"/>
</g>
</g>
</svg>
