<?xml version="1.0" encoding="UTF-8" standalone="no"?>
<!DOCTYPE svg PUBLIC "-//W3C//DTD SVG 1.1//EN"
 "http://www.w3.org/Graphics/SVG/1.1/DTD/svg11.dtd">
<!-- Generated by graphviz version 2.50.0 (20211204.2007)
 -->
<!-- Title: dag Pages: 1 -->
<svg width="1177pt" height="493pt"
 viewBox="0.00 0.00 1177.34 492.70" xmlns="http://www.w3.org/2000/svg" xmlns:xlink="http://www.w3.org/1999/xlink">
<g id="graph0" class="graph" transform="scale(1 1) rotate(0) translate(4 488.7)">
<title>dag</title>
<polygon fill="white" stroke="transparent" points="-4,4 -4,-488.7 1173.34,-488.7 1173.34,4 -4,4"/>
<!-- 47740 -->
<g id="node1" class="node">
<title>47740</title>
<ellipse fill="none" stroke="red" stroke-width="2" cx="650.49" cy="-188.61" rx="59.29" ry="26.74"/>
<text text-anchor="middle" x="650.49" y="-192.41" font-family="Times,serif" font-size="14.00">split</text>
<text text-anchor="middle" x="650.49" y="-177.41" font-family="Times,serif" font-size="14.00">1:100000</text>
</g>
<!-- 47742 -->
<g id="node6" class="node">
<title>47742</title>
<ellipse fill="none" stroke="red" stroke-width="2" cx="582.49" cy="-98.87" rx="59.29" ry="26.74"/>
<text text-anchor="middle" x="582.49" y="-102.67" font-family="Times,serif" font-size="14.00">merge B</text>
<text text-anchor="middle" x="582.49" y="-87.67" font-family="Times,serif" font-size="14.00">1:100000</text>
</g>
<!-- 47740&#45;&gt;47742 -->
<g id="edge17" class="edge">
<title>47740&#45;&gt;47742</title>
<path fill="none" stroke="red" stroke-width="2" d="M631.18,-162.7C623.95,-153.36 615.6,-142.6 607.9,-132.65"/>
<polygon fill="red" stroke="red" stroke-width="2" points="610.5,-130.3 601.61,-124.54 604.97,-134.58 610.5,-130.3"/>
</g>
<!-- 47741 -->
<g id="node7" class="node">
<title>47741</title>
<ellipse fill="none" stroke="black" stroke-width="2" cx="719.49" cy="-98.87" rx="59.29" ry="26.74"/>
<text text-anchor="middle" x="719.49" y="-102.67" font-family="Times,serif" font-size="14.00">merge A</text>
<text text-anchor="middle" x="719.49" y="-87.67" font-family="Times,serif" font-size="14.00">1:100000</text>
</g>
<!-- 47740&#45;&gt;47741 -->
<g id="edge15" class="edge">
<title>47740&#45;&gt;47741</title>
<path fill="none" stroke="black" stroke-width="2" d="M669.71,-163.17C677.2,-153.65 685.89,-142.59 693.9,-132.41"/>
<polygon fill="black" stroke="black" stroke-width="2" points="696.7,-134.51 700.13,-124.48 691.2,-130.18 696.7,-134.51"/>
</g>
<!-- 47738 -->
<g id="node2" class="node">
<title>47738</title>
<ellipse fill="none" stroke="black" stroke-width="2" cx="500.49" cy="-278.35" rx="53.07" ry="26.74"/>
<text text-anchor="middle" x="500.49" y="-282.15" font-family="Times,serif" font-size="14.00">merge</text>
<text text-anchor="middle" x="500.49" y="-267.15" font-family="Times,serif" font-size="14.00">1:65536</text>
</g>
<!-- 47738&#45;&gt;47740 -->
<g id="edge1" class="edge">
<title>47738&#45;&gt;47740</title>
<path fill="none" stroke="black" stroke-width="2" d="M534.53,-257.44C555.74,-245.03 583.26,-228.93 606.17,-215.53"/>
<polygon fill="black" stroke="black" stroke-width="2" points="608.16,-218.43 615.02,-210.36 604.62,-212.38 608.16,-218.43"/>
</g>
<!-- 47739 -->
<g id="node3" class="node">
<title>47739</title>
<ellipse fill="none" stroke="red" stroke-width="2" cx="772.49" cy="-278.35" rx="84.71" ry="26.74"/>
<text text-anchor="middle" x="772.49" y="-282.15" font-family="Times,serif" font-size="14.00">merge</text>
<text text-anchor="middle" x="772.49" y="-267.15" font-family="Times,serif" font-size="14.00">65537:100000</text>
</g>
<!-- 47739&#45;&gt;47740 -->
<g id="edge2" class="edge">
<title>47739&#45;&gt;47740</title>
<path fill="none" stroke="red" stroke-width="2" d="M739.15,-253.37C723.77,-242.31 705.42,-229.11 689.4,-217.6"/>
<polygon fill="red" stroke="red" stroke-width="2" points="691.44,-214.75 681.27,-211.75 687.35,-220.43 691.44,-214.75"/>
</g>
<!-- 47732 -->
<g id="node4" class="node">
<title>47732</title>
<ellipse fill="none" stroke="red" stroke-width="2" cx="728.49" cy="-457.83" rx="78.48" ry="26.74"/>
<text text-anchor="middle" x="728.49" y="-461.63" font-family="Times,serif" font-size="14.00">sort</text>
<text text-anchor="middle" x="728.49" y="-446.63" font-family="Times,serif" font-size="14.00">81921:98304</text>
</g>
<!-- 47736 -->
<g id="node11" class="node">
<title>47736</title>
<ellipse fill="none" stroke="red" stroke-width="2" cx="772.49" cy="-368.09" rx="78.48" ry="26.74"/>
<text text-anchor="middle" x="772.49" y="-371.89" font-family="Times,serif" font-size="14.00">merge</text>
<text text-anchor="middle" x="772.49" y="-356.89" font-family="Times,serif" font-size="14.00">65537:98304</text>
</g>
<!-- 47732&#45;&gt;47736 -->
<g id="edge11" class="edge">
<title>47732&#45;&gt;47736</title>
<path fill="none" stroke="red" stroke-width="2" d="M741.45,-430.98C745.7,-422.5 750.5,-412.94 755.03,-403.91"/>
<polygon fill="red" stroke="red" stroke-width="2" points="758.26,-405.26 759.62,-394.76 752.01,-402.13 758.26,-405.26"/>
</g>
<!-- 47743 -->
<g id="node5" class="node">
<title>47743</title>
<ellipse fill="none" stroke="red" stroke-width="2" cx="650.49" cy="-18" rx="38.19" ry="18"/>
<text text-anchor="middle" x="650.49" y="-14.3" font-family="Times,serif" font-size="14.00">result</text>
</g>
<!-- 47742&#45;&gt;47743 -->
<g id="edge3" class="edge">
<title>47742&#45;&gt;47743</title>
<path fill="none" stroke="red" stroke-width="2" d="M603.63,-73.35C612.04,-63.6 621.67,-52.42 630.01,-42.75"/>
<polygon fill="red" stroke="red" stroke-width="2" points="632.78,-44.9 636.66,-35.04 627.48,-40.33 632.78,-44.9"/>
</g>
<!-- 47741&#45;&gt;47743 -->
<g id="edge4" class="edge">
<title>47741&#45;&gt;47743</title>
<path fill="none" stroke="black" stroke-width="2" d="M698.04,-73.35C689.5,-63.6 679.73,-52.42 671.26,-42.75"/>
<polygon fill="black" stroke="black" stroke-width="2" points="673.74,-40.26 664.52,-35.04 668.47,-44.87 673.74,-40.26"/>
</g>
<!-- 47728 -->
<g id="node8" class="node">
<title>47728</title>
<ellipse fill="none" stroke="black" stroke-width="2" cx="428.49" cy="-457.83" rx="78.48" ry="26.74"/>
<text text-anchor="middle" x="428.49" y="-461.63" font-family="Times,serif" font-size="14.00">sort</text>
<text text-anchor="middle" x="428.49" y="-446.63" font-family="Times,serif" font-size="14.00">16385:32768</text>
</g>
<!-- 47734 -->
<g id="node10" class="node">
<title>47734</title>
<ellipse fill="none" stroke="black" stroke-width="2" cx="500.49" cy="-368.09" rx="53.07" ry="26.74"/>
<text text-anchor="middle" x="500.49" y="-371.89" font-family="Times,serif" font-size="14.00">merge</text>
<text text-anchor="middle" x="500.49" y="-356.89" font-family="Times,serif" font-size="14.00">1:32768</text>
</g>
<!-- 47728&#45;&gt;47734 -->
<g id="edge9" class="edge">
<title>47728&#45;&gt;47734</title>
<path fill="none" stroke="black" stroke-width="2" d="M449.31,-431.45C457.11,-421.95 466.08,-411.03 474.3,-401"/>
<polygon fill="black" stroke="black" stroke-width="2" points="477.06,-403.16 480.7,-393.21 471.65,-398.72 477.06,-403.16"/>
</g>
<!-- 47735 -->
<g id="node9" class="node">
<title>47735</title>
<ellipse fill="none" stroke="black" stroke-width="2" cx="253.49" cy="-368.09" rx="78.48" ry="26.74"/>
<text text-anchor="middle" x="253.49" y="-371.89" font-family="Times,serif" font-size="14.00">merge</text>
<text text-anchor="middle" x="253.49" y="-356.89" font-family="Times,serif" font-size="14.00">32769:65536</text>
</g>
<!-- 47735&#45;&gt;47738 -->
<g id="edge5" class="edge">
<title>47735&#45;&gt;47738</title>
<path fill="none" stroke="black" stroke-width="2" d="M306.78,-348.16C348.66,-333.28 406.68,-312.67 448.28,-297.9"/>
<polygon fill="black" stroke="black" stroke-width="2" points="449.7,-301.11 457.95,-294.46 447.36,-294.51 449.7,-301.11"/>
</g>
<!-- 47734&#45;&gt;47738 -->
<g id="edge6" class="edge">
<title>47734&#45;&gt;47738</title>
<path fill="none" stroke="black" stroke-width="2" d="M500.49,-340.77C500.49,-332.8 500.49,-323.91 500.49,-315.42"/>
<polygon fill="black" stroke="black" stroke-width="2" points="503.99,-315.35 500.49,-305.35 496.99,-315.35 503.99,-315.35"/>
</g>
<!-- 47736&#45;&gt;47739 -->
<g id="edge7" class="edge">
<title>47736&#45;&gt;47739</title>
<path fill="none" stroke="red" stroke-width="2" d="M772.49,-340.77C772.49,-332.8 772.49,-323.91 772.49,-315.42"/>
<polygon fill="red" stroke="red" stroke-width="2" points="775.99,-315.35 772.49,-305.35 768.99,-315.35 775.99,-315.35"/>
</g>
<!-- 47737 -->
<g id="node12" class="node">
<title>47737</title>
<ellipse fill="none" stroke="black" stroke-width="2" cx="1040.49" cy="-368.09" rx="84.71" ry="26.74"/>
<text text-anchor="middle" x="1040.49" y="-371.89" font-family="Times,serif" font-size="14.00">copy</text>
<text text-anchor="middle" x="1040.49" y="-356.89" font-family="Times,serif" font-size="14.00">98305:100000</text>
</g>
<!-- 47737&#45;&gt;47739 -->
<g id="edge8" class="edge">
<title>47737&#45;&gt;47739</title>
<path fill="none" stroke="black" stroke-width="2" d="M983,-348.27C940.96,-334.5 883.81,-315.8 839.67,-301.34"/>
<polygon fill="black" stroke="black" stroke-width="2" points="840.48,-297.93 829.89,-298.14 838.3,-304.58 840.48,-297.93"/>
</g>
<!-- 47731 -->
<g id="node13" class="node">
<title>47731</title>
<ellipse fill="none" stroke="black" stroke-width="2" cx="903.49" cy="-457.83" rx="78.48" ry="26.74"/>
<text text-anchor="middle" x="903.49" y="-461.63" font-family="Times,serif" font-size="14.00">sort</text>
<text text-anchor="middle" x="903.49" y="-446.63" font-family="Times,serif" font-size="14.00">65537:81920</text>
</g>
<!-- 47731&#45;&gt;47736 -->
<g id="edge12" class="edge">
<title>47731&#45;&gt;47736</title>
<path fill="none" stroke="black" stroke-width="2" d="M868.73,-433.55C852.59,-422.74 833.23,-409.78 816.13,-398.32"/>
<polygon fill="black" stroke="black" stroke-width="2" points="817.67,-395.14 807.41,-392.48 813.77,-400.95 817.67,-395.14"/>
</g>
<!-- 47729 -->
<g id="node14" class="node">
<title>47729</title>
<ellipse fill="none" stroke="black" stroke-width="2" cx="78.49" cy="-457.83" rx="78.48" ry="26.74"/>
<text text-anchor="middle" x="78.49" y="-461.63" font-family="Times,serif" font-size="14.00">sort</text>
<text text-anchor="middle" x="78.49" y="-446.63" font-family="Times,serif" font-size="14.00">32769:49152</text>
</g>
<!-- 47729&#45;&gt;47735 -->
<g id="edge13" class="edge">
<title>47729&#45;&gt;47735</title>
<path fill="none" stroke="black" stroke-width="2" d="M121.75,-435.14C145.82,-423.07 175.95,-407.97 201.31,-395.25"/>
<polygon fill="black" stroke="black" stroke-width="2" points="203.05,-398.29 210.43,-390.68 199.92,-392.03 203.05,-398.29"/>
</g>
<!-- 47727 -->
<g id="node15" class="node">
<title>47727</title>
<ellipse fill="none" stroke="black" stroke-width="2" cx="578.49" cy="-457.83" rx="53.07" ry="26.74"/>
<text text-anchor="middle" x="578.49" y="-461.63" font-family="Times,serif" font-size="14.00">sort</text>
<text text-anchor="middle" x="578.49" y="-446.63" font-family="Times,serif" font-size="14.00">1:16384</text>
</g>
<!-- 47727&#45;&gt;47734 -->
<g id="edge10" class="edge">
<title>47727&#45;&gt;47734</title>
<path fill="none" stroke="black" stroke-width="2" d="M557.18,-432.86C548.32,-422.89 537.92,-411.19 528.46,-400.56"/>
<polygon fill="black" stroke="black" stroke-width="2" points="531.04,-398.19 521.78,-393.04 525.81,-402.84 531.04,-398.19"/>
</g>
<!-- 47730 -->
<g id="node16" class="node">
<title>47730</title>
<ellipse fill="none" stroke="black" stroke-width="2" cx="253.49" cy="-457.83" rx="78.48" ry="26.74"/>
<text text-anchor="middle" x="253.49" y="-461.63" font-family="Times,serif" font-size="14.00">sort</text>
<text text-anchor="middle" x="253.49" y="-446.63" font-family="Times,serif" font-size="14.00">49153:65536</text>
</g>
<!-- 47730&#45;&gt;47735 -->
<g id="edge14" class="edge">
<title>47730&#45;&gt;47735</title>
<path fill="none" stroke="black" stroke-width="2" d="M253.49,-430.51C253.49,-422.54 253.49,-413.65 253.49,-405.16"/>
<polygon fill="black" stroke="black" stroke-width="2" points="256.99,-405.09 253.49,-395.09 249.99,-405.09 256.99,-405.09"/>
</g>
<!-- 47733 -->
<g id="node17" class="node">
<title>47733</title>
<ellipse fill="none" stroke="black" stroke-width="2" cx="1084.49" cy="-457.83" rx="84.71" ry="26.74"/>
<text text-anchor="middle" x="1084.49" y="-461.63" font-family="Times,serif" font-size="14.00">sort</text>
<text text-anchor="middle" x="1084.49" y="-446.63" font-family="Times,serif" font-size="14.00">98305:100000</text>
</g>
<!-- 47733&#45;&gt;47737 -->
<g id="edge16" class="edge">
<title>47733&#45;&gt;47737</title>
<path fill="none" stroke="black" stroke-width="2" d="M1071.53,-430.98C1067.27,-422.5 1062.48,-412.94 1057.95,-403.91"/>
<polygon fill="black" stroke="black" stroke-width="2" points="1060.97,-402.13 1053.36,-394.76 1054.71,-405.26 1060.97,-402.13"/>
</g>
</g>
</svg>
