<?xml version="1.0" encoding="UTF-8" standalone="no"?>
<!DOCTYPE svg PUBLIC "-//W3C//DTD SVG 1.1//EN"
 "http://www.w3.org/Graphics/SVG/1.1/DTD/svg11.dtd">
<!-- Generated by graphviz version 2.50.0 (20211204.2007)
 -->
<!-- Title: dag Pages: 1 -->
<svg width="1177pt" height="403pt"
 viewBox="0.00 0.00 1177.34 402.96" xmlns="http://www.w3.org/2000/svg" xmlns:xlink="http://www.w3.org/1999/xlink">
<g id="graph0" class="graph" transform="scale(1 1) rotate(0) translate(4 398.96)">
<title>dag</title>
<polygon fill="white" stroke="transparent" points="-4,4 -4,-398.96 1173.34,-398.96 1173.34,4 -4,4"/>
<!-- 44676 -->
<g id="node1" class="node">
<title>44676</title>
<ellipse fill="none" stroke="red" stroke-width="2" cx="253.49" cy="-368.09" rx="78.48" ry="26.74"/>
<text text-anchor="middle" x="253.49" y="-371.89" font-family="Times,serif" font-size="14.00">sort</text>
<text text-anchor="middle" x="253.49" y="-356.89" font-family="Times,serif" font-size="14.00">32769:49152</text>
</g>
<!-- 44682 -->
<g id="node5" class="node">
<title>44682</title>
<ellipse fill="none" stroke="red" stroke-width="2" cx="253.49" cy="-278.35" rx="78.48" ry="26.74"/>
<text text-anchor="middle" x="253.49" y="-282.15" font-family="Times,serif" font-size="14.00">merge</text>
<text text-anchor="middle" x="253.49" y="-267.15" font-family="Times,serif" font-size="14.00">32769:65536</text>
</g>
<!-- 44676&#45;&gt;44682 -->
<g id="edge1" class="edge">
<title>44676&#45;&gt;44682</title>
<path fill="none" stroke="red" stroke-width="2" d="M253.49,-340.77C253.49,-332.8 253.49,-323.91 253.49,-315.42"/>
<polygon fill="red" stroke="red" stroke-width="2" points="256.99,-315.35 253.49,-305.35 249.99,-315.35 256.99,-315.35"/>
</g>
<!-- 44677 -->
<g id="node2" class="node">
<title>44677</title>
<ellipse fill="none" stroke="black" stroke-width="2" cx="78.49" cy="-368.09" rx="78.48" ry="26.74"/>
<text text-anchor="middle" x="78.49" y="-371.89" font-family="Times,serif" font-size="14.00">sort</text>
<text text-anchor="middle" x="78.49" y="-356.89" font-family="Times,serif" font-size="14.00">49153:65536</text>
</g>
<!-- 44677&#45;&gt;44682 -->
<g id="edge2" class="edge">
<title>44677&#45;&gt;44682</title>
<path fill="none" stroke="black" stroke-width="2" d="M121.75,-345.4C145.82,-333.33 175.95,-318.23 201.31,-305.51"/>
<polygon fill="black" stroke="black" stroke-width="2" points="203.05,-308.55 210.43,-300.94 199.92,-302.29 203.05,-308.55"/>
</g>
<!-- 44675 -->
<g id="node3" class="node">
<title>44675</title>
<ellipse fill="none" stroke="black" stroke-width="2" cx="428.49" cy="-368.09" rx="78.48" ry="26.74"/>
<text text-anchor="middle" x="428.49" y="-371.89" font-family="Times,serif" font-size="14.00">sort</text>
<text text-anchor="middle" x="428.49" y="-356.89" font-family="Times,serif" font-size="14.00">16385:32768</text>
</g>
<!-- 44681 -->
<g id="node7" class="node">
<title>44681</title>
<ellipse fill="none" stroke="black" stroke-width="2" cx="500.49" cy="-278.35" rx="53.07" ry="26.74"/>
<text text-anchor="middle" x="500.49" y="-282.15" font-family="Times,serif" font-size="14.00">merge</text>
<text text-anchor="middle" x="500.49" y="-267.15" font-family="Times,serif" font-size="14.00">1:32768</text>
</g>
<!-- 44675&#45;&gt;44681 -->
<g id="edge3" class="edge">
<title>44675&#45;&gt;44681</title>
<path fill="none" stroke="black" stroke-width="2" d="M449.31,-341.71C457.11,-332.21 466.08,-321.29 474.3,-311.26"/>
<polygon fill="black" stroke="black" stroke-width="2" points="477.06,-313.42 480.7,-303.47 471.65,-308.98 477.06,-313.42"/>
</g>
<!-- 44679 -->
<g id="node4" class="node">
<title>44679</title>
<ellipse fill="none" stroke="black" stroke-width="2" cx="903.49" cy="-368.09" rx="78.48" ry="26.74"/>
<text text-anchor="middle" x="903.49" y="-371.89" font-family="Times,serif" font-size="14.00">sort</text>
<text text-anchor="middle" x="903.49" y="-356.89" font-family="Times,serif" font-size="14.00">81921:98304</text>
</g>
<!-- 44683 -->
<g id="node10" class="node">
<title>44683</title>
<ellipse fill="none" stroke="black" stroke-width="2" cx="772.49" cy="-278.35" rx="78.48" ry="26.74"/>
<text text-anchor="middle" x="772.49" y="-282.15" font-family="Times,serif" font-size="14.00">merge</text>
<text text-anchor="middle" x="772.49" y="-267.15" font-family="Times,serif" font-size="14.00">65537:98304</text>
</g>
<!-- 44679&#45;&gt;44683 -->
<g id="edge8" class="edge">
<title>44679&#45;&gt;44683</title>
<path fill="none" stroke="black" stroke-width="2" d="M868.73,-343.81C852.59,-333 833.23,-320.04 816.13,-308.58"/>
<polygon fill="black" stroke="black" stroke-width="2" points="817.67,-305.4 807.41,-302.74 813.77,-311.21 817.67,-305.4"/>
</g>
<!-- 44685 -->
<g id="node8" class="node">
<title>44685</title>
<ellipse fill="none" stroke="red" stroke-width="2" cx="500.49" cy="-188.61" rx="53.07" ry="26.74"/>
<text text-anchor="middle" x="500.49" y="-192.41" font-family="Times,serif" font-size="14.00">merge</text>
<text text-anchor="middle" x="500.49" y="-177.41" font-family="Times,serif" font-size="14.00">1:65536</text>
</g>
<!-- 44682&#45;&gt;44685 -->
<g id="edge5" class="edge">
<title>44682&#45;&gt;44685</title>
<path fill="none" stroke="red" stroke-width="2" d="M306.78,-258.42C348.66,-243.54 406.68,-222.93 448.28,-208.16"/>
<polygon fill="red" stroke="red" stroke-width="2" points="449.7,-211.37 457.95,-204.72 447.36,-204.77 449.7,-211.37"/>
</g>
<!-- 44674 -->
<g id="node6" class="node">
<title>44674</title>
<ellipse fill="none" stroke="black" stroke-width="2" cx="578.49" cy="-368.09" rx="53.07" ry="26.74"/>
<text text-anchor="middle" x="578.49" y="-371.89" font-family="Times,serif" font-size="14.00">sort</text>
<text text-anchor="middle" x="578.49" y="-356.89" font-family="Times,serif" font-size="14.00">1:16384</text>
</g>
<!-- 44674&#45;&gt;44681 -->
<g id="edge4" class="edge">
<title>44674&#45;&gt;44681</title>
<path fill="none" stroke="black" stroke-width="2" d="M557.18,-343.12C548.32,-333.15 537.92,-321.45 528.46,-310.82"/>
<polygon fill="black" stroke="black" stroke-width="2" points="531.04,-308.44 521.78,-303.3 525.81,-313.1 531.04,-308.44"/>
</g>
<!-- 44681&#45;&gt;44685 -->
<g id="edge6" class="edge">
<title>44681&#45;&gt;44685</title>
<path fill="none" stroke="black" stroke-width="2" d="M500.49,-251.03C500.49,-243.06 500.49,-234.17 500.49,-225.68"/>
<polygon fill="black" stroke="black" stroke-width="2" points="503.99,-225.61 500.49,-215.61 496.99,-225.61 503.99,-225.61"/>
</g>
<!-- 44687 -->
<g id="node14" class="node">
<title>44687</title>
<ellipse fill="none" stroke="red" stroke-width="2" cx="650.49" cy="-98.87" rx="59.29" ry="26.74"/>
<text text-anchor="middle" x="650.49" y="-102.67" font-family="Times,serif" font-size="14.00">merge</text>
<text text-anchor="middle" x="650.49" y="-87.67" font-family="Times,serif" font-size="14.00">1:100000</text>
</g>
<!-- 44685&#45;&gt;44687 -->
<g id="edge13" class="edge">
<title>44685&#45;&gt;44687</title>
<path fill="none" stroke="red" stroke-width="2" d="M534.53,-167.7C555.74,-155.29 583.26,-139.19 606.17,-125.79"/>
<polygon fill="red" stroke="red" stroke-width="2" points="608.16,-128.69 615.02,-120.62 604.62,-122.64 608.16,-128.69"/>
</g>
<!-- 44678 -->
<g id="node9" class="node">
<title>44678</title>
<ellipse fill="none" stroke="black" stroke-width="2" cx="728.49" cy="-368.09" rx="78.48" ry="26.74"/>
<text text-anchor="middle" x="728.49" y="-371.89" font-family="Times,serif" font-size="14.00">sort</text>
<text text-anchor="middle" x="728.49" y="-356.89" font-family="Times,serif" font-size="14.00">65537:81920</text>
</g>
<!-- 44678&#45;&gt;44683 -->
<g id="edge7" class="edge">
<title>44678&#45;&gt;44683</title>
<path fill="none" stroke="black" stroke-width="2" d="M741.45,-341.24C745.7,-332.76 750.5,-323.2 755.03,-314.16"/>
<polygon fill="black" stroke="black" stroke-width="2" points="758.26,-315.52 759.62,-305.02 752.01,-312.39 758.26,-315.52"/>
</g>
<!-- 44686 -->
<g id="node11" class="node">
<title>44686</title>
<ellipse fill="none" stroke="black" stroke-width="2" cx="772.49" cy="-188.61" rx="84.71" ry="26.74"/>
<text text-anchor="middle" x="772.49" y="-192.41" font-family="Times,serif" font-size="14.00">merge</text>
<text text-anchor="middle" x="772.49" y="-177.41" font-family="Times,serif" font-size="14.00">65537:100000</text>
</g>
<!-- 44683&#45;&gt;44686 -->
<g id="edge9" class="edge">
<title>44683&#45;&gt;44686</title>
<path fill="none" stroke="black" stroke-width="2" d="M772.49,-251.03C772.49,-243.06 772.49,-234.17 772.49,-225.68"/>
<polygon fill="black" stroke="black" stroke-width="2" points="775.99,-225.61 772.49,-215.61 768.99,-225.61 775.99,-225.61"/>
</g>
<!-- 44686&#45;&gt;44687 -->
<g id="edge12" class="edge">
<title>44686&#45;&gt;44687</title>
<path fill="none" stroke="black" stroke-width="2" d="M739.15,-163.63C723.77,-152.57 705.42,-139.37 689.4,-127.86"/>
<polygon fill="black" stroke="black" stroke-width="2" points="691.44,-125.01 681.27,-122.01 687.35,-130.69 691.44,-125.01"/>
</g>
<!-- 44684 -->
<g id="node12" class="node">
<title>44684</title>
<ellipse fill="none" stroke="black" stroke-width="2" cx="1040.49" cy="-278.35" rx="84.71" ry="26.74"/>
<text text-anchor="middle" x="1040.49" y="-282.15" font-family="Times,serif" font-size="14.00">copy</text>
<text text-anchor="middle" x="1040.49" y="-267.15" font-family="Times,serif" font-size="14.00">98305:100000</text>
</g>
<!-- 44684&#45;&gt;44686 -->
<g id="edge10" class="edge">
<title>44684&#45;&gt;44686</title>
<path fill="none" stroke="black" stroke-width="2" d="M983,-258.53C940.96,-244.76 883.81,-226.06 839.67,-211.6"/>
<polygon fill="black" stroke="black" stroke-width="2" points="840.48,-208.19 829.89,-208.4 838.3,-214.84 840.48,-208.19"/>
</g>
<!-- 44680 -->
<g id="node13" class="node">
<title>44680</title>
<ellipse fill="none" stroke="black" stroke-width="2" cx="1084.49" cy="-368.09" rx="84.71" ry="26.74"/>
<text text-anchor="middle" x="1084.49" y="-371.89" font-family="Times,serif" font-size="14.00">sort</text>
<text text-anchor="middle" x="1084.49" y="-356.89" font-family="Times,serif" font-size="14.00">98305:100000</text>
</g>
<!-- 44680&#45;&gt;44684 -->
<g id="edge11" class="edge">
<title>44680&#45;&gt;44684</title>
<path fill="none" stroke="black" stroke-width="2" d="M1071.53,-341.24C1067.27,-332.76 1062.48,-323.2 1057.95,-314.16"/>
<polygon fill="black" stroke="black" stroke-width="2" points="1060.97,-312.39 1053.36,-305.02 1054.71,-315.52 1060.97,-312.39"/>
</g>
<!-- 44688 -->
<g id="node15" class="node">
<title>44688</title>
<ellipse fill="none" stroke="red" stroke-width="2" cx="650.49" cy="-18" rx="38.19" ry="18"/>
<text text-anchor="middle" x="650.49" y="-14.3" font-family="Times,serif" font-size="14.00">result</text>
</g>
<!-- 44687&#45;&gt;44688 -->
<g id="edge14" class="edge">
<title>44687&#45;&gt;44688</title>
<path fill="none" stroke="red" stroke-width="2" d="M650.49,-71.61C650.49,-63.51 650.49,-54.57 650.49,-46.39"/>
<polygon fill="red" stroke="red" stroke-width="2" points="653.99,-46.22 650.49,-36.22 646.99,-46.22 653.99,-46.22"/>
</g>
</g>
</svg>
