<?xml version="1.0" encoding="UTF-8" standalone="no"?>
<!DOCTYPE svg PUBLIC "-//W3C//DTD SVG 1.1//EN"
 "http://www.w3.org/Graphics/SVG/1.1/DTD/svg11.dtd">
<!-- Generated by graphviz version 2.50.0 (20211204.2007)
 -->
<!-- Title: dag Pages: 1 -->
<svg width="1177pt" height="493pt"
 viewBox="0.00 0.00 1176.98 492.70" xmlns="http://www.w3.org/2000/svg" xmlns:xlink="http://www.w3.org/1999/xlink">
<g id="graph0" class="graph" transform="scale(1 1) rotate(0) translate(4 488.7)">
<title>dag</title>
<polygon fill="white" stroke="transparent" points="-4,4 -4,-488.7 1172.98,-488.7 1172.98,4 -4,4"/>
<!-- 43712 -->
<g id="node1" class="node">
<title>43712</title>
<ellipse fill="none" stroke="red" stroke-width="2" cx="524.49" cy="-188.61" rx="59.29" ry="26.74"/>
<text text-anchor="middle" x="524.49" y="-192.41" font-family="Times,serif" font-size="14.00">split</text>
<text text-anchor="middle" x="524.49" y="-177.41" font-family="Times,serif" font-size="14.00">1:100000</text>
</g>
<!-- 43714 -->
<g id="node11" class="node">
<title>43714</title>
<ellipse fill="none" stroke="red" stroke-width="2" cx="456.49" cy="-98.87" rx="59.29" ry="26.74"/>
<text text-anchor="middle" x="456.49" y="-102.67" font-family="Times,serif" font-size="14.00">merge B</text>
<text text-anchor="middle" x="456.49" y="-87.67" font-family="Times,serif" font-size="14.00">1:100000</text>
</g>
<!-- 43712&#45;&gt;43714 -->
<g id="edge12" class="edge">
<title>43712&#45;&gt;43714</title>
<path fill="none" stroke="red" stroke-width="2" d="M505.18,-162.7C497.95,-153.36 489.6,-142.6 481.9,-132.65"/>
<polygon fill="red" stroke="red" stroke-width="2" points="484.5,-130.3 475.61,-124.54 478.97,-134.58 484.5,-130.3"/>
</g>
<!-- 43713 -->
<g id="node12" class="node">
<title>43713</title>
<ellipse fill="none" stroke="black" stroke-width="2" cx="593.49" cy="-98.87" rx="59.29" ry="26.74"/>
<text text-anchor="middle" x="593.49" y="-102.67" font-family="Times,serif" font-size="14.00">merge A</text>
<text text-anchor="middle" x="593.49" y="-87.67" font-family="Times,serif" font-size="14.00">1:100000</text>
</g>
<!-- 43712&#45;&gt;43713 -->
<g id="edge11" class="edge">
<title>43712&#45;&gt;43713</title>
<path fill="none" stroke="black" stroke-width="2" d="M543.71,-163.17C551.2,-153.65 559.89,-142.59 567.9,-132.41"/>
<polygon fill="black" stroke="black" stroke-width="2" points="570.7,-134.51 574.13,-124.48 565.2,-130.18 570.7,-134.51"/>
</g>
<!-- 43711 -->
<g id="node2" class="node">
<title>43711</title>
<ellipse fill="none" stroke="black" stroke-width="2" cx="434.49" cy="-278.35" rx="84.71" ry="26.74"/>
<text text-anchor="middle" x="434.49" y="-282.15" font-family="Times,serif" font-size="14.00">merge</text>
<text text-anchor="middle" x="434.49" y="-267.15" font-family="Times,serif" font-size="14.00">65537:100000</text>
</g>
<!-- 43711&#45;&gt;43712 -->
<g id="edge1" class="edge">
<title>43711&#45;&gt;43712</title>
<path fill="none" stroke="black" stroke-width="2" d="M460.04,-252.44C470.26,-242.48 482.13,-230.9 492.88,-220.42"/>
<polygon fill="black" stroke="black" stroke-width="2" points="495.4,-222.86 500.12,-213.37 490.51,-217.85 495.4,-222.86"/>
</g>
<!-- 43710 -->
<g id="node3" class="node">
<title>43710</title>
<ellipse fill="none" stroke="red" stroke-width="2" cx="702.49" cy="-278.35" rx="53.07" ry="26.74"/>
<text text-anchor="middle" x="702.49" y="-282.15" font-family="Times,serif" font-size="14.00">merge</text>
<text text-anchor="middle" x="702.49" y="-267.15" font-family="Times,serif" font-size="14.00">1:65536</text>
</g>
<!-- 43710&#45;&gt;43712 -->
<g id="edge2" class="edge">
<title>43710&#45;&gt;43712</title>
<path fill="none" stroke="red" stroke-width="2" d="M665.17,-258.96C638.31,-245.72 601.84,-227.74 572.76,-213.41"/>
<polygon fill="red" stroke="red" stroke-width="2" points="574.12,-210.17 563.6,-208.89 571.03,-216.45 574.12,-210.17"/>
</g>
<!-- 43699 -->
<g id="node4" class="node">
<title>43699</title>
<ellipse fill="none" stroke="black" stroke-width="2" cx="940.49" cy="-457.83" rx="53.07" ry="26.74"/>
<text text-anchor="middle" x="940.49" y="-461.63" font-family="Times,serif" font-size="14.00">sort</text>
<text text-anchor="middle" x="940.49" y="-446.63" font-family="Times,serif" font-size="14.00">1:16384</text>
</g>
<!-- 43706 -->
<g id="node9" class="node">
<title>43706</title>
<ellipse fill="none" stroke="black" stroke-width="2" cx="940.49" cy="-368.09" rx="53.07" ry="26.74"/>
<text text-anchor="middle" x="940.49" y="-371.89" font-family="Times,serif" font-size="14.00">merge</text>
<text text-anchor="middle" x="940.49" y="-356.89" font-family="Times,serif" font-size="14.00">1:32768</text>
</g>
<!-- 43699&#45;&gt;43706 -->
<g id="edge10" class="edge">
<title>43699&#45;&gt;43706</title>
<path fill="none" stroke="black" stroke-width="2" d="M940.49,-430.51C940.49,-422.54 940.49,-413.65 940.49,-405.16"/>
<polygon fill="black" stroke="black" stroke-width="2" points="943.99,-405.09 940.49,-395.09 936.99,-405.09 943.99,-405.09"/>
</g>
<!-- 43707 -->
<g id="node5" class="node">
<title>43707</title>
<ellipse fill="none" stroke="red" stroke-width="2" cx="702.49" cy="-368.09" rx="78.48" ry="26.74"/>
<text text-anchor="middle" x="702.49" y="-371.89" font-family="Times,serif" font-size="14.00">merge</text>
<text text-anchor="middle" x="702.49" y="-356.89" font-family="Times,serif" font-size="14.00">32769:65536</text>
</g>
<!-- 43707&#45;&gt;43710 -->
<g id="edge5" class="edge">
<title>43707&#45;&gt;43710</title>
<path fill="none" stroke="red" stroke-width="2" d="M702.49,-340.77C702.49,-332.8 702.49,-323.91 702.49,-315.42"/>
<polygon fill="red" stroke="red" stroke-width="2" points="705.99,-315.35 702.49,-305.35 698.99,-315.35 705.99,-315.35"/>
</g>
<!-- 43701 -->
<g id="node6" class="node">
<title>43701</title>
<ellipse fill="none" stroke="red" stroke-width="2" cx="615.49" cy="-457.83" rx="78.48" ry="26.74"/>
<text text-anchor="middle" x="615.49" y="-461.63" font-family="Times,serif" font-size="14.00">sort</text>
<text text-anchor="middle" x="615.49" y="-446.63" font-family="Times,serif" font-size="14.00">32769:49152</text>
</g>
<!-- 43701&#45;&gt;43707 -->
<g id="edge3" class="edge">
<title>43701&#45;&gt;43707</title>
<path fill="none" stroke="red" stroke-width="2" d="M640.19,-431.92C649.73,-422.3 660.76,-411.17 670.87,-400.98"/>
<polygon fill="red" stroke="red" stroke-width="2" points="673.47,-403.32 678.03,-393.76 668.5,-398.39 673.47,-403.32"/>
</g>
<!-- 43702 -->
<g id="node7" class="node">
<title>43702</title>
<ellipse fill="none" stroke="black" stroke-width="2" cx="790.49" cy="-457.83" rx="78.48" ry="26.74"/>
<text text-anchor="middle" x="790.49" y="-461.63" font-family="Times,serif" font-size="14.00">sort</text>
<text text-anchor="middle" x="790.49" y="-446.63" font-family="Times,serif" font-size="14.00">49153:65536</text>
</g>
<!-- 43702&#45;&gt;43707 -->
<g id="edge4" class="edge">
<title>43702&#45;&gt;43707</title>
<path fill="none" stroke="black" stroke-width="2" d="M765.51,-431.92C755.86,-422.3 744.7,-411.17 734.47,-400.98"/>
<polygon fill="black" stroke="black" stroke-width="2" points="736.78,-398.34 727.23,-393.76 731.84,-403.3 736.78,-398.34"/>
</g>
<!-- 43700 -->
<g id="node8" class="node">
<title>43700</title>
<ellipse fill="none" stroke="black" stroke-width="2" cx="1090.49" cy="-457.83" rx="78.48" ry="26.74"/>
<text text-anchor="middle" x="1090.49" y="-461.63" font-family="Times,serif" font-size="14.00">sort</text>
<text text-anchor="middle" x="1090.49" y="-446.63" font-family="Times,serif" font-size="14.00">16385:32768</text>
</g>
<!-- 43700&#45;&gt;43706 -->
<g id="edge9" class="edge">
<title>43700&#45;&gt;43706</title>
<path fill="none" stroke="black" stroke-width="2" d="M1051.86,-434.24C1030.8,-421.92 1004.7,-406.65 983.06,-393.99"/>
<polygon fill="black" stroke="black" stroke-width="2" points="984.79,-390.95 974.39,-388.92 981.26,-396.99 984.79,-390.95"/>
</g>
<!-- 43706&#45;&gt;43710 -->
<g id="edge6" class="edge">
<title>43706&#45;&gt;43710</title>
<path fill="none" stroke="black" stroke-width="2" d="M898.49,-351.61C858.17,-336.74 797.18,-314.26 753.96,-298.32"/>
<polygon fill="black" stroke="black" stroke-width="2" points="755.06,-295 744.47,-294.83 752.64,-301.57 755.06,-295"/>
</g>
<!-- 43715 -->
<g id="node10" class="node">
<title>43715</title>
<ellipse fill="none" stroke="red" stroke-width="2" cx="524.49" cy="-18" rx="38.19" ry="18"/>
<text text-anchor="middle" x="524.49" y="-14.3" font-family="Times,serif" font-size="14.00">result</text>
</g>
<!-- 43714&#45;&gt;43715 -->
<g id="edge7" class="edge">
<title>43714&#45;&gt;43715</title>
<path fill="none" stroke="red" stroke-width="2" d="M477.63,-73.35C486.04,-63.6 495.67,-52.42 504.01,-42.75"/>
<polygon fill="red" stroke="red" stroke-width="2" points="506.78,-44.9 510.66,-35.04 501.48,-40.33 506.78,-44.9"/>
</g>
<!-- 43713&#45;&gt;43715 -->
<g id="edge8" class="edge">
<title>43713&#45;&gt;43715</title>
<path fill="none" stroke="black" stroke-width="2" d="M572.04,-73.35C563.5,-63.6 553.73,-52.42 545.26,-42.75"/>
<polygon fill="black" stroke="black" stroke-width="2" points="547.74,-40.26 538.52,-35.04 542.47,-44.87 547.74,-40.26"/>
</g>
<!-- 43704 -->
<g id="node13" class="node">
<title>43704</title>
<ellipse fill="none" stroke="black" stroke-width="2" cx="78.49" cy="-457.83" rx="78.48" ry="26.74"/>
<text text-anchor="middle" x="78.49" y="-461.63" font-family="Times,serif" font-size="14.00">sort</text>
<text text-anchor="middle" x="78.49" y="-446.63" font-family="Times,serif" font-size="14.00">81921:98304</text>
</g>
<!-- 43708 -->
<g id="node14" class="node">
<title>43708</title>
<ellipse fill="none" stroke="black" stroke-width="2" cx="253.49" cy="-368.09" rx="78.48" ry="26.74"/>
<text text-anchor="middle" x="253.49" y="-371.89" font-family="Times,serif" font-size="14.00">merge</text>
<text text-anchor="middle" x="253.49" y="-356.89" font-family="Times,serif" font-size="14.00">65537:98304</text>
</g>
<!-- 43704&#45;&gt;43708 -->
<g id="edge14" class="edge">
<title>43704&#45;&gt;43708</title>
<path fill="none" stroke="black" stroke-width="2" d="M121.75,-435.14C145.82,-423.07 175.95,-407.97 201.31,-395.25"/>
<polygon fill="black" stroke="black" stroke-width="2" points="203.05,-398.29 210.43,-390.68 199.92,-392.03 203.05,-398.29"/>
</g>
<!-- 43708&#45;&gt;43711 -->
<g id="edge17" class="edge">
<title>43708&#45;&gt;43711</title>
<path fill="none" stroke="black" stroke-width="2" d="M297.77,-345.63C322.67,-333.56 353.95,-318.39 380.31,-305.61"/>
<polygon fill="black" stroke="black" stroke-width="2" points="381.94,-308.71 389.41,-301.2 378.89,-302.41 381.94,-308.71"/>
</g>
<!-- 43703 -->
<g id="node15" class="node">
<title>43703</title>
<ellipse fill="none" stroke="black" stroke-width="2" cx="253.49" cy="-457.83" rx="78.48" ry="26.74"/>
<text text-anchor="middle" x="253.49" y="-461.63" font-family="Times,serif" font-size="14.00">sort</text>
<text text-anchor="middle" x="253.49" y="-446.63" font-family="Times,serif" font-size="14.00">65537:81920</text>
</g>
<!-- 43703&#45;&gt;43708 -->
<g id="edge13" class="edge">
<title>43703&#45;&gt;43708</title>
<path fill="none" stroke="black" stroke-width="2" d="M253.49,-430.51C253.49,-422.54 253.49,-413.65 253.49,-405.16"/>
<polygon fill="black" stroke="black" stroke-width="2" points="256.99,-405.09 253.49,-395.09 249.99,-405.09 256.99,-405.09"/>
</g>
<!-- 43705 -->
<g id="node16" class="node">
<title>43705</title>
<ellipse fill="none" stroke="black" stroke-width="2" cx="434.49" cy="-457.83" rx="84.71" ry="26.74"/>
<text text-anchor="middle" x="434.49" y="-461.63" font-family="Times,serif" font-size="14.00">sort</text>
<text text-anchor="middle" x="434.49" y="-446.63" font-family="Times,serif" font-size="14.00">98305:100000</text>
</g>
<!-- 43709 -->
<g id="node17" class="node">
<title>43709</title>
<ellipse fill="none" stroke="black" stroke-width="2" cx="434.49" cy="-368.09" rx="84.71" ry="26.74"/>
<text text-anchor="middle" x="434.49" y="-371.89" font-family="Times,serif" font-size="14.00">copy</text>
<text text-anchor="middle" x="434.49" y="-356.89" font-family="Times,serif" font-size="14.00">98305:100000</text>
</g>
<!-- 43705&#45;&gt;43709 -->
<g id="edge15" class="edge">
<title>43705&#45;&gt;43709</title>
<path fill="none" stroke="black" stroke-width="2" d="M434.49,-430.51C434.49,-422.54 434.49,-413.65 434.49,-405.16"/>
<polygon fill="black" stroke="black" stroke-width="2" points="437.99,-405.09 434.49,-395.09 430.99,-405.09 437.99,-405.09"/>
</g>
<!-- 43709&#45;&gt;43711 -->
<g id="edge16" class="edge">
<title>43709&#45;&gt;43711</title>
<path fill="none" stroke="black" stroke-width="2" d="M434.49,-340.77C434.49,-332.8 434.49,-323.91 434.49,-315.42"/>
<polygon fill="black" stroke="black" stroke-width="2" points="437.99,-315.35 434.49,-305.35 430.99,-315.35 437.99,-315.35"/>
</g>
</g>
</svg>
