<?xml version="1.0" encoding="UTF-8" standalone="no"?>
<!DOCTYPE svg PUBLIC "-//W3C//DTD SVG 1.1//EN"
 "http://www.w3.org/Graphics/SVG/1.1/DTD/svg11.dtd">
<!-- Generated by graphviz version 2.50.0 (20211204.2007)
 -->
<!-- Title: dag Pages: 1 -->
<svg width="1177pt" height="403pt"
 viewBox="0.00 0.00 1176.89 402.96" xmlns="http://www.w3.org/2000/svg" xmlns:xlink="http://www.w3.org/1999/xlink">
<g id="graph0" class="graph" transform="scale(1 1) rotate(0) translate(4 398.96)">
<title>dag</title>
<polygon fill="white" stroke="transparent" points="-4,4 -4,-398.96 1172.89,-398.96 1172.89,4 -4,4"/>
<!-- 38851 -->
<g id="node1" class="node">
<title>38851</title>
<ellipse fill="none" stroke="black" stroke-width="2" cx="203.03" cy="-368.09" rx="78.48" ry="26.74"/>
<text text-anchor="middle" x="203.03" y="-371.89" font-family="Times,serif" font-size="14.00">sort</text>
<text text-anchor="middle" x="203.03" y="-356.89" font-family="Times,serif" font-size="14.00">16385:32768</text>
</g>
<!-- 38857 -->
<g id="node2" class="node">
<title>38857</title>
<ellipse fill="none" stroke="black" stroke-width="2" cx="203.03" cy="-278.35" rx="53.07" ry="26.74"/>
<text text-anchor="middle" x="203.03" y="-282.15" font-family="Times,serif" font-size="14.00">merge</text>
<text text-anchor="middle" x="203.03" y="-267.15" font-family="Times,serif" font-size="14.00">1:32768</text>
</g>
<!-- 38851&#45;&gt;38857 -->
<g id="edge1" class="edge">
<title>38851&#45;&gt;38857</title>
<path fill="none" stroke="black" stroke-width="2" d="M203.03,-340.77C203.03,-332.8 203.03,-323.91 203.03,-315.42"/>
<polygon fill="black" stroke="black" stroke-width="2" points="206.53,-315.35 203.03,-305.35 199.53,-315.35 206.53,-315.35"/>
</g>
<!-- 38861 -->
<g id="node13" class="node">
<title>38861</title>
<ellipse fill="none" stroke="red" stroke-width="2" cx="465.03" cy="-188.61" rx="53.07" ry="26.74"/>
<text text-anchor="middle" x="465.03" y="-192.41" font-family="Times,serif" font-size="14.00">merge</text>
<text text-anchor="middle" x="465.03" y="-177.41" font-family="Times,serif" font-size="14.00">1:65536</text>
</g>
<!-- 38857&#45;&gt;38861 -->
<g id="edge11" class="edge">
<title>38857&#45;&gt;38861</title>
<path fill="none" stroke="black" stroke-width="2" d="M246.59,-262.76C291.92,-247.58 362.96,-223.79 411.64,-207.49"/>
<polygon fill="black" stroke="black" stroke-width="2" points="413,-210.73 421.37,-204.23 410.78,-204.09 413,-210.73"/>
</g>
<!-- 38850 -->
<g id="node3" class="node">
<title>38850</title>
<ellipse fill="none" stroke="black" stroke-width="2" cx="53.03" cy="-368.09" rx="53.07" ry="26.74"/>
<text text-anchor="middle" x="53.03" y="-371.89" font-family="Times,serif" font-size="14.00">sort</text>
<text text-anchor="middle" x="53.03" y="-356.89" font-family="Times,serif" font-size="14.00">1:16384</text>
</g>
<!-- 38850&#45;&gt;38857 -->
<g id="edge2" class="edge">
<title>38850&#45;&gt;38857</title>
<path fill="none" stroke="black" stroke-width="2" d="M87.07,-347.18C108.84,-334.45 137.25,-317.83 160.5,-304.23"/>
<polygon fill="black" stroke="black" stroke-width="2" points="162.27,-307.25 169.13,-299.18 158.73,-301.21 162.27,-307.25"/>
</g>
<!-- 38859 -->
<g id="node4" class="node">
<title>38859</title>
<ellipse fill="none" stroke="black" stroke-width="2" cx="772.03" cy="-278.35" rx="78.48" ry="26.74"/>
<text text-anchor="middle" x="772.03" y="-282.15" font-family="Times,serif" font-size="14.00">merge</text>
<text text-anchor="middle" x="772.03" y="-267.15" font-family="Times,serif" font-size="14.00">65537:98304</text>
</g>
<!-- 38862 -->
<g id="node9" class="node">
<title>38862</title>
<ellipse fill="none" stroke="black" stroke-width="2" cx="772.03" cy="-188.61" rx="84.71" ry="26.74"/>
<text text-anchor="middle" x="772.03" y="-192.41" font-family="Times,serif" font-size="14.00">merge</text>
<text text-anchor="middle" x="772.03" y="-177.41" font-family="Times,serif" font-size="14.00">65537:100000</text>
</g>
<!-- 38859&#45;&gt;38862 -->
<g id="edge7" class="edge">
<title>38859&#45;&gt;38862</title>
<path fill="none" stroke="black" stroke-width="2" d="M772.03,-251.03C772.03,-243.06 772.03,-234.17 772.03,-225.68"/>
<polygon fill="black" stroke="black" stroke-width="2" points="775.53,-225.61 772.03,-215.61 768.53,-225.61 775.53,-225.61"/>
</g>
<!-- 38854 -->
<g id="node5" class="node">
<title>38854</title>
<ellipse fill="none" stroke="black" stroke-width="2" cx="903.03" cy="-368.09" rx="78.48" ry="26.74"/>
<text text-anchor="middle" x="903.03" y="-371.89" font-family="Times,serif" font-size="14.00">sort</text>
<text text-anchor="middle" x="903.03" y="-356.89" font-family="Times,serif" font-size="14.00">65537:81920</text>
</g>
<!-- 38854&#45;&gt;38859 -->
<g id="edge3" class="edge">
<title>38854&#45;&gt;38859</title>
<path fill="none" stroke="black" stroke-width="2" d="M868.27,-343.81C852.13,-333 832.78,-320.04 815.67,-308.58"/>
<polygon fill="black" stroke="black" stroke-width="2" points="817.21,-305.4 806.96,-302.74 813.32,-311.21 817.21,-305.4"/>
</g>
<!-- 38855 -->
<g id="node6" class="node">
<title>38855</title>
<ellipse fill="none" stroke="black" stroke-width="2" cx="728.03" cy="-368.09" rx="78.48" ry="26.74"/>
<text text-anchor="middle" x="728.03" y="-371.89" font-family="Times,serif" font-size="14.00">sort</text>
<text text-anchor="middle" x="728.03" y="-356.89" font-family="Times,serif" font-size="14.00">81921:98304</text>
</g>
<!-- 38855&#45;&gt;38859 -->
<g id="edge4" class="edge">
<title>38855&#45;&gt;38859</title>
<path fill="none" stroke="black" stroke-width="2" d="M741,-341.24C745.25,-332.76 750.05,-323.2 754.57,-314.16"/>
<polygon fill="black" stroke="black" stroke-width="2" points="757.81,-315.52 759.16,-305.02 751.55,-312.39 757.81,-315.52"/>
</g>
<!-- 38856 -->
<g id="node7" class="node">
<title>38856</title>
<ellipse fill="none" stroke="black" stroke-width="2" cx="1084.03" cy="-368.09" rx="84.71" ry="26.74"/>
<text text-anchor="middle" x="1084.03" y="-371.89" font-family="Times,serif" font-size="14.00">sort</text>
<text text-anchor="middle" x="1084.03" y="-356.89" font-family="Times,serif" font-size="14.00">98305:100000</text>
</g>
<!-- 38860 -->
<g id="node8" class="node">
<title>38860</title>
<ellipse fill="none" stroke="black" stroke-width="2" cx="1040.03" cy="-278.35" rx="84.71" ry="26.74"/>
<text text-anchor="middle" x="1040.03" y="-282.15" font-family="Times,serif" font-size="14.00">copy</text>
<text text-anchor="middle" x="1040.03" y="-267.15" font-family="Times,serif" font-size="14.00">98305:100000</text>
</g>
<!-- 38856&#45;&gt;38860 -->
<g id="edge5" class="edge">
<title>38856&#45;&gt;38860</title>
<path fill="none" stroke="black" stroke-width="2" d="M1071.07,-341.24C1066.82,-332.76 1062.02,-323.2 1057.49,-314.16"/>
<polygon fill="black" stroke="black" stroke-width="2" points="1060.52,-312.39 1052.9,-305.02 1054.26,-315.52 1060.52,-312.39"/>
</g>
<!-- 38860&#45;&gt;38862 -->
<g id="edge6" class="edge">
<title>38860&#45;&gt;38862</title>
<path fill="none" stroke="black" stroke-width="2" d="M982.54,-258.53C940.5,-244.76 883.35,-226.06 839.21,-211.6"/>
<polygon fill="black" stroke="black" stroke-width="2" points="840.02,-208.19 829.43,-208.4 837.85,-214.84 840.02,-208.19"/>
</g>
<!-- 38863 -->
<g id="node14" class="node">
<title>38863</title>
<ellipse fill="none" stroke="red" stroke-width="2" cx="640.03" cy="-98.87" rx="59.29" ry="26.74"/>
<text text-anchor="middle" x="640.03" y="-102.67" font-family="Times,serif" font-size="14.00">merge</text>
<text text-anchor="middle" x="640.03" y="-87.67" font-family="Times,serif" font-size="14.00">1:100000</text>
</g>
<!-- 38862&#45;&gt;38863 -->
<g id="edge13" class="edge">
<title>38862&#45;&gt;38863</title>
<path fill="none" stroke="black" stroke-width="2" d="M736.66,-164.1C719.6,-152.76 699.02,-139.08 681.25,-127.27"/>
<polygon fill="black" stroke="black" stroke-width="2" points="683.05,-124.26 672.78,-121.64 679.17,-130.09 683.05,-124.26"/>
</g>
<!-- 38853 -->
<g id="node10" class="node">
<title>38853</title>
<ellipse fill="none" stroke="black" stroke-width="2" cx="378.03" cy="-368.09" rx="78.48" ry="26.74"/>
<text text-anchor="middle" x="378.03" y="-371.89" font-family="Times,serif" font-size="14.00">sort</text>
<text text-anchor="middle" x="378.03" y="-356.89" font-family="Times,serif" font-size="14.00">49153:65536</text>
</g>
<!-- 38858 -->
<g id="node12" class="node">
<title>38858</title>
<ellipse fill="none" stroke="red" stroke-width="2" cx="465.03" cy="-278.35" rx="78.48" ry="26.74"/>
<text text-anchor="middle" x="465.03" y="-282.15" font-family="Times,serif" font-size="14.00">merge</text>
<text text-anchor="middle" x="465.03" y="-267.15" font-family="Times,serif" font-size="14.00">32769:65536</text>
</g>
<!-- 38853&#45;&gt;38858 -->
<g id="edge9" class="edge">
<title>38853&#45;&gt;38858</title>
<path fill="none" stroke="black" stroke-width="2" d="M402.73,-342.18C412.27,-332.56 423.31,-321.43 433.41,-311.24"/>
<polygon fill="black" stroke="black" stroke-width="2" points="436.02,-313.58 440.57,-304.02 431.05,-308.65 436.02,-313.58"/>
</g>
<!-- 38852 -->
<g id="node11" class="node">
<title>38852</title>
<ellipse fill="none" stroke="red" stroke-width="2" cx="553.03" cy="-368.09" rx="78.48" ry="26.74"/>
<text text-anchor="middle" x="553.03" y="-371.89" font-family="Times,serif" font-size="14.00">sort</text>
<text text-anchor="middle" x="553.03" y="-356.89" font-family="Times,serif" font-size="14.00">32769:49152</text>
</g>
<!-- 38852&#45;&gt;38858 -->
<g id="edge8" class="edge">
<title>38852&#45;&gt;38858</title>
<path fill="none" stroke="red" stroke-width="2" d="M528.05,-342.18C518.4,-332.56 507.24,-321.43 497.02,-311.24"/>
<polygon fill="red" stroke="red" stroke-width="2" points="499.33,-308.6 489.77,-304.02 494.38,-313.56 499.33,-308.6"/>
</g>
<!-- 38858&#45;&gt;38861 -->
<g id="edge10" class="edge">
<title>38858&#45;&gt;38861</title>
<path fill="none" stroke="red" stroke-width="2" d="M465.03,-251.03C465.03,-243.06 465.03,-234.17 465.03,-225.68"/>
<polygon fill="red" stroke="red" stroke-width="2" points="468.53,-225.61 465.03,-215.61 461.53,-225.61 468.53,-225.61"/>
</g>
<!-- 38861&#45;&gt;38863 -->
<g id="edge12" class="edge">
<title>38861&#45;&gt;38863</title>
<path fill="none" stroke="red" stroke-width="2" d="M502.15,-169C528.4,-155.84 563.84,-138.07 592.21,-123.85"/>
<polygon fill="red" stroke="red" stroke-width="2" points="593.78,-126.97 601.15,-119.36 590.65,-120.72 593.78,-126.97"/>
</g>
<!-- 38864 -->
<g id="node15" class="node">
<title>38864</title>
<ellipse fill="none" stroke="red" stroke-width="2" cx="640.03" cy="-18" rx="38.19" ry="18"/>
<text text-anchor="middle" x="640.03" y="-14.3" font-family="Times,serif" font-size="14.00">result</text>
</g>
<!-- 38863&#45;&gt;38864 -->
<g id="edge14" class="edge">
<title>38863&#45;&gt;38864</title>
<path fill="none" stroke="red" stroke-width="2" d="M640.03,-71.61C640.03,-63.51 640.03,-54.57 640.03,-46.39"/>
<polygon fill="red" stroke="red" stroke-width="2" points="643.53,-46.22 640.03,-36.22 636.53,-46.22 643.53,-46.22"/>
</g>
</g>
</svg>
