<?xml version="1.0" encoding="UTF-8" standalone="no"?>
<!DOCTYPE svg PUBLIC "-//W3C//DTD SVG 1.1//EN"
 "http://www.w3.org/Graphics/SVG/1.1/DTD/svg11.dtd">
<!-- Generated by graphviz version 2.50.0 (20211204.2007)
 -->
<!-- Title: dag Pages: 1 -->
<svg width="1177pt" height="493pt"
 viewBox="0.00 0.00 1177.34 492.70" xmlns="http://www.w3.org/2000/svg" xmlns:xlink="http://www.w3.org/1999/xlink">
<g id="graph0" class="graph" transform="scale(1 1) rotate(0) translate(4 488.7)">
<title>dag</title>
<polygon fill="white" stroke="transparent" points="-4,4 -4,-488.7 1173.34,-488.7 1173.34,4 -4,4"/>
<!-- 41726 -->
<g id="node1" class="node">
<title>41726</title>
<ellipse fill="none" stroke="red" stroke-width="2" cx="440.85" cy="-188.61" rx="59.29" ry="26.74"/>
<text text-anchor="middle" x="440.85" y="-192.41" font-family="Times,serif" font-size="14.00">split</text>
<text text-anchor="middle" x="440.85" y="-177.41" font-family="Times,serif" font-size="14.00">1:100000</text>
</g>
<!-- 41728 -->
<g id="node11" class="node">
<title>41728</title>
<ellipse fill="none" stroke="black" stroke-width="2" cx="372.85" cy="-98.87" rx="59.29" ry="26.74"/>
<text text-anchor="middle" x="372.85" y="-102.67" font-family="Times,serif" font-size="14.00">merge B</text>
<text text-anchor="middle" x="372.85" y="-87.67" font-family="Times,serif" font-size="14.00">1:100000</text>
</g>
<!-- 41726&#45;&gt;41728 -->
<g id="edge14" class="edge">
<title>41726&#45;&gt;41728</title>
<path fill="none" stroke="black" stroke-width="2" d="M421.55,-162.7C414.31,-153.36 405.97,-142.6 398.26,-132.65"/>
<polygon fill="black" stroke="black" stroke-width="2" points="400.86,-130.3 391.97,-124.54 395.33,-134.58 400.86,-130.3"/>
</g>
<!-- 41727 -->
<g id="node12" class="node">
<title>41727</title>
<ellipse fill="none" stroke="red" stroke-width="2" cx="509.85" cy="-98.87" rx="59.29" ry="26.74"/>
<text text-anchor="middle" x="509.85" y="-102.67" font-family="Times,serif" font-size="14.00">merge A</text>
<text text-anchor="middle" x="509.85" y="-87.67" font-family="Times,serif" font-size="14.00">1:100000</text>
</g>
<!-- 41726&#45;&gt;41727 -->
<g id="edge11" class="edge">
<title>41726&#45;&gt;41727</title>
<path fill="none" stroke="red" stroke-width="2" d="M460.07,-163.17C467.56,-153.65 476.25,-142.59 484.26,-132.41"/>
<polygon fill="red" stroke="red" stroke-width="2" points="487.07,-134.51 490.5,-124.48 481.56,-130.18 487.07,-134.51"/>
</g>
<!-- 41725 -->
<g id="node2" class="node">
<title>41725</title>
<ellipse fill="none" stroke="black" stroke-width="2" cx="353.85" cy="-278.35" rx="84.71" ry="26.74"/>
<text text-anchor="middle" x="353.85" y="-282.15" font-family="Times,serif" font-size="14.00">merge</text>
<text text-anchor="middle" x="353.85" y="-267.15" font-family="Times,serif" font-size="14.00">65537:100000</text>
</g>
<!-- 41725&#45;&gt;41726 -->
<g id="edge1" class="edge">
<title>41725&#45;&gt;41726</title>
<path fill="none" stroke="black" stroke-width="2" d="M378.55,-252.44C388.33,-242.58 399.69,-231.13 410,-220.72"/>
<polygon fill="black" stroke="black" stroke-width="2" points="412.74,-222.94 417.29,-213.37 407.77,-218.01 412.74,-222.94"/>
</g>
<!-- 41724 -->
<g id="node3" class="node">
<title>41724</title>
<ellipse fill="none" stroke="red" stroke-width="2" cx="690.85" cy="-278.35" rx="53.07" ry="26.74"/>
<text text-anchor="middle" x="690.85" y="-282.15" font-family="Times,serif" font-size="14.00">merge</text>
<text text-anchor="middle" x="690.85" y="-267.15" font-family="Times,serif" font-size="14.00">1:65536</text>
</g>
<!-- 41724&#45;&gt;41726 -->
<g id="edge2" class="edge">
<title>41724&#45;&gt;41726</title>
<path fill="none" stroke="red" stroke-width="2" d="M648.16,-262.37C606.24,-247.65 542.08,-225.14 496.25,-209.05"/>
<polygon fill="red" stroke="red" stroke-width="2" points="497.35,-205.73 486.76,-205.72 495.03,-212.34 497.35,-205.73"/>
</g>
<!-- 41715 -->
<g id="node4" class="node">
<title>41715</title>
<ellipse fill="none" stroke="red" stroke-width="2" cx="915.85" cy="-457.83" rx="78.48" ry="26.74"/>
<text text-anchor="middle" x="915.85" y="-461.63" font-family="Times,serif" font-size="14.00">sort</text>
<text text-anchor="middle" x="915.85" y="-446.63" font-family="Times,serif" font-size="14.00">32769:49152</text>
</g>
<!-- 41721 -->
<g id="node15" class="node">
<title>41721</title>
<ellipse fill="none" stroke="red" stroke-width="2" cx="915.85" cy="-368.09" rx="78.48" ry="26.74"/>
<text text-anchor="middle" x="915.85" y="-371.89" font-family="Times,serif" font-size="14.00">merge</text>
<text text-anchor="middle" x="915.85" y="-356.89" font-family="Times,serif" font-size="14.00">32769:65536</text>
</g>
<!-- 41715&#45;&gt;41721 -->
<g id="edge10" class="edge">
<title>41715&#45;&gt;41721</title>
<path fill="none" stroke="red" stroke-width="2" d="M915.85,-430.51C915.85,-422.54 915.85,-413.65 915.85,-405.16"/>
<polygon fill="red" stroke="red" stroke-width="2" points="919.35,-405.09 915.85,-395.09 912.35,-405.09 919.35,-405.09"/>
</g>
<!-- 41714 -->
<g id="node5" class="node">
<title>41714</title>
<ellipse fill="none" stroke="black" stroke-width="2" cx="615.85" cy="-457.83" rx="78.48" ry="26.74"/>
<text text-anchor="middle" x="615.85" y="-461.63" font-family="Times,serif" font-size="14.00">sort</text>
<text text-anchor="middle" x="615.85" y="-446.63" font-family="Times,serif" font-size="14.00">16385:32768</text>
</g>
<!-- 41720 -->
<g id="node6" class="node">
<title>41720</title>
<ellipse fill="none" stroke="black" stroke-width="2" cx="690.85" cy="-368.09" rx="53.07" ry="26.74"/>
<text text-anchor="middle" x="690.85" y="-371.89" font-family="Times,serif" font-size="14.00">merge</text>
<text text-anchor="middle" x="690.85" y="-356.89" font-family="Times,serif" font-size="14.00">1:32768</text>
</g>
<!-- 41714&#45;&gt;41720 -->
<g id="edge3" class="edge">
<title>41714&#45;&gt;41720</title>
<path fill="none" stroke="black" stroke-width="2" d="M637.14,-431.92C645.43,-422.23 655.02,-411.02 663.78,-400.76"/>
<polygon fill="black" stroke="black" stroke-width="2" points="666.45,-403.03 670.28,-393.15 661.13,-398.48 666.45,-403.03"/>
</g>
<!-- 41720&#45;&gt;41724 -->
<g id="edge12" class="edge">
<title>41720&#45;&gt;41724</title>
<path fill="none" stroke="black" stroke-width="2" d="M690.85,-340.77C690.85,-332.8 690.85,-323.91 690.85,-315.42"/>
<polygon fill="black" stroke="black" stroke-width="2" points="694.35,-315.35 690.85,-305.35 687.35,-315.35 694.35,-315.35"/>
</g>
<!-- 41713 -->
<g id="node7" class="node">
<title>41713</title>
<ellipse fill="none" stroke="black" stroke-width="2" cx="765.85" cy="-457.83" rx="53.07" ry="26.74"/>
<text text-anchor="middle" x="765.85" y="-461.63" font-family="Times,serif" font-size="14.00">sort</text>
<text text-anchor="middle" x="765.85" y="-446.63" font-family="Times,serif" font-size="14.00">1:16384</text>
</g>
<!-- 41713&#45;&gt;41720 -->
<g id="edge4" class="edge">
<title>41713&#45;&gt;41720</title>
<path fill="none" stroke="black" stroke-width="2" d="M745.36,-432.86C736.93,-422.99 727.04,-411.42 718.01,-400.87"/>
<polygon fill="black" stroke="black" stroke-width="2" points="720.48,-398.36 711.32,-393.04 715.16,-402.91 720.48,-398.36"/>
</g>
<!-- 41723 -->
<g id="node8" class="node">
<title>41723</title>
<ellipse fill="none" stroke="black" stroke-width="2" cx="128.85" cy="-368.09" rx="84.71" ry="26.74"/>
<text text-anchor="middle" x="128.85" y="-371.89" font-family="Times,serif" font-size="14.00">copy</text>
<text text-anchor="middle" x="128.85" y="-356.89" font-family="Times,serif" font-size="14.00">98305:100000</text>
</g>
<!-- 41723&#45;&gt;41725 -->
<g id="edge5" class="edge">
<title>41723&#45;&gt;41725</title>
<path fill="none" stroke="black" stroke-width="2" d="M181.04,-346.74C214.14,-333.83 257.15,-317.06 291.97,-303.48"/>
<polygon fill="black" stroke="black" stroke-width="2" points="293.52,-306.64 301.56,-299.74 290.97,-300.11 293.52,-306.64"/>
</g>
<!-- 41722 -->
<g id="node9" class="node">
<title>41722</title>
<ellipse fill="none" stroke="black" stroke-width="2" cx="353.85" cy="-368.09" rx="78.48" ry="26.74"/>
<text text-anchor="middle" x="353.85" y="-371.89" font-family="Times,serif" font-size="14.00">merge</text>
<text text-anchor="middle" x="353.85" y="-356.89" font-family="Times,serif" font-size="14.00">65537:98304</text>
</g>
<!-- 41722&#45;&gt;41725 -->
<g id="edge6" class="edge">
<title>41722&#45;&gt;41725</title>
<path fill="none" stroke="black" stroke-width="2" d="M353.85,-340.77C353.85,-332.8 353.85,-323.91 353.85,-315.42"/>
<polygon fill="black" stroke="black" stroke-width="2" points="357.35,-315.35 353.85,-305.35 350.35,-315.35 357.35,-315.35"/>
</g>
<!-- 41729 -->
<g id="node10" class="node">
<title>41729</title>
<ellipse fill="none" stroke="red" stroke-width="2" cx="440.85" cy="-18" rx="38.19" ry="18"/>
<text text-anchor="middle" x="440.85" y="-14.3" font-family="Times,serif" font-size="14.00">result</text>
</g>
<!-- 41728&#45;&gt;41729 -->
<g id="edge7" class="edge">
<title>41728&#45;&gt;41729</title>
<path fill="none" stroke="black" stroke-width="2" d="M394,-73.35C402.4,-63.6 412.04,-52.42 420.38,-42.75"/>
<polygon fill="black" stroke="black" stroke-width="2" points="423.14,-44.9 427.02,-35.04 417.84,-40.33 423.14,-44.9"/>
</g>
<!-- 41727&#45;&gt;41729 -->
<g id="edge8" class="edge">
<title>41727&#45;&gt;41729</title>
<path fill="none" stroke="red" stroke-width="2" d="M488.4,-73.35C479.87,-63.6 470.09,-52.42 461.63,-42.75"/>
<polygon fill="red" stroke="red" stroke-width="2" points="464.1,-40.26 454.89,-35.04 458.84,-44.87 464.1,-40.26"/>
</g>
<!-- 41716 -->
<g id="node13" class="node">
<title>41716</title>
<ellipse fill="none" stroke="black" stroke-width="2" cx="1090.85" cy="-457.83" rx="78.48" ry="26.74"/>
<text text-anchor="middle" x="1090.85" y="-461.63" font-family="Times,serif" font-size="14.00">sort</text>
<text text-anchor="middle" x="1090.85" y="-446.63" font-family="Times,serif" font-size="14.00">49153:65536</text>
</g>
<!-- 41716&#45;&gt;41721 -->
<g id="edge9" class="edge">
<title>41716&#45;&gt;41721</title>
<path fill="none" stroke="black" stroke-width="2" d="M1047.59,-435.14C1023.53,-423.07 993.4,-407.97 968.03,-395.25"/>
<polygon fill="black" stroke="black" stroke-width="2" points="969.42,-392.03 958.92,-390.68 966.29,-398.29 969.42,-392.03"/>
</g>
<!-- 41718 -->
<g id="node14" class="node">
<title>41718</title>
<ellipse fill="none" stroke="black" stroke-width="2" cx="265.85" cy="-457.83" rx="78.48" ry="26.74"/>
<text text-anchor="middle" x="265.85" y="-461.63" font-family="Times,serif" font-size="14.00">sort</text>
<text text-anchor="middle" x="265.85" y="-446.63" font-family="Times,serif" font-size="14.00">81921:98304</text>
</g>
<!-- 41718&#45;&gt;41722 -->
<g id="edge16" class="edge">
<title>41718&#45;&gt;41722</title>
<path fill="none" stroke="black" stroke-width="2" d="M290.83,-431.92C300.48,-422.3 311.65,-411.17 321.87,-400.98"/>
<polygon fill="black" stroke="black" stroke-width="2" points="324.5,-403.3 329.11,-393.76 319.56,-398.34 324.5,-403.3"/>
</g>
<!-- 41721&#45;&gt;41724 -->
<g id="edge13" class="edge">
<title>41721&#45;&gt;41724</title>
<path fill="none" stroke="red" stroke-width="2" d="M865.36,-347.4C828.49,-333.02 778.7,-313.61 741.73,-299.19"/>
<polygon fill="red" stroke="red" stroke-width="2" points="742.74,-295.83 732.15,-295.46 740.2,-302.35 742.74,-295.83"/>
</g>
<!-- 41717 -->
<g id="node16" class="node">
<title>41717</title>
<ellipse fill="none" stroke="black" stroke-width="2" cx="440.85" cy="-457.83" rx="78.48" ry="26.74"/>
<text text-anchor="middle" x="440.85" y="-461.63" font-family="Times,serif" font-size="14.00">sort</text>
<text text-anchor="middle" x="440.85" y="-446.63" font-family="Times,serif" font-size="14.00">65537:81920</text>
</g>
<!-- 41717&#45;&gt;41722 -->
<g id="edge17" class="edge">
<title>41717&#45;&gt;41722</title>
<path fill="none" stroke="black" stroke-width="2" d="M416.15,-431.92C406.61,-422.3 395.58,-411.17 385.47,-400.98"/>
<polygon fill="black" stroke="black" stroke-width="2" points="387.84,-398.39 378.31,-393.76 382.87,-403.32 387.84,-398.39"/>
</g>
<!-- 41719 -->
<g id="node17" class="node">
<title>41719</title>
<ellipse fill="none" stroke="black" stroke-width="2" cx="84.85" cy="-457.83" rx="84.71" ry="26.74"/>
<text text-anchor="middle" x="84.85" y="-461.63" font-family="Times,serif" font-size="14.00">sort</text>
<text text-anchor="middle" x="84.85" y="-446.63" font-family="Times,serif" font-size="14.00">98305:100000</text>
</g>
<!-- 41719&#45;&gt;41723 -->
<g id="edge15" class="edge">
<title>41719&#45;&gt;41723</title>
<path fill="none" stroke="black" stroke-width="2" d="M97.82,-430.98C102.07,-422.5 106.87,-412.94 111.39,-403.91"/>
<polygon fill="black" stroke="black" stroke-width="2" points="114.63,-405.26 115.98,-394.76 108.37,-402.13 114.63,-405.26"/>
</g>
</g>
</svg>
