<?xml version="1.0" encoding="UTF-8" standalone="no"?>
<!DOCTYPE svg PUBLIC "-//W3C//DTD SVG 1.1//EN"
 "http://www.w3.org/Graphics/SVG/1.1/DTD/svg11.dtd">
<!-- Generated by graphviz version 2.50.0 (20211204.2007)
 -->
<!-- Title: dag Pages: 1 -->
<svg width="1177pt" height="493pt"
 viewBox="0.00 0.00 1176.89 492.70" xmlns="http://www.w3.org/2000/svg" xmlns:xlink="http://www.w3.org/1999/xlink">
<g id="graph0" class="graph" transform="scale(1 1) rotate(0) translate(4 488.7)">
<title>dag</title>
<polygon fill="white" stroke="transparent" points="-4,4 -4,-488.7 1172.89,-488.7 1172.89,4 -4,4"/>
<!-- 41881 -->
<g id="node1" class="node">
<title>41881</title>
<ellipse fill="none" stroke="red" stroke-width="2" cx="553.03" cy="-188.61" rx="59.29" ry="26.74"/>
<text text-anchor="middle" x="553.03" y="-192.41" font-family="Times,serif" font-size="14.00">split</text>
<text text-anchor="middle" x="553.03" y="-177.41" font-family="Times,serif" font-size="14.00">1:100000</text>
</g>
<!-- 41883 -->
<g id="node10" class="node">
<title>41883</title>
<ellipse fill="none" stroke="black" stroke-width="2" cx="485.03" cy="-98.87" rx="59.29" ry="26.74"/>
<text text-anchor="middle" x="485.03" y="-102.67" font-family="Times,serif" font-size="14.00">merge B</text>
<text text-anchor="middle" x="485.03" y="-87.67" font-family="Times,serif" font-size="14.00">1:100000</text>
</g>
<!-- 41881&#45;&gt;41883 -->
<g id="edge9" class="edge">
<title>41881&#45;&gt;41883</title>
<path fill="none" stroke="black" stroke-width="2" d="M533.73,-162.7C526.49,-153.36 518.15,-142.6 510.44,-132.65"/>
<polygon fill="black" stroke="black" stroke-width="2" points="513.04,-130.3 504.15,-124.54 507.51,-134.58 513.04,-130.3"/>
</g>
<!-- 41882 -->
<g id="node12" class="node">
<title>41882</title>
<ellipse fill="none" stroke="red" stroke-width="2" cx="622.03" cy="-98.87" rx="59.29" ry="26.74"/>
<text text-anchor="middle" x="622.03" y="-102.67" font-family="Times,serif" font-size="14.00">merge A</text>
<text text-anchor="middle" x="622.03" y="-87.67" font-family="Times,serif" font-size="14.00">1:100000</text>
</g>
<!-- 41881&#45;&gt;41882 -->
<g id="edge10" class="edge">
<title>41881&#45;&gt;41882</title>
<path fill="none" stroke="red" stroke-width="2" d="M572.25,-163.17C579.74,-153.65 588.43,-142.59 596.44,-132.41"/>
<polygon fill="red" stroke="red" stroke-width="2" points="599.25,-134.51 602.68,-124.48 593.74,-130.18 599.25,-134.51"/>
</g>
<!-- 41879 -->
<g id="node2" class="node">
<title>41879</title>
<ellipse fill="none" stroke="red" stroke-width="2" cx="466.03" cy="-278.35" rx="53.07" ry="26.74"/>
<text text-anchor="middle" x="466.03" y="-282.15" font-family="Times,serif" font-size="14.00">merge</text>
<text text-anchor="middle" x="466.03" y="-267.15" font-family="Times,serif" font-size="14.00">1:65536</text>
</g>
<!-- 41879&#45;&gt;41881 -->
<g id="edge1" class="edge">
<title>41879&#45;&gt;41881</title>
<path fill="none" stroke="red" stroke-width="2" d="M489.35,-253.84C499.41,-243.69 511.32,-231.68 522.1,-220.8"/>
<polygon fill="red" stroke="red" stroke-width="2" points="524.8,-223.06 529.35,-213.49 519.83,-218.13 524.8,-223.06"/>
</g>
<!-- 41880 -->
<g id="node3" class="node">
<title>41880</title>
<ellipse fill="none" stroke="black" stroke-width="2" cx="772.03" cy="-278.35" rx="84.71" ry="26.74"/>
<text text-anchor="middle" x="772.03" y="-282.15" font-family="Times,serif" font-size="14.00">merge</text>
<text text-anchor="middle" x="772.03" y="-267.15" font-family="Times,serif" font-size="14.00">65537:100000</text>
</g>
<!-- 41880&#45;&gt;41881 -->
<g id="edge2" class="edge">
<title>41880&#45;&gt;41881</title>
<path fill="none" stroke="black" stroke-width="2" d="M720.96,-256.89C686.42,-243.05 640.9,-224.82 605.97,-210.82"/>
<polygon fill="black" stroke="black" stroke-width="2" points="607,-207.46 596.42,-206.99 604.4,-213.96 607,-207.46"/>
</g>
<!-- 41868 -->
<g id="node4" class="node">
<title>41868</title>
<ellipse fill="none" stroke="black" stroke-width="2" cx="53.03" cy="-457.83" rx="53.07" ry="26.74"/>
<text text-anchor="middle" x="53.03" y="-461.63" font-family="Times,serif" font-size="14.00">sort</text>
<text text-anchor="middle" x="53.03" y="-446.63" font-family="Times,serif" font-size="14.00">1:16384</text>
</g>
<!-- 41875 -->
<g id="node5" class="node">
<title>41875</title>
<ellipse fill="none" stroke="black" stroke-width="2" cx="203.03" cy="-368.09" rx="53.07" ry="26.74"/>
<text text-anchor="middle" x="203.03" y="-371.89" font-family="Times,serif" font-size="14.00">merge</text>
<text text-anchor="middle" x="203.03" y="-356.89" font-family="Times,serif" font-size="14.00">1:32768</text>
</g>
<!-- 41868&#45;&gt;41875 -->
<g id="edge3" class="edge">
<title>41868&#45;&gt;41875</title>
<path fill="none" stroke="black" stroke-width="2" d="M87.07,-436.92C108.84,-424.19 137.25,-407.57 160.5,-393.97"/>
<polygon fill="black" stroke="black" stroke-width="2" points="162.27,-396.99 169.13,-388.92 158.73,-390.95 162.27,-396.99"/>
</g>
<!-- 41875&#45;&gt;41879 -->
<g id="edge6" class="edge">
<title>41875&#45;&gt;41879</title>
<path fill="none" stroke="black" stroke-width="2" d="M246.46,-352.6C292.05,-337.39 363.78,-313.46 412.76,-297.12"/>
<polygon fill="black" stroke="black" stroke-width="2" points="414.16,-300.35 422.54,-293.86 411.95,-293.7 414.16,-300.35"/>
</g>
<!-- 41869 -->
<g id="node6" class="node">
<title>41869</title>
<ellipse fill="none" stroke="black" stroke-width="2" cx="203.03" cy="-457.83" rx="78.48" ry="26.74"/>
<text text-anchor="middle" x="203.03" y="-461.63" font-family="Times,serif" font-size="14.00">sort</text>
<text text-anchor="middle" x="203.03" y="-446.63" font-family="Times,serif" font-size="14.00">16385:32768</text>
</g>
<!-- 41869&#45;&gt;41875 -->
<g id="edge4" class="edge">
<title>41869&#45;&gt;41875</title>
<path fill="none" stroke="black" stroke-width="2" d="M203.03,-430.51C203.03,-422.54 203.03,-413.65 203.03,-405.16"/>
<polygon fill="black" stroke="black" stroke-width="2" points="206.53,-405.09 203.03,-395.09 199.53,-405.09 206.53,-405.09"/>
</g>
<!-- 41876 -->
<g id="node7" class="node">
<title>41876</title>
<ellipse fill="none" stroke="red" stroke-width="2" cx="466.03" cy="-368.09" rx="78.48" ry="26.74"/>
<text text-anchor="middle" x="466.03" y="-371.89" font-family="Times,serif" font-size="14.00">merge</text>
<text text-anchor="middle" x="466.03" y="-356.89" font-family="Times,serif" font-size="14.00">32769:65536</text>
</g>
<!-- 41876&#45;&gt;41879 -->
<g id="edge5" class="edge">
<title>41876&#45;&gt;41879</title>
<path fill="none" stroke="red" stroke-width="2" d="M466.03,-340.77C466.03,-332.8 466.03,-323.91 466.03,-315.42"/>
<polygon fill="red" stroke="red" stroke-width="2" points="469.53,-315.35 466.03,-305.35 462.53,-315.35 469.53,-315.35"/>
</g>
<!-- 41871 -->
<g id="node8" class="node">
<title>41871</title>
<ellipse fill="none" stroke="red" stroke-width="2" cx="378.03" cy="-457.83" rx="78.48" ry="26.74"/>
<text text-anchor="middle" x="378.03" y="-461.63" font-family="Times,serif" font-size="14.00">sort</text>
<text text-anchor="middle" x="378.03" y="-446.63" font-family="Times,serif" font-size="14.00">49153:65536</text>
</g>
<!-- 41871&#45;&gt;41876 -->
<g id="edge7" class="edge">
<title>41871&#45;&gt;41876</title>
<path fill="none" stroke="red" stroke-width="2" d="M403.01,-431.92C412.66,-422.3 423.83,-411.17 434.05,-400.98"/>
<polygon fill="red" stroke="red" stroke-width="2" points="436.68,-403.3 441.29,-393.76 431.74,-398.34 436.68,-403.3"/>
</g>
<!-- 41870 -->
<g id="node9" class="node">
<title>41870</title>
<ellipse fill="none" stroke="black" stroke-width="2" cx="553.03" cy="-457.83" rx="78.48" ry="26.74"/>
<text text-anchor="middle" x="553.03" y="-461.63" font-family="Times,serif" font-size="14.00">sort</text>
<text text-anchor="middle" x="553.03" y="-446.63" font-family="Times,serif" font-size="14.00">32769:49152</text>
</g>
<!-- 41870&#45;&gt;41876 -->
<g id="edge8" class="edge">
<title>41870&#45;&gt;41876</title>
<path fill="none" stroke="black" stroke-width="2" d="M528.34,-431.92C518.79,-422.3 507.76,-411.17 497.65,-400.98"/>
<polygon fill="black" stroke="black" stroke-width="2" points="500.02,-398.39 490.49,-393.76 495.05,-403.32 500.02,-398.39"/>
</g>
<!-- 41884 -->
<g id="node14" class="node">
<title>41884</title>
<ellipse fill="none" stroke="red" stroke-width="2" cx="553.03" cy="-18" rx="38.19" ry="18"/>
<text text-anchor="middle" x="553.03" y="-14.3" font-family="Times,serif" font-size="14.00">result</text>
</g>
<!-- 41883&#45;&gt;41884 -->
<g id="edge11" class="edge">
<title>41883&#45;&gt;41884</title>
<path fill="none" stroke="black" stroke-width="2" d="M506.18,-73.35C514.58,-63.6 524.22,-52.42 532.56,-42.75"/>
<polygon fill="black" stroke="black" stroke-width="2" points="535.32,-44.9 539.2,-35.04 530.02,-40.33 535.32,-44.9"/>
</g>
<!-- 41872 -->
<g id="node11" class="node">
<title>41872</title>
<ellipse fill="none" stroke="black" stroke-width="2" cx="728.03" cy="-457.83" rx="78.48" ry="26.74"/>
<text text-anchor="middle" x="728.03" y="-461.63" font-family="Times,serif" font-size="14.00">sort</text>
<text text-anchor="middle" x="728.03" y="-446.63" font-family="Times,serif" font-size="14.00">65537:81920</text>
</g>
<!-- 41877 -->
<g id="node15" class="node">
<title>41877</title>
<ellipse fill="none" stroke="black" stroke-width="2" cx="772.03" cy="-368.09" rx="78.48" ry="26.74"/>
<text text-anchor="middle" x="772.03" y="-371.89" font-family="Times,serif" font-size="14.00">merge</text>
<text text-anchor="middle" x="772.03" y="-356.89" font-family="Times,serif" font-size="14.00">65537:98304</text>
</g>
<!-- 41872&#45;&gt;41877 -->
<g id="edge13" class="edge">
<title>41872&#45;&gt;41877</title>
<path fill="none" stroke="black" stroke-width="2" d="M741,-430.98C745.25,-422.5 750.05,-412.94 754.57,-403.91"/>
<polygon fill="black" stroke="black" stroke-width="2" points="757.81,-405.26 759.16,-394.76 751.55,-402.13 757.81,-405.26"/>
</g>
<!-- 41882&#45;&gt;41884 -->
<g id="edge12" class="edge">
<title>41882&#45;&gt;41884</title>
<path fill="none" stroke="red" stroke-width="2" d="M600.58,-73.35C592.05,-63.6 582.27,-52.42 573.81,-42.75"/>
<polygon fill="red" stroke="red" stroke-width="2" points="576.29,-40.26 567.07,-35.04 571.02,-44.87 576.29,-40.26"/>
</g>
<!-- 41873 -->
<g id="node13" class="node">
<title>41873</title>
<ellipse fill="none" stroke="black" stroke-width="2" cx="903.03" cy="-457.83" rx="78.48" ry="26.74"/>
<text text-anchor="middle" x="903.03" y="-461.63" font-family="Times,serif" font-size="14.00">sort</text>
<text text-anchor="middle" x="903.03" y="-446.63" font-family="Times,serif" font-size="14.00">81921:98304</text>
</g>
<!-- 41873&#45;&gt;41877 -->
<g id="edge14" class="edge">
<title>41873&#45;&gt;41877</title>
<path fill="none" stroke="black" stroke-width="2" d="M868.27,-433.55C852.13,-422.74 832.78,-409.78 815.67,-398.32"/>
<polygon fill="black" stroke="black" stroke-width="2" points="817.21,-395.14 806.96,-392.48 813.32,-400.95 817.21,-395.14"/>
</g>
<!-- 41877&#45;&gt;41880 -->
<g id="edge17" class="edge">
<title>41877&#45;&gt;41880</title>
<path fill="none" stroke="black" stroke-width="2" d="M772.03,-340.77C772.03,-332.8 772.03,-323.91 772.03,-315.42"/>
<polygon fill="black" stroke="black" stroke-width="2" points="775.53,-315.35 772.03,-305.35 768.53,-315.35 775.53,-315.35"/>
</g>
<!-- 41874 -->
<g id="node16" class="node">
<title>41874</title>
<ellipse fill="none" stroke="black" stroke-width="2" cx="1084.03" cy="-457.83" rx="84.71" ry="26.74"/>
<text text-anchor="middle" x="1084.03" y="-461.63" font-family="Times,serif" font-size="14.00">sort</text>
<text text-anchor="middle" x="1084.03" y="-446.63" font-family="Times,serif" font-size="14.00">98305:100000</text>
</g>
<!-- 41878 -->
<g id="node17" class="node">
<title>41878</title>
<ellipse fill="none" stroke="black" stroke-width="2" cx="1040.03" cy="-368.09" rx="84.71" ry="26.74"/>
<text text-anchor="middle" x="1040.03" y="-371.89" font-family="Times,serif" font-size="14.00">copy</text>
<text text-anchor="middle" x="1040.03" y="-356.89" font-family="Times,serif" font-size="14.00">98305:100000</text>
</g>
<!-- 41874&#45;&gt;41878 -->
<g id="edge15" class="edge">
<title>41874&#45;&gt;41878</title>
<path fill="none" stroke="black" stroke-width="2" d="M1071.07,-430.98C1066.82,-422.5 1062.02,-412.94 1057.49,-403.91"/>
<polygon fill="black" stroke="black" stroke-width="2" points="1060.52,-402.13 1052.9,-394.76 1054.26,-405.26 1060.52,-402.13"/>
</g>
<!-- 41878&#45;&gt;41880 -->
<g id="edge16" class="edge">
<title>41878&#45;&gt;41880</title>
<path fill="none" stroke="black" stroke-width="2" d="M982.54,-348.27C940.5,-334.5 883.35,-315.8 839.21,-301.34"/>
<polygon fill="black" stroke="black" stroke-width="2" points="840.02,-297.93 829.43,-298.14 837.85,-304.58 840.02,-297.93"/>
</g>
</g>
</svg>
