<?xml version="1.0" encoding="UTF-8" standalone="no"?>
<!DOCTYPE svg PUBLIC "-//W3C//DTD SVG 1.1//EN"
 "http://www.w3.org/Graphics/SVG/1.1/DTD/svg11.dtd">
<!-- Generated by graphviz version 2.50.0 (20211204.2007)
 -->
<!-- Title: dag Pages: 1 -->
<svg width="1177pt" height="403pt"
 viewBox="0.00 0.00 1177.34 402.96" xmlns="http://www.w3.org/2000/svg" xmlns:xlink="http://www.w3.org/1999/xlink">
<g id="graph0" class="graph" transform="scale(1 1) rotate(0) translate(4 398.96)">
<title>dag</title>
<polygon fill="white" stroke="transparent" points="-4,4 -4,-398.96 1173.34,-398.96 1173.34,4 -4,4"/>
<!-- 37017 -->
<g id="node1" class="node">
<title>37017</title>
<ellipse fill="none" stroke="black" stroke-width="2" cx="228.49" cy="-368.09" rx="53.07" ry="26.74"/>
<text text-anchor="middle" x="228.49" y="-371.89" font-family="Times,serif" font-size="14.00">sort</text>
<text text-anchor="middle" x="228.49" y="-356.89" font-family="Times,serif" font-size="14.00">1:16384</text>
</g>
<!-- 37024 -->
<g id="node7" class="node">
<title>37024</title>
<ellipse fill="none" stroke="black" stroke-width="2" cx="228.49" cy="-278.35" rx="53.07" ry="26.74"/>
<text text-anchor="middle" x="228.49" y="-282.15" font-family="Times,serif" font-size="14.00">merge</text>
<text text-anchor="middle" x="228.49" y="-267.15" font-family="Times,serif" font-size="14.00">1:32768</text>
</g>
<!-- 37017&#45;&gt;37024 -->
<g id="edge4" class="edge">
<title>37017&#45;&gt;37024</title>
<path fill="none" stroke="black" stroke-width="2" d="M228.49,-340.77C228.49,-332.8 228.49,-323.91 228.49,-315.42"/>
<polygon fill="black" stroke="black" stroke-width="2" points="231.99,-315.35 228.49,-305.35 224.99,-315.35 231.99,-315.35"/>
</g>
<!-- 37025 -->
<g id="node2" class="node">
<title>37025</title>
<ellipse fill="none" stroke="red" stroke-width="2" cx="509.49" cy="-278.35" rx="78.48" ry="26.74"/>
<text text-anchor="middle" x="509.49" y="-282.15" font-family="Times,serif" font-size="14.00">merge</text>
<text text-anchor="middle" x="509.49" y="-267.15" font-family="Times,serif" font-size="14.00">32769:65536</text>
</g>
<!-- 37028 -->
<g id="node8" class="node">
<title>37028</title>
<ellipse fill="none" stroke="red" stroke-width="2" cx="509.49" cy="-188.61" rx="53.07" ry="26.74"/>
<text text-anchor="middle" x="509.49" y="-192.41" font-family="Times,serif" font-size="14.00">merge</text>
<text text-anchor="middle" x="509.49" y="-177.41" font-family="Times,serif" font-size="14.00">1:65536</text>
</g>
<!-- 37025&#45;&gt;37028 -->
<g id="edge6" class="edge">
<title>37025&#45;&gt;37028</title>
<path fill="none" stroke="red" stroke-width="2" d="M509.49,-251.03C509.49,-243.06 509.49,-234.17 509.49,-225.68"/>
<polygon fill="red" stroke="red" stroke-width="2" points="512.99,-225.61 509.49,-215.61 505.99,-225.61 512.99,-225.61"/>
</g>
<!-- 37019 -->
<g id="node3" class="node">
<title>37019</title>
<ellipse fill="none" stroke="red" stroke-width="2" cx="378.49" cy="-368.09" rx="78.48" ry="26.74"/>
<text text-anchor="middle" x="378.49" y="-371.89" font-family="Times,serif" font-size="14.00">sort</text>
<text text-anchor="middle" x="378.49" y="-356.89" font-family="Times,serif" font-size="14.00">32769:49152</text>
</g>
<!-- 37019&#45;&gt;37025 -->
<g id="edge1" class="edge">
<title>37019&#45;&gt;37025</title>
<path fill="none" stroke="red" stroke-width="2" d="M413.25,-343.81C429.39,-333 448.74,-320.04 465.85,-308.58"/>
<polygon fill="red" stroke="red" stroke-width="2" points="468.2,-311.21 474.56,-302.74 464.31,-305.4 468.2,-311.21"/>
</g>
<!-- 37020 -->
<g id="node4" class="node">
<title>37020</title>
<ellipse fill="none" stroke="black" stroke-width="2" cx="553.49" cy="-368.09" rx="78.48" ry="26.74"/>
<text text-anchor="middle" x="553.49" y="-371.89" font-family="Times,serif" font-size="14.00">sort</text>
<text text-anchor="middle" x="553.49" y="-356.89" font-family="Times,serif" font-size="14.00">49153:65536</text>
</g>
<!-- 37020&#45;&gt;37025 -->
<g id="edge2" class="edge">
<title>37020&#45;&gt;37025</title>
<path fill="none" stroke="black" stroke-width="2" d="M540.53,-341.24C536.27,-332.76 531.48,-323.2 526.95,-314.16"/>
<polygon fill="black" stroke="black" stroke-width="2" points="529.97,-312.39 522.36,-305.02 523.71,-315.52 529.97,-312.39"/>
</g>
<!-- 37018 -->
<g id="node5" class="node">
<title>37018</title>
<ellipse fill="none" stroke="black" stroke-width="2" cx="78.49" cy="-368.09" rx="78.48" ry="26.74"/>
<text text-anchor="middle" x="78.49" y="-371.89" font-family="Times,serif" font-size="14.00">sort</text>
<text text-anchor="middle" x="78.49" y="-356.89" font-family="Times,serif" font-size="14.00">16385:32768</text>
</g>
<!-- 37018&#45;&gt;37024 -->
<g id="edge3" class="edge">
<title>37018&#45;&gt;37024</title>
<path fill="none" stroke="black" stroke-width="2" d="M117.12,-344.5C138.17,-332.18 164.28,-316.91 185.92,-304.25"/>
<polygon fill="black" stroke="black" stroke-width="2" points="187.72,-307.25 194.59,-299.18 184.19,-301.21 187.72,-307.25"/>
</g>
<!-- 37022 -->
<g id="node6" class="node">
<title>37022</title>
<ellipse fill="none" stroke="black" stroke-width="2" cx="903.49" cy="-368.09" rx="78.48" ry="26.74"/>
<text text-anchor="middle" x="903.49" y="-371.89" font-family="Times,serif" font-size="14.00">sort</text>
<text text-anchor="middle" x="903.49" y="-356.89" font-family="Times,serif" font-size="14.00">81921:98304</text>
</g>
<!-- 37026 -->
<g id="node13" class="node">
<title>37026</title>
<ellipse fill="none" stroke="black" stroke-width="2" cx="771.49" cy="-278.35" rx="78.48" ry="26.74"/>
<text text-anchor="middle" x="771.49" y="-282.15" font-family="Times,serif" font-size="14.00">merge</text>
<text text-anchor="middle" x="771.49" y="-267.15" font-family="Times,serif" font-size="14.00">65537:98304</text>
</g>
<!-- 37022&#45;&gt;37026 -->
<g id="edge11" class="edge">
<title>37022&#45;&gt;37026</title>
<path fill="none" stroke="black" stroke-width="2" d="M868.46,-343.81C852.2,-333 832.7,-320.04 815.46,-308.58"/>
<polygon fill="black" stroke="black" stroke-width="2" points="816.95,-305.36 806.68,-302.74 813.07,-311.19 816.95,-305.36"/>
</g>
<!-- 37024&#45;&gt;37028 -->
<g id="edge5" class="edge">
<title>37024&#45;&gt;37028</title>
<path fill="none" stroke="black" stroke-width="2" d="M273.01,-263.45C322.55,-247.98 402.57,-223 455.6,-206.44"/>
<polygon fill="black" stroke="black" stroke-width="2" points="456.67,-209.77 465.17,-203.45 454.58,-203.09 456.67,-209.77"/>
</g>
<!-- 37030 -->
<g id="node9" class="node">
<title>37030</title>
<ellipse fill="none" stroke="red" stroke-width="2" cx="596.49" cy="-98.87" rx="59.29" ry="26.74"/>
<text text-anchor="middle" x="596.49" y="-102.67" font-family="Times,serif" font-size="14.00">merge</text>
<text text-anchor="middle" x="596.49" y="-87.67" font-family="Times,serif" font-size="14.00">1:100000</text>
</g>
<!-- 37028&#45;&gt;37030 -->
<g id="edge8" class="edge">
<title>37028&#45;&gt;37030</title>
<path fill="none" stroke="red" stroke-width="2" d="M532.8,-164.1C542.86,-153.95 554.77,-141.94 565.56,-131.06"/>
<polygon fill="red" stroke="red" stroke-width="2" points="568.25,-133.32 572.81,-123.75 563.28,-128.39 568.25,-133.32"/>
</g>
<!-- 37031 -->
<g id="node11" class="node">
<title>37031</title>
<ellipse fill="none" stroke="red" stroke-width="2" cx="596.49" cy="-18" rx="38.19" ry="18"/>
<text text-anchor="middle" x="596.49" y="-14.3" font-family="Times,serif" font-size="14.00">result</text>
</g>
<!-- 37030&#45;&gt;37031 -->
<g id="edge9" class="edge">
<title>37030&#45;&gt;37031</title>
<path fill="none" stroke="red" stroke-width="2" d="M596.49,-71.61C596.49,-63.51 596.49,-54.57 596.49,-46.39"/>
<polygon fill="red" stroke="red" stroke-width="2" points="599.99,-46.22 596.49,-36.22 592.99,-46.22 599.99,-46.22"/>
</g>
<!-- 37029 -->
<g id="node10" class="node">
<title>37029</title>
<ellipse fill="none" stroke="black" stroke-width="2" cx="771.49" cy="-188.61" rx="84.71" ry="26.74"/>
<text text-anchor="middle" x="771.49" y="-192.41" font-family="Times,serif" font-size="14.00">merge</text>
<text text-anchor="middle" x="771.49" y="-177.41" font-family="Times,serif" font-size="14.00">65537:100000</text>
</g>
<!-- 37029&#45;&gt;37030 -->
<g id="edge7" class="edge">
<title>37029&#45;&gt;37030</title>
<path fill="none" stroke="black" stroke-width="2" d="M727.33,-165.47C702.08,-152.81 670.39,-136.92 644.52,-123.95"/>
<polygon fill="black" stroke="black" stroke-width="2" points="645.78,-120.67 635.27,-119.32 642.64,-126.93 645.78,-120.67"/>
</g>
<!-- 37021 -->
<g id="node12" class="node">
<title>37021</title>
<ellipse fill="none" stroke="black" stroke-width="2" cx="728.49" cy="-368.09" rx="78.48" ry="26.74"/>
<text text-anchor="middle" x="728.49" y="-371.89" font-family="Times,serif" font-size="14.00">sort</text>
<text text-anchor="middle" x="728.49" y="-356.89" font-family="Times,serif" font-size="14.00">65537:81920</text>
</g>
<!-- 37021&#45;&gt;37026 -->
<g id="edge10" class="edge">
<title>37021&#45;&gt;37026</title>
<path fill="none" stroke="black" stroke-width="2" d="M741.16,-341.24C745.31,-332.76 750,-323.2 754.43,-314.16"/>
<polygon fill="black" stroke="black" stroke-width="2" points="757.65,-315.54 758.91,-305.02 751.37,-312.46 757.65,-315.54"/>
</g>
<!-- 37026&#45;&gt;37029 -->
<g id="edge12" class="edge">
<title>37026&#45;&gt;37029</title>
<path fill="none" stroke="black" stroke-width="2" d="M771.49,-251.03C771.49,-243.06 771.49,-234.17 771.49,-225.68"/>
<polygon fill="black" stroke="black" stroke-width="2" points="774.99,-225.61 771.49,-215.61 767.99,-225.61 774.99,-225.61"/>
</g>
<!-- 37027 -->
<g id="node14" class="node">
<title>37027</title>
<ellipse fill="none" stroke="black" stroke-width="2" cx="1039.49" cy="-278.35" rx="84.71" ry="26.74"/>
<text text-anchor="middle" x="1039.49" y="-282.15" font-family="Times,serif" font-size="14.00">copy</text>
<text text-anchor="middle" x="1039.49" y="-267.15" font-family="Times,serif" font-size="14.00">98305:100000</text>
</g>
<!-- 37027&#45;&gt;37029 -->
<g id="edge13" class="edge">
<title>37027&#45;&gt;37029</title>
<path fill="none" stroke="black" stroke-width="2" d="M982,-258.53C939.96,-244.76 882.81,-226.06 838.67,-211.6"/>
<polygon fill="black" stroke="black" stroke-width="2" points="839.48,-208.19 828.89,-208.4 837.3,-214.84 839.48,-208.19"/>
</g>
<!-- 37023 -->
<g id="node15" class="node">
<title>37023</title>
<ellipse fill="none" stroke="black" stroke-width="2" cx="1084.49" cy="-368.09" rx="84.71" ry="26.74"/>
<text text-anchor="middle" x="1084.49" y="-371.89" font-family="Times,serif" font-size="14.00">sort</text>
<text text-anchor="middle" x="1084.49" y="-356.89" font-family="Times,serif" font-size="14.00">98305:100000</text>
</g>
<!-- 37023&#45;&gt;37027 -->
<g id="edge14" class="edge">
<title>37023&#45;&gt;37027</title>
<path fill="none" stroke="black" stroke-width="2" d="M1071.23,-341.24C1066.88,-332.76 1061.98,-323.2 1057.34,-314.16"/>
<polygon fill="black" stroke="black" stroke-width="2" points="1060.33,-312.32 1052.65,-305.02 1054.1,-315.51 1060.33,-312.32"/>
</g>
</g>
</svg>
