<?xml version="1.0" encoding="UTF-8" standalone="no"?>
<!DOCTYPE svg PUBLIC "-//W3C//DTD SVG 1.1//EN"
 "http://www.w3.org/Graphics/SVG/1.1/DTD/svg11.dtd">
<!-- Generated by graphviz version 2.50.0 (20211204.2007)
 -->
<!-- Title: dag Pages: 1 -->
<svg width="1177pt" height="493pt"
 viewBox="0.00 0.00 1176.52 492.70" xmlns="http://www.w3.org/2000/svg" xmlns:xlink="http://www.w3.org/1999/xlink">
<g id="graph0" class="graph" transform="scale(1 1) rotate(0) translate(4 488.7)">
<title>dag</title>
<polygon fill="white" stroke="transparent" points="-4,4 -4,-488.7 1172.52,-488.7 1172.52,4 -4,4"/>
<!-- 45595 -->
<g id="node1" class="node">
<title>45595</title>
<ellipse fill="none" stroke="black" stroke-width="2" cx="734.03" cy="-278.35" rx="84.71" ry="26.74"/>
<text text-anchor="middle" x="734.03" y="-282.15" font-family="Times,serif" font-size="14.00">merge</text>
<text text-anchor="middle" x="734.03" y="-267.15" font-family="Times,serif" font-size="14.00">65537:100000</text>
</g>
<!-- 45596 -->
<g id="node13" class="node">
<title>45596</title>
<ellipse fill="none" stroke="red" stroke-width="2" cx="556.03" cy="-188.61" rx="59.29" ry="26.74"/>
<text text-anchor="middle" x="556.03" y="-192.41" font-family="Times,serif" font-size="14.00">split</text>
<text text-anchor="middle" x="556.03" y="-177.41" font-family="Times,serif" font-size="14.00">1:100000</text>
</g>
<!-- 45595&#45;&gt;45596 -->
<g id="edge10" class="edge">
<title>45595&#45;&gt;45596</title>
<path fill="none" stroke="black" stroke-width="2" d="M689.58,-255.44C663.6,-242.63 630.8,-226.47 604.21,-213.36"/>
<polygon fill="black" stroke="black" stroke-width="2" points="605.6,-210.14 595.09,-208.86 602.51,-216.42 605.6,-210.14"/>
</g>
<!-- 45593 -->
<g id="node2" class="node">
<title>45593</title>
<ellipse fill="none" stroke="black" stroke-width="2" cx="734.03" cy="-368.09" rx="84.71" ry="26.74"/>
<text text-anchor="middle" x="734.03" y="-371.89" font-family="Times,serif" font-size="14.00">copy</text>
<text text-anchor="middle" x="734.03" y="-356.89" font-family="Times,serif" font-size="14.00">98305:100000</text>
</g>
<!-- 45593&#45;&gt;45595 -->
<g id="edge1" class="edge">
<title>45593&#45;&gt;45595</title>
<path fill="none" stroke="black" stroke-width="2" d="M734.03,-340.77C734.03,-332.8 734.03,-323.91 734.03,-315.42"/>
<polygon fill="black" stroke="black" stroke-width="2" points="737.53,-315.35 734.03,-305.35 730.53,-315.35 737.53,-315.35"/>
</g>
<!-- 45592 -->
<g id="node3" class="node">
<title>45592</title>
<ellipse fill="none" stroke="black" stroke-width="2" cx="915.03" cy="-368.09" rx="78.48" ry="26.74"/>
<text text-anchor="middle" x="915.03" y="-371.89" font-family="Times,serif" font-size="14.00">merge</text>
<text text-anchor="middle" x="915.03" y="-356.89" font-family="Times,serif" font-size="14.00">65537:98304</text>
</g>
<!-- 45592&#45;&gt;45595 -->
<g id="edge2" class="edge">
<title>45592&#45;&gt;45595</title>
<path fill="none" stroke="black" stroke-width="2" d="M870.76,-345.63C845.85,-333.56 814.57,-318.39 788.21,-305.61"/>
<polygon fill="black" stroke="black" stroke-width="2" points="789.64,-302.41 779.11,-301.2 786.58,-308.71 789.64,-302.41"/>
</g>
<!-- 45586 -->
<g id="node4" class="node">
<title>45586</title>
<ellipse fill="none" stroke="red" stroke-width="2" cx="378.03" cy="-457.83" rx="78.48" ry="26.74"/>
<text text-anchor="middle" x="378.03" y="-461.63" font-family="Times,serif" font-size="14.00">sort</text>
<text text-anchor="middle" x="378.03" y="-446.63" font-family="Times,serif" font-size="14.00">49153:65536</text>
</g>
<!-- 45591 -->
<g id="node11" class="node">
<title>45591</title>
<ellipse fill="none" stroke="red" stroke-width="2" cx="466.03" cy="-368.09" rx="78.48" ry="26.74"/>
<text text-anchor="middle" x="466.03" y="-371.89" font-family="Times,serif" font-size="14.00">merge</text>
<text text-anchor="middle" x="466.03" y="-356.89" font-family="Times,serif" font-size="14.00">32769:65536</text>
</g>
<!-- 45586&#45;&gt;45591 -->
<g id="edge13" class="edge">
<title>45586&#45;&gt;45591</title>
<path fill="none" stroke="red" stroke-width="2" d="M403.01,-431.92C412.66,-422.3 423.83,-411.17 434.05,-400.98"/>
<polygon fill="red" stroke="red" stroke-width="2" points="436.68,-403.3 441.29,-393.76 431.74,-398.34 436.68,-403.3"/>
</g>
<!-- 45588 -->
<g id="node5" class="node">
<title>45588</title>
<ellipse fill="none" stroke="black" stroke-width="2" cx="915.03" cy="-457.83" rx="78.48" ry="26.74"/>
<text text-anchor="middle" x="915.03" y="-461.63" font-family="Times,serif" font-size="14.00">sort</text>
<text text-anchor="middle" x="915.03" y="-446.63" font-family="Times,serif" font-size="14.00">81921:98304</text>
</g>
<!-- 45588&#45;&gt;45592 -->
<g id="edge3" class="edge">
<title>45588&#45;&gt;45592</title>
<path fill="none" stroke="black" stroke-width="2" d="M915.03,-430.51C915.03,-422.54 915.03,-413.65 915.03,-405.16"/>
<polygon fill="black" stroke="black" stroke-width="2" points="918.53,-405.09 915.03,-395.09 911.53,-405.09 918.53,-405.09"/>
</g>
<!-- 45587 -->
<g id="node6" class="node">
<title>45587</title>
<ellipse fill="none" stroke="black" stroke-width="2" cx="1090.03" cy="-457.83" rx="78.48" ry="26.74"/>
<text text-anchor="middle" x="1090.03" y="-461.63" font-family="Times,serif" font-size="14.00">sort</text>
<text text-anchor="middle" x="1090.03" y="-446.63" font-family="Times,serif" font-size="14.00">65537:81920</text>
</g>
<!-- 45587&#45;&gt;45592 -->
<g id="edge4" class="edge">
<title>45587&#45;&gt;45592</title>
<path fill="none" stroke="black" stroke-width="2" d="M1046.77,-435.14C1022.71,-423.07 992.58,-407.97 967.21,-395.25"/>
<polygon fill="black" stroke="black" stroke-width="2" points="968.6,-392.03 958.1,-390.68 965.47,-398.29 968.6,-392.03"/>
</g>
<!-- 45583 -->
<g id="node7" class="node">
<title>45583</title>
<ellipse fill="none" stroke="black" stroke-width="2" cx="53.03" cy="-457.83" rx="53.07" ry="26.74"/>
<text text-anchor="middle" x="53.03" y="-461.63" font-family="Times,serif" font-size="14.00">sort</text>
<text text-anchor="middle" x="53.03" y="-446.63" font-family="Times,serif" font-size="14.00">1:16384</text>
</g>
<!-- 45590 -->
<g id="node8" class="node">
<title>45590</title>
<ellipse fill="none" stroke="black" stroke-width="2" cx="203.03" cy="-368.09" rx="53.07" ry="26.74"/>
<text text-anchor="middle" x="203.03" y="-371.89" font-family="Times,serif" font-size="14.00">merge</text>
<text text-anchor="middle" x="203.03" y="-356.89" font-family="Times,serif" font-size="14.00">1:32768</text>
</g>
<!-- 45583&#45;&gt;45590 -->
<g id="edge5" class="edge">
<title>45583&#45;&gt;45590</title>
<path fill="none" stroke="black" stroke-width="2" d="M87.07,-436.92C108.84,-424.19 137.25,-407.57 160.5,-393.97"/>
<polygon fill="black" stroke="black" stroke-width="2" points="162.27,-396.99 169.13,-388.92 158.73,-390.95 162.27,-396.99"/>
</g>
<!-- 45594 -->
<g id="node10" class="node">
<title>45594</title>
<ellipse fill="none" stroke="red" stroke-width="2" cx="466.03" cy="-278.35" rx="53.07" ry="26.74"/>
<text text-anchor="middle" x="466.03" y="-282.15" font-family="Times,serif" font-size="14.00">merge</text>
<text text-anchor="middle" x="466.03" y="-267.15" font-family="Times,serif" font-size="14.00">1:65536</text>
</g>
<!-- 45590&#45;&gt;45594 -->
<g id="edge8" class="edge">
<title>45590&#45;&gt;45594</title>
<path fill="none" stroke="black" stroke-width="2" d="M246.46,-352.6C292.05,-337.39 363.78,-313.46 412.76,-297.12"/>
<polygon fill="black" stroke="black" stroke-width="2" points="414.16,-300.35 422.54,-293.86 411.95,-293.7 414.16,-300.35"/>
</g>
<!-- 45584 -->
<g id="node9" class="node">
<title>45584</title>
<ellipse fill="none" stroke="black" stroke-width="2" cx="203.03" cy="-457.83" rx="78.48" ry="26.74"/>
<text text-anchor="middle" x="203.03" y="-461.63" font-family="Times,serif" font-size="14.00">sort</text>
<text text-anchor="middle" x="203.03" y="-446.63" font-family="Times,serif" font-size="14.00">16385:32768</text>
</g>
<!-- 45584&#45;&gt;45590 -->
<g id="edge6" class="edge">
<title>45584&#45;&gt;45590</title>
<path fill="none" stroke="black" stroke-width="2" d="M203.03,-430.51C203.03,-422.54 203.03,-413.65 203.03,-405.16"/>
<polygon fill="black" stroke="black" stroke-width="2" points="206.53,-405.09 203.03,-395.09 199.53,-405.09 206.53,-405.09"/>
</g>
<!-- 45594&#45;&gt;45596 -->
<g id="edge11" class="edge">
<title>45594&#45;&gt;45596</title>
<path fill="none" stroke="red" stroke-width="2" d="M489.68,-254.3C500.27,-243.97 512.93,-231.63 524.33,-220.52"/>
<polygon fill="red" stroke="red" stroke-width="2" points="526.89,-222.91 531.6,-213.43 522,-217.9 526.89,-222.91"/>
</g>
<!-- 45591&#45;&gt;45594 -->
<g id="edge7" class="edge">
<title>45591&#45;&gt;45594</title>
<path fill="none" stroke="red" stroke-width="2" d="M466.03,-340.77C466.03,-332.8 466.03,-323.91 466.03,-315.42"/>
<polygon fill="red" stroke="red" stroke-width="2" points="469.53,-315.35 466.03,-305.35 462.53,-315.35 469.53,-315.35"/>
</g>
<!-- 45589 -->
<g id="node12" class="node">
<title>45589</title>
<ellipse fill="none" stroke="black" stroke-width="2" cx="734.03" cy="-457.83" rx="84.71" ry="26.74"/>
<text text-anchor="middle" x="734.03" y="-461.63" font-family="Times,serif" font-size="14.00">sort</text>
<text text-anchor="middle" x="734.03" y="-446.63" font-family="Times,serif" font-size="14.00">98305:100000</text>
</g>
<!-- 45589&#45;&gt;45593 -->
<g id="edge9" class="edge">
<title>45589&#45;&gt;45593</title>
<path fill="none" stroke="black" stroke-width="2" d="M734.03,-430.51C734.03,-422.54 734.03,-413.65 734.03,-405.16"/>
<polygon fill="black" stroke="black" stroke-width="2" points="737.53,-405.09 734.03,-395.09 730.53,-405.09 737.53,-405.09"/>
</g>
<!-- 45598 -->
<g id="node14" class="node">
<title>45598</title>
<ellipse fill="none" stroke="black" stroke-width="2" cx="488.03" cy="-98.87" rx="59.29" ry="26.74"/>
<text text-anchor="middle" x="488.03" y="-102.67" font-family="Times,serif" font-size="14.00">merge B</text>
<text text-anchor="middle" x="488.03" y="-87.67" font-family="Times,serif" font-size="14.00">1:100000</text>
</g>
<!-- 45596&#45;&gt;45598 -->
<g id="edge12" class="edge">
<title>45596&#45;&gt;45598</title>
<path fill="none" stroke="black" stroke-width="2" d="M536.73,-162.7C529.49,-153.36 521.15,-142.6 513.44,-132.65"/>
<polygon fill="black" stroke="black" stroke-width="2" points="516.04,-130.3 507.15,-124.54 510.51,-134.58 516.04,-130.3"/>
</g>
<!-- 45597 -->
<g id="node16" class="node">
<title>45597</title>
<ellipse fill="none" stroke="red" stroke-width="2" cx="625.03" cy="-98.87" rx="59.29" ry="26.74"/>
<text text-anchor="middle" x="625.03" y="-102.67" font-family="Times,serif" font-size="14.00">merge A</text>
<text text-anchor="middle" x="625.03" y="-87.67" font-family="Times,serif" font-size="14.00">1:100000</text>
</g>
<!-- 45596&#45;&gt;45597 -->
<g id="edge15" class="edge">
<title>45596&#45;&gt;45597</title>
<path fill="none" stroke="red" stroke-width="2" d="M575.25,-163.17C582.74,-153.65 591.43,-142.59 599.44,-132.41"/>
<polygon fill="red" stroke="red" stroke-width="2" points="602.25,-134.51 605.68,-124.48 596.74,-130.18 602.25,-134.51"/>
</g>
<!-- 45599 -->
<g id="node17" class="node">
<title>45599</title>
<ellipse fill="none" stroke="red" stroke-width="2" cx="556.03" cy="-18" rx="38.19" ry="18"/>
<text text-anchor="middle" x="556.03" y="-14.3" font-family="Times,serif" font-size="14.00">result</text>
</g>
<!-- 45598&#45;&gt;45599 -->
<g id="edge17" class="edge">
<title>45598&#45;&gt;45599</title>
<path fill="none" stroke="black" stroke-width="2" d="M509.18,-73.35C517.58,-63.6 527.22,-52.42 535.56,-42.75"/>
<polygon fill="black" stroke="black" stroke-width="2" points="538.32,-44.9 542.2,-35.04 533.02,-40.33 538.32,-44.9"/>
</g>
<!-- 45585 -->
<g id="node15" class="node">
<title>45585</title>
<ellipse fill="none" stroke="black" stroke-width="2" cx="553.03" cy="-457.83" rx="78.48" ry="26.74"/>
<text text-anchor="middle" x="553.03" y="-461.63" font-family="Times,serif" font-size="14.00">sort</text>
<text text-anchor="middle" x="553.03" y="-446.63" font-family="Times,serif" font-size="14.00">32769:49152</text>
</g>
<!-- 45585&#45;&gt;45591 -->
<g id="edge14" class="edge">
<title>45585&#45;&gt;45591</title>
<path fill="none" stroke="black" stroke-width="2" d="M528.34,-431.92C518.79,-422.3 507.76,-411.17 497.65,-400.98"/>
<polygon fill="black" stroke="black" stroke-width="2" points="500.02,-398.39 490.49,-393.76 495.05,-403.32 500.02,-398.39"/>
</g>
<!-- 45597&#45;&gt;45599 -->
<g id="edge16" class="edge">
<title>45597&#45;&gt;45599</title>
<path fill="none" stroke="red" stroke-width="2" d="M603.58,-73.35C595.05,-63.6 585.27,-52.42 576.81,-42.75"/>
<polygon fill="red" stroke="red" stroke-width="2" points="579.29,-40.26 570.07,-35.04 574.02,-44.87 579.29,-40.26"/>
</g>
</g>
</svg>
